<?xml version="1.0" encoding="utf-8"?>
<!-- Generator: Adobe Illustrator 16.0.0, SVG Export Plug-In . SVG Version: 6.00 Build 0)  -->
<!DOCTYPE svg PUBLIC "-//W3C//DTD SVG 1.1//EN" "http://www.w3.org/Graphics/SVG/1.1/DTD/svg11.dtd">
<svg version="1.1" id="Layer_1" xmlns="http://www.w3.org/2000/svg" xmlns:xlink="http://www.w3.org/1999/xlink" x="0px" y="0px"
	 width="425.2px" height="850.39px" viewBox="0 0 425.2 850.39" enable-background="new 0 0 425.2 850.39" xml:space="preserve">
<g>
	<path fill="#201813" d="M272.797,786.981c-0.133-3.25-3.502-8.796-3.502-8.796c-0.512-6.981,3.831-41.24,8.703-60.143
		c-11.178,0.497-22.362,0.869-33.552,1.147c0.72,19.3-0.704,39.874-0.965,42.36c-0.382,3.632-4.018,7.266-5.93,15.49
		c-1.914,8.226,4.208,11.474,2.104,24.475c-2.104,13.001-3.061,37.866,4.015,39.013c7.076,1.146,8.796-2.103,8.796-2.103
		c7.076,0.574,27.346,0.191,30.79-3.825c3.443-4.015-8.224-32.32-9.37-36.336C272.739,794.249,272.931,790.232,272.797,786.981z"/>
</g>
<g>
	<path fill="#201813" d="M189.357,777.041c-1.913-8.225-5.548-11.858-5.929-15.49c-0.258-2.452-1.645-22.507-0.992-41.576
		c-11.012,0.038-22.024,0.04-33.034,0.035c4.668,19.221,8.705,51.43,8.211,58.176c0,0-3.368,5.546-3.502,8.796
		c-0.133,3.251,0.059,7.268-1.088,11.283s-12.814,32.321-9.371,36.336c3.443,4.017,23.713,4.399,30.789,3.825
		c0,0,1.721,3.249,8.796,2.103c7.076-1.146,6.12-26.012,4.017-39.013C185.149,788.515,191.271,785.267,189.357,777.041z"/>
</g>
</svg>
