<?xml version="1.0" encoding="UTF-8" standalone="no"?>
<!-- Created with Inkscape (http://www.inkscape.org/) -->

<svg
   xmlns:dc="http://purl.org/dc/elements/1.1/"
   xmlns:cc="http://creativecommons.org/ns#"
   xmlns:rdf="http://www.w3.org/1999/02/22-rdf-syntax-ns#"
   xmlns:svg="http://www.w3.org/2000/svg"
   xmlns="http://www.w3.org/2000/svg"
   xmlns:sodipodi="http://sodipodi.sourceforge.net/DTD/sodipodi-0.dtd"
   xmlns:inkscape="http://www.inkscape.org/namespaces/inkscape"
   width="412.75049mm"
   height="328.08334mm"
   viewBox="0 0 412.75049 328.08334"
   version="1.1"
   id="svg931"
   inkscape:version="0.92.3 (2405546, 2018-03-11)"
   sodipodi:docname="rain04.svg">
  <defs
     id="defs925" />
  <sodipodi:namedview
     id="base"
     pagecolor="#ffffff"
     bordercolor="#666666"
     borderopacity="1.0"
     inkscape:pageopacity="0.0"
     inkscape:pageshadow="2"
     inkscape:zoom="0.7"
     inkscape:cx="245.01235"
     inkscape:cy="916.94221"
     inkscape:document-units="mm"
     inkscape:current-layer="layer1"
     showgrid="false"
     fit-margin-top="0"
     fit-margin-left="0"
     fit-margin-right="0"
     fit-margin-bottom="0"
     inkscape:window-width="1920"
     inkscape:window-height="986"
     inkscape:window-x="-11"
     inkscape:window-y="-11"
     inkscape:window-maximized="1" />
  <metadata
     id="metadata928">
    <rdf:RDF>
      <cc:Work
         rdf:about="">
        <dc:format>image/svg+xml</dc:format>
        <dc:type
           rdf:resource="http://purl.org/dc/dcmitype/StillImage" />
        <dc:title></dc:title>
      </cc:Work>
    </rdf:RDF>
  </metadata>
  <g
     inkscape:label="Layer 1"
     inkscape:groupmode="layer"
     id="layer1"
     transform="translate(136.82762,15.964284)">
    <g
       id="g2384"
       transform="matrix(0.91105068,0,0,0.87504911,-235.08227,-136.77406)">
      <path
         style="fill:#fed7c1;stroke-width:0.12016394"
         d="M 106.7963,324.6778 V 134.93375 H 335.09394 563.39158 V 324.6778 514.42185 H 335.09394 106.7963 Z"
         id="path2412"
         inkscape:connector-curvature="0" />
      <path
         style="fill:#fdceb4;stroke-width:0.12016394"
         d="M 106.7963,324.6778 V 134.93375 H 335.09394 563.39158 V 324.6778 514.42185 H 335.09394 106.7963 Z m 35.00772,39.45872 c 0.40073,-0.16779 0.91546,-0.69939 1.14127,-1.17868 0.23681,-0.50266 0.51893,-2.68761 0.42659,-3.30389 -0.0417,-0.27829 -0.17843,-0.74907 -0.30385,-1.04617 -0.57864,-1.37074 -2.39521,-2.31075 -3.37759,-1.74778 -1.04158,0.59688 -3.15986,4.12593 -2.94072,4.89921 0.0268,0.0944 0.0786,0.32382 0.11523,0.50978 0.0858,0.43562 0.5702,1.0716 1.00683,1.32181 0.44207,0.25333 2.25701,0.65587 3.01905,0.66959 0.32552,0.006 0.73645,-0.0499 0.91319,-0.12387 z"
         id="path2410"
         inkscape:connector-curvature="0" />
      <path
         style="fill:#efd965;stroke-width:0.12016394"
         d="m 106.7963,460.31079 v -54.11104 l 0.82758,0.0396 c 0.72926,0.0349 8.72856,-0.78503 12.8132,-1.31336 0.81617,-0.10558 1.94624,-0.16622 2.51128,-0.13477 1.03807,0.0578 1.19649,0.10825 3.76691,1.20029 l 0.79904,0.33947 12.67052,0.0633 12.67052,0.0632 3.02494,0.6755 c 3.99605,0.89235 3.70575,0.91459 8.44702,-0.64708 l 3.70983,-1.22194 8.11751,-1.07959 c 8.49872,-1.1303 8.40575,-1.12214 16.59571,-1.458 10.82766,-0.44401 11.50926,-0.48425 11.92708,-0.70396 0.72436,-0.38092 1.09169,-1.268 0.92726,-2.2393 -0.093,-0.54958 -1.10082,-1.90519 -2.09719,-2.821 -0.96109,-0.88338 -2.52728,-1.73924 -3.79244,-2.07242 -0.96396,-0.25385 -1.69356,-0.30617 -8.71678,-0.62505 -1.73446,-0.0788 -2.28874,-0.14412 -2.36383,-0.27876 -0.0539,-0.0967 -0.0611,-0.21684 -0.016,-0.2669 0.0452,-0.05 1.69687,-0.43199 3.67045,-0.84877 2.47108,-0.52184 3.67908,-0.83114 3.8798,-0.99343 0.44762,-0.36193 0.7292,-1.08896 0.63822,-1.64792 -0.11628,-0.71441 -1.31469,-1.91385 -2.62391,-2.62615 -1.3198,-0.71807 -2.22656,-0.96486 -3.66138,-0.99652 -1.19045,-0.0263 -1.42406,-0.0902 -1.42406,-0.3896 0,-0.42963 -0.31615,-0.8461 -1.13614,-1.49669 -1.18309,-0.93866 -2.02661,-1.25176 -3.54396,-1.31547 -1.13821,-0.0478 -1.42848,0.001 -5.76452,0.9767 -2.51127,0.56486 -4.92552,1.13273 -5.36499,1.26193 -0.94431,0.27761 -8.20227,1.90764 -12.09978,2.71742 -1.50676,0.31307 -4.10079,0.85972 -5.76451,1.21478 -3.30071,0.70445 -5.12644,0.89939 -5.88783,0.62869 -1.08985,-0.38748 -3.3733,-2.20202 -4.80478,-3.81812 -1.03001,-1.16285 -3.44276,-4.63408 -3.87384,-5.5733 -0.79468,-1.73144 -0.82021,-3.8886 -0.067,-5.66348 0.1327,-0.31271 0.62307,-1.2979 1.0897,-2.18929 1.91902,-3.66586 2.94265,-7.66137 2.97154,-11.59873 0.0134,-1.82728 0.0119,-1.83823 -0.35751,-2.67192 -0.43969,-0.99217 -1.15458,-1.76849 -2.06323,-2.24053 -0.55898,-0.29038 -0.79652,-0.33653 -1.73223,-0.33653 -0.84748,0 -1.17097,0.0522 -1.48059,0.23906 -0.73782,0.4452 -1.51993,1.51993 -2.50857,3.44717 -3.4587,6.74225 -6.82718,12.46012 -8.41251,14.27993 -0.30482,0.34991 -1.3659,1.25112 -2.35795,2.00269 -0.99205,0.75156 -2.32759,1.8267 -2.96787,2.38918 -1.50835,1.32508 -3.78548,3.85365 -4.98403,5.53435 -0.52094,0.73051 -1.05602,1.39315 -1.18906,1.47253 -0.22908,0.13666 -2.79531,0.47982 -6.05809,0.8101 -1.74938,0.17709 -2.35997,0.35816 -3.10472,0.92077 -0.30439,0.22994 -0.61765,0.46046 -0.69612,0.51224 -0.11411,0.0753 -0.14269,-25.22799 -0.14269,-126.34608 V 134.93375 H 335.09394 563.39158 V 324.6778 514.42185 H 335.09394 106.7963 Z"
         id="path2408"
         inkscape:connector-curvature="0" />
      <path
         style="fill:#dab199;stroke-width:0.12016394"
         d="m 106.7963,460.31079 v -54.11104 l 0.82758,0.0396 c 0.72926,0.0349 8.72856,-0.78503 12.8132,-1.31336 0.81617,-0.10558 1.94624,-0.16622 2.51128,-0.13477 1.03807,0.0578 1.19649,0.10825 3.76691,1.20029 l 0.79904,0.33947 12.67052,0.0633 12.67052,0.0632 3.02494,0.6755 c 3.99605,0.89235 3.70575,0.91459 8.44702,-0.64708 l 3.70983,-1.22194 8.11751,-1.07959 c 8.49872,-1.1303 8.40575,-1.12214 16.59571,-1.458 10.82766,-0.44401 11.50926,-0.48425 11.92708,-0.70396 0.72436,-0.38092 1.09169,-1.268 0.92726,-2.2393 -0.093,-0.54958 -1.10082,-1.90519 -2.09719,-2.821 -0.96109,-0.88338 -2.52728,-1.73924 -3.79244,-2.07242 -0.96396,-0.25385 -1.69356,-0.30617 -8.71678,-0.62505 -1.73446,-0.0788 -2.28874,-0.14412 -2.36383,-0.27876 -0.0539,-0.0967 -0.0611,-0.21684 -0.016,-0.2669 0.0452,-0.05 1.69687,-0.43199 3.67045,-0.84877 2.47108,-0.52184 3.67908,-0.83114 3.8798,-0.99343 0.44762,-0.36193 0.7292,-1.08896 0.63822,-1.64792 -0.11628,-0.71441 -1.31469,-1.91385 -2.62391,-2.62615 -1.3198,-0.71807 -2.22656,-0.96486 -3.66138,-0.99652 -1.19045,-0.0263 -1.42406,-0.0902 -1.42406,-0.3896 0,-0.42963 -0.31615,-0.8461 -1.13614,-1.49669 -1.18309,-0.93866 -2.02661,-1.25176 -3.54396,-1.31547 -1.13821,-0.0478 -1.42848,0.001 -5.76452,0.9767 -2.51127,0.56486 -4.92552,1.13273 -5.36499,1.26193 -0.94431,0.27761 -8.20227,1.90764 -12.09978,2.71742 -1.50676,0.31307 -4.10079,0.85972 -5.76451,1.21478 -3.30071,0.70445 -5.12644,0.89939 -5.88783,0.62869 -1.08985,-0.38748 -3.3733,-2.20202 -4.80478,-3.81812 -1.03001,-1.16285 -3.44276,-4.63408 -3.87384,-5.5733 -0.79468,-1.73144 -0.82021,-3.8886 -0.067,-5.66348 0.1327,-0.31271 0.62307,-1.2979 1.0897,-2.18929 1.91902,-3.66586 2.94265,-7.66137 2.97154,-11.59873 0.0134,-1.82728 0.0119,-1.83823 -0.35751,-2.67192 -0.43969,-0.99217 -1.15458,-1.76849 -2.06323,-2.24053 -0.55898,-0.29038 -0.79652,-0.33653 -1.73223,-0.33653 -0.84748,0 -1.17097,0.0522 -1.48059,0.23906 -0.73782,0.4452 -1.51993,1.51993 -2.50857,3.44717 -3.4587,6.74225 -6.82718,12.46012 -8.41251,14.27993 -0.30482,0.34991 -1.3659,1.25112 -2.35795,2.00269 -0.99205,0.75156 -2.32759,1.8267 -2.96787,2.38918 -1.50835,1.32508 -3.78548,3.85365 -4.98403,5.53435 -0.52094,0.73051 -1.05602,1.39315 -1.18906,1.47253 -0.22908,0.13666 -2.79531,0.47982 -6.05809,0.8101 -1.74938,0.17709 -2.35997,0.35816 -3.10472,0.92077 -0.30439,0.22994 -0.61765,0.46046 -0.69612,0.51224 -0.11411,0.0753 -0.14269,-25.22799 -0.14269,-126.34608 V 134.93375 H 335.09394 563.39158 V 324.6778 514.42185 h -34.26277 -34.26278 l 0.0675,-6.94704 c 0.0585,-6.02718 0.0454,-6.95643 -0.0995,-7.01803 -0.10318,-0.0439 -0.20745,0.0368 -0.2729,0.21112 -0.0943,0.25117 -0.45133,5.20708 -0.79949,11.09753 -0.0679,1.14795 -0.14814,2.21527 -0.17842,2.3718 l -0.0551,0.28462 H 300.16222 106.7963 Z m 72.47777,30.63828 0.27865,-0.87771 0.0806,-9.10771 c 0.0444,-5.00924 0.11177,-10.34752 0.14979,-11.86281 0.0611,-2.43303 0.0482,-2.76402 -0.11012,-2.83134 -0.0986,-0.0419 -0.22382,-0.026 -0.27827,0.0354 -0.23752,0.26795 -1.24582,17.12112 -1.28947,21.55275 -0.0197,2.00528 0.008,2.43974 0.19181,3.03591 0.39976,1.29439 0.58039,1.30465 0.97697,0.0555 z"
         id="path2406"
         inkscape:connector-curvature="0" />
      <path
         style="fill:#e07d86;stroke-width:0.12016394"
         d="m 106.7963,460.33474 v -54.0871 l 0.37098,0.0979 c 0.20404,0.0538 0.57646,0.0855 0.82758,0.0704 0.68109,-0.0409 9.91134,-1.01792 10.90121,-1.15386 2.15744,-0.29631 3.67775,-0.41233 4.35306,-0.33218 0.68661,0.0815 1.5317,0.37153 3.46614,1.18963 l 0.79904,0.33794 12.72759,0.0661 12.7276,0.0661 2.91079,0.67084 c 3.93641,0.9072 3.75329,0.9213 8.50409,-0.65484 l 3.65276,-1.21184 8.13975,-1.084 c 8.95327,-1.19232 7.55808,-1.08283 20.93104,-1.64279 5.76182,-0.24125 7.33522,-0.34288 7.5909,-0.49025 1.06464,-0.61369 1.39192,-1.99758 0.73932,-3.12622 -0.72753,-1.25824 -2.2138,-2.67671 -3.61296,-3.44812 -1.80281,-0.99398 -2.57785,-1.12009 -8.27579,-1.34666 -3.80723,-0.15139 -4.6801,-0.22249 -4.6801,-0.38118 0,-0.13563 0.47205,-0.25253 4.0786,-1.01002 1.74324,-0.36615 3.11709,-0.71813 3.28836,-0.84249 0.34928,-0.25361 0.73761,-1.04497 0.73761,-1.50315 0,-1.24331 -2.24232,-3.15885 -4.45181,-3.80304 -0.42492,-0.12389 -1.25,-0.22724 -1.93091,-0.24185 l -1.18894,-0.0255 -0.25174,-0.62123 c -0.21064,-0.51979 -0.39858,-0.72927 -1.15111,-1.28306 -1.27983,-0.94182 -1.98994,-1.19154 -3.58186,-1.25956 -1.42346,-0.0608 -1.52892,-0.0391 -14.55398,2.99391 -5.57974,1.29931 -17.75037,3.81951 -18.77748,3.88831 -1.17877,0.079 -1.64625,-0.05 -2.68568,-0.74072 -2.21581,-1.47249 -3.84218,-3.18377 -5.84265,-6.14771 -1.93084,-2.86076 -2.28662,-3.80652 -2.17223,-5.77428 0.0745,-1.28053 0.29762,-1.92986 1.38966,-4.04315 1.88439,-3.64667 2.79483,-6.69192 3.15604,-10.55642 0.26885,-2.87644 -0.0449,-4.35472 -1.18912,-5.60203 -0.82394,-0.89821 -1.64224,-1.28839 -2.84274,-1.35545 -0.90232,-0.0504 -1.05637,-0.0239 -1.61058,0.27654 -0.93034,0.50441 -1.61653,1.41839 -2.81272,3.74644 -3.53088,6.87191 -7.0683,12.8173 -8.48027,14.25289 -0.26479,0.26922 -1.27763,1.09738 -2.25075,1.84034 -0.97311,0.74297 -2.25729,1.78154 -2.85372,2.30791 -1.48033,1.30649 -3.67996,3.74723 -4.98816,5.53495 -0.88351,1.20735 -1.15203,1.49523 -1.44447,1.54863 -0.36587,0.0668 -3.47605,0.4365 -5.95251,0.70756 -1.81668,0.19887 -2.24762,0.36544 -3.45301,1.33469 l -0.25683,0.20652 V 261.31872 134.93375 H 335.09394 563.39158 V 324.6778 514.42185 h -34.26277 -34.26278 l 0.0675,-6.94704 c 0.0585,-6.02718 0.0454,-6.95643 -0.0995,-7.01803 -0.10318,-0.0439 -0.20745,0.0368 -0.2729,0.21112 -0.0943,0.25117 -0.45133,5.20708 -0.79949,11.09753 -0.0679,1.14795 -0.14814,2.21527 -0.17842,2.3718 l -0.0551,0.28462 H 300.16222 106.7963 Z m 72.47777,30.61433 0.27865,-0.87771 0.0806,-9.10771 c 0.0444,-5.00924 0.11177,-10.34752 0.14979,-11.86281 0.0611,-2.43303 0.0482,-2.76402 -0.11012,-2.83134 -0.0986,-0.0419 -0.22382,-0.026 -0.27827,0.0354 -0.23752,0.26795 -1.24582,17.12112 -1.28947,21.55275 -0.0197,2.00528 0.008,2.43974 0.19181,3.03591 0.39976,1.29439 0.58039,1.30465 0.97697,0.0555 z m 253.04246,-93.03007 0.25433,-0.69572 -0.0254,-8.5912 c -0.0199,-6.71757 -0.0564,-8.60264 -0.16743,-8.64364 -0.0781,-0.0288 -0.18723,0.0803 -0.24252,0.24246 -0.1996,0.58552 -1.02466,12.61178 -1.06162,15.47442 -0.019,1.47392 0.006,1.71399 0.24385,2.31496 0.35704,0.90309 0.64227,0.87417 0.99884,-0.10128 z"
         id="path2404"
         inkscape:connector-curvature="0" />
      <path
         style="fill:#db8e6e;stroke-width:0.12016394"
         d="m 106.7963,460.33474 v -54.0871 l 0.37098,0.0979 c 0.20404,0.0538 0.57646,0.0855 0.82758,0.0704 0.68109,-0.0409 9.91134,-1.01792 10.90121,-1.15386 2.15744,-0.29631 3.67775,-0.41233 4.35306,-0.33218 0.68661,0.0815 1.5317,0.37153 3.46614,1.18963 l 0.79904,0.33794 12.72759,0.0661 12.7276,0.0661 2.91079,0.67084 c 3.93641,0.9072 3.75329,0.9213 8.50409,-0.65484 l 3.65276,-1.21184 8.13975,-1.084 c 8.95327,-1.19232 7.55808,-1.08283 20.93104,-1.64279 5.76182,-0.24125 7.33522,-0.34288 7.5909,-0.49025 1.06464,-0.61369 1.39192,-1.99758 0.73932,-3.12622 -0.72753,-1.25824 -2.2138,-2.67671 -3.61296,-3.44812 -1.80281,-0.99398 -2.57785,-1.12009 -8.27579,-1.34666 -3.80723,-0.15139 -4.6801,-0.22249 -4.6801,-0.38118 0,-0.13563 0.47205,-0.25253 4.0786,-1.01002 1.74324,-0.36615 3.11709,-0.71813 3.28836,-0.84249 0.34928,-0.25361 0.73761,-1.04497 0.73761,-1.50315 0,-1.24331 -2.24232,-3.15885 -4.45181,-3.80304 -0.42492,-0.12389 -1.25,-0.22724 -1.93091,-0.24185 l -1.18894,-0.0255 -0.25174,-0.62123 c -0.21064,-0.51979 -0.39858,-0.72927 -1.15111,-1.28306 -1.27983,-0.94182 -1.98994,-1.19154 -3.58186,-1.25956 -1.42346,-0.0608 -1.52892,-0.0391 -14.55398,2.99391 -5.57974,1.29931 -17.75037,3.81951 -18.77748,3.88831 -1.17877,0.079 -1.64625,-0.05 -2.68568,-0.74072 -2.21581,-1.47249 -3.84218,-3.18377 -5.84265,-6.14771 -1.93084,-2.86076 -2.28662,-3.80652 -2.17223,-5.77428 0.0745,-1.28053 0.29762,-1.92986 1.38966,-4.04315 1.88439,-3.64667 2.79483,-6.69192 3.15604,-10.55642 0.26885,-2.87644 -0.0449,-4.35472 -1.18912,-5.60203 -0.82394,-0.89821 -1.64224,-1.28839 -2.84274,-1.35545 -0.90232,-0.0504 -1.05637,-0.0239 -1.61058,0.27654 -0.93034,0.50441 -1.61653,1.41839 -2.81272,3.74644 -3.53088,6.87191 -7.0683,12.8173 -8.48027,14.25289 -0.26479,0.26922 -1.27763,1.09738 -2.25075,1.84034 -0.97311,0.74297 -2.25729,1.78154 -2.85372,2.30791 -1.48033,1.30649 -3.67996,3.74723 -4.98816,5.53495 -0.88351,1.20735 -1.15203,1.49523 -1.44447,1.54863 -0.36587,0.0668 -3.47605,0.4365 -5.95251,0.70756 -1.81668,0.19887 -2.24762,0.36544 -3.45301,1.33469 l -0.25683,0.20652 V 261.31872 134.93375 H 335.09394 563.39158 V 324.6778 514.42185 h -34.26277 -34.26278 l 0.0675,-6.94704 c 0.0585,-6.02718 0.0454,-6.95643 -0.0995,-7.01803 -0.10318,-0.0439 -0.20745,0.0368 -0.2729,0.21112 -0.0943,0.25117 -0.45133,5.20708 -0.79949,11.09753 -0.0679,1.14795 -0.14814,2.21527 -0.17842,2.3718 l -0.0551,0.28462 H 300.16222 106.7963 Z m 72.47777,30.61433 0.27865,-0.87771 0.0806,-9.10771 c 0.0444,-5.00924 0.11177,-10.34752 0.14979,-11.86281 0.0611,-2.43303 0.0482,-2.76402 -0.11012,-2.83134 -0.0986,-0.0419 -0.22382,-0.026 -0.27827,0.0354 -0.23752,0.26795 -1.24582,17.12112 -1.28947,21.55275 -0.0197,2.00528 0.008,2.43974 0.19181,3.03591 0.39976,1.29439 0.58039,1.30465 0.97697,0.0555 z m 281.54597,-17.49301 c 0.44596,-0.95568 0.52216,-2.09366 0.53244,-7.95121 0.005,-3.11632 0.0475,-8.19912 0.0934,-11.29511 0.0459,-3.09599 0.0616,-5.70023 0.0349,-5.7872 -0.0804,-0.26228 -0.35845,-0.17776 -0.41609,0.1265 -0.19089,1.00771 -1.00921,14.61967 -1.19596,19.89353 -0.0959,2.70704 -0.0495,3.64145 0.22814,4.59618 0.28888,0.99342 0.41925,1.06865 0.72319,0.41731 z m -28.50351,-75.53706 0.25433,-0.69572 -0.0254,-8.5912 c -0.0199,-6.71757 -0.0564,-8.60264 -0.16743,-8.64364 -0.0781,-0.0288 -0.18723,0.0803 -0.24252,0.24246 -0.1996,0.58552 -1.02466,12.61178 -1.06162,15.47442 -0.019,1.47392 0.006,1.71399 0.24385,2.31496 0.35704,0.90309 0.64227,0.87417 0.99884,-0.10128 z m -57.2558,-44.62147 c 0.24308,-0.82305 0.2552,-1.10713 0.33599,-7.87438 0.0461,-3.86129 0.11252,-9.20045 0.14764,-11.8648 0.0559,-4.24102 0.0424,-4.85337 -0.10802,-4.91734 -0.0945,-0.0402 -0.20096,-0.0408 -0.23652,-10e-4 -0.13475,0.14933 -0.78936,10.03532 -1.13221,17.09871 -0.27969,5.76214 -0.11531,8.41308 0.52166,8.41308 0.16972,0 0.27629,-0.19299 0.47146,-0.85384 z M 142.84697,340.32724 c 0.067,-0.0894 0.22253,-0.58748 0.34572,-1.10684 0.21014,-0.88597 0.23108,-1.65892 0.33904,-12.51866 0.0971,-9.7681 0.0906,-11.60249 -0.0417,-11.75442 -0.31348,-0.36003 -0.31483,-0.34827 -0.79123,6.88432 -0.7268,11.03403 -0.89476,16.27898 -0.56131,17.52836 0.29794,1.11638 0.44629,1.31864 0.70946,0.96724 z m 88.99492,-6.01195 c 0.32772,-1.05952 0.38943,-2.95629 0.45484,-13.97938 0.0611,-10.30505 0.0542,-10.85427 -0.13592,-10.81376 -0.2456,0.0523 -0.26045,0.19038 -0.65077,6.04794 -0.36775,5.51889 -0.588,9.533 -0.75691,13.79446 -0.12906,3.25605 -0.12578,3.39072 0.10728,4.41203 0.36639,1.60561 0.61011,1.73937 0.98148,0.53871 z m 234.61699,-62.4224 c 0.067,-0.0894 0.22253,-0.58749 0.34571,-1.10684 0.21015,-0.88598 0.23108,-1.65892 0.33905,-12.51867 0.0971,-9.7681 0.0906,-11.60248 -0.0417,-11.75441 -0.31349,-0.36004 -0.31483,-0.34827 -0.79123,6.88432 -0.72681,11.03403 -0.89477,16.27897 -0.56132,17.52836 0.29795,1.11638 0.4463,1.31863 0.70947,0.96724 z"
         id="path2402"
         inkscape:connector-curvature="0" />
      <path
         style="fill:#6687a3;stroke-width:0.12016394"
         d="m 106.7963,460.3448 c 0,-33.45669 0.0407,-54.07706 0.10672,-54.07706 0.0587,0 0.23396,0.0536 0.38947,0.11914 0.19802,0.0834 2.41508,-0.10882 7.39857,-0.64155 8.44798,-0.9031 8.90721,-0.91071 10.59735,-0.17566 2.32993,1.01331 1.11244,0.9355 14.78227,0.94465 l 12.21392,0.008 3.19617,0.69453 c 2.11699,0.46001 3.48523,0.69518 4.05228,0.69649 0.75186,0.002 1.32878,-0.1518 4.73718,-1.26061 l 3.88106,-1.26257 8.18347,-1.08158 8.18346,-1.08158 9.28131,-0.37939 c 5.10471,-0.20867 9.60052,-0.41116 9.99069,-0.44999 1.70709,-0.1699 2.51288,-1.84161 1.63071,-3.38312 -0.83066,-1.45147 -2.69853,-3.0891 -4.3377,-3.803 -1.40465,-0.61174 -2.04161,-0.70304 -6.27819,-0.89985 -4.67798,-0.21731 -5.70744,-0.29631 -5.70744,-0.43794 0,-0.15468 0.0511,-0.16765 3.51648,-0.89338 1.90159,-0.39824 3.36683,-0.76812 3.56095,-0.89895 0.70736,-0.4767 0.97754,-1.4865 0.62068,-2.31987 -0.26322,-0.6147 -1.62995,-1.82232 -2.70937,-2.39394 -1.13139,-0.59915 -2.10443,-0.85533 -3.44773,-0.90767 -0.62782,-0.0245 -1.17359,-0.0462 -1.21283,-0.0484 -0.0392,-0.002 -0.10404,-0.18501 -0.144,-0.40642 -0.15532,-0.86061 -1.81618,-2.10489 -3.43742,-2.57524 -1.43601,-0.41661 -2.27069,-0.31238 -8.10457,1.01212 -11.28167,2.56135 -13.31195,3.00923 -19.57652,4.31854 -7.7283,1.61522 -8.17015,1.65845 -9.3602,0.91568 -2.30787,-1.44048 -4.10549,-3.27466 -6.13076,-6.25546 -1.48977,-2.19264 -1.88176,-2.93391 -2.14598,-4.05806 -0.40631,-1.72864 -0.13395,-3.19596 0.99714,-5.37204 2.44284,-4.69974 3.423,-8.29248 3.44546,-12.62919 0.01,-1.90952 0.002,-1.97983 -0.31461,-2.69404 -0.41708,-0.94182 -1.2563,-1.8682 -2.09549,-2.31312 -0.93658,-0.49654 -2.36347,-0.58026 -3.1883,-0.18706 -0.92166,0.43939 -1.70398,1.45099 -2.84301,3.67627 -3.5085,6.85444 -7.25559,13.15293 -8.62586,14.49923 -0.15026,0.14763 -1.17897,0.96105 -2.28602,1.8076 -3.30356,2.52618 -5.65552,4.8778 -7.64,7.6389 -0.51002,0.70964 -1.0124,1.35804 -1.11639,1.44093 -0.10399,0.0829 -1.8585,0.35536 -3.89891,0.60546 -2.04041,0.25013 -3.9762,0.5386 -4.30175,0.64106 -0.32555,0.10246 -0.81353,0.37328 -1.08441,0.60181 -0.27088,0.22849 -0.55672,0.45901 -0.63519,0.51224 -0.11412,0.0774 -0.14269,-25.21134 -0.14269,-126.28023 v -126.377 H 335.09394 563.39158 V 324.6778 514.42185 h -34.18539 -34.1854 l -0.0643,-0.28462 c -0.0354,-0.15653 -0.0181,-3.21616 0.0384,-6.79916 0.0601,-3.81249 0.0606,-6.60637 10e-4,-6.73591 -0.1079,-0.23487 -0.38079,-0.29642 -0.48509,-0.10941 -0.0721,0.12923 -0.43406,5.04433 -0.69047,9.37524 -0.0968,1.63496 -0.20526,3.32843 -0.24104,3.76326 l -0.065,0.7906 H 300.15542 106.7963 Z m 72.40718,31.01501 c 0.42431,-1.27362 0.4333,-1.47493 0.53485,-11.97736 0.13878,-14.3541 0.14475,-13.15011 -0.0657,-13.23961 -0.0984,-0.0418 -0.23688,-0.0118 -0.30774,0.0667 -0.26663,0.29547 -1.33909,17.98863 -1.33955,22.09952 -1.1e-4,1.25171 0.0535,1.98342 0.18076,2.46668 0.35492,1.34762 0.67964,1.53778 0.99736,0.58405 z m 281.61656,-17.90375 c 0.44596,-0.95568 0.52216,-2.09366 0.53244,-7.95121 0.005,-3.11632 0.0475,-8.19912 0.0934,-11.29511 0.0459,-3.09599 0.0616,-5.70023 0.0349,-5.7872 -0.0804,-0.26228 -0.35845,-0.17776 -0.41609,0.1265 -0.19089,1.00771 -1.00921,14.61967 -1.19596,19.89353 -0.0959,2.70704 -0.0495,3.64145 0.22814,4.59618 0.28888,0.99342 0.41925,1.06865 0.72319,0.41731 z m 42.29171,-55.81335 0.27611,-0.81255 0.0849,-8.79147 c 0.0467,-4.83531 0.10878,-10.15764 0.13801,-11.82738 0.0292,-1.66975 0.0294,-3.10706 0,-3.19403 -0.0872,-0.26181 -0.36805,-0.17803 -0.4241,0.1265 -0.0288,0.15654 -0.0815,0.71154 -0.11707,1.23333 -0.72415,10.61879 -1.08002,17.17958 -1.10812,20.42911 -0.0127,1.47168 0.0282,2.06775 0.1826,2.65642 0.35202,1.34252 0.55911,1.38107 0.96722,0.18007 z m -70.79522,-19.72371 0.25433,-0.69572 -0.0254,-8.5912 c -0.0199,-6.71757 -0.0564,-8.60264 -0.16743,-8.64364 -0.0781,-0.0288 -0.18723,0.0803 -0.24252,0.24246 -0.1996,0.58552 -1.02466,12.61178 -1.06162,15.47442 -0.019,1.47392 0.006,1.71399 0.24385,2.31496 0.35704,0.90309 0.64227,0.87417 0.99884,-0.10128 z m -57.2558,-44.62147 c 0.24308,-0.82305 0.2552,-1.10713 0.33599,-7.87438 0.0461,-3.86129 0.11252,-9.20045 0.14764,-11.8648 0.0559,-4.24102 0.0424,-4.85337 -0.10802,-4.91734 -0.0945,-0.0402 -0.20096,-0.0408 -0.23652,-10e-4 -0.13475,0.14933 -0.78936,10.03532 -1.13221,17.09871 -0.27969,5.76214 -0.11531,8.41308 0.52166,8.41308 0.16972,0 0.27629,-0.19299 0.47146,-0.85384 z M 142.84697,340.32724 c 0.067,-0.0894 0.22253,-0.58748 0.34572,-1.10684 0.21014,-0.88597 0.23108,-1.65892 0.33904,-12.51866 0.0971,-9.7681 0.0906,-11.60249 -0.0417,-11.75442 -0.31348,-0.36003 -0.31483,-0.34827 -0.79123,6.88432 -0.7268,11.03403 -0.89476,16.27898 -0.56131,17.52836 0.29794,1.11638 0.44629,1.31864 0.70946,0.96724 z m 88.99492,-6.01195 c 0.32772,-1.05952 0.38943,-2.95629 0.45484,-13.97938 0.0611,-10.30505 0.0542,-10.85427 -0.13592,-10.81376 -0.2456,0.0523 -0.26045,0.19038 -0.65077,6.04794 -0.36775,5.51889 -0.588,9.533 -0.75691,13.79446 -0.12906,3.25605 -0.12578,3.39072 0.10728,4.41203 0.36639,1.60561 0.61011,1.73937 0.98148,0.53871 z m 234.61699,-62.4224 c 0.067,-0.0894 0.22253,-0.58749 0.34571,-1.10684 0.21015,-0.88598 0.23108,-1.65892 0.33905,-12.51867 0.0971,-9.7681 0.0906,-11.60248 -0.0417,-11.75441 -0.31349,-0.36004 -0.31483,-0.34827 -0.79123,6.88432 -0.72681,11.03403 -0.89477,16.27897 -0.56132,17.52836 0.29795,1.11638 0.4463,1.31863 0.70947,0.96724 z m -99.98327,-5.15995 0.27611,-0.81255 0.0849,-8.79147 c 0.0467,-4.83531 0.10879,-10.15763 0.13801,-11.82738 0.0292,-1.66975 0.0294,-3.10706 0,-3.19403 -0.0872,-0.26181 -0.36805,-0.17803 -0.4241,0.1265 -0.0288,0.15654 -0.0815,0.71154 -0.11707,1.23334 -0.72415,10.61878 -1.08002,17.17958 -1.10812,20.42911 -0.0127,1.47168 0.0282,2.06774 0.1826,2.65641 0.35202,1.34252 0.55911,1.38107 0.96722,0.18007 z m -98.0705,-93.37602 c 0.0639,-0.087 0.22753,-0.55658 0.36364,-1.04359 0.24185,-0.86536 0.24979,-1.12968 0.34976,-11.63764 0.0563,-5.91369 0.10438,-11.22178 0.10693,-11.79575 0.004,-0.82669 -0.0296,-1.04359 -0.15986,-1.04359 -0.0905,0 -0.19619,0.0568 -0.23494,0.12632 -0.21655,0.3883 -1.31076,18.96552 -1.31132,22.26347 0,1.20034 0.0804,1.73854 0.41208,2.75129 0.18462,0.56374 0.28138,0.64125 0.47371,0.37949 z"
         id="path2400"
         inkscape:connector-curvature="0" />
      <path
         style="fill:#9e6966;stroke-width:0.12016394"
         d="m 106.7963,460.3448 c 0,-33.45669 0.0407,-54.07706 0.10672,-54.07706 0.0587,0 0.23396,0.0536 0.38947,0.11914 0.19802,0.0834 2.41508,-0.10882 7.39857,-0.64155 8.44798,-0.9031 8.90721,-0.91071 10.59735,-0.17566 2.32993,1.01331 1.11244,0.9355 14.78227,0.94465 l 12.21392,0.008 3.19617,0.69453 c 2.11699,0.46001 3.48523,0.69518 4.05228,0.69649 0.75186,0.002 1.32878,-0.1518 4.73718,-1.26061 l 3.88106,-1.26257 8.18347,-1.08158 8.18346,-1.08158 9.28131,-0.37939 c 5.10471,-0.20867 9.60052,-0.41116 9.99069,-0.44999 1.70709,-0.1699 2.51288,-1.84161 1.63071,-3.38312 -0.83066,-1.45147 -2.69853,-3.0891 -4.3377,-3.803 -1.40465,-0.61174 -2.04161,-0.70304 -6.27819,-0.89985 -4.67798,-0.21731 -5.70744,-0.29631 -5.70744,-0.43794 0,-0.15468 0.0511,-0.16765 3.51648,-0.89338 1.90159,-0.39824 3.36683,-0.76812 3.56095,-0.89895 0.70736,-0.4767 0.97754,-1.4865 0.62068,-2.31987 -0.26322,-0.6147 -1.62995,-1.82232 -2.70937,-2.39394 -1.13139,-0.59915 -2.10443,-0.85533 -3.44773,-0.90767 -0.62782,-0.0245 -1.17359,-0.0462 -1.21283,-0.0484 -0.0392,-0.002 -0.10404,-0.18501 -0.144,-0.40642 -0.15532,-0.86061 -1.81618,-2.10489 -3.43742,-2.57524 -1.43601,-0.41661 -2.27069,-0.31238 -8.10457,1.01212 -11.28167,2.56135 -13.31195,3.00923 -19.57652,4.31854 -7.7283,1.61522 -8.17015,1.65845 -9.3602,0.91568 -2.30787,-1.44048 -4.10549,-3.27466 -6.13076,-6.25546 -1.48977,-2.19264 -1.88176,-2.93391 -2.14598,-4.05806 -0.40631,-1.72864 -0.13395,-3.19596 0.99714,-5.37204 2.44284,-4.69974 3.423,-8.29248 3.44546,-12.62919 0.01,-1.90952 0.002,-1.97983 -0.31461,-2.69404 -0.41708,-0.94182 -1.2563,-1.8682 -2.09549,-2.31312 -0.93658,-0.49654 -2.36347,-0.58026 -3.1883,-0.18706 -0.92166,0.43939 -1.70398,1.45099 -2.84301,3.67627 -3.5085,6.85444 -7.25559,13.15293 -8.62586,14.49923 -0.15026,0.14763 -1.17897,0.96105 -2.28602,1.8076 -3.30356,2.52618 -5.65552,4.8778 -7.64,7.6389 -0.51002,0.70964 -1.0124,1.35804 -1.11639,1.44093 -0.10399,0.0829 -1.8585,0.35536 -3.89891,0.60546 -2.04041,0.25013 -3.9762,0.5386 -4.30175,0.64106 -0.32555,0.10246 -0.81353,0.37328 -1.08441,0.60181 -0.27088,0.22849 -0.55672,0.45901 -0.63519,0.51224 -0.11412,0.0774 -0.14269,-25.21134 -0.14269,-126.28023 v -126.377 H 335.09394 563.39158 V 324.6778 514.42185 h -34.18539 -34.1854 l -0.0643,-0.28462 c -0.0354,-0.15653 -0.0181,-3.21616 0.0384,-6.79916 0.0601,-3.81249 0.0606,-6.60637 10e-4,-6.73591 -0.1079,-0.23487 -0.38079,-0.29642 -0.48509,-0.10941 -0.0721,0.12923 -0.43406,5.04433 -0.69047,9.37524 -0.0968,1.63496 -0.20526,3.32843 -0.24104,3.76326 l -0.065,0.7906 H 300.15542 106.7963 Z m 287.09238,36.90521 c 0.34413,-0.99014 0.41486,-3.2016 0.48751,-15.24277 0.0488,-8.08989 0.0333,-9.58207 -0.0996,-9.58207 -0.20371,0 -0.24742,0.31845 -0.45131,3.28889 -0.56388,8.21472 -0.97207,16.04339 -0.97207,18.64327 0,1.5306 0.0438,2.04818 0.23313,2.75255 0.14263,0.53072 0.29455,0.86749 0.39132,0.86749 0.0872,0 0.27169,-0.32655 0.41099,-0.72736 z m -214.6852,-5.8902 c 0.42431,-1.27362 0.4333,-1.47493 0.53485,-11.97736 0.13878,-14.3541 0.14475,-13.15011 -0.0657,-13.23961 -0.0984,-0.0418 -0.23688,-0.0118 -0.30774,0.0667 -0.26663,0.29547 -1.33909,17.98863 -1.33955,22.09952 -1.1e-4,1.25171 0.0535,1.98342 0.18076,2.46668 0.35492,1.34762 0.67964,1.53778 0.99736,0.58405 z m 281.61656,-17.90375 c 0.44596,-0.95568 0.52216,-2.09366 0.53244,-7.95121 0.005,-3.11632 0.0475,-8.19912 0.0934,-11.29511 0.0459,-3.09599 0.0616,-5.70023 0.0349,-5.7872 -0.0804,-0.26228 -0.35845,-0.17776 -0.41609,0.1265 -0.19089,1.00771 -1.00921,14.61967 -1.19596,19.89353 -0.0959,2.70704 -0.0495,3.64145 0.22814,4.59618 0.28888,0.99342 0.41925,1.06865 0.72319,0.41731 z M 266.74457,444.23243 c 0.11361,-0.36427 0.25321,-1.07187 0.31019,-1.57244 0.057,-0.50055 0.13427,-5.93358 0.17174,-12.07339 0.0587,-9.6251 0.0457,-11.16327 -0.0949,-11.16327 -0.19523,0 -0.23421,0.30802 -0.46433,3.66838 -0.49971,7.29727 -0.83716,13.47988 -0.93207,17.07697 -0.0616,2.33539 -0.0442,2.83542 0.12332,3.53893 0.35444,1.48862 0.54945,1.60411 0.88608,0.52482 z m 236.36718,-26.58972 0.27611,-0.81255 0.0849,-8.79147 c 0.0467,-4.83531 0.10878,-10.15764 0.13801,-11.82738 0.0292,-1.66975 0.0294,-3.10706 0,-3.19403 -0.0872,-0.26181 -0.36805,-0.17803 -0.4241,0.1265 -0.0288,0.15654 -0.0815,0.71154 -0.11707,1.23333 -0.72415,10.61879 -1.08002,17.17958 -1.10812,20.42911 -0.0127,1.47168 0.0282,2.06775 0.1826,2.65642 0.35202,1.34252 0.55911,1.38107 0.96722,0.18007 z m -70.7692,-19.53045 0.29156,-0.62896 0.0315,-8.68187 c 0.0278,-7.65791 0.011,-8.70075 -0.14269,-8.84209 -0.24869,-0.22872 -0.48263,0.0223 -0.56411,0.60537 -0.24506,1.75366 -0.97944,13.30775 -0.97843,15.3936 10e-4,1.34895 0.0322,1.59291 0.28353,2.19108 0.36889,0.87814 0.65895,0.86814 1.07859,-0.0371 z M 312.88146,357.46284 c 0.46413,-0.99459 0.50675,-1.94837 0.57687,-12.90668 0.0371,-5.79917 0.0945,-10.86534 0.12746,-11.25815 0.0624,-0.74292 -0.0741,-1.19854 -0.28805,-0.96144 -0.21489,0.23812 -0.97082,11.72528 -1.27882,19.43326 -0.14514,3.63187 -0.0944,4.57442 0.30279,5.6279 0.19443,0.51568 0.34152,0.53278 0.55975,0.0651 z m 62.17927,-4.16531 c 0.24308,-0.82305 0.2552,-1.10713 0.33599,-7.87438 0.0461,-3.86129 0.11252,-9.20045 0.14764,-11.8648 0.0559,-4.24102 0.0424,-4.85337 -0.10802,-4.91734 -0.0945,-0.0402 -0.20096,-0.0408 -0.23652,-10e-4 -0.13475,0.14933 -0.78936,10.03532 -1.13221,17.09871 -0.27969,5.76214 -0.11531,8.41308 0.52166,8.41308 0.16972,0 0.27629,-0.19299 0.47146,-0.85384 z M 142.84697,340.32724 c 0.067,-0.0894 0.22253,-0.58748 0.34572,-1.10684 0.21014,-0.88597 0.23108,-1.65892 0.33904,-12.51866 0.0971,-9.7681 0.0906,-11.60249 -0.0417,-11.75442 -0.31348,-0.36003 -0.31483,-0.34827 -0.79123,6.88432 -0.7268,11.03403 -0.89476,16.27898 -0.56131,17.52836 0.29794,1.11638 0.44629,1.31864 0.70946,0.96724 z M 505.352,340.09941 c 0.44793,-0.95991 0.50426,-1.85232 0.51427,-8.14809 0.005,-3.33949 0.0502,-8.46258 0.0997,-11.38464 0.0495,-2.92206 0.0654,-5.38639 0.0353,-5.47631 -0.11232,-0.33551 -0.31408,-0.0481 -0.38845,0.55342 -0.13184,1.06645 -0.67631,9.49227 -0.94749,14.66308 -0.37442,7.13931 -0.35815,8.49507 0.11726,9.77182 0.19138,0.5139 0.33674,0.51919 0.56936,0.0207 z m -273.51011,-5.78412 c 0.32772,-1.05952 0.38943,-2.95629 0.45484,-13.97938 0.0611,-10.30505 0.0542,-10.85427 -0.13592,-10.81376 -0.2456,0.0523 -0.26045,0.19038 -0.65077,6.04794 -0.36775,5.51889 -0.588,9.533 -0.75691,13.79446 -0.12906,3.25605 -0.12578,3.39072 0.10728,4.41203 0.36639,1.60561 0.61011,1.73937 0.98148,0.53871 z m 234.61699,-62.4224 c 0.067,-0.0894 0.22253,-0.58749 0.34571,-1.10684 0.21015,-0.88598 0.23108,-1.65892 0.33905,-12.51867 0.0971,-9.7681 0.0906,-11.60248 -0.0417,-11.75441 -0.31349,-0.36004 -0.31483,-0.34827 -0.79123,6.88432 -0.72681,11.03403 -0.89477,16.27897 -0.56132,17.52836 0.29795,1.11638 0.4463,1.31863 0.70947,0.96724 z m -99.98327,-5.15995 0.27611,-0.81255 0.0849,-8.79147 c 0.0467,-4.83531 0.10879,-10.15763 0.13801,-11.82738 0.0292,-1.66975 0.0294,-3.10706 0,-3.19403 -0.0872,-0.26181 -0.36805,-0.17803 -0.4241,0.1265 -0.0288,0.15654 -0.0815,0.71154 -0.11707,1.23334 -0.72415,10.61878 -1.08002,17.17958 -1.10812,20.42911 -0.0127,1.47168 0.0282,2.06774 0.1826,2.65641 0.35202,1.34252 0.55911,1.38107 0.96722,0.18007 z m 82.37272,-87.66298 c 0.44793,-0.95991 0.50426,-1.85232 0.51427,-8.14809 0.005,-3.33949 0.0502,-8.46258 0.0997,-11.38464 0.0495,-2.92206 0.0654,-5.38639 0.0353,-5.4763 -0.11232,-0.33552 -0.31408,-0.0481 -0.38844,0.55342 -0.13185,1.06645 -0.67631,9.49226 -0.9475,14.66307 -0.37442,7.13931 -0.35815,8.49508 0.11727,9.77182 0.19137,0.5139 0.33674,0.51919 0.56935,0.0207 z m -180.44322,-5.71304 c 0.0639,-0.087 0.22753,-0.55658 0.36364,-1.04359 0.24185,-0.86536 0.24979,-1.12968 0.34976,-11.63764 0.0563,-5.91369 0.10438,-11.22178 0.10693,-11.79575 0.004,-0.82669 -0.0296,-1.04359 -0.15986,-1.04359 -0.0905,0 -0.19619,0.0568 -0.23494,0.12632 -0.21655,0.3883 -1.31076,18.96552 -1.31132,22.26347 0,1.20034 0.0804,1.73854 0.41208,2.75129 0.18462,0.56374 0.28138,0.64125 0.47371,0.37949 z"
         id="path2398"
         inkscape:connector-curvature="0" />
      <path
         style="fill:#54748d;stroke-width:0.12016394"
         d="m 106.7963,460.34034 c 0,-53.42959 0.003,-54.07992 0.22079,-53.95056 0.35664,0.21152 0.97018,0.16671 7.93267,-0.57933 3.64585,-0.39066 7.09111,-0.70943 7.65615,-0.70838 1.2394,0.002 1.82983,0.1441 3.25934,0.78278 0.60009,0.26812 1.393,0.54933 1.76202,0.62493 0.45588,0.0934 4.54998,0.13745 12.77305,0.13745 h 12.10211 l 3.2014,0.70758 c 2.67691,0.59165 3.34167,0.69826 4.05752,0.6507 0.64617,-0.0429 1.76591,-0.35606 4.56596,-1.27688 l 3.70983,-1.21999 8.04749,-1.07002 c 4.42612,-0.5885 8.58685,-1.10417 9.24606,-1.14593 0.65921,-0.0418 5.19098,-0.24191 10.0706,-0.44478 6.75086,-0.28066 8.96146,-0.41123 9.24605,-0.54611 1.05332,-0.49923 1.52988,-1.90683 1.02047,-3.0141 -0.52349,-1.13784 -2.05149,-2.71626 -3.44869,-3.56245 -1.91312,-1.15867 -2.59269,-1.29043 -7.92775,-1.53718 -4.18217,-0.19342 -4.94471,-0.25561 -4.82057,-0.39318 0.0317,-0.0352 1.51444,-0.37333 3.29491,-0.75146 2.15101,-0.45684 3.3331,-0.76475 3.52293,-0.91767 0.15714,-0.12657 0.40353,-0.48295 0.54753,-0.79195 0.45091,-0.96761 0.18212,-1.75893 -0.94672,-2.78719 -1.51998,-1.38454 -3.37731,-2.13876 -5.2669,-2.13876 h -1.06395 l -0.25904,-0.59992 c -0.4266,-0.98799 -1.9856,-2.09267 -3.51831,-2.493 -1.5537,-0.40583 -1.89787,-0.35137 -11.47713,1.81596 -4.89082,1.10656 -11.76895,2.61276 -15.28473,3.34712 -9.2915,1.94076 -8.77882,1.88605 -10.18549,1.08679 -2.13492,-1.21301 -4.04955,-3.16796 -6.18521,-6.31544 -1.95646,-2.88341 -2.26233,-3.71219 -2.14895,-5.82272 0.0707,-1.31609 0.20676,-1.70097 1.46203,-4.13583 2.06153,-3.99873 3.08456,-7.93502 3.11721,-11.9939 0.0142,-1.76302 0.0122,-1.77691 -0.36208,-2.62073 -0.47913,-1.08002 -1.24823,-1.9318 -2.19169,-2.42728 -0.66715,-0.35037 -0.85208,-0.38984 -1.82671,-0.38984 -0.97106,0 -1.13811,0.0353 -1.59808,0.338 -0.95805,0.63041 -1.52055,1.44403 -3.08947,4.46885 -3.28521,6.33373 -6.20882,11.28249 -7.78472,13.17706 -0.25984,0.31239 -1.32251,1.21498 -2.36149,2.00575 -3.51582,2.67593 -5.90965,5.06009 -8.02498,7.99258 -0.56658,0.78545 -1.06152,1.4288 -1.09987,1.42967 -0.0383,10e-4 -1.82766,0.2237 -3.97625,0.49516 -4.24852,0.53678 -4.64401,0.6453 -5.54449,1.52147 l -0.42285,0.41142 V 261.31639 134.93375 H 335.09394 563.39158 V 324.6778 514.42185 h -34.20389 -34.2039 l 0.084,-6.89849 c 0.0867,-7.11994 0.0795,-7.26907 -0.3532,-7.26907 -0.0878,0 -0.20844,0.12808 -0.26801,0.28462 -0.14123,0.37108 -0.91283,11.53334 -0.91376,13.21884 v 0.6641 h -193.3681 -193.3681 v -54.08151 z m 287.09238,36.90967 c 0.34413,-0.99014 0.41486,-3.2016 0.48751,-15.24277 0.0488,-8.08989 0.0333,-9.58207 -0.0996,-9.58207 -0.20371,0 -0.24742,0.31845 -0.45131,3.28889 -0.56388,8.21472 -0.97207,16.04339 -0.97207,18.64327 0,1.5306 0.0438,2.04818 0.23313,2.75255 0.14263,0.53072 0.29455,0.86749 0.39132,0.86749 0.0872,0 0.27169,-0.32655 0.41099,-0.72736 z m -214.72203,-5.62784 c 0.5224,-0.95195 0.55003,-1.51828 0.66756,-13.68188 0.0611,-6.32422 0.086,-11.57098 0.0554,-11.65948 -0.087,-0.25109 -0.40531,-0.33367 -0.57243,-0.14848 -0.33017,0.36588 -1.53409,20.89263 -1.37067,23.3698 0.06,0.90937 0.32902,2.03793 0.5654,2.3718 0.18858,0.26635 0.41903,0.17774 0.65474,-0.25176 z m 281.65884,-17.84533 c 0.0952,-0.16103 0.26922,-0.71603 0.38668,-1.23334 0.1961,-0.86364 0.21961,-1.75264 0.28748,-10.8705 0.0407,-5.46146 0.10625,-10.67205 0.14577,-11.57908 0.0628,-1.44041 0.0477,-1.67589 -0.11882,-1.86044 -0.23313,-0.25835 -0.50986,-0.16182 -0.58202,0.20302 -0.11123,0.56228 -0.64281,8.68258 -0.97,14.8177 -0.32397,6.07456 -0.34439,8.64199 -0.0765,9.6137 0.20066,0.72782 0.46111,1.20172 0.66044,1.20172 0.0516,0 0.17172,-0.13175 0.26694,-0.29278 z M 266.74457,444.23243 c 0.11361,-0.36427 0.25321,-1.07187 0.31019,-1.57244 0.057,-0.50055 0.13427,-5.93358 0.17174,-12.07339 0.0587,-9.6251 0.0457,-11.16327 -0.0949,-11.16327 -0.19523,0 -0.23421,0.30802 -0.46433,3.66838 -0.49971,7.29727 -0.83716,13.47988 -0.93207,17.07697 -0.0616,2.33539 -0.0442,2.83542 0.12332,3.53893 0.35444,1.48862 0.54945,1.60411 0.88608,0.52482 z M 503.09523,418.0635 c 0.12685,-0.33047 0.2839,-0.91394 0.349,-1.29659 0.0703,-0.41326 0.15547,-4.88134 0.20975,-11.00515 0.12384,-13.97096 0.13406,-12.78419 -0.11161,-12.95163 -0.37162,-0.25331 -0.49032,0.17342 -0.63719,2.29064 -0.53897,7.77007 -0.87858,13.70437 -1.0231,17.87781 -0.11404,3.29277 -0.0175,4.44182 0.45892,5.4644 0.19403,0.41644 0.50968,0.25761 0.75423,-0.37948 z m -70.75268,-19.95124 0.29156,-0.62896 0.0315,-8.68187 c 0.0278,-7.65791 0.011,-8.70075 -0.14269,-8.84209 -0.24869,-0.22872 -0.48263,0.0223 -0.56411,0.60537 -0.24506,1.75366 -0.97944,13.30775 -0.97843,15.3936 10e-4,1.34895 0.0322,1.59291 0.28353,2.19108 0.36889,0.87814 0.65895,0.86814 1.07859,-0.0371 z M 312.88146,357.46284 c 0.46413,-0.99459 0.50675,-1.94837 0.57687,-12.90668 0.0371,-5.79917 0.0945,-10.86534 0.12746,-11.25815 0.0624,-0.74292 -0.0741,-1.19854 -0.28805,-0.96144 -0.21489,0.23812 -0.97082,11.72528 -1.27882,19.43326 -0.14514,3.63187 -0.0944,4.57442 0.30279,5.6279 0.19443,0.51568 0.34152,0.53278 0.55975,0.0651 z m 62.05042,-3.46836 c 0.52682,-0.96 0.55345,-1.50259 0.67505,-13.75767 0.10235,-10.3147 0.0959,-11.59504 -0.0592,-11.76413 -0.15494,-0.16893 -0.19826,-0.15699 -0.39496,0.10889 -0.12151,0.16424 -0.22093,0.46778 -0.22093,0.67451 0,0.20675 -0.10236,1.80852 -0.22747,3.5595 -0.40416,5.65687 -0.80325,13.0965 -0.87648,16.3392 -0.0626,2.77412 -0.0472,3.25559 0.12568,3.92138 0.2121,0.81676 0.45859,1.32821 0.64014,1.32821 0.0623,0 0.2144,-0.18445 0.33813,-0.40989 z M 142.98147,340.33291 c 0.52603,-0.95856 0.55284,-1.50507 0.67474,-13.75767 0.10261,-10.31463 0.0962,-11.59504 -0.0589,-11.76413 -0.15487,-0.16887 -0.1958,-0.16033 -0.37217,0.0777 -0.21958,0.29637 -0.26648,0.83204 -0.75731,8.6505 -0.65085,10.36752 -0.77258,14.7107 -0.44693,15.94716 0.19887,0.75511 0.44718,1.2563 0.6224,1.2563 0.0623,0 0.21442,-0.18445 0.33813,-0.40989 z m 362.37053,-0.2335 c 0.44793,-0.95991 0.50426,-1.85232 0.51427,-8.14809 0.005,-3.33949 0.0502,-8.46258 0.0997,-11.38464 0.0495,-2.92206 0.0654,-5.38639 0.0353,-5.47631 -0.11232,-0.33551 -0.31408,-0.0481 -0.38845,0.55342 -0.13184,1.06645 -0.67631,9.49227 -0.94749,14.66308 -0.37442,7.13931 -0.35815,8.49507 0.11726,9.77182 0.19138,0.5139 0.33674,0.51919 0.56936,0.0207 z m -273.48075,-5.5699 c 0.13929,-0.38898 0.30288,-1.09975 0.36355,-1.57948 0.0796,-0.62929 0.30271,-20.00456 0.2655,-23.05528 -0.002,-0.16458 -0.0784,-0.38212 -0.16982,-0.48339 -0.26587,-0.29463 -0.49843,0.078 -0.58195,0.93253 -0.2706,2.76858 -1.0262,15.84774 -1.16425,20.15273 -0.0616,1.91976 -0.0422,2.49446 0.10778,3.19903 0.37767,1.77427 0.74856,2.03654 1.17919,0.83386 z m 234.72213,-62.63095 c 0.52603,-0.95856 0.55283,-1.50508 0.67473,-13.75767 0.10261,-10.31463 0.0962,-11.59504 -0.0589,-11.76413 -0.15488,-0.16888 -0.1958,-0.16033 -0.37218,0.0777 -0.21958,0.29637 -0.26647,0.83204 -0.7573,8.65049 -0.65087,10.36753 -0.77258,14.71071 -0.44694,15.94717 0.19888,0.7551 0.44718,1.25629 0.62241,1.25629 0.0623,0 0.2144,-0.18444 0.33813,-0.40988 z m -100.13429,-4.74483 c 0.12685,-0.33047 0.2839,-0.91393 0.349,-1.29659 0.0703,-0.41326 0.15547,-4.88133 0.20975,-11.00515 0.12384,-13.97095 0.13407,-12.78418 -0.11161,-12.95163 -0.37162,-0.2533 -0.49032,0.17342 -0.63719,2.29065 -0.53897,7.77006 -0.87858,13.70436 -1.0231,17.87781 -0.11403,3.29276 -0.0175,4.44182 0.45892,5.4644 0.19403,0.41643 0.50968,0.25761 0.75423,-0.37949 z m 82.38924,-88.08377 c 0.44793,-0.95991 0.50426,-1.85232 0.51427,-8.14809 0.005,-3.33949 0.0502,-8.46258 0.0997,-11.38464 0.0495,-2.92206 0.0654,-5.38639 0.0353,-5.4763 -0.11232,-0.33552 -0.31408,-0.0481 -0.38844,0.55342 -0.13185,1.06645 -0.67631,9.49226 -0.9475,14.66307 -0.37442,7.13931 -0.35815,8.49508 0.11727,9.77182 0.19137,0.5139 0.33674,0.51919 0.56935,0.0207 z m -180.44459,-5.53355 c 0.0792,-0.0557 0.25335,-0.43905 0.38709,-0.85191 0.34849,-1.07591 0.40714,-2.9814 0.45516,-14.78977 0.0398,-9.77546 0.034,-10.11927 -0.17073,-10.16317 -0.11653,-0.025 -0.25785,0.006 -0.31403,0.0677 -0.29145,0.32298 -1.43935,20.20112 -1.3243,22.93282 0.0521,1.23701 0.28099,2.34639 0.56766,2.75129 0.12969,0.18317 0.20069,0.1926 0.39915,0.053 z"
         id="path2396"
         inkscape:connector-curvature="0" />
      <path
         style="fill:#605656;stroke-width:0.12016394"
         d="m 106.7963,460.34034 c 0,-53.42959 0.003,-54.07992 0.22079,-53.95056 0.35664,0.21152 0.97018,0.16671 7.93267,-0.57933 3.64585,-0.39066 7.09111,-0.70943 7.65615,-0.70838 1.2394,0.002 1.82983,0.1441 3.25934,0.78278 0.60009,0.26812 1.393,0.54933 1.76202,0.62493 0.45588,0.0934 4.54998,0.13745 12.77305,0.13745 h 12.10211 l 3.2014,0.70758 c 2.67691,0.59165 3.34167,0.69826 4.05752,0.6507 0.64617,-0.0429 1.76591,-0.35606 4.56596,-1.27688 l 3.70983,-1.21999 8.04749,-1.07002 c 4.42612,-0.5885 8.58685,-1.10417 9.24606,-1.14593 0.65921,-0.0418 5.19098,-0.24191 10.0706,-0.44478 6.75086,-0.28066 8.96146,-0.41123 9.24605,-0.54611 1.05332,-0.49923 1.52988,-1.90683 1.02047,-3.0141 -0.52349,-1.13784 -2.05149,-2.71626 -3.44869,-3.56245 -1.91312,-1.15867 -2.59269,-1.29043 -7.92775,-1.53718 -4.18217,-0.19342 -4.94471,-0.25561 -4.82057,-0.39318 0.0317,-0.0352 1.51444,-0.37333 3.29491,-0.75146 2.15101,-0.45684 3.3331,-0.76475 3.52293,-0.91767 0.15714,-0.12657 0.40353,-0.48295 0.54753,-0.79195 0.45091,-0.96761 0.18212,-1.75893 -0.94672,-2.78719 -1.51998,-1.38454 -3.37731,-2.13876 -5.2669,-2.13876 h -1.06395 l -0.25904,-0.59992 c -0.4266,-0.98799 -1.9856,-2.09267 -3.51831,-2.493 -1.5537,-0.40583 -1.89787,-0.35137 -11.47713,1.81596 -4.89082,1.10656 -11.76895,2.61276 -15.28473,3.34712 -9.2915,1.94076 -8.77882,1.88605 -10.18549,1.08679 -2.13492,-1.21301 -4.04955,-3.16796 -6.18521,-6.31544 -1.95646,-2.88341 -2.26233,-3.71219 -2.14895,-5.82272 0.0707,-1.31609 0.20676,-1.70097 1.46203,-4.13583 2.06153,-3.99873 3.08456,-7.93502 3.11721,-11.9939 0.0142,-1.76302 0.0122,-1.77691 -0.36208,-2.62073 -0.47913,-1.08002 -1.24823,-1.9318 -2.19169,-2.42728 -0.66715,-0.35037 -0.85208,-0.38984 -1.82671,-0.38984 -0.97106,0 -1.13811,0.0353 -1.59808,0.338 -0.95805,0.63041 -1.52055,1.44403 -3.08947,4.46885 -3.28521,6.33373 -6.20882,11.28249 -7.78472,13.17706 -0.25984,0.31239 -1.32251,1.21498 -2.36149,2.00575 -3.51582,2.67593 -5.90965,5.06009 -8.02498,7.99258 -0.56658,0.78545 -1.06152,1.4288 -1.09987,1.42967 -0.0383,10e-4 -1.82766,0.2237 -3.97625,0.49516 -4.24852,0.53678 -4.64401,0.6453 -5.54449,1.52147 l -0.42285,0.41142 V 261.31639 134.93375 H 335.09394 563.39158 V 324.6778 514.42185 h -34.20389 -34.2039 l 0.084,-6.89849 c 0.0867,-7.11994 0.0795,-7.26907 -0.3532,-7.26907 -0.0878,0 -0.20844,0.12808 -0.26801,0.28462 -0.14123,0.37108 -0.91283,11.53334 -0.91376,13.21884 v 0.6641 h -193.3681 -193.3681 v -54.08151 z m 287.01485,37.47891 c 0.0903,-0.15654 0.25248,-0.5977 0.36048,-0.98035 0.17648,-0.62531 0.20658,-1.88626 0.29737,-12.45697 0.0555,-6.46869 0.0759,-11.83371 0.0453,-11.92225 -0.0959,-0.2768 -0.50983,-0.18743 -0.57264,0.12361 -0.0836,0.41387 -0.58795,7.96018 -0.85602,12.80772 -0.32789,5.92951 -0.45464,9.88067 -0.34289,10.68892 0.24354,1.76134 0.66248,2.44333 1.06845,1.73932 z m -214.6445,-6.19708 c 0.5224,-0.95195 0.55003,-1.51828 0.66756,-13.68188 0.0611,-6.32422 0.086,-11.57098 0.0554,-11.65948 -0.087,-0.25109 -0.40531,-0.33367 -0.57243,-0.14848 -0.33017,0.36588 -1.53409,20.89263 -1.37067,23.3698 0.06,0.90937 0.32902,2.03793 0.5654,2.3718 0.18858,0.26635 0.41903,0.17774 0.65474,-0.25176 z m 281.65884,-17.84533 c 0.0952,-0.16103 0.26922,-0.71603 0.38668,-1.23334 0.1961,-0.86364 0.21961,-1.75264 0.28748,-10.8705 0.0407,-5.46146 0.10625,-10.67205 0.14577,-11.57908 0.0628,-1.44041 0.0477,-1.67589 -0.11882,-1.86044 -0.23313,-0.25835 -0.50986,-0.16182 -0.58202,0.20302 -0.11123,0.56228 -0.64281,8.68258 -0.97,14.8177 -0.32397,6.07456 -0.34439,8.64199 -0.0765,9.6137 0.20066,0.72782 0.46111,1.20172 0.66044,1.20172 0.0516,0 0.17172,-0.13175 0.26694,-0.29278 z M 266.75062,444.57861 c 0.47203,-1.06979 0.53445,-1.94277 0.54594,-7.63558 0.006,-2.99163 0.0503,-8.11472 0.0984,-11.38464 0.0805,-5.47379 0.0524,-6.39199 -0.19501,-6.38612 -0.40205,0.009 -0.41807,0.12979 -0.81659,6.13312 -0.78407,11.81131 -0.96785,17.22282 -0.62964,18.54034 0.35408,1.37936 0.6241,1.57786 0.99694,0.73288 z M 503.09523,418.0635 c 0.12685,-0.33047 0.2839,-0.91394 0.349,-1.29659 0.0703,-0.41326 0.15547,-4.88134 0.20975,-11.00515 0.12384,-13.97096 0.13406,-12.78419 -0.11161,-12.95163 -0.37162,-0.25331 -0.49032,0.17342 -0.63719,2.29064 -0.53897,7.77007 -0.87858,13.70437 -1.0231,17.87781 -0.11404,3.29277 -0.0175,4.44182 0.45892,5.4644 0.19403,0.41644 0.50968,0.25761 0.75423,-0.37948 z m -70.99855,-19.42075 c 0.61328,-0.72342 0.61359,-0.72821 0.62437,-9.96593 0.005,-4.70055 -0.0277,-8.61402 -0.0738,-8.6966 -0.13957,-0.25025 -0.5246,-0.16919 -0.63879,0.13447 -0.16895,0.44927 -0.78803,8.77764 -1.03735,13.95519 -0.11935,2.4787 -0.11387,2.87026 0.0488,3.49033 0.17371,0.66218 0.55956,1.37076 0.74643,1.37076 0.0473,0 0.19592,-0.12969 0.3303,-0.28822 z M 312.88862,357.77998 c 0.0952,-0.16103 0.26985,-0.71603 0.38811,-1.23334 0.19751,-0.86403 0.223,-1.7897 0.31331,-11.37648 0.13099,-13.90875 0.1393,-12.78398 -0.0956,-12.94874 -0.43882,-0.30779 -0.47045,-0.0839 -0.88202,6.24445 -0.47861,7.35918 -0.80294,13.83161 -0.80407,16.04674 -0.001,1.46491 0.19963,2.71759 0.52397,3.27553 0.20978,0.36088 0.33925,0.35898 0.55633,-0.008 z m 62.04326,-3.7855 c 0.52682,-0.96 0.55345,-1.50259 0.67505,-13.75767 0.10235,-10.3147 0.0959,-11.59504 -0.0592,-11.76413 -0.15494,-0.16893 -0.19826,-0.15699 -0.39496,0.10889 -0.12151,0.16424 -0.22093,0.46778 -0.22093,0.67451 0,0.20675 -0.10236,1.80852 -0.22747,3.5595 -0.40416,5.65687 -0.80325,13.0965 -0.87648,16.3392 -0.0626,2.77412 -0.0472,3.25559 0.12568,3.92138 0.2121,0.81676 0.45859,1.32821 0.64014,1.32821 0.0623,0 0.2144,-0.18445 0.33813,-0.40989 z M 142.98147,340.33291 c 0.52603,-0.95856 0.55284,-1.50507 0.67474,-13.75767 0.10261,-10.31463 0.0962,-11.59504 -0.0589,-11.76413 -0.15487,-0.16887 -0.1958,-0.16033 -0.37217,0.0777 -0.21958,0.29637 -0.26648,0.83204 -0.75731,8.6505 -0.65085,10.36752 -0.77258,14.7107 -0.44693,15.94716 0.19887,0.75511 0.44718,1.2563 0.6224,1.2563 0.0623,0 0.21442,-0.18445 0.33813,-0.40989 z m 362.45036,-0.11123 c 0.50782,-1.13278 0.52507,-1.5021 0.63444,-13.58319 0.0573,-6.33113 0.0804,-11.58229 0.0512,-11.66926 -0.0646,-0.19264 -0.44315,-0.20934 -0.54646,-0.0241 -0.22347,0.40069 -1.30468,18.8429 -1.30742,22.30078 -0.001,1.86701 0.41747,3.60878 0.83375,3.46623 0.0745,-0.0255 0.225,-0.2462 0.33449,-0.49045 z m -273.56058,-5.69217 c 0.13929,-0.38898 0.30288,-1.09975 0.36355,-1.57948 0.0796,-0.62929 0.30271,-20.00456 0.2655,-23.05528 -0.002,-0.16458 -0.0784,-0.38212 -0.16982,-0.48339 -0.26587,-0.29463 -0.49843,0.078 -0.58195,0.93253 -0.2706,2.76858 -1.0262,15.84774 -1.16425,20.15273 -0.0616,1.91976 -0.0422,2.49446 0.10778,3.19903 0.37767,1.77427 0.74856,2.03654 1.17919,0.83386 z m 234.72213,-62.63095 c 0.52603,-0.95856 0.55283,-1.50508 0.67473,-13.75767 0.10261,-10.31463 0.0962,-11.59504 -0.0589,-11.76413 -0.15488,-0.16888 -0.1958,-0.16033 -0.37218,0.0777 -0.21958,0.29637 -0.26647,0.83204 -0.7573,8.65049 -0.65087,10.36753 -0.77258,14.71071 -0.44694,15.94717 0.19888,0.7551 0.44718,1.25629 0.62241,1.25629 0.0623,0 0.2144,-0.18444 0.33813,-0.40988 z m -100.13429,-4.74483 c 0.12685,-0.33047 0.2839,-0.91393 0.349,-1.29659 0.0703,-0.41326 0.15547,-4.88133 0.20975,-11.00515 0.12384,-13.97095 0.13407,-12.78418 -0.11161,-12.95163 -0.37162,-0.2533 -0.49032,0.17342 -0.63719,2.29065 -0.53897,7.77006 -0.87858,13.70436 -1.0231,17.87781 -0.11403,3.29276 -0.0175,4.44182 0.45892,5.4644 0.19403,0.41643 0.50968,0.25761 0.75423,-0.37949 z m 82.46908,-87.9615 c 0.50781,-1.13278 0.52507,-1.5021 0.63443,-13.58319 0.0573,-6.33113 0.0804,-11.58229 0.0512,-11.66926 -0.0646,-0.19264 -0.44315,-0.20934 -0.54645,-0.0241 -0.22347,0.40069 -1.30469,18.8429 -1.30743,22.30078 -0.001,1.867 0.41748,3.60878 0.83376,3.46624 0.0745,-0.0255 0.22499,-0.24621 0.33449,-0.49046 z m -180.52443,-5.65582 c 0.0792,-0.0557 0.25335,-0.43905 0.38709,-0.85191 0.34849,-1.07591 0.40714,-2.9814 0.45516,-14.78977 0.0398,-9.77546 0.034,-10.11927 -0.17073,-10.16317 -0.11653,-0.025 -0.25785,0.006 -0.31403,0.0677 -0.29145,0.32298 -1.43935,20.20112 -1.3243,22.93282 0.0521,1.23701 0.28099,2.34639 0.56766,2.75129 0.12969,0.18317 0.20069,0.1926 0.39915,0.053 z"
         id="path2394"
         inkscape:connector-curvature="0" />
      <path
         style="fill:#b12a21;stroke-width:0.12016394"
         d="m 106.7963,460.35068 v -54.07117 l 0.32864,0.20902 c 0.31079,0.19766 0.64414,0.17621 6.1355,-0.39488 3.19377,-0.33215 6.60127,-0.69214 7.57221,-0.79999 1.97734,-0.21964 3.00193,-0.13382 4.19042,0.35096 0.36567,0.14915 1.10148,0.45 1.63512,0.66852 l 0.97027,0.39734 12.78467,0.0661 12.78467,0.0661 2.56834,0.61492 c 3.89744,0.93312 3.90718,0.93243 8.50409,-0.60761 l 3.65276,-1.22374 7.99042,-1.07281 c 8.85243,-1.18856 8.51451,-1.16118 20.26142,-1.64134 4.30055,-0.17579 7.99243,-0.35417 8.20417,-0.39641 0.88381,-0.1763 1.73872,-1.61735 1.55133,-2.61495 -0.28724,-1.52911 -2.71023,-3.97031 -4.8471,-4.88352 -1.31406,-0.56157 -2.51056,-0.74017 -5.93574,-0.88605 -4.14238,-0.17643 -5.25561,-0.26605 -4.96548,-0.39972 0.12557,-0.0579 1.45154,-0.36003 2.9466,-0.67153 1.61203,-0.33586 2.86617,-0.66205 3.08163,-0.8015 0.19983,-0.12933 0.48363,-0.4313 0.63066,-0.67105 0.22082,-0.36007 0.25956,-0.55892 0.22271,-1.14312 -0.0505,-0.79997 -0.20954,-1.07901 -1.08991,-1.91176 -1.48537,-1.40504 -3.0917,-2.10009 -5.15693,-2.23135 l -1.30578,-0.083 -0.0935,-0.40131 c -0.21877,-0.93878 -2.24713,-2.28822 -3.98932,-2.65405 -0.60969,-0.12801 -1.24174,-0.1748 -1.75262,-0.12975 -0.43947,0.0388 -4.6002,0.92876 -9.24605,1.97777 -12.44204,2.80931 -22.13411,4.83117 -23.52343,4.90722 -1.34086,0.0734 -1.6419,-0.0349 -3.09935,-1.11506 -2.0633,-1.52916 -3.27399,-2.87493 -5.3075,-5.89964 -1.30211,-1.9368 -1.74963,-2.91188 -1.9085,-4.15838 -0.20467,-1.60585 0.074,-2.79296 1.12479,-4.79127 2.21654,-4.21529 3.10975,-7.27351 3.43976,-11.77716 0.13355,-1.82252 0.042,-2.60505 -0.43087,-3.68242 -1.00712,-2.29465 -3.7321,-3.45329 -5.61108,-2.38578 -0.94038,0.53427 -1.50636,1.34702 -3.21786,4.62088 -2.84834,5.44849 -4.77796,8.81534 -6.56101,11.44789 -1.20722,1.78235 -1.45936,2.04031 -3.58943,3.67214 -0.97311,0.74551 -2.20592,1.73127 -2.73957,2.19058 -1.38276,1.19017 -4.02544,4.09344 -5.1986,5.71124 -1.04967,1.44749 -1.03795,1.43898 -2.164,1.57284 -4.4155,0.52493 -6.80004,0.88529 -7.34029,1.10928 -0.34918,0.14479 -0.81268,0.47109 -1.06275,0.74822 l -0.44349,0.49146 V 261.30329 134.93375 H 335.09394 563.39158 V 324.6778 514.42185 h -34.18472 -34.18472 l 0.0487,-0.34786 c 0.0268,-0.19133 0.0774,-3.31751 0.11236,-6.94708 0.0569,-5.90759 0.0447,-6.62017 -0.11682,-6.79916 -0.2204,-0.24424 -0.28994,-0.24764 -0.56167,-0.0274 -0.24377,0.19754 -0.41032,2.06162 -0.87456,9.78906 l -0.26028,4.33249 H 300.08309 106.7963 Z m 287.01485,37.46857 c 0.0903,-0.15654 0.25248,-0.5977 0.36048,-0.98035 0.17648,-0.62531 0.20658,-1.88626 0.29737,-12.45697 0.0555,-6.46869 0.0759,-11.83371 0.0453,-11.92225 -0.0959,-0.2768 -0.50983,-0.18743 -0.57264,0.12361 -0.0836,0.41387 -0.58795,7.96018 -0.85602,12.80772 -0.32789,5.92951 -0.45464,9.88067 -0.34289,10.68892 0.24354,1.76134 0.66248,2.44333 1.06845,1.73932 z M 179.28479,491.6088 c 0.5227,-1.30949 0.54065,-1.65547 0.61453,-11.84686 0.0386,-5.32232 0.10226,-10.5085 0.14151,-11.52484 0.0687,-1.77971 0.0623,-1.858 -0.17573,-2.12171 -0.19401,-0.215 -0.2939,-0.24606 -0.46504,-0.14456 -0.11987,0.0711 -0.24571,0.22895 -0.27964,0.35076 -0.20447,0.7342 -1.09584,15.54085 -1.26982,21.09336 -0.0644,2.05596 -0.0483,2.37421 0.16621,3.2795 0.37344,1.57597 0.86297,1.92897 1.26798,0.91435 z m 281.53535,-17.655 c 0.10885,-0.13327 0.30509,-0.60288 0.43612,-1.0436 0.22963,-0.77237 0.24132,-1.14582 0.32405,-10.35172 0.0472,-5.25275 0.11065,-10.59494 0.14102,-11.87154 0.0515,-2.16742 0.0406,-2.33719 -0.16442,-2.56444 -0.29573,-0.32772 -0.64031,-0.12322 -0.72136,0.42808 -0.28739,1.95497 -1.19341,17.88716 -1.22101,21.47116 -0.0151,1.95967 0.0114,2.31119 0.23108,3.06337 0.21383,0.7322 0.44426,1.09218 0.70872,1.10716 0.0374,0.002 0.15696,-0.1052 0.2658,-0.23847 z M 266.75062,444.57861 c 0.47203,-1.06979 0.53445,-1.94277 0.54594,-7.63558 0.006,-2.99163 0.0503,-8.11472 0.0984,-11.38464 0.0805,-5.47379 0.0524,-6.39199 -0.19501,-6.38612 -0.40205,0.009 -0.41807,0.12979 -0.81659,6.13312 -0.78407,11.81131 -0.96785,17.22282 -0.62964,18.54034 0.35408,1.37936 0.6241,1.57786 0.99694,0.73288 z m 236.37656,-26.30715 c 0.49294,-1.07078 0.56009,-1.90501 0.56909,-7.07037 0.005,-2.67856 0.0509,-7.85857 0.10267,-11.51114 0.0568,-4.00427 0.0526,-6.72893 -0.0105,-6.86241 -0.1462,-0.30911 -0.51689,-0.27608 -0.70989,0.0632 -0.16111,0.28326 -0.52269,5.05126 -0.92809,12.23849 -0.48294,8.56187 -0.53405,11.20763 -0.2383,12.33336 0.38152,1.45217 0.79282,1.72598 1.21504,0.80882 z m -70.72137,-20.16271 0.34245,-0.75898 0.0327,-8.47523 c 0.018,-4.66138 0.006,-8.59704 -0.0275,-8.7459 -0.10165,-0.4567 -0.64609,-0.51972 -0.79423,-0.0919 -0.20147,0.5818 -1.09341,13.62679 -1.09404,16.00059 0,0.77305 0.0638,1.4187 0.17525,1.76887 0.44209,1.38857 0.83606,1.47588 1.36544,0.30259 z M 312.88862,357.77998 c 0.0952,-0.16103 0.26985,-0.71603 0.38811,-1.23334 0.19751,-0.86403 0.223,-1.7897 0.31331,-11.37648 0.13099,-13.90875 0.1393,-12.78398 -0.0956,-12.94874 -0.43882,-0.30779 -0.47045,-0.0839 -0.88202,6.24445 -0.47861,7.35918 -0.80294,13.83161 -0.80407,16.04674 -0.001,1.46491 0.19963,2.71759 0.52397,3.27553 0.20978,0.36088 0.33925,0.35898 0.55633,-0.008 z m 61.95712,-3.47048 c 0.2675,-0.33352 0.49212,-1.01357 0.63719,-1.92907 0.0851,-0.5373 0.16758,-4.78916 0.23792,-12.27011 0.10302,-10.95624 0.0988,-11.45795 -0.0985,-11.68196 -0.31816,-0.36133 -0.6595,-0.0938 -0.74288,0.58226 -0.2921,2.36827 -1.20165,18.75255 -1.20269,21.66485 -0.001,1.7714 0.23571,3.12297 0.63065,3.60658 0.24922,0.30518 0.31292,0.30842 0.53827,0.0274 z M 142.96048,340.5539 c 0.12313,-0.17346 0.32737,-0.75693 0.45386,-1.29658 0.21788,-0.92951 0.23608,-1.59425 0.34552,-12.61883 0.10438,-10.51425 0.0982,-11.659 -0.0637,-11.859 -0.21407,-0.26433 -0.268,-0.27044 -0.52801,-0.0598 -0.228,0.18475 -0.27731,0.66206 -0.63668,6.16318 -0.5062,7.74858 -0.80385,13.69073 -0.80486,16.06773 -7.9e-4,1.83667 0.22989,3.17927 0.6305,3.66982 0.26269,0.32166 0.33339,0.31385 0.60342,-0.0666 z m 362.47135,-0.33222 c 0.50782,-1.13278 0.52507,-1.5021 0.63444,-13.58319 0.0573,-6.33113 0.0804,-11.58229 0.0512,-11.66926 -0.0646,-0.19264 -0.44315,-0.20934 -0.54646,-0.0241 -0.22347,0.40069 -1.30468,18.8429 -1.30742,22.30078 -0.001,1.86701 0.41747,3.60878 0.83375,3.46623 0.0745,-0.0255 0.225,-0.2462 0.33449,-0.49045 z M 231.80578,334.9862 c 0.57867,-1.09801 0.57769,-1.07839 0.68667,-13.65546 0.056,-6.46746 0.0765,-11.83248 0.0454,-11.92225 -0.0851,-0.24586 -0.61006,-0.19702 -0.73839,0.0687 -0.12016,0.24882 -0.43943,4.45545 -0.80323,10.58349 -0.56993,9.6 -0.64656,12.9722 -0.32027,14.09427 0.38359,1.31911 0.73604,1.57843 1.12984,0.83124 z m 234.76661,-62.86665 c 0.12312,-0.17347 0.32735,-0.75693 0.45385,-1.29659 0.21788,-0.9295 0.23609,-1.59424 0.34552,-12.61883 0.10438,-10.51425 0.0982,-11.659 -0.0637,-11.859 -0.21407,-0.26433 -0.26801,-0.27043 -0.52802,-0.0598 -0.228,0.18476 -0.2773,0.66206 -0.63667,6.16318 -0.50621,7.74858 -0.80385,13.69073 -0.80486,16.06773 -10e-4,1.83668 0.22989,3.17928 0.63051,3.66983 0.26267,0.32165 0.33337,0.31385 0.60341,-0.0666 z m -100.08135,-4.75786 c 0.49294,-1.07078 0.56009,-1.90501 0.56909,-7.07037 0.005,-2.67855 0.0509,-7.85857 0.10268,-11.51114 0.0568,-4.00427 0.0526,-6.72893 -0.0105,-6.86241 -0.14621,-0.3091 -0.51689,-0.27608 -0.7099,0.0633 -0.16111,0.28326 -0.52268,5.05127 -0.92808,12.23849 -0.48294,8.56187 -0.53406,11.20764 -0.23831,12.33336 0.38152,1.45218 0.79282,1.72598 1.21504,0.80882 z M 189.21175,239.49821 c 0,-0.0263 -0.0899,-0.12588 -0.19976,-0.22137 -0.18105,-0.15734 -0.18509,-0.15287 -0.0431,0.0478 0.14912,0.21071 0.24286,0.27772 0.24286,0.17361 z m -0.60692,-1.62041 c -0.0364,-0.10091 -0.0635,-0.0709 -0.069,0.0764 -0.005,0.13335 0.022,0.20806 0.06,0.16602 0.0379,-0.042 0.042,-0.15113 0.009,-0.24245 z m 1.59808,-0.50598 c -0.0364,-0.10091 -0.0635,-0.0709 -0.069,0.0764 -0.005,0.13335 0.022,0.20806 0.06,0.16603 0.0379,-0.042 0.042,-0.15114 0.009,-0.24245 z m -1.7111,-0.32174 c -0.0289,-0.12308 -0.0545,-0.053 -0.0568,0.15571 -0.002,0.20872 0.0214,0.30942 0.0526,0.22378 0.0313,-0.0856 0.0332,-0.25641 0.004,-0.37949 z m 1.83273,-7.46567 c -0.0186,-1.30449 -0.0337,-0.23718 -0.0337,2.3718 0,2.60898 0.0152,3.67629 0.0337,2.3718 0.0185,-1.30449 0.0185,-3.43911 0,-4.7436 z m -1.82825,4.7436 c -0.024,-0.29569 -0.0437,-0.0538 -0.0437,0.53761 0,0.59137 0.0197,0.83329 0.0437,0.5376 0.024,-0.29568 0.024,-0.77953 0,-1.07521 z m 0.11314,-2.90941 c -0.0253,-0.22611 -0.046,-0.0411 -0.046,0.41111 0,0.45222 0.0207,0.63723 0.046,0.41111 0.0253,-0.22611 0.0253,-0.59611 0,-0.82222 z m 0.1143,-2.27466 c -0.0254,-0.22736 -0.0467,-0.0718 -0.0473,0.34559 -6.9e-4,0.41744 0.0201,0.60346 0.0462,0.41338 0.026,-0.19008 0.0266,-0.53162 0.001,-0.75897 z m 0.11333,-2.08771 c -0.0262,-0.19229 -0.0484,-0.065 -0.0493,0.28287 -9.1e-4,0.34787 0.0206,0.50519 0.0477,0.34961 0.0271,-0.15559 0.0278,-0.4402 0.002,-0.63248 z m 0.1128,-2.08893 c -0.0272,-0.15654 -0.0495,-0.0285 -0.0495,0.28462 0,0.31308 0.0223,0.44115 0.0495,0.28461 0.0272,-0.15653 0.0272,-0.41269 0,-0.56923 z m 0.11415,-1.89744 c -0.0272,-0.15654 -0.0495,-0.0285 -0.0495,0.28462 0,0.31307 0.0223,0.44115 0.0495,0.28461 0.0272,-0.15654 0.0272,-0.41269 0,-0.56923 z m 0.1155,-1.83245 c -0.0262,-0.19228 -0.0484,-0.065 -0.0493,0.28287 -9.2e-4,0.34787 0.0206,0.50519 0.0477,0.34961 0.0271,-0.15558 0.0278,-0.4402 0.002,-0.63248 z m 1.25887,-3.22739 c -0.0204,-0.71312 -0.037,-0.12966 -0.037,1.29658 0,1.42625 0.0166,2.00971 0.037,1.29659 0.0203,-0.71312 0.0203,-1.88005 0,-2.59317 z m -1.14607,1.51795 c -0.0272,-0.15654 -0.0495,-0.0285 -0.0495,0.28462 0,0.31308 0.0223,0.44115 0.0495,0.28461 0.0272,-0.15653 0.0272,-0.41269 0,-0.56923 z m 0.11432,-1.64297 c -0.0273,-0.15735 -0.0507,-0.0584 -0.052,0.21989 -10e-4,0.27829 0.0211,0.40703 0.0496,0.28609 0.0286,-0.12094 0.0296,-0.34863 0.002,-0.50598 z m 0.11415,-1.64445 c -0.0273,-0.15735 -0.0507,-0.0584 -0.052,0.21989 -0.001,0.27829 0.0211,0.40704 0.0497,0.28609 0.0286,-0.12094 0.0296,-0.34863 0.002,-0.50598 z m 0.11415,-1.51795 c -0.0273,-0.15735 -0.0507,-0.0584 -0.052,0.21989 -0.001,0.27829 0.0211,0.40703 0.0496,0.28609 0.0286,-0.12094 0.0296,-0.34863 0.002,-0.50598 z m 0.48617,-1.10832 c 0.11721,0 0.23922,0.0583 0.27114,0.12966 0.0319,0.0713 0.0448,0.0571 0.0286,-0.0316 -0.0668,-0.36604 -0.7583,-0.17949 -0.74902,0.20207 0.002,0.0784 0.0558,0.043 0.11983,-0.0787 0.064,-0.12175 0.21225,-0.22137 0.32946,-0.22137 z m 125.90999,-13.58283 c 0,-0.0263 -0.0899,-0.12589 -0.19976,-0.22137 -0.18105,-0.15735 -0.18508,-0.15287 -0.0431,0.0478 0.14913,0.21071 0.24287,0.27772 0.24287,0.17361 z m -0.60692,-1.62041 c -0.0364,-0.10091 -0.0635,-0.0709 -0.069,0.0764 -0.005,0.13334 0.022,0.20806 0.06,0.16602 0.0379,-0.042 0.042,-0.15114 0.009,-0.24245 z m 1.59808,-0.50598 c -0.0364,-0.10091 -0.0635,-0.0709 -0.069,0.0764 -0.005,0.13335 0.022,0.20806 0.06,0.16603 0.0379,-0.042 0.042,-0.15114 0.009,-0.24245 z m -1.7111,-0.32174 c -0.029,-0.12308 -0.0545,-0.053 -0.0569,0.15571 -0.002,0.20872 0.0214,0.30942 0.0526,0.22378 0.0313,-0.0856 0.0332,-0.25642 0.004,-0.37949 z m 1.83273,-7.46568 c -0.0186,-1.30449 -0.0337,-0.23718 -0.0337,2.37181 0,2.60898 0.0152,3.67629 0.0337,2.3718 0.0186,-1.30449 0.0186,-3.43912 0,-4.74361 z m -1.82825,4.74361 c -0.024,-0.29569 -0.0437,-0.0538 -0.0437,0.5376 0,0.59137 0.0197,0.8333 0.0437,0.53761 0.024,-0.29568 0.024,-0.77953 0,-1.07521 z m 0.11314,-2.90941 c -0.0253,-0.22611 -0.046,-0.0411 -0.046,0.41111 0,0.45222 0.0207,0.63722 0.046,0.41111 0.0253,-0.22611 0.0253,-0.59611 0,-0.82222 z m 0.1143,-2.27467 c -0.0254,-0.22735 -0.0467,-0.0718 -0.0473,0.3456 -10e-4,0.41744 0.0201,0.60346 0.0462,0.41338 0.026,-0.19008 0.0266,-0.53162 0.001,-0.75898 z m 0.11333,-2.08771 c -0.0262,-0.19228 -0.0484,-0.065 -0.0493,0.28288 -10e-4,0.34786 0.0206,0.50519 0.0477,0.3496 0.0271,-0.15558 0.0278,-0.4402 0.002,-0.63248 z m 0.1128,-2.08892 c -0.0272,-0.15654 -0.0495,-0.0285 -0.0495,0.28462 0,0.31307 0.0223,0.44115 0.0495,0.28461 0.0272,-0.15654 0.0272,-0.41269 0,-0.56923 z m 0.11414,-1.89744 c -0.0272,-0.15654 -0.0495,-0.0285 -0.0495,0.28461 0,0.31308 0.0223,0.44116 0.0495,0.28462 0.0272,-0.15654 0.0272,-0.41269 0,-0.56923 z m 0.11551,-1.83245 c -0.0262,-0.19229 -0.0484,-0.065 -0.0493,0.28287 -10e-4,0.34787 0.0206,0.50519 0.0477,0.34961 0.0271,-0.15559 0.0278,-0.4402 0.002,-0.63248 z m 1.25887,-3.22739 c -0.0204,-0.71312 -0.037,-0.12966 -0.037,1.29658 0,1.42624 0.0167,2.00971 0.037,1.29659 0.0203,-0.71313 0.0203,-1.88005 0,-2.59317 z m -1.14608,1.51795 c -0.0272,-0.15654 -0.0495,-0.0285 -0.0495,0.28462 0,0.31307 0.0223,0.44115 0.0495,0.28461 0.0272,-0.15654 0.0272,-0.41269 0,-0.56923 z m 132.81653,-0.86898 c 0.50781,-1.13278 0.52507,-1.5021 0.63443,-13.58319 0.0573,-6.33113 0.0804,-11.58229 0.0512,-11.66926 -0.0646,-0.19264 -0.44315,-0.20934 -0.54645,-0.0241 -0.22347,0.40069 -1.30469,18.8429 -1.30743,22.30078 -0.001,1.867 0.41748,3.60878 0.83376,3.46624 0.0745,-0.0255 0.22499,-0.24621 0.33449,-0.49046 z m -132.7022,-0.77399 c -0.0273,-0.15735 -0.0507,-0.0584 -0.052,0.21989 -10e-4,0.27829 0.0211,0.40703 0.0497,0.28609 0.0286,-0.12094 0.0296,-0.34863 0.002,-0.50598 z m 0.11415,-1.64445 c -0.0273,-0.15735 -0.0507,-0.0584 -0.052,0.21989 -10e-4,0.27829 0.0211,0.40703 0.0497,0.28609 0.0286,-0.12094 0.0296,-0.34863 0.002,-0.50598 z m 0.11415,-1.51795 c -0.0273,-0.15735 -0.0507,-0.0584 -0.052,0.21989 -10e-4,0.27829 0.0211,0.40703 0.0497,0.28609 0.0286,-0.12094 0.0296,-0.34863 0.002,-0.50598 z m 0.48617,-1.10832 c 0.11721,0 0.23922,0.0584 0.27114,0.12966 0.0319,0.0713 0.0448,0.0571 0.0286,-0.0316 -0.0668,-0.36603 -0.75829,-0.17948 -0.74901,0.20207 0.002,0.0785 0.0558,0.043 0.11982,-0.0787 0.064,-0.12175 0.21225,-0.22137 0.32947,-0.22137 z m -48.24109,-0.92192 c 0.53715,-1.21848 0.53418,-1.15729 0.65238,-13.43538 0.0616,-6.4007 0.0842,-11.76571 0.0501,-11.92225 -0.0709,-0.32577 -0.5178,-0.39489 -0.72909,-0.11277 -0.13591,0.18147 -0.42174,3.78654 -0.80378,10.13758 -0.39346,6.54096 -0.49253,8.77494 -0.50766,11.44789 -0.0126,2.23424 0.015,2.68947 0.19975,3.2889 0.38285,1.24218 0.7652,1.44239 1.13831,0.59603 z"
         id="path2392"
         inkscape:connector-curvature="0" />
      <path
         style="fill:#334d5f;stroke-width:0.12016394"
         d="m 106.7963,460.35068 v -54.07117 l 0.32864,0.20902 c 0.31079,0.19766 0.64414,0.17621 6.1355,-0.39488 3.19377,-0.33215 6.60127,-0.69214 7.57221,-0.79999 1.97734,-0.21964 3.00193,-0.13382 4.19042,0.35096 0.36567,0.14915 1.10148,0.45 1.63512,0.66852 l 0.97027,0.39734 12.78467,0.0661 12.78467,0.0661 2.56834,0.61492 c 3.89744,0.93312 3.90718,0.93243 8.50409,-0.60761 l 3.65276,-1.22374 7.99042,-1.07281 c 8.85243,-1.18856 8.51451,-1.16118 20.26142,-1.64134 4.30055,-0.17579 7.99243,-0.35417 8.20417,-0.39641 0.88381,-0.1763 1.73872,-1.61735 1.55133,-2.61495 -0.28724,-1.52911 -2.71023,-3.97031 -4.8471,-4.88352 -1.31406,-0.56157 -2.51056,-0.74017 -5.93574,-0.88605 -4.14238,-0.17643 -5.25561,-0.26605 -4.96548,-0.39972 0.12557,-0.0579 1.45154,-0.36003 2.9466,-0.67153 1.61203,-0.33586 2.86617,-0.66205 3.08163,-0.8015 0.19983,-0.12933 0.48363,-0.4313 0.63066,-0.67105 0.22082,-0.36007 0.25956,-0.55892 0.22271,-1.14312 -0.0505,-0.79997 -0.20954,-1.07901 -1.08991,-1.91176 -1.48537,-1.40504 -3.0917,-2.10009 -5.15693,-2.23135 l -1.30578,-0.083 -0.0935,-0.40131 c -0.21877,-0.93878 -2.24713,-2.28822 -3.98932,-2.65405 -0.60969,-0.12801 -1.24174,-0.1748 -1.75262,-0.12975 -0.43947,0.0388 -4.6002,0.92876 -9.24605,1.97777 -12.44204,2.80931 -22.13411,4.83117 -23.52343,4.90722 -1.34086,0.0734 -1.6419,-0.0349 -3.09935,-1.11506 -2.0633,-1.52916 -3.27399,-2.87493 -5.3075,-5.89964 -1.30211,-1.9368 -1.74963,-2.91188 -1.9085,-4.15838 -0.20467,-1.60585 0.074,-2.79296 1.12479,-4.79127 2.21654,-4.21529 3.10975,-7.27351 3.43976,-11.77716 0.13355,-1.82252 0.042,-2.60505 -0.43087,-3.68242 -1.00712,-2.29465 -3.7321,-3.45329 -5.61108,-2.38578 -0.94038,0.53427 -1.50636,1.34702 -3.21786,4.62088 -2.84834,5.44849 -4.77796,8.81534 -6.56101,11.44789 -1.20722,1.78235 -1.45936,2.04031 -3.58943,3.67214 -0.97311,0.74551 -2.20592,1.73127 -2.73957,2.19058 -1.38276,1.19017 -4.02544,4.09344 -5.1986,5.71124 -1.04967,1.44749 -1.03795,1.43898 -2.164,1.57284 -4.4155,0.52493 -6.80004,0.88529 -7.34029,1.10928 -0.34918,0.14479 -0.81268,0.47109 -1.06275,0.74822 l -0.44349,0.49146 V 261.30329 134.93375 H 335.09394 563.39158 V 324.6778 514.42185 h -34.18472 -34.18472 l 0.0487,-0.34786 c 0.0268,-0.19133 0.0774,-3.31751 0.11236,-6.94708 0.0569,-5.90759 0.0447,-6.62017 -0.11682,-6.79916 -0.2204,-0.24424 -0.28994,-0.24764 -0.56167,-0.0274 -0.24377,0.19754 -0.41032,2.06162 -0.87456,9.78906 l -0.26028,4.33249 H 300.08309 106.7963 Z m 287.01485,37.46857 c 0.0903,-0.15654 0.25248,-0.5977 0.36048,-0.98035 0.17648,-0.62531 0.20658,-1.88626 0.29737,-12.45697 0.0555,-6.46869 0.0759,-11.83371 0.0453,-11.92225 -0.0959,-0.2768 -0.50983,-0.18743 -0.57264,0.12361 -0.0836,0.41387 -0.58795,7.96018 -0.85602,12.80772 -0.32789,5.92951 -0.45464,9.88067 -0.34289,10.68892 0.24354,1.76134 0.66248,2.44333 1.06845,1.73932 z M 179.28479,491.6088 c 0.5227,-1.30949 0.54065,-1.65547 0.61453,-11.84686 0.0386,-5.32232 0.10226,-10.5085 0.14151,-11.52484 0.0687,-1.77971 0.0623,-1.858 -0.17573,-2.12171 -0.19401,-0.215 -0.2939,-0.24606 -0.46504,-0.14456 -0.11987,0.0711 -0.24571,0.22895 -0.27964,0.35076 -0.20447,0.7342 -1.09584,15.54085 -1.26982,21.09336 -0.0644,2.05596 -0.0483,2.37421 0.16621,3.2795 0.37344,1.57597 0.86297,1.92897 1.26798,0.91435 z m 281.53535,-17.655 c 0.10885,-0.13327 0.30509,-0.60288 0.43612,-1.0436 0.22963,-0.77237 0.24132,-1.14582 0.32405,-10.35172 0.0472,-5.25275 0.11065,-10.59494 0.14102,-11.87154 0.0515,-2.16742 0.0406,-2.33719 -0.16442,-2.56444 -0.29573,-0.32772 -0.64031,-0.12322 -0.72136,0.42808 -0.28739,1.95497 -1.19341,17.88716 -1.22101,21.47116 -0.0151,1.95967 0.0114,2.31119 0.23108,3.06337 0.21383,0.7322 0.44426,1.09218 0.70872,1.10716 0.0374,0.002 0.15696,-0.1052 0.2658,-0.23847 z M 266.75062,444.57861 c 0.47203,-1.06979 0.53445,-1.94277 0.54594,-7.63558 0.006,-2.99163 0.0503,-8.11472 0.0984,-11.38464 0.0805,-5.47379 0.0524,-6.39199 -0.19501,-6.38612 -0.40205,0.009 -0.41807,0.12979 -0.81659,6.13312 -0.78407,11.81131 -0.96785,17.22282 -0.62964,18.54034 0.35408,1.37936 0.6241,1.57786 0.99694,0.73288 z m 236.37656,-26.30715 c 0.49294,-1.07078 0.56009,-1.90501 0.56909,-7.07037 0.005,-2.67856 0.0509,-7.85857 0.10267,-11.51114 0.0568,-4.00427 0.0526,-6.72893 -0.0105,-6.86241 -0.1462,-0.30911 -0.51689,-0.27608 -0.70989,0.0632 -0.16111,0.28326 -0.52269,5.05126 -0.92809,12.23849 -0.48294,8.56187 -0.53405,11.20763 -0.2383,12.33336 0.38152,1.45217 0.79282,1.72598 1.21504,0.80882 z m -70.72137,-20.16271 0.34245,-0.75898 0.0327,-8.47523 c 0.018,-4.66138 0.006,-8.59704 -0.0275,-8.7459 -0.10165,-0.4567 -0.64609,-0.51972 -0.79423,-0.0919 -0.20147,0.5818 -1.09341,13.62679 -1.09404,16.00059 0,0.77305 0.0638,1.4187 0.17525,1.76887 0.44209,1.38857 0.83606,1.47588 1.36544,0.30259 z M 312.88862,357.77998 c 0.0952,-0.16103 0.26985,-0.71603 0.38811,-1.23334 0.19751,-0.86403 0.223,-1.7897 0.31331,-11.37648 0.13099,-13.90875 0.1393,-12.78398 -0.0956,-12.94874 -0.43882,-0.30779 -0.47045,-0.0839 -0.88202,6.24445 -0.47861,7.35918 -0.80294,13.83161 -0.80407,16.04674 -0.001,1.46491 0.19963,2.71759 0.52397,3.27553 0.20978,0.36088 0.33925,0.35898 0.55633,-0.008 z m 61.95712,-3.47048 c 0.2675,-0.33352 0.49212,-1.01357 0.63719,-1.92907 0.0851,-0.5373 0.16758,-4.78916 0.23792,-12.27011 0.10302,-10.95624 0.0988,-11.45795 -0.0985,-11.68196 -0.31816,-0.36133 -0.6595,-0.0938 -0.74288,0.58226 -0.2921,2.36827 -1.20165,18.75255 -1.20269,21.66485 -0.001,1.7714 0.23571,3.12297 0.63065,3.60658 0.24922,0.30518 0.31292,0.30842 0.53827,0.0274 z M 142.96048,340.5539 c 0.12313,-0.17346 0.32737,-0.75693 0.45386,-1.29658 0.21788,-0.92951 0.23608,-1.59425 0.34552,-12.61883 0.10438,-10.51425 0.0982,-11.659 -0.0637,-11.859 -0.21407,-0.26433 -0.268,-0.27044 -0.52801,-0.0598 -0.228,0.18475 -0.27731,0.66206 -0.63668,6.16318 -0.5062,7.74858 -0.80385,13.69073 -0.80486,16.06773 -7.9e-4,1.83667 0.22989,3.17927 0.6305,3.66982 0.26269,0.32166 0.33339,0.31385 0.60342,-0.0666 z m 362.47135,-0.33222 c 0.50782,-1.13278 0.52507,-1.5021 0.63444,-13.58319 0.0573,-6.33113 0.0804,-11.58229 0.0512,-11.66926 -0.0646,-0.19264 -0.44315,-0.20934 -0.54646,-0.0241 -0.22347,0.40069 -1.30468,18.8429 -1.30742,22.30078 -0.001,1.86701 0.41747,3.60878 0.83375,3.46623 0.0745,-0.0255 0.225,-0.2462 0.33449,-0.49045 z M 231.80578,334.9862 c 0.57867,-1.09801 0.57769,-1.07839 0.68667,-13.65546 0.056,-6.46746 0.0765,-11.83248 0.0454,-11.92225 -0.0851,-0.24586 -0.61006,-0.19702 -0.73839,0.0687 -0.12016,0.24882 -0.43943,4.45545 -0.80323,10.58349 -0.56993,9.6 -0.64656,12.9722 -0.32027,14.09427 0.38359,1.31911 0.73604,1.57843 1.12984,0.83124 z m 234.76661,-62.86665 c 0.12312,-0.17347 0.32735,-0.75693 0.45385,-1.29659 0.21788,-0.9295 0.23609,-1.59424 0.34552,-12.61883 0.10438,-10.51425 0.0982,-11.659 -0.0637,-11.859 -0.21407,-0.26433 -0.26801,-0.27043 -0.52802,-0.0598 -0.228,0.18476 -0.2773,0.66206 -0.63667,6.16318 -0.50621,7.74858 -0.80385,13.69073 -0.80486,16.06773 -10e-4,1.83668 0.22989,3.17928 0.63051,3.66983 0.26267,0.32165 0.33337,0.31385 0.60341,-0.0666 z m -100.08135,-4.75786 c 0.49294,-1.07078 0.56009,-1.90501 0.56909,-7.07037 0.005,-2.67855 0.0509,-7.85857 0.10268,-11.51114 0.0568,-4.00427 0.0526,-6.72893 -0.0105,-6.86241 -0.14621,-0.3091 -0.51689,-0.27608 -0.7099,0.0633 -0.16111,0.28326 -0.52268,5.05127 -0.92808,12.23849 -0.48294,8.56187 -0.53406,11.20764 -0.23831,12.33336 0.38152,1.45218 0.79282,1.72598 1.21504,0.80882 z m -176.62415,-28.5952 c 0.14081,-0.39393 0.30272,-1.10547 0.35978,-1.5812 0.0571,-0.47573 0.12173,-5.98806 0.1437,-12.24961 l 0.0399,-11.38465 -0.23829,-0.0377 c -0.13105,-0.0207 -0.29941,0.0439 -0.37412,0.14364 -0.27263,0.36403 -1.38519,18.41085 -1.38519,22.4691 0,1.25041 0.28451,2.84798 0.57667,3.23809 0.28515,0.38075 0.60584,0.16234 0.87751,-0.59765 z m 126.81934,-39.46676 c 0.14082,-0.39393 0.30271,-1.10547 0.35978,-1.5812 0.0571,-0.47574 0.12173,-5.98806 0.1437,-12.24961 l 0.0399,-11.38465 -0.23829,-0.0377 c -0.13105,-0.0207 -0.29941,0.0439 -0.37412,0.14365 -0.27262,0.36403 -1.38519,18.41085 -1.38519,22.4691 0,1.2504 0.28451,2.84798 0.57666,3.23809 0.28516,0.38075 0.60585,0.16234 0.87752,-0.59765 z m 132.24194,-20.1075 c 0.50781,-1.13278 0.52507,-1.5021 0.63443,-13.58319 0.0573,-6.33113 0.0804,-11.58229 0.0512,-11.66926 -0.0646,-0.19264 -0.44315,-0.20934 -0.54645,-0.0241 -0.22347,0.40069 -1.30469,18.8429 -1.30743,22.30078 -0.001,1.867 0.41748,3.60878 0.83376,3.46624 0.0745,-0.0255 0.22499,-0.24621 0.33449,-0.49046 z M 268.69935,173.2256 c 0.53715,-1.21848 0.53418,-1.15729 0.65238,-13.43538 0.0616,-6.4007 0.0842,-11.76571 0.0501,-11.92225 -0.0709,-0.32577 -0.5178,-0.39489 -0.72909,-0.11277 -0.13591,0.18147 -0.42174,3.78654 -0.80378,10.13758 -0.39346,6.54096 -0.49253,8.77494 -0.50766,11.44789 -0.0126,2.23424 0.015,2.68947 0.19975,3.2889 0.38285,1.24218 0.7652,1.44239 1.13831,0.59603 z"
         id="path2390"
         inkscape:connector-curvature="0" />
      <path
         style="fill:#071d2a;stroke-width:0.12016394"
         d="m 106.7963,460.40804 c 0,-29.70759 0.0411,-54.0138 0.0913,-54.0138 0.0502,0 0.15148,0.0667 0.22501,0.14815 0.19537,0.2165 0.57686,0.188 7.95946,-0.5947 8.75014,-0.92768 8.53448,-0.93526 11.52903,0.40513 l 0.79904,0.35766 12.78467,0.0668 12.78467,0.0668 2.91079,0.67207 c 3.9372,0.90905 3.75358,0.92314 8.50409,-0.65253 l 3.65276,-1.21157 8.21872,-1.09258 8.21871,-1.09259 7.24845,-0.30543 c 13.27271,-0.55929 12.60142,-0.51795 13.11349,-0.80745 0.67362,-0.38083 1.07018,-1.02492 1.13094,-1.83685 0.0769,-1.02758 -0.11917,-1.4743 -1.19904,-2.73181 -1.11061,-1.29329 -2.22992,-2.1753 -3.50995,-2.76582 -1.32974,-0.61346 -2.15322,-0.76114 -4.96949,-0.89128 -5.31471,-0.24558 -6.0745,-0.29498 -5.92154,-0.38495 0.0864,-0.0508 1.31279,-0.32903 2.72538,-0.61829 2.80688,-0.57476 3.42347,-0.8096 3.76768,-1.43495 0.60136,-1.09254 0.41623,-1.91193 -0.68793,-3.04481 -1.45174,-1.48946 -3.33636,-2.33615 -5.4198,-2.43488 l -1.14149,-0.0541 -0.19056,-0.49493 c -0.29789,-0.77367 -1.94499,-1.99832 -3.23391,-2.40446 -0.89415,-0.28176 -2.10544,-0.39105 -2.91818,-0.26331 -0.43374,0.0682 -4.68036,1.00237 -9.43691,2.07602 -9.02719,2.0376 -20.75881,4.53162 -22.46313,4.77543 -1.24735,0.17844 -1.80998,0.0481 -2.89156,-0.66981 -2.14727,-1.42527 -3.80387,-3.17463 -5.76295,-6.08566 -1.86494,-2.77112 -2.22,-3.72929 -2.09848,-5.66297 0.0733,-1.16606 0.31862,-1.89679 1.19892,-3.57096 1.41056,-2.68263 2.19401,-4.73266 2.7686,-7.24445 0.42968,-1.87838 0.71728,-4.48478 0.66228,-6.00218 -0.0388,-1.06976 -0.0917,-1.3342 -0.41038,-2.05161 -0.44901,-1.01073 -1.37322,-2.01457 -2.28129,-2.47784 -0.51758,-0.26407 -0.8802,-0.34617 -1.71212,-0.38771 -0.96363,-0.0481 -1.10941,-0.0235 -1.67543,0.28342 -0.92287,0.50036 -1.69519,1.51771 -2.797,3.68443 -3.29747,6.48444 -7.01001,12.75381 -8.47339,14.30898 -0.27259,0.28968 -1.18907,1.05285 -2.03663,1.69591 -0.84755,0.64307 -1.81224,1.39106 -2.14374,1.66218 -1.94147,1.58785 -4.49927,4.33833 -6.12159,6.58275 -0.49032,0.67833 -0.96539,1.23333 -1.05571,1.23333 -0.46829,0 -7.35364,0.91694 -7.74356,1.03122 -0.66329,0.19442 -1.31943,0.59368 -1.68149,1.02319 l -0.31676,0.37577 V 261.25342 134.93375 H 335.09394 563.39158 V 324.6778 514.42185 h -34.1767 -34.17672 l 0.0514,-0.47436 c 0.0283,-0.2609 0.0939,-3.34898 0.1459,-6.86241 0.0796,-5.38004 0.0693,-6.43296 -0.0649,-6.67267 -0.19485,-0.34794 -0.67191,-0.37762 -0.82936,-0.0516 -0.11857,0.24549 -0.34288,2.91104 -0.63508,7.5465 -0.32563,5.16574 -0.37707,6.18615 -0.32011,6.35062 0.0465,0.1342 -34.99951,0.16393 -193.26647,0.16393 H 106.7963 Z m 286.94966,37.83902 c 0.0829,-0.0583 0.28539,-0.49854 0.44995,-0.97841 0.34561,-1.0078 0.3056,0.26679 0.47739,-15.20903 0.0582,-5.24132 0.0794,-9.60578 0.0472,-9.69879 -0.13468,-0.38896 -0.75438,-0.36298 -0.89474,0.0375 -0.15966,0.45558 -0.92948,12.57315 -1.21115,19.06446 -0.14804,3.41164 -0.10027,4.89332 0.18758,5.81882 0.2949,0.94812 0.56912,1.22864 0.94375,0.96542 z m -214.55165,-6.3567 c 0.12269,-0.18228 0.32452,-0.72305 0.44851,-1.20171 0.21341,-0.82384 0.23122,-1.50051 0.33374,-12.68135 0.081,-8.83634 0.0754,-11.855 -0.0223,-11.9855 -0.0718,-0.0959 -0.25539,-0.17443 -0.40786,-0.17443 -0.53651,0 -0.56276,0.21236 -1.12585,9.10772 -0.33181,5.24156 -0.62365,11.45506 -0.62365,13.27765 0,3.11678 0.63783,4.78621 1.39744,3.65762 z M 460.93038,473.9115 c 0.0901,-0.15654 0.27537,-0.68308 0.41168,-1.17009 0.24342,-0.86973 0.24966,-1.09556 0.35084,-12.70204 0.0751,-8.61357 0.0687,-11.86237 -0.0235,-11.9855 -0.18484,-0.24683 -0.64323,-0.2063 -0.77599,0.0686 -0.21264,0.4403 -0.77957,8.7012 -1.20635,17.57817 -0.26464,5.50422 -0.20328,6.9458 0.3457,8.12225 0.21585,0.46256 0.65726,0.50612 0.89763,0.0886 z M 266.56019,445.25821 c 0.20306,-0.14889 0.4691,-0.80434 0.6561,-1.61649 0.13814,-0.59998 0.1866,-1.98976 0.23797,-6.82519 0.0355,-3.33949 0.0942,-8.62189 0.13048,-11.73866 0.0503,-4.32407 0.0334,-5.71035 -0.0715,-5.85045 -0.18987,-0.25352 -0.64967,-0.23034 -0.77989,0.0393 -0.20091,0.416 -0.98283,12.52555 -1.27614,19.76348 -0.13377,3.30096 -0.0997,4.02146 0.24896,5.27254 0.24242,0.86977 0.53081,1.19242 0.85403,0.95546 z m 236.39099,-26.55024 c 0.21627,-0.23965 0.34369,-0.57823 0.5877,-1.56157 0.14452,-0.58243 0.18968,-2.61147 0.27732,-12.45986 l 0.1047,-11.76413 -0.23932,-0.21953 c -0.27139,-0.24895 -0.61508,-0.12927 -0.7209,0.25101 -0.2046,0.73525 -0.9857,13.23528 -1.22708,19.63701 -0.1233,3.27025 -0.11801,3.69542 0.0566,4.55673 0.20905,1.03081 0.54609,1.76971 0.80727,1.76971 0.0906,0 0.24976,-0.0942 0.35367,-0.20937 z m -70.79572,-19.87649 c 0.10151,-0.12429 0.30209,-0.50852 0.44575,-0.85385 l 0.26119,-0.62786 0.0323,-8.62918 c 0.0319,-8.53127 0.0297,-8.6321 -0.19976,-8.88635 -0.28617,-0.31712 -0.40238,-0.32142 -0.67006,-0.0248 -0.15921,0.17644 -0.24124,0.57986 -0.34079,1.67607 -0.36339,4.00159 -0.93217,12.94549 -0.93299,14.6712 -0.001,1.99458 0.76635,3.456 1.40435,2.67476 z m -119.135,-40.95492 c 0.10493,-0.17748 0.29039,-0.70402 0.41213,-1.17009 0.20807,-0.79657 0.22772,-1.54545 0.32759,-12.48503 0.0584,-6.4007 0.0801,-11.75944 0.0481,-11.9083 -0.11689,-0.54386 -0.79778,-0.4572 -0.91291,0.1162 -0.12403,0.61767 -0.71871,9.80641 -1.03343,15.96801 -0.26159,5.12136 -0.27162,7.53723 -0.0351,8.44851 0.34412,1.32591 0.79096,1.71176 1.19366,1.0307 z m 61.96539,-3.63031 c 0.0996,-0.15654 0.29096,-0.65462 0.42529,-1.10684 0.25753,-0.86699 0.26559,-1.28055 0.43125,-22.12297 0.0161,-2.02424 -0.0102,-2.48576 -0.15047,-2.6412 -0.21371,-0.23682 -0.7205,-0.11578 -0.80641,0.1926 -0.16515,0.59292 -0.95081,13.20653 -1.21925,19.57497 -0.13396,3.17794 -0.0998,4.14262 0.18364,5.1787 0.32339,1.18238 0.75073,1.53026 1.13595,0.92474 z m -231.87331,-13.8203 c 0.57681,-1.09785 0.57601,-1.08191 0.68836,-13.70368 0.08,-8.98766 0.0732,-11.84951 -0.0287,-11.9855 -0.18728,-0.25007 -0.64722,-0.22283 -0.77707,0.046 -0.31657,0.6555 -1.50612,21.47149 -1.33893,23.43007 0.0793,0.92882 0.32804,1.92621 0.59157,2.37191 0.2351,0.39762 0.60843,0.32904 0.86476,-0.15884 z m 362.42251,0 c 0.5673,-1.07977 0.56871,-1.10802 0.68233,-13.72319 0.10016,-11.1199 0.0948,-11.83585 -0.0899,-11.9855 -0.26129,-0.21173 -0.34276,-0.20159 -0.59103,0.0735 -0.23412,0.25945 -0.20485,-0.0405 -0.64386,6.59811 -0.62375,9.43224 -0.91121,16.10858 -0.74363,17.27108 0.12474,0.86532 0.38719,1.77532 0.5902,2.04637 0.20277,0.27077 0.57524,0.13954 0.79588,-0.2804 z m -273.57634,-5.6492 c 0.1502,-0.35926 0.32672,-1.02811 0.39226,-1.48633 0.12413,-0.86771 0.38365,-23.55207 0.2731,-23.87128 -0.0938,-0.27092 -0.59814,-0.36385 -0.79436,-0.14641 -0.19945,0.22103 -0.26462,0.91629 -0.66146,7.05633 -0.45889,7.10006 -0.63186,10.45785 -0.71069,13.79591 -0.0704,2.98401 -0.0632,3.14425 0.18365,4.04788 0.30081,1.10124 0.396,1.25711 0.76775,1.25711 0.22179,0 0.3308,-0.12953 0.54975,-0.65321 z m 234.76574,-62.78516 c 0.5768,-1.09784 0.576,-1.0819 0.68836,-13.70368 0.08,-8.98765 0.0732,-11.8495 -0.0287,-11.9855 -0.18728,-0.25007 -0.64722,-0.22281 -0.77707,0.046 -0.31656,0.6555 -1.50611,21.47149 -1.33893,23.43006 0.0793,0.92882 0.32804,1.92622 0.59157,2.37192 0.2351,0.39761 0.60843,0.32904 0.86477,-0.15885 z m -100.4094,-4.19339 c 0.21626,-0.23965 0.34369,-0.57823 0.58769,-1.56157 0.14453,-0.58242 0.18968,-2.61147 0.27733,-12.45986 l 0.10469,-11.76413 -0.23932,-0.21953 c -0.27139,-0.24894 -0.61508,-0.12927 -0.7209,0.25102 -0.2046,0.73525 -0.98569,13.23527 -1.22707,19.637 -0.12331,3.27025 -0.11802,3.69542 0.0566,4.55673 0.20904,1.03082 0.54609,1.76972 0.80726,1.76972 0.0906,0 0.24977,-0.0942 0.35368,-0.20938 z M 189.86689,238.76649 c 0.14081,-0.39393 0.30272,-1.10547 0.35978,-1.5812 0.0571,-0.47573 0.12173,-5.98806 0.1437,-12.24961 l 0.0399,-11.38465 -0.23829,-0.0377 c -0.13105,-0.0207 -0.29941,0.0439 -0.37412,0.14364 -0.27263,0.36403 -1.38519,18.41085 -1.38519,22.4691 0,1.25041 0.28451,2.84798 0.57667,3.23809 0.28515,0.38075 0.60584,0.16234 0.87751,-0.59765 z m 126.81934,-39.46676 c 0.14082,-0.39393 0.30271,-1.10547 0.35978,-1.5812 0.0571,-0.47574 0.12173,-5.98806 0.1437,-12.24961 l 0.0399,-11.38465 -0.23829,-0.0377 c -0.13105,-0.0207 -0.29941,0.0439 -0.37412,0.14365 -0.27262,0.36403 -1.38519,18.41085 -1.38519,22.4691 0,1.2504 0.28451,2.84798 0.57666,3.23809 0.28516,0.38075 0.60585,0.16234 0.87752,-0.59765 z M 449.03138,179.3965 c 0.56731,-1.07977 0.56871,-1.10802 0.68234,-13.72318 0.10015,-11.1199 0.0948,-11.83586 -0.0899,-11.9855 -0.26128,-0.21173 -0.34275,-0.2016 -0.59103,0.0735 -0.23411,0.25945 -0.20485,-0.0405 -0.64385,6.59811 -0.62376,9.43225 -0.91122,16.10858 -0.74364,17.27107 0.12475,0.86533 0.3872,1.77533 0.5902,2.04638 0.20277,0.27077 0.57524,0.13955 0.79588,-0.2804 z m -180.31154,-6.01533 c 0.0993,-0.21277 0.28039,-0.81957 0.40245,-1.34844 0.20173,-0.87402 0.22253,-1.44066 0.22854,-6.22256 0.004,-2.89353 0.0499,-8.07867 0.10273,-11.52253 0.083,-5.40579 0.0733,-6.30151 -0.0709,-6.55392 -0.2143,-0.37515 -0.61796,-0.32319 -0.79728,0.10263 -0.26543,0.63031 -1.2743,17.36273 -1.32328,21.94706 -0.0208,1.94607 0.13302,2.97576 0.55268,3.70001 0.24517,0.42309 0.683,0.37363 0.90507,-0.10225 z"
         id="path2388"
         inkscape:connector-curvature="0" />
      <path
         style="fill:#08131b;stroke-width:0.12016394"
         d="m 158.39157,411.36584 c -0.15696,-0.0296 -1.46682,-0.31841 -2.9108,-0.64183 l -2.62542,-0.58803 -12.67052,-0.0683 -12.67052,-0.0683 -1.74555,-0.67063 c -2.58174,-0.9919 -2.11147,-0.9907 -11.15327,-0.0282 -1.88345,0.20049 -4.07756,0.43295 -4.87578,0.51661 -1.57607,0.16515 -2.49399,0.12188 -2.7684,-0.1305 -0.14,-0.12874 -0.17501,-0.47418 -0.17501,-1.72666 0,-1.42006 0.0919,-1.8891 0.26958,-1.37597 0.0999,0.28854 0.5445,0.25832 8.38316,-0.56984 8.26811,-0.87353 8.09267,-0.87459 10.23889,0.062 0.6906,0.30138 1.56043,0.61008 1.93296,0.68601 0.46195,0.0942 4.52549,0.13806 12.77943,0.13806 h 12.10211 l 3.2014,0.7083 c 4.19162,0.9274 3.90014,0.94879 8.67495,-0.63649 l 3.64715,-1.21088 8.11017,-1.08198 c 8.90053,-1.18743 7.7042,-1.09247 20.61961,-1.63675 4.60119,-0.1939 7.63697,-0.37193 7.87627,-0.46189 0.21416,-0.0805 0.52835,-0.25358 0.69821,-0.38462 l 0.30883,-0.23824 0.1763,0.3778 c 0.21866,0.46858 0.22845,1.5284 0.0191,2.07052 -0.20323,0.52635 -0.69821,1.03618 -1.25727,1.29496 -0.48575,0.22487 -0.82727,0.24478 -11.82683,0.68977 -7.5391,0.30501 -7.69894,0.31603 -11.12951,0.76772 -14.4695,1.90517 -13.29786,1.70428 -16.9511,2.90645 -1.7265,0.56814 -3.47298,1.11214 -3.88106,1.20889 -0.70597,0.16737 -1.77896,0.20857 -2.39712,0.0921 z m 34.32552,-17.49859 c -0.92864,-0.05 -1.70965,-0.11446 -1.73557,-0.14318 -0.0259,-0.0287 1.01638,-0.27001 2.31625,-0.53617 1.29986,-0.26615 2.56885,-0.56202 2.81998,-0.65748 0.25113,-0.0955 0.51523,-0.17438 0.58689,-0.1754 0.15991,-0.002 0.49753,0.89953 0.49753,1.32892 v 0.31369 l -1.39833,-0.0197 c -0.76908,-0.0109 -2.15811,-0.0606 -3.08675,-0.11067 z m -51.90557,-14.8594 c -0.1746,-0.49468 -0.0876,-2.35914 0.14324,-3.07042 0.0965,-0.29727 0.53926,-1.23997 0.98393,-2.09488 1.61217,-3.09945 2.49061,-5.58714 3.10737,-8.79993 l 0.33024,-1.72028 -0.0558,1.64445 c -0.13508,3.98199 -1.15064,7.74603 -3.14191,11.64512 -0.51781,1.01393 -1.0071,2.05318 -1.08731,2.30946 l -0.14583,0.46596 z"
         id="path2386"
         inkscape:connector-curvature="0" />
    </g>
  </g>
</svg>
