<?xml version="1.0" encoding="UTF-8" standalone="no"?>
<!-- Created with Inkscape (http://www.inkscape.org/) -->

<svg
   xmlns:dc="http://purl.org/dc/elements/1.1/"
   xmlns:cc="http://creativecommons.org/ns#"
   xmlns:rdf="http://www.w3.org/1999/02/22-rdf-syntax-ns#"
   xmlns:svg="http://www.w3.org/2000/svg"
   xmlns="http://www.w3.org/2000/svg"
   xmlns:sodipodi="http://sodipodi.sourceforge.net/DTD/sodipodi-0.dtd"
   xmlns:inkscape="http://www.inkscape.org/namespaces/inkscape"
   width="412.75049mm"
   height="328.08334mm"
   viewBox="0 0 412.75049 328.08334"
   version="1.1"
   id="svg931"
   inkscape:version="0.92.3 (2405546, 2018-03-11)"
   sodipodi:docname="initialmenu0_vect.svg">
  <defs
     id="defs925" />
  <sodipodi:namedview
     id="base"
     pagecolor="#ffffff"
     bordercolor="#666666"
     borderopacity="1.0"
     inkscape:pageopacity="0.0"
     inkscape:pageshadow="2"
     inkscape:zoom="0.35"
     inkscape:cx="440.00089"
     inkscape:cy="617.14285"
     inkscape:document-units="mm"
     inkscape:current-layer="layer1"
     showgrid="false"
     fit-margin-top="0"
     fit-margin-left="0"
     fit-margin-right="0"
     fit-margin-bottom="0"
     inkscape:window-width="1920"
     inkscape:window-height="986"
     inkscape:window-x="-11"
     inkscape:window-y="-11"
     inkscape:window-maximized="1" />
  <metadata
     id="metadata928">
    <rdf:RDF>
      <cc:Work
         rdf:about="">
        <dc:format>image/svg+xml</dc:format>
        <dc:type
           rdf:resource="http://purl.org/dc/dcmitype/StillImage" />
        <dc:title></dc:title>
      </cc:Work>
    </rdf:RDF>
  </metadata>
  <g
     inkscape:label="Layer 1"
     inkscape:groupmode="layer"
     id="layer1"
     transform="translate(136.82762,15.964284)">
    <g
       id="g826"
       transform="matrix(0.39000028,0,0,0.41333333,112.59149,62.500158)">
      <path
         style="fill:#fdceb4;stroke-width:0.26458335"
         d="m -639.53571,207.04167 v -396.875 h 529.1667 529.1667 v 396.875 396.875 h -529.1667 -529.1667 z"
         id="path854"
         inkscape:connector-curvature="0" />
      <path
         style="fill:#decfc6;stroke-width:0.26458335"
         d="M -639.53571,490.73618 V 377.55571 l 1.91823,0.0828 c 1.69033,0.073 20.23176,-1.64198 29.69948,-2.74707 1.89177,-0.22082 4.51115,-0.34766 5.82083,-0.28188 2.40613,0.12083 2.77333,0.22643 8.73125,2.51058 l 1.85209,0.71003 29.36875,0.13229 29.36875,0.1323 7.01146,1.4129 c 9.26236,1.86647 8.58948,1.91299 19.57917,-1.35345 l 8.59896,-2.55585 18.8154,-2.25811 c 19.69902,-2.36416 19.48355,-2.3471 38.46689,-3.04959 25.09723,-0.92872 26.67709,-1.01288 27.64554,-1.47243 1.67899,-0.79674 2.53042,-2.65219 2.14929,-4.68379 -0.21566,-1.14954 -2.55158,-3.98497 -4.86103,-5.9005 -2.2277,-1.84772 -5.85794,-3.63786 -8.79043,-4.33475 -2.23436,-0.53096 -3.92549,-0.6404 -20.20445,-1.30738 -4.02028,-0.16471 -5.30504,-0.30144 -5.47909,-0.58307 -0.12506,-0.20235 -0.14172,-0.45355 -0.037,-0.55824 0.10469,-0.10467 3.93314,-0.90358 8.50766,-1.77533 5.72767,-1.09148 8.52768,-1.73844 8.99292,-2.07788 1.03753,-0.75702 1.6902,-2.27772 1.47933,-3.44686 -0.26952,-1.49428 -3.04731,-4.00306 -6.08192,-5.49293 -3.05915,-1.50194 -5.16089,-2.01814 -8.48664,-2.08436 -2.75931,-0.055 -3.3008,-0.18865 -3.3008,-0.81489 0,-0.89863 -0.73281,-1.76975 -2.63345,-3.13053 -2.74225,-1.96334 -4.69743,-2.61823 -8.21447,-2.75148 -2.63824,-0.0999 -3.31104,0.003 -13.36146,2.0429 -5.82083,1.18147 -11.41677,2.36924 -12.43542,2.63949 -2.1888,0.58065 -19.01187,3.99007 -28.04583,5.68385 -3.4925,0.65482 -9.50516,1.79822 -13.36146,2.54088 -7.65066,1.47344 -11.88246,1.88119 -13.64728,1.31498 -2.52616,-0.81047 -7.8189,-4.60582 -11.1369,-7.98611 -2.38746,-2.43226 -7.97992,-9.6928 -8.97911,-11.6573 -1.84198,-3.62154 -1.90116,-8.13353 -0.15535,-11.84593 0.3076,-0.65407 1.44421,-2.71473 2.5258,-4.57919 4.44806,-7.66763 6.82071,-16.02478 6.88767,-24.26028 0.0311,-3.82202 0.0277,-3.8449 -0.82867,-5.58869 -1.01914,-2.07526 -2.67617,-3.69903 -4.78232,-4.68635 -1.29565,-0.60738 -1.84623,-0.7039 -4.0151,-0.7039 -1.96435,0 -2.71417,0.10924 -3.43183,0.50001 -1.71018,0.9312 -3.52301,3.17915 -5.81457,7.21021 -8.01685,14.10232 -15.82458,26.06202 -19.49918,29.86839 -0.70654,0.73189 -3.166,2.61689 -5.46545,4.18888 -2.29945,1.572 -5.39508,3.8208 -6.87917,4.9973 -3.49618,2.77158 -8.77429,8.06042 -11.55238,11.57583 -1.20749,1.52797 -2.44775,2.91397 -2.75612,3.07999 -0.53096,0.28586 -6.47919,1.00362 -14.04193,1.69445 -4.05485,0.37039 -5.47011,0.74914 -7.19637,1.9259 -0.70553,0.48096 -1.43162,0.96311 -1.61352,1.07143 -0.26449,0.15753 -0.33073,-52.76771 -0.33073,-264.269693 V -189.83333 h 529.1667 529.1667 v 396.875 396.875 h -529.1667 -529.1667 z"
         id="path852"
         inkscape:connector-curvature="0" />
      <path
         style="fill:#f0da65;stroke-width:0.26458335"
         d="M -639.53571,490.73618 V 377.55571 l 1.91823,0.0828 c 1.69033,0.073 20.23176,-1.64198 29.69948,-2.74707 1.89177,-0.22082 4.51115,-0.34766 5.82083,-0.28188 2.40613,0.12083 2.77333,0.22643 8.73125,2.51058 l 1.85209,0.71003 29.36875,0.13229 29.36875,0.1323 7.01146,1.4129 c 9.26236,1.86647 8.58948,1.91299 19.57917,-1.35345 l 8.59896,-2.55585 18.8154,-2.25811 c 19.69902,-2.36416 19.48355,-2.3471 38.46689,-3.04959 25.09723,-0.92872 26.67709,-1.01288 27.64554,-1.47243 1.67899,-0.79674 2.53042,-2.65219 2.14929,-4.68379 -0.21566,-1.14954 -2.55158,-3.98497 -4.86103,-5.9005 -2.2277,-1.84772 -5.85794,-3.63786 -8.79043,-4.33475 -2.23436,-0.53096 -3.92549,-0.6404 -20.20445,-1.30738 -4.02028,-0.16471 -5.30504,-0.30144 -5.47909,-0.58307 -0.12506,-0.20235 -0.14172,-0.45355 -0.037,-0.55824 0.10469,-0.10467 3.93314,-0.90358 8.50766,-1.77533 5.72767,-1.09148 8.52768,-1.73844 8.99292,-2.07788 1.03753,-0.75702 1.6902,-2.27772 1.47933,-3.44686 -0.26952,-1.49428 -3.04731,-4.00306 -6.08192,-5.49293 -3.05915,-1.50194 -5.16089,-2.01814 -8.48664,-2.08436 -2.75931,-0.055 -3.3008,-0.18865 -3.3008,-0.81489 0,-0.89863 -0.73281,-1.76975 -2.63345,-3.13053 -2.74225,-1.96334 -4.69743,-2.61823 -8.21447,-2.75148 -2.63824,-0.0999 -3.31104,0.003 -13.36146,2.0429 -5.82083,1.18147 -11.41677,2.36924 -12.43542,2.63949 -2.1888,0.58065 -19.01187,3.99007 -28.04583,5.68385 -3.4925,0.65482 -9.50516,1.79822 -13.36146,2.54088 -7.65066,1.47344 -11.88246,1.88119 -13.64728,1.31498 -2.52616,-0.81047 -7.8189,-4.60582 -11.1369,-7.98611 -2.38746,-2.43226 -7.97992,-9.6928 -8.97911,-11.6573 -1.84198,-3.62154 -1.90116,-8.13353 -0.15535,-11.84593 0.3076,-0.65407 1.44421,-2.71473 2.5258,-4.57919 4.44806,-7.66763 6.82071,-16.02478 6.88767,-24.26028 0.0311,-3.82202 0.0277,-3.8449 -0.82867,-5.58869 -1.01914,-2.07526 -2.67617,-3.69903 -4.78232,-4.68635 -1.29565,-0.60738 -1.84623,-0.7039 -4.0151,-0.7039 -1.96435,0 -2.71417,0.10924 -3.43183,0.50001 -1.71018,0.9312 -3.52301,3.17915 -5.81457,7.21021 -8.01685,14.10232 -15.82458,26.06202 -19.49918,29.86839 -0.70654,0.73189 -3.166,2.61689 -5.46545,4.18888 -2.29945,1.572 -5.39508,3.8208 -6.87917,4.9973 -3.49618,2.77158 -8.77429,8.06042 -11.55238,11.57583 -1.20749,1.52797 -2.44775,2.91397 -2.75612,3.07999 -0.53096,0.28586 -6.47919,1.00362 -14.04193,1.69445 -4.05485,0.37039 -5.47011,0.74914 -7.19637,1.9259 -0.70553,0.48096 -1.43162,0.96311 -1.61352,1.07143 -0.26449,0.15753 -0.33073,-52.76771 -0.33073,-264.269693 V -189.83333 h 529.1667 529.1667 v 396.875 396.875 h -529.1667 -529.1667 z m 963.75665,-2.20065 c 0.99394,-1.92209 1.16896,-4.01923 1.19044,-14.26469 0.0114,-5.45703 0.11862,-16.23219 0.23818,-23.94479 0.12533,-8.08385 0.11848,-14.12939 -0.0161,-14.27428 -0.14753,-0.15875 -0.32459,-0.15875 -0.48059,0 -0.48387,0.49242 -2.47867,28.97598 -3.07504,43.90761 -0.13136,3.28967 -0.0801,4.64619 0.23003,6.08542 0.73819,3.42563 1.15147,3.96369 1.91318,2.49073 z m -377.90937,-39.3669 c 0.26334,-0.76193 0.586872,-2.24195 0.718926,-3.28896 0.13208,-1.04698 0.310568,-12.41089 0.39669,-25.2531 0.13581,-20.25608 0.105886,-23.34948 -0.225796,-23.34948 -0.441801,0 -0.507577,0.47648 -1.077383,7.8052 -1.143794,14.71065 -2.251181,33.74377 -2.247556,38.62917 0.0026,3.57815 0.867092,7.20553 1.654571,6.94304 0.165947,-0.0553 0.517182,-0.72395 0.780548,-1.48587 z"
         id="path850"
         inkscape:connector-curvature="0" />
      <path
         style="fill:#dab199;stroke-width:0.26458335"
         d="M -639.53571,490.73618 V 377.55571 l 1.91823,0.0828 c 1.69033,0.073 20.23176,-1.64198 29.69948,-2.74707 1.89177,-0.22082 4.51115,-0.34766 5.82083,-0.28188 2.40613,0.12083 2.77333,0.22643 8.73125,2.51058 l 1.85209,0.71003 29.36875,0.13229 29.36875,0.1323 7.01146,1.4129 c 9.26236,1.86647 8.58948,1.91299 19.57917,-1.35345 l 8.59896,-2.55585 18.8154,-2.25811 c 19.69902,-2.36416 19.48355,-2.3471 38.46689,-3.04959 25.09723,-0.92872 26.67709,-1.01288 27.64554,-1.47243 1.67899,-0.79674 2.53042,-2.65219 2.14929,-4.68379 -0.21566,-1.14954 -2.55158,-3.98497 -4.86103,-5.9005 -2.2277,-1.84772 -5.85794,-3.63786 -8.79043,-4.33475 -2.23436,-0.53096 -3.92549,-0.6404 -20.20445,-1.30738 -4.02028,-0.16471 -5.30504,-0.30144 -5.47909,-0.58307 -0.12506,-0.20235 -0.14172,-0.45355 -0.037,-0.55824 0.10469,-0.10467 3.93314,-0.90358 8.50766,-1.77533 5.72767,-1.09148 8.52768,-1.73844 8.99292,-2.07788 1.03753,-0.75702 1.6902,-2.27772 1.47933,-3.44686 -0.26952,-1.49428 -3.04731,-4.00306 -6.08192,-5.49293 -3.05915,-1.50194 -5.16089,-2.01814 -8.48664,-2.08436 -2.75931,-0.055 -3.3008,-0.18865 -3.3008,-0.81489 0,-0.89863 -0.73281,-1.76975 -2.63345,-3.13053 -2.74225,-1.96334 -4.69743,-2.61823 -8.21447,-2.75148 -2.63824,-0.0999 -3.31104,0.003 -13.36146,2.0429 -5.82083,1.18147 -11.41677,2.36924 -12.43542,2.63949 -2.1888,0.58065 -19.01187,3.99007 -28.04583,5.68385 -3.4925,0.65482 -9.50516,1.79822 -13.36146,2.54088 -7.65066,1.47344 -11.88246,1.88119 -13.64728,1.31498 -2.52616,-0.81047 -7.8189,-4.60582 -11.1369,-7.98611 -2.38746,-2.43226 -7.97992,-9.6928 -8.97911,-11.6573 -1.84198,-3.62154 -1.90116,-8.13353 -0.15535,-11.84593 0.3076,-0.65407 1.44421,-2.71473 2.5258,-4.57919 4.44806,-7.66763 6.82071,-16.02478 6.88767,-24.26028 0.0311,-3.82202 0.0277,-3.8449 -0.82867,-5.58869 -1.01914,-2.07526 -2.67617,-3.69903 -4.78232,-4.68635 -1.29565,-0.60738 -1.84623,-0.7039 -4.0151,-0.7039 -1.96435,0 -2.71417,0.10924 -3.43183,0.50001 -1.71018,0.9312 -3.52301,3.17915 -5.81457,7.21021 -8.01685,14.10232 -15.82458,26.06202 -19.49918,29.86839 -0.70654,0.73189 -3.166,2.61689 -5.46545,4.18888 -2.29945,1.572 -5.39508,3.8208 -6.87917,4.9973 -3.49618,2.77158 -8.77429,8.06042 -11.55238,11.57583 -1.20749,1.52797 -2.44775,2.91397 -2.75612,3.07999 -0.53096,0.28586 -6.47919,1.00362 -14.04193,1.69445 -4.05485,0.37039 -5.47011,0.74914 -7.19637,1.9259 -0.70553,0.48096 -1.43162,0.96311 -1.61352,1.07143 -0.26449,0.15753 -0.33073,-52.76771 -0.33073,-264.269693 V -189.83333 h 529.1667 529.1667 v 396.875 396.875 h -529.1667 -529.1667 z m 963.75665,-2.20065 c 0.99394,-1.92209 1.16896,-4.01923 1.19044,-14.26469 0.0114,-5.45703 0.11862,-16.23219 0.23818,-23.94479 0.12533,-8.08385 0.11848,-14.12939 -0.0161,-14.27428 -0.14753,-0.15875 -0.32459,-0.15875 -0.48059,0 -0.48387,0.49242 -2.47867,28.97598 -3.07504,43.90761 -0.13136,3.28967 -0.0801,4.64619 0.23003,6.08542 0.73819,3.42563 1.15147,3.96369 1.91318,2.49073 z m -377.90937,-39.3669 c 0.26334,-0.76193 0.586872,-2.24195 0.718926,-3.28896 0.13208,-1.04698 0.310568,-12.41089 0.39669,-25.2531 0.13581,-20.25608 0.105886,-23.34948 -0.225796,-23.34948 -0.441801,0 -0.507577,0.47648 -1.077383,7.8052 -1.143794,14.71065 -2.251181,33.74377 -2.247556,38.62917 0.0026,3.57815 0.867092,7.20553 1.654571,6.94304 0.165947,-0.0553 0.517182,-0.72395 0.780548,-1.48587 z m -317.0488,-185.12999 0.65109,-1.83134 0.18788,-19.97605 c 0.10332,-10.98682 0.2536,-22.06064 0.33398,-24.60847 0.14595,-4.62613 0.0308,-5.49643 -0.69032,-5.21967 -0.43355,0.16637 -0.42715,0.10617 -1.38642,13.0271 -0.95798,12.90328 -1.72686,26.61224 -1.79557,32.01459 -0.0508,3.99774 0.0177,5.01742 0.42746,6.35 0.87516,2.84681 1.32916,2.89554 2.2719,0.24384 z M 259.64538,43.539642 c 1.05505,-2.04025 1.14469,-3.5282 1.30768,-21.706305 0.0867,-9.677136 0.23175,-20.598887 0.32221,-24.2705576 0.15004,-6.0900998 0.12562,-6.6906748 -0.2784,-6.8457074 -0.24355,-0.093467 -0.51763,-0.095155 -0.60904,-0.00376 -0.19913,0.199136 -0.64365,5.2561596 -1.37499,15.6418888 -1.68677,23.9549142 -1.99131,32.9760422 -1.20134,35.5864582 0.78864,2.605987 1.14985,2.92073 1.83388,1.597972 z"
         id="path848"
         inkscape:connector-curvature="0" />
      <path
         style="fill:#e07d86;stroke-width:0.26458335"
         d="M -639.53571,490.78626 V 377.65588 l 0.8599,0.20471 c 0.47294,0.1126 1.33614,0.17891 1.91823,0.14734 1.57867,-0.0856 22.97328,-2.1291 25.26771,-2.41345 5.00067,-0.61976 8.52458,-0.86243 10.08985,-0.69479 1.59149,0.17044 3.55031,0.7771 8.0341,2.48827 l 1.85209,0.70684 29.36875,0.13229 29.36875,0.13229 7.01146,1.4129 c 9.27463,1.86894 8.60089,1.91532 19.57917,-1.34731 l 8.59896,-2.55553 18.87592,-2.26738 c 20.75971,-2.49367 17.52992,-2.26491 48.5067,-3.4354 13.35522,-0.50461 17.00216,-0.71718 17.59479,-1.02542 2.45349,-1.27622 3.21681,-4.22349 1.69352,-6.53891 -2.54007,-3.86091 -7.129,-7.17203 -12.05843,-8.70066 -2.1967,-0.68123 -5.61385,-0.96314 -17.53507,-1.44664 -4.69658,-0.1905 -8.61572,-0.42283 -8.7092,-0.51631 -0.0935,-0.0935 -0.0928,-0.24715 0.002,-0.34147 0.0943,-0.0943 3.80099,-0.86281 8.23703,-1.7077 4.81263,-0.91662 8.34212,-1.71744 8.75136,-1.98557 0.81306,-0.53273 1.71371,-2.18649 1.71371,-3.14668 0,-2.60311 -5.22157,-6.6253 -10.31875,-7.94856 -0.95397,-0.24768 -2.95092,-0.47332 -4.48452,-0.50676 -2.95492,-0.0644 -2.85292,-0.0156 -3.45693,-1.64978 -0.39898,-1.07937 -3.65204,-3.3699 -6.06711,-4.27194 -1.35988,-0.50795 -2.39083,-0.67172 -4.77686,-0.75888 -2.98321,-0.10898 -3.25999,-0.0667 -14.15521,2.16371 -6.11187,1.25116 -11.53558,2.3881 -12.05267,2.52651 -0.5171,0.13838 -4.1133,0.90506 -7.99157,1.7037 -6.71536,1.38287 -10.0801,2.0347 -31.54951,6.11177 -9.65747,1.83396 -13.02441,2.22925 -14.82404,1.74035 -2.39082,-0.64947 -7.49141,-4.23156 -10.98674,-7.71583 -2.51512,-2.50717 -8.50126,-10.31346 -9.32683,-12.16271 -1.35426,-3.03353 -1.61599,-6.41988 -0.7188,-9.30008 0.28809,-0.92482 1.53792,-3.46337 2.77742,-5.64121 5.01974,-8.81986 7.3338,-16.7355 7.38942,-25.27675 0.0245,-3.76275 0.009,-3.86951 -0.79167,-5.55625 -0.99031,-2.0855 -2.75681,-3.88657 -4.80583,-4.89987 -1.22073,-0.6037 -1.97815,-0.77534 -3.83392,-0.8689 -2.09146,-0.10541 -2.44852,-0.0501 -3.73314,0.57841 -2.15641,1.05505 -3.7469,2.96675 -6.51953,7.83619 -7.99892,14.04818 -16.1767,26.49482 -19.49724,29.6749 -0.5557,0.53218 -2.85582,2.24343 -5.1114,3.80275 -2.25557,1.55932 -5.11307,3.62148 -6.35,4.58261 -3.26393,2.53611 -9.19595,8.42399 -12.09529,12.00526 -2.04563,2.52677 -2.66572,3.12742 -3.34395,3.23916 -0.84804,0.1397 -8.05708,0.913 -13.79722,1.47997 -4.21083,0.41595 -5.20971,0.76436 -8.00364,2.79167 l -0.59535,0.43196 V 74.517691 -189.83333 h 529.1667 529.1667 v 396.875 396.875 h -529.1667 -529.1667 z m 964.28042,-3.15396 c 0.27723,-0.81074 0.53488,-2.75699 0.66548,-5.02709 0.34872,-6.06054 0.53816,-46.65572 0.21868,-46.85318 -0.15137,-0.0936 -0.40365,-0.0417 -0.56063,0.11533 -0.62343,0.62344 -3.10618,37.44055 -3.1075,46.08211 0,2.70491 0.12218,4.02029 0.50265,5.39231 0.76362,2.75384 1.41084,2.83628 2.28132,0.29052 z M -54.062789,450.38632 c 0.153643,-0.18511 0.518213,-1.19859 0.810181,-2.25214 0.500882,-1.80755 0.542925,-3.07972 0.745225,-22.55909 0.302763,-29.14893 0.309007,-28.40407 -0.239157,-28.51007 -0.296333,-0.0573 -0.502179,0.12478 -0.593831,0.52523 -0.393276,1.71836 -2.262558,29.42301 -2.790534,41.35871 -0.288951,6.53233 -0.205264,7.81262 0.687493,10.51719 0.415185,1.25778 0.856404,1.55183 1.380623,0.92017 z m -316.674441,-186.34768 0.65109,-1.83134 0.18788,-19.97605 c 0.10332,-10.98682 0.2536,-22.06064 0.33398,-24.60847 0.14595,-4.62613 0.0308,-5.49643 -0.69032,-5.21967 -0.43355,0.16637 -0.42715,0.10617 -1.38642,13.0271 -0.95798,12.90328 -1.72686,26.61224 -1.79557,32.01459 -0.0508,3.99774 0.0177,5.01742 0.42746,6.35 0.87516,2.84681 1.32916,2.89554 2.2719,0.24384 z M 259.64538,43.539642 c 1.05505,-2.04025 1.14469,-3.5282 1.30768,-21.706305 0.0867,-9.677136 0.23175,-20.598887 0.32221,-24.2705576 0.15004,-6.0900998 0.12562,-6.6906748 -0.2784,-6.8457074 -0.24355,-0.093467 -0.51763,-0.095155 -0.60904,-0.00376 -0.19913,0.199136 -0.64365,5.2561596 -1.37499,15.6418888 -1.68677,23.9549142 -1.99131,32.9760422 -1.20134,35.5864582 0.78864,2.605987 1.14985,2.92073 1.83388,1.597972 z"
         id="path846"
         inkscape:connector-curvature="0" />
      <path
         style="fill:#da906d;stroke-width:0.26458335"
         d="M -639.53571,490.78626 V 377.65588 l 0.8599,0.20471 c 0.47294,0.1126 1.33614,0.17891 1.91823,0.14734 1.57867,-0.0856 22.97328,-2.1291 25.26771,-2.41345 5.00067,-0.61976 8.52458,-0.86243 10.08985,-0.69479 1.59149,0.17044 3.55031,0.7771 8.0341,2.48827 l 1.85209,0.70684 29.36875,0.13229 29.36875,0.13229 7.01146,1.4129 c 9.27463,1.86894 8.60089,1.91532 19.57917,-1.34731 l 8.59896,-2.55553 18.87592,-2.26738 c 20.75971,-2.49367 17.52992,-2.26491 48.5067,-3.4354 13.35522,-0.50461 17.00216,-0.71718 17.59479,-1.02542 2.45349,-1.27622 3.21681,-4.22349 1.69352,-6.53891 -2.54007,-3.86091 -7.129,-7.17203 -12.05843,-8.70066 -2.1967,-0.68123 -5.61385,-0.96314 -17.53507,-1.44664 -4.69658,-0.1905 -8.61572,-0.42283 -8.7092,-0.51631 -0.0935,-0.0935 -0.0928,-0.24715 0.002,-0.34147 0.0943,-0.0943 3.80099,-0.86281 8.23703,-1.7077 4.81263,-0.91662 8.34212,-1.71744 8.75136,-1.98557 0.81306,-0.53273 1.71371,-2.18649 1.71371,-3.14668 0,-2.60311 -5.22157,-6.6253 -10.31875,-7.94856 -0.95397,-0.24768 -2.95092,-0.47332 -4.48452,-0.50676 -2.95492,-0.0644 -2.85292,-0.0156 -3.45693,-1.64978 -0.39898,-1.07937 -3.65204,-3.3699 -6.06711,-4.27194 -1.35988,-0.50795 -2.39083,-0.67172 -4.77686,-0.75888 -2.98321,-0.10898 -3.25999,-0.0667 -14.15521,2.16371 -6.11187,1.25116 -11.53558,2.3881 -12.05267,2.52651 -0.5171,0.13838 -4.1133,0.90506 -7.99157,1.7037 -6.71536,1.38287 -10.0801,2.0347 -31.54951,6.11177 -9.65747,1.83396 -13.02441,2.22925 -14.82404,1.74035 -2.39082,-0.64947 -7.49141,-4.23156 -10.98674,-7.71583 -2.51512,-2.50717 -8.50126,-10.31346 -9.32683,-12.16271 -1.35426,-3.03353 -1.61599,-6.41988 -0.7188,-9.30008 0.28809,-0.92482 1.53792,-3.46337 2.77742,-5.64121 5.01974,-8.81986 7.3338,-16.7355 7.38942,-25.27675 0.0245,-3.76275 0.009,-3.86951 -0.79167,-5.55625 -0.99031,-2.0855 -2.75681,-3.88657 -4.80583,-4.89987 -1.22073,-0.6037 -1.97815,-0.77534 -3.83392,-0.8689 -2.09146,-0.10541 -2.44852,-0.0501 -3.73314,0.57841 -2.15641,1.05505 -3.7469,2.96675 -6.51953,7.83619 -7.99892,14.04818 -16.1767,26.49482 -19.49724,29.6749 -0.5557,0.53218 -2.85582,2.24343 -5.1114,3.80275 -2.25557,1.55932 -5.11307,3.62148 -6.35,4.58261 -3.26393,2.53611 -9.19595,8.42399 -12.09529,12.00526 -2.04563,2.52677 -2.66572,3.12742 -3.34395,3.23916 -0.84804,0.1397 -8.05708,0.913 -13.79722,1.47997 -4.21083,0.41595 -5.20971,0.76436 -8.00364,2.79167 l -0.59535,0.43196 V 74.517691 -189.83333 h 529.1667 529.1667 v 396.875 396.875 h -529.1667 -529.1667 z m 123.94701,56.29476 c 0.75961,-2.21612 0.90266,-6.18347 1.05426,-29.23974 0.14174,-21.55438 0.12573,-22.70315 -0.31504,-22.61843 -0.56928,0.10943 -0.60371,0.39822 -1.50842,12.65007 -0.8524,11.54351 -1.36293,19.93956 -1.75443,28.85297 -0.29913,6.81046 -0.29154,7.09213 0.24867,9.22835 0.84925,3.35833 1.41415,3.63813 2.27496,1.12678 z M 324.74471,487.6323 c 0.27723,-0.81074 0.53488,-2.75699 0.66548,-5.02709 0.34872,-6.06054 0.53816,-46.65572 0.21868,-46.85318 -0.15137,-0.0936 -0.40365,-0.0417 -0.56063,0.11533 -0.62343,0.62344 -3.10618,37.44055 -3.1075,46.08211 0,2.70491 0.12218,4.02029 0.50265,5.39231 0.76362,2.75384 1.41084,2.83628 2.28132,0.29052 z M -54.062789,450.38632 c 0.153643,-0.18511 0.518213,-1.19859 0.810181,-2.25214 0.500882,-1.80755 0.542925,-3.07972 0.745225,-22.55909 0.302763,-29.14893 0.309007,-28.40407 -0.239157,-28.51007 -0.296333,-0.0573 -0.502179,0.12478 -0.593831,0.52523 -0.393276,1.71836 -2.262558,29.42301 -2.790534,41.35871 -0.288951,6.53233 -0.205264,7.81262 0.687493,10.51719 0.415185,1.25778 0.856404,1.55183 1.380623,0.92017 z M 63.944242,283.6954 c 0.155205,-0.187 0.515806,-1.2288 0.801318,-2.3151 0.487098,-1.85314 0.535622,-3.46985 0.785865,-26.18446 0.225081,-20.43129 0.210026,-24.26814 -0.0966,-24.58593 -0.726626,-0.75306 -0.729748,-0.72845 -1.833986,14.39947 -1.684655,23.07915 -2.073963,34.04965 -1.301062,36.66291 0.690615,2.33506 1.034468,2.7581 1.644464,2.02311 z m -434.681472,-19.65676 0.65109,-1.83134 0.18788,-19.97605 c 0.10332,-10.98682 0.2536,-22.06064 0.33398,-24.60847 0.14595,-4.62613 0.0308,-5.49643 -0.69032,-5.21967 -0.43355,0.16637 -0.42715,0.10617 -1.38642,13.0271 -0.95798,12.90328 -1.72686,26.61224 -1.79557,32.01459 -0.0508,3.99774 0.0177,5.01742 0.42746,6.35 0.87516,2.84681 1.32916,2.89554 2.2719,0.24384 z m -222.71995,-98.76248 c 0.55371,-1.69484 0.58161,-2.33741 0.77164,-17.76574 0.10844,-8.80401 0.26116,-19.97234 0.33938,-24.8185 0.12345,-7.64823 0.0902,-8.83113 -0.25174,-8.96236 -0.21668,-0.0832 -0.46259,-0.0826 -0.54646,0.003 -0.49294,0.49295 -2.61641,31.80345 -2.91194,42.93656 -0.17177,6.47086 -0.0735,7.61921 0.83865,9.80234 0.52984,1.26807 1.07757,0.89672 1.76047,-1.19362 z M 259.64538,43.539642 c 1.05505,-2.04025 1.14469,-3.5282 1.30768,-21.706305 0.0867,-9.677136 0.23175,-20.598887 0.32221,-24.2705576 0.15004,-6.0900998 0.12562,-6.6906748 -0.2784,-6.8457074 -0.24355,-0.093467 -0.51763,-0.095155 -0.60904,-0.00376 -0.19913,0.199136 -0.64365,5.2561596 -1.37499,15.6418888 -1.68677,23.9549142 -1.99131,32.9760422 -1.20134,35.5864582 0.78864,2.605987 1.14985,2.92073 1.83388,1.597972 z M 182.10743,-65.968762 c 1.03368,-1.998908 1.21031,-4.379161 1.23412,-16.631017 0.0127,-6.518193 0.11007,-17.149541 0.21641,-23.625221 0.10633,-6.47567 0.14274,-11.92278 0.0809,-12.10468 -0.18645,-0.54861 -0.83084,-0.37183 -0.96443,0.26458 -0.44246,2.10775 -2.33923,30.57899 -2.77209,41.609948 -0.22217,5.662139 -0.11467,7.61659 0.52879,9.61353 0.66958,2.077884 0.97177,2.235232 1.67627,0.87286 z"
         id="path844"
         inkscape:connector-curvature="0" />
      <path
         style="fill:#6687a3;stroke-width:0.26458335"
         d="m -639.53571,490.80729 c 0,-69.97911 0.0943,-113.10937 0.24736,-113.10937 0.13605,0 0.54228,0.11213 0.90275,0.24918 0.459,0.1745 5.59788,-0.22759 17.149,-1.34188 19.58142,-1.88894 20.64586,-1.90487 24.56339,-0.3674 5.40051,2.11947 2.5785,1.95672 34.26355,1.97585 l 28.31041,0.0172 7.40834,1.45269 c 4.90693,0.96219 8.07835,1.45408 9.39271,1.4568 1.7427,0.004 3.07994,-0.3175 10.98021,-2.63673 l 8.99583,-2.64083 18.9683,-2.26227 18.9683,-2.26227 21.51295,-0.79354 c 11.83213,-0.43645 22.25288,-0.86 23.15724,-0.94122 3.95683,-0.35537 5.82455,-3.85197 3.77979,-7.07623 -1.92536,-3.03596 -6.25487,-6.46129 -10.05428,-7.95449 -3.24399,-1.27489 -4.74234,-1.47016 -14.4198,-1.87912 -11.96383,-0.5056 -13.75445,-0.63765 -13.40366,-0.98843 0.15193,-0.15193 3.7771,-0.94795 8.05593,-1.76893 4.68987,-0.89987 8.05714,-1.67449 8.47826,-1.95043 1.57717,-1.03341 2.15987,-3.10856 1.35132,-4.81248 -0.61012,-1.28571 -3.77802,-3.81161 -6.28,-5.00724 -2.62241,-1.2532 -4.87782,-1.78903 -7.99143,-1.89851 -1.45521,-0.0512 -2.72025,-0.0967 -2.8112,-0.10113 -0.0909,-0.005 -0.24114,-0.38698 -0.33376,-0.85008 -0.36002,-1.80009 -4.20969,-4.40266 -7.96754,-5.38646 -3.32849,-0.87141 -5.26318,-0.65339 -18.78542,2.11698 -26.14956,5.35742 -30.85551,6.2942 -45.37604,9.0328 -17.91327,3.37846 -18.93743,3.46887 -21.69584,1.91526 -5.34936,-3.01294 -9.51603,-6.84937 -14.21037,-13.08412 -3.45309,-4.58621 -4.36169,-6.13667 -4.97412,-8.48797 -0.94177,-3.61569 -0.31047,-6.68477 2.31125,-11.23635 5.66221,-9.83012 7.93411,-17.34481 7.98617,-26.41563 0.0229,-3.99402 0.004,-4.14107 -0.72923,-5.63493 -0.96673,-1.96996 -2.91195,-3.90761 -4.85708,-4.8382 -2.17089,-1.0386 -5.47825,-1.2137 -7.3901,-0.39127 -2.13631,0.91903 -3.94963,3.03493 -6.58976,7.6894 -8.1323,14.33698 -16.8176,27.51111 -19.99371,30.32707 -0.34829,0.3088 -2.73272,2.01018 -5.29873,3.78085 -7.65726,5.28383 -13.10882,10.20257 -17.70861,15.97779 -1.18218,1.48428 -2.34662,2.84051 -2.58766,3.01389 -0.24104,0.17338 -4.30779,0.74327 -9.03722,1.2664 -4.72943,0.52316 -9.21634,1.12655 -9.97093,1.34086 -0.75458,0.21431 -1.88567,0.78076 -2.51354,1.25875 -0.62786,0.47792 -1.2904,0.9601 -1.4723,1.07143 -0.2645,0.16188 -0.33073,-52.73288 -0.33073,-264.131944 V -189.83333 h 529.1667 529.1667 v 396.875 396.875 h -529.1667 -529.1667 z m 123.94701,56.27373 c 0.75961,-2.21612 0.90266,-6.18347 1.05426,-29.23974 0.14174,-21.55438 0.12573,-22.70315 -0.31504,-22.61843 -0.56928,0.10943 -0.60371,0.39822 -1.50842,12.65007 -0.8524,11.54351 -1.36293,19.93956 -1.75443,28.85297 -0.29913,6.81046 -0.29154,7.09213 0.24867,9.22835 0.84925,3.35833 1.41415,3.63813 2.27496,1.12678 z m 285.02789,-52.74736 c 1.03825,-2.12767 1.0849,-3.08837 1.36623,-28.12878 0.17557,-15.6278 0.18211,-24.42916 0.0182,-24.59302 -0.61349,-0.61349 -0.87053,0.6191 -1.33,6.37802 -1.16129,14.5546 -2.35927,34.9027 -2.36281,40.1334 -0.003,3.69311 0.84767,7.24742 1.6696,6.98003 0.17206,-0.056 0.45947,-0.4023 0.63873,-0.76965 z m 555.30552,-6.70136 c 0.27723,-0.81074 0.53488,-2.75699 0.66548,-5.02709 0.34872,-6.06054 0.53816,-46.65572 0.21868,-46.85318 -0.15137,-0.0936 -0.40365,-0.0417 -0.56063,0.11533 -0.62343,0.62344 -3.10618,37.44055 -3.1075,46.08211 0,2.70491 0.12218,4.02029 0.50265,5.39231 0.76362,2.75384 1.41084,2.83628 2.28132,0.29052 z M -54.062789,450.38632 c 0.153643,-0.18511 0.518213,-1.19859 0.810181,-2.25214 0.500882,-1.80755 0.542925,-3.07972 0.745225,-22.55909 0.302763,-29.14893 0.309007,-28.40407 -0.239157,-28.51007 -0.296333,-0.0573 -0.502179,0.12478 -0.593831,0.52523 -0.393276,1.71836 -2.262558,29.42301 -2.790534,41.35871 -0.288951,6.53233 -0.205264,7.81262 0.687493,10.51719 0.415185,1.25778 0.856404,1.55183 1.380623,0.92017 z M 63.944242,283.6954 c 0.155205,-0.187 0.515806,-1.2288 0.801318,-2.3151 0.487098,-1.85314 0.535622,-3.46985 0.785865,-26.18446 0.225081,-20.43129 0.210026,-24.26814 -0.0966,-24.58593 -0.726626,-0.75306 -0.729748,-0.72845 -1.833986,14.39947 -1.684655,23.07915 -2.073963,34.04965 -1.301062,36.66291 0.690615,2.33506 1.034468,2.7581 1.644464,2.02311 z M -370.89823,264.90226 c 0.98243,-2.66107 1.00391,-3.09303 1.23971,-24.91996 0.32371,-29.96669 0.33647,-27.63716 -0.15224,-27.8247 -1.06815,-0.40989 -1.04172,-0.6418 -2.76585,24.25282 -1.08551,15.67333 -1.30167,24.98048 -0.63342,27.27021 0.8227,2.81874 1.57533,3.21648 2.3118,1.22163 z m 202.56417,-90.16 0.64018,-1.69955 0.19683,-18.78541 c 0.10826,-10.33198 0.25648,-21.47377 0.32938,-24.75955 0.13618,-6.13701 0.006,-7.20784 -0.75325,-6.21229 -0.21553,0.2825 -0.39184,0.77235 -0.39184,1.08858 0,0.31623 -0.23509,3.59746 -0.5224,7.2916 -1.19972,15.42505 -2.10177,30.94781 -2.1508,37.01145 -0.0257,3.18254 0.0697,4.45659 0.42593,5.68854 0.81248,2.80964 1.27976,2.88872 2.22597,0.37663 z m -425.12312,-9.4661 c 0.55371,-1.69484 0.58161,-2.33741 0.77164,-17.76574 0.10844,-8.80401 0.26116,-19.97234 0.33938,-24.8185 0.12345,-7.64823 0.0902,-8.83113 -0.25174,-8.96236 -0.21668,-0.0832 -0.46259,-0.0826 -0.54646,0.003 -0.49294,0.49295 -2.61641,31.80345 -2.91194,42.93656 -0.17177,6.47086 -0.0735,7.61921 0.83865,9.80234 0.52984,1.26807 1.07757,0.89672 1.76047,-1.19362 z M 260.0058,42.918935 c 0.9984,-2.668508 1.09968,-4.19009 1.12048,-16.834713 0.0111,-6.776373 0.11168,-17.3808332 0.22341,-23.5654687 0.11576,-6.4060625 0.10303,-11.4440335 -0.0296,-11.7078125 -0.2422,-0.4818485 -0.87812,-0.622427 -1.11101,-0.2456047 -0.43289,0.700397 -2.56437,32.0142979 -2.96585,43.5711259 -0.12501,3.598812 -0.081,5.478116 0.15492,6.614583 0.7993,3.85051 1.69838,4.597977 2.6076,2.16789 z M -553.02679,12.705212 c 0.55107,-1.802734 0.57262,-2.465449 0.80873,-24.870834 0.13342,-12.660312 0.24637,-23.76289 0.25101,-24.672395 0.006,-1.267318 -0.0806,-1.653646 -0.37283,-1.653646 -0.20969,0 -0.44917,0.109876 -0.53216,0.244168 -0.45084,0.729469 -2.57392,32.1037344 -2.94663,43.5443733 -0.14681,4.5063146 -0.10587,5.5469077 0.27581,7.0114587 0.24651,0.945885 0.62978,2.001438 0.85172,2.345671 0.55588,0.862195 0.94398,0.407771 1.66435,-1.948796 z m 735.13422,-78.673974 c 1.03368,-1.998908 1.21031,-4.379161 1.23412,-16.631017 0.0127,-6.518193 0.11007,-17.149541 0.21641,-23.625221 0.10633,-6.47567 0.14274,-11.92278 0.0809,-12.10468 -0.18645,-0.54861 -0.83084,-0.37183 -0.96443,0.26458 -0.44246,2.10775 -2.33923,30.57899 -2.77209,41.609948 -0.22217,5.662139 -0.11467,7.61659 0.52879,9.61353 0.66958,2.077884 0.97177,2.235232 1.67627,0.87286 z"
         id="path842"
         inkscape:connector-curvature="0" />
      <path
         style="fill:#9e6a66;stroke-width:0.26458335"
         d="m -639.53571,490.80729 c 0,-69.97911 0.0943,-113.10937 0.24736,-113.10937 0.13605,0 0.54228,0.11213 0.90275,0.24918 0.459,0.1745 5.59788,-0.22759 17.149,-1.34188 19.58142,-1.88894 20.64586,-1.90487 24.56339,-0.3674 5.40051,2.11947 2.5785,1.95672 34.26355,1.97585 l 28.31041,0.0172 7.40834,1.45269 c 4.90693,0.96219 8.07835,1.45408 9.39271,1.4568 1.7427,0.004 3.07994,-0.3175 10.98021,-2.63673 l 8.99583,-2.64083 18.9683,-2.26227 18.9683,-2.26227 21.51295,-0.79354 c 11.83213,-0.43645 22.25288,-0.86 23.15724,-0.94122 3.95683,-0.35537 5.82455,-3.85197 3.77979,-7.07623 -1.92536,-3.03596 -6.25487,-6.46129 -10.05428,-7.95449 -3.24399,-1.27489 -4.74234,-1.47016 -14.4198,-1.87912 -11.96383,-0.5056 -13.75445,-0.63765 -13.40366,-0.98843 0.15193,-0.15193 3.7771,-0.94795 8.05593,-1.76893 4.68987,-0.89987 8.05714,-1.67449 8.47826,-1.95043 1.57717,-1.03341 2.15987,-3.10856 1.35132,-4.81248 -0.61012,-1.28571 -3.77802,-3.81161 -6.28,-5.00724 -2.62241,-1.2532 -4.87782,-1.78903 -7.99143,-1.89851 -1.45521,-0.0512 -2.72025,-0.0967 -2.8112,-0.10113 -0.0909,-0.005 -0.24114,-0.38698 -0.33376,-0.85008 -0.36002,-1.80009 -4.20969,-4.40266 -7.96754,-5.38646 -3.32849,-0.87141 -5.26318,-0.65339 -18.78542,2.11698 -26.14956,5.35742 -30.85551,6.2942 -45.37604,9.0328 -17.91327,3.37846 -18.93743,3.46887 -21.69584,1.91526 -5.34936,-3.01294 -9.51603,-6.84937 -14.21037,-13.08412 -3.45309,-4.58621 -4.36169,-6.13667 -4.97412,-8.48797 -0.94177,-3.61569 -0.31047,-6.68477 2.31125,-11.23635 5.66221,-9.83012 7.93411,-17.34481 7.98617,-26.41563 0.0229,-3.99402 0.004,-4.14107 -0.72923,-5.63493 -0.96673,-1.96996 -2.91195,-3.90761 -4.85708,-4.8382 -2.17089,-1.0386 -5.47825,-1.2137 -7.3901,-0.39127 -2.13631,0.91903 -3.94963,3.03493 -6.58976,7.6894 -8.1323,14.33698 -16.8176,27.51111 -19.99371,30.32707 -0.34829,0.3088 -2.73272,2.01018 -5.29873,3.78085 -7.65726,5.28383 -13.10882,10.20257 -17.70861,15.97779 -1.18218,1.48428 -2.34662,2.84051 -2.58766,3.01389 -0.24104,0.17338 -4.30779,0.74327 -9.03722,1.2664 -4.72943,0.52316 -9.21634,1.12655 -9.97093,1.34086 -0.75458,0.21431 -1.88567,0.78076 -2.51354,1.25875 -0.62786,0.47792 -1.2904,0.9601 -1.4723,1.07143 -0.2645,0.16188 -0.33073,-52.73288 -0.33073,-264.131944 V -189.83333 h 223.68739 c 219.26374,0 223.69054,0.01 223.8464,0.501 0.0875,0.27556 0.0381,2.03173 -0.10975,3.90261 -1.01515,12.84854 -1.9894,31.81219 -1.79713,34.98107 0.14513,2.39145 0.88787,5.08765 1.45117,5.26771 0.34723,0.111 0.66659,-0.54535 1.3214,-2.71593 0.33192,-1.10026 0.43292,-4.66276 0.60003,-21.16667 0.11054,-10.91406 0.28717,-20.05211 0.39258,-20.30677 0.18236,-0.44059 14.93507,-0.46302 304.56648,-0.46302 h 304.37483 v 396.875 396.875 h -529.1667 -529.1667 z m 311.78706,104.68991 c 1.07727,-2.08317 1.17446,-4.06228 1.33424,-27.16699 0.0845,-12.22375 0.21704,-22.82031 0.29448,-23.54792 0.14904,-1.40033 -0.18304,-2.32084 -0.66384,-1.84004 -0.50422,0.50422 -2.22565,24.18382 -2.95627,40.66561 -0.3374,7.61138 -0.22233,9.56022 0.69395,11.75316 0.45066,1.0786 0.79161,1.11438 1.29744,0.13618 z M -515.5887,547.08102 c 0.75961,-2.21612 0.90266,-6.18347 1.05426,-29.23974 0.14174,-21.55438 0.12573,-22.70315 -0.31504,-22.61843 -0.56928,0.10943 -0.60371,0.39822 -1.50842,12.65007 -0.8524,11.54351 -1.36293,19.93956 -1.75443,28.85297 -0.29913,6.81046 -0.29154,7.09213 0.24867,9.22835 0.84925,3.35833 1.41415,3.63813 2.27496,1.12678 z m 285.02789,-52.74736 c 1.03825,-2.12767 1.0849,-3.08837 1.36623,-28.12878 0.17557,-15.6278 0.18211,-24.42916 0.0182,-24.59302 -0.61349,-0.61349 -0.87053,0.6191 -1.33,6.37802 -1.16129,14.5546 -2.35927,34.9027 -2.36281,40.1334 -0.003,3.69311 0.84767,7.24742 1.6696,6.98003 0.17206,-0.056 0.45947,-0.4023 0.63873,-0.76965 z m 555.21403,-5.76445 c 0.98772,-2.58747 1.01108,-3.0997 1.27987,-28.04501 0.23347,-21.6702 0.21807,-24.50912 -0.13489,-24.86205 -0.77435,-0.77438 -1.21015,0.16925 -1.47063,3.1845 -1.2414,14.3696 -2.43499,34.42729 -2.47012,41.5096 -0.0257,5.16091 0.036,6.14678 0.46328,7.40834 0.77139,2.27764 1.65397,2.58209 2.33249,0.80462 z M -53.22742,449.00313 c 0.618463,-1.75406 0.657198,-2.20922 0.731467,-8.59896 0.04313,-3.71078 0.184785,-14.90266 0.314801,-24.87083 0.161581,-12.38843 0.150098,-18.22863 -0.03627,-18.45469 -0.421587,-0.51141 -0.987663,-0.3923 -1.257274,0.26458 -0.451458,1.09985 -2.314919,28.18948 -2.898405,42.1349 -0.229552,5.48645 -0.114194,7.61719 0.518663,9.57929 0.528611,1.63894 0.773563,1.96869 1.396577,1.88 0.452543,-0.0644 0.718608,-0.48271 1.230445,-1.93429 z M -588.1092,435.04636 c 0.24321,-0.61847 0.56024,-1.83886 0.70451,-2.71198 0.25531,-1.54514 0.7902,-43.32896 0.56986,-44.51615 -0.11119,-0.59912 -0.68103,-0.80613 -0.96302,-0.34986 -0.0834,0.13502 -0.44232,4.15338 -0.79751,8.92969 -1.31844,17.72902 -2.06202,33.11906 -1.71994,35.59765 0.27988,2.02782 1.01453,4.17513 1.42843,4.17513 0.18451,0 0.53447,-0.50602 0.77767,-1.12448 z M 63.944242,283.6954 c 0.155205,-0.187 0.515806,-1.2288 0.801318,-2.3151 0.487098,-1.85314 0.535622,-3.46985 0.785865,-26.18446 0.225081,-20.43129 0.210026,-24.26814 -0.0966,-24.58593 -0.726626,-0.75306 -0.729748,-0.72845 -1.833986,14.39947 -1.684655,23.07915 -2.073963,34.04965 -1.301062,36.66291 0.690615,2.33506 1.034468,2.7581 1.644464,2.02311 z M -370.89823,264.90226 c 0.98243,-2.66107 1.00391,-3.09303 1.23971,-24.91996 0.32371,-29.96669 0.33647,-27.63716 -0.15224,-27.8247 -1.06815,-0.40989 -1.04172,-0.6418 -2.76585,24.25282 -1.08551,15.67333 -1.30167,24.98048 -0.63342,27.27021 0.8227,2.81874 1.57533,3.21648 2.3118,1.22163 z m 583.5543,-76.47614 c 0.16401,-0.19762 0.52154,-1.23942 0.79449,-2.31511 0.45492,-1.79284 0.51535,-3.76354 0.72506,-23.65163 0.30308,-28.74 0.31385,-26.9875 -0.16544,-26.9875 -0.50864,0 -0.55978,0.47794 -1.56271,14.60476 -1.66664,23.47521 -2.07719,34.13178 -1.39438,36.19524 0.8782,2.65403 1.02476,2.85096 1.60298,2.15424 z m -380.99013,-13.68386 0.64018,-1.69955 0.19683,-18.78542 c 0.10826,-10.33197 0.25648,-21.47376 0.32938,-24.75954 0.13618,-6.13701 0.006,-7.20784 -0.75325,-6.21229 -0.21553,0.2825 -0.39184,0.77235 -0.39184,1.08858 0,0.31623 -0.23509,3.59746 -0.5224,7.2916 -1.19972,15.42505 -2.10177,30.94781 -2.1508,37.01145 -0.0257,3.18254 0.0697,4.45659 0.42593,5.68854 0.81248,2.80964 1.27976,2.88872 2.22597,0.37663 z m -425.12312,-9.4661 c 0.55371,-1.69484 0.58161,-2.33741 0.77164,-17.76574 0.10844,-8.80401 0.26116,-19.97234 0.33938,-24.8185 0.12345,-7.64823 0.0902,-8.83113 -0.25174,-8.96236 -0.21668,-0.0832 -0.46259,-0.0826 -0.54646,0.003 -0.49294,0.49295 -2.61641,31.80345 -2.91194,42.93656 -0.17177,6.47086 -0.0735,7.61921 0.83865,9.80234 0.52984,1.26807 1.07757,0.89672 1.76047,-1.19362 z M 260.0058,42.918935 c 0.9984,-2.668508 1.09968,-4.19009 1.12048,-16.834713 0.0111,-6.776373 0.11168,-17.3808332 0.22341,-23.5654687 0.11576,-6.4060625 0.10303,-11.4440335 -0.0296,-11.7078125 -0.2422,-0.4818485 -0.87812,-0.622427 -1.11101,-0.2456047 -0.43289,0.700397 -2.56437,32.0142979 -2.96585,43.5711259 -0.12501,3.598812 -0.081,5.478116 0.15492,6.614583 0.7993,3.85051 1.69838,4.597977 2.6076,2.16789 z M -553.02679,12.705212 c 0.55107,-1.802734 0.57262,-2.465449 0.80873,-24.870834 0.13342,-12.660312 0.24637,-23.76289 0.25101,-24.672395 0.006,-1.267318 -0.0806,-1.653646 -0.37283,-1.653646 -0.20969,0 -0.44917,0.109876 -0.53216,0.244168 -0.45084,0.729469 -2.57392,32.1037344 -2.94663,43.5443733 -0.14681,4.5063146 -0.10587,5.5469077 0.27581,7.0114587 0.24651,0.945885 0.62978,2.001438 0.85172,2.345671 0.55588,0.862195 0.94398,0.407771 1.66435,-1.948796 z m 389.83628,-0.06615 c 1.10511,-2.153828 1.18787,-3.7816633 1.34308,-26.416484 0.0819,-11.946073 0.21534,-22.602167 0.29654,-23.680209 0.1492,-1.981358 -0.1234,-3.015848 -0.65471,-2.48453 -0.52104,0.521049 -2.53965,29.119468 -3.09044,43.783827 -0.17621,4.6910572 0.0154,6.67933 0.83476,8.665104 0.43368,1.050925 0.78087,1.08707 1.27077,0.132292 z M 26.965518,-16.200517 c 0.776314,-2.025971 0.957792,-7.235802 1.133713,-32.54375 0.113824,-16.376878 0.07803,-19.38073 -0.230823,-19.38073 -0.488076,0 -0.562292,0.553697 -1.170305,8.73125 -1.275635,17.157436 -1.847056,26.778091 -2.035069,34.263542 -0.138007,5.49375 -0.09842,6.581902 0.293502,8.069792 0.752819,2.857947 1.174248,3.038326 2.008982,0.859896 z M 182.10743,-65.968762 c 1.03368,-1.998908 1.21031,-4.379161 1.23412,-16.631017 0.0127,-6.518193 0.11007,-17.149541 0.21641,-23.625221 0.10633,-6.47567 0.14274,-11.92278 0.0809,-12.10468 -0.18645,-0.54861 -0.83084,-0.37183 -0.96443,0.26458 -0.44246,2.10775 -2.33923,30.57899 -2.77209,41.609948 -0.22217,5.662139 -0.11467,7.61659 0.52879,9.61353 0.66958,2.077884 0.97177,2.235232 1.67627,0.87286 z"
         id="path840"
         inkscape:connector-curvature="0" />
      <path
         style="fill:#54748e;stroke-width:0.26458335"
         d="m -639.53571,490.79798 c 0,-111.75513 0.006,-113.11538 0.51177,-112.84479 0.82312,0.44053 2.18469,0.35084 18.36723,-1.20967 8.4615,-0.81598 16.45611,-1.48273 17.76579,-1.48167 2.87102,0.003 4.23901,0.29837 7.55475,1.6352 1.39095,0.56081 3.22882,1.14901 4.08416,1.30712 1.05669,0.19535 10.54631,0.2875 29.60641,0.2875 h 28.05124 l 7.42048,1.48 c 6.20475,1.23751 7.74558,1.4605 9.40484,1.36102 1.49773,-0.0898 4.09317,-0.74475 10.58334,-2.67076 l 8.59896,-2.55177 18.65312,-2.23809 c 10.25922,-1.23092 19.90329,-2.30952 21.43125,-2.39686 1.52797,-0.0874 12.03208,-0.50599 23.34245,-0.93033 15.6477,-0.58703 20.7716,-0.86013 21.43125,-1.14226 2.43717,-1.04235 3.54611,-3.98833 2.36981,-6.29557 -1.19199,-2.33802 -4.82766,-5.7322 -7.98517,-7.45477 -4.45572,-2.43078 -6.01727,-2.70428 -18.38854,-3.22061 -9.69377,-0.40455 -11.46125,-0.53465 -11.17352,-0.82238 0.0736,-0.0736 3.5103,-0.78087 7.63723,-1.57178 4.98577,-0.95555 7.72571,-1.59957 8.16573,-1.91942 0.36422,-0.26475 0.93531,-1.01016 1.26909,-1.65648 1.04211,-2.01795 0.45794,-3.56275 -2.19575,-5.80652 -3.39929,-2.87422 -7.80376,-4.49675 -12.20667,-4.49675 h -2.46612 l -0.60041,-1.25482 c -1.00447,-2.09928 -4.6126,-4.38261 -8.29043,-5.24647 -3.42756,-0.80508 -5.29209,-0.53594 -26.57353,3.8359 -10.69578,2.19723 -26.3525,5.29852 -34.79271,6.89174 -22.13515,4.17837 -20.86765,4.05357 -24.13792,2.37683 -4.93289,-2.52918 -9.3875,-6.62774 -14.29017,-13.14792 -4.66814,-6.20826 -5.25605,-7.60571 -5.03118,-11.95893 0.15818,-3.0622 0.39473,-3.68501 3.3926,-8.93238 4.77835,-8.36388 7.14964,-16.59716 7.2253,-25.08684 0.0329,-3.6876 0.0284,-3.71666 -0.83926,-5.48161 -1.11056,-2.25901 -2.89323,-4.04061 -5.08007,-5.07699 -1.54636,-0.73284 -1.97503,-0.81539 -4.2341,-0.81539 -2.2508,0 -2.63799,0.0739 -3.70416,0.70697 -2.22065,1.31858 -3.52444,3.02038 -7.16102,9.3472 -7.61471,13.24784 -14.3913,23.59882 -18.04404,27.56156 -0.60229,0.65342 -3.06543,2.5413 -5.47365,4.19532 -8.14926,5.59705 -13.69788,10.58383 -18.60096,16.71754 -1.31327,1.64287 -2.46048,2.98852 -2.54936,2.99034 -0.0889,0.003 -4.2363,0.46789 -9.21648,1.03569 -9.84757,1.12276 -10.76425,1.34974 -12.85147,3.18235 l -0.98011,0.86056 V 74.512828 -189.83333 h 223.68739 c 219.26374,0 223.69054,0.01 223.8464,0.501 0.0875,0.27556 0.0381,2.03173 -0.10975,3.90261 -1.01515,12.84854 -1.9894,31.81219 -1.79713,34.98107 0.14513,2.39145 0.88787,5.08765 1.45117,5.26771 0.34723,0.111 0.66659,-0.54535 1.3214,-2.71593 0.33192,-1.10026 0.43292,-4.66276 0.60003,-21.16667 0.11054,-10.91406 0.28717,-20.05211 0.39258,-20.30677 0.18236,-0.44059 14.93507,-0.46302 304.56648,-0.46302 h 304.37483 v 396.875 396.875 h -529.1667 -529.1667 z m 311.78706,104.69923 c 1.07727,-2.08318 1.17446,-4.06229 1.33424,-27.167 0.0845,-12.22375 0.21704,-22.82031 0.29448,-23.54791 0.14904,-1.40034 -0.18304,-2.32085 -0.66384,-1.84005 -0.50422,0.50422 -2.22565,24.18382 -2.95627,40.66561 -0.3374,7.61138 -0.22233,9.56022 0.69395,11.75316 0.45066,1.0786 0.79161,1.11438 1.29744,0.13619 z m -187.77806,-47.95282 c 1.02052,-2.57197 1.1337,-4.36568 1.16762,-18.5048 0.018,-7.49433 0.11277,-18.03136 0.21064,-23.41563 0.14129,-7.77301 0.1076,-9.91047 -0.16352,-10.3764 -0.36403,-0.62558 -0.98743,-0.57401 -1.2473,0.10319 -0.45554,1.1871 -2.51595,31.84982 -2.94824,43.8753 -0.13992,3.89217 -0.0937,5.09079 0.25309,6.55891 0.87468,3.70332 1.73597,4.25887 2.72771,1.75943 z m 285.14103,-52.84621 c 1.17469,-2.27166 1.19906,-2.73963 1.4778,-28.38305 0.22789,-20.96436 0.21246,-24.49451 -0.10845,-24.81543 -0.6091,-0.60909 -1.15909,-0.16388 -1.32416,1.07188 -0.35981,2.69373 -1.76186,22.92999 -2.39787,34.60967 -0.56663,10.40548 -0.53279,13.79112 0.16034,16.04558 0.30673,0.99759 0.6114,1.9031 0.67707,2.01224 0.27855,0.46288 1.15863,0.14872 1.51527,-0.54089 z m 555.0389,-6.12897 c 0.98772,-2.58747 1.01108,-3.0997 1.27987,-28.04501 0.23347,-21.6702 0.21807,-24.50912 -0.13489,-24.86205 -0.77435,-0.77438 -1.21015,0.16925 -1.47063,3.1845 -1.2414,14.3696 -2.43499,34.42729 -2.47012,41.5096 -0.0257,5.16091 0.036,6.14678 0.46328,7.40834 0.77139,2.27764 1.65397,2.58209 2.33249,0.80462 z M -53.22742,449.00313 c 0.618463,-1.75406 0.657198,-2.20922 0.731467,-8.59896 0.04313,-3.71078 0.184785,-14.90266 0.314801,-24.87083 0.161581,-12.38843 0.150098,-18.22863 -0.03627,-18.45469 -0.421587,-0.51141 -0.987663,-0.3923 -1.257274,0.26458 -0.451458,1.09985 -2.314919,28.18948 -2.898405,42.1349 -0.229552,5.48645 -0.114194,7.61719 0.518663,9.57929 0.528611,1.63894 0.773563,1.96869 1.396577,1.88 0.452543,-0.0644 0.718608,-0.48271 1.230445,-1.93429 z M -588.1092,435.04636 c 0.24321,-0.61847 0.56024,-1.83886 0.70451,-2.71198 0.25531,-1.54514 0.7902,-43.32896 0.56986,-44.51615 -0.11119,-0.59912 -0.68103,-0.80613 -0.96302,-0.34986 -0.0834,0.13502 -0.44232,4.15338 -0.79751,8.92969 -1.31844,17.72902 -2.06202,33.11906 -1.71994,35.59765 0.27988,2.02782 1.01453,4.17513 1.42843,4.17513 0.18451,0 0.53447,-0.50602 0.77767,-1.12448 z M 64.256001,283.70726 c 1.219941,-2.00605 1.282012,-3.14682 1.56591,-28.77556 0.28239,-25.49506 0.293846,-25.16222 -0.850291,-24.72317 -0.541735,0.20789 -0.605579,0.61513 -1.096645,6.99564 -1.350487,17.54735 -2.257505,33.16293 -2.274571,39.16058 -0.01191,4.16843 0.311389,6.16852 1.229043,7.60452 0.514324,0.80484 0.810869,0.75039 1.426554,-0.26201 z M -370.98361,265.45101 c 1.21087,-1.99112 1.2749,-3.17569 1.54734,-28.61747 0.14163,-13.22795 0.19941,-24.20226 0.12837,-24.38736 -0.20153,-0.5252 -0.93943,-0.69792 -1.3268,-0.31057 -0.76528,0.76528 -3.55585,43.69972 -3.17704,48.88106 0.13904,1.90206 0.76263,4.2626 1.31053,4.96094 0.43709,0.5571 0.97126,0.37176 1.5176,-0.5266 z m 583.63968,-77.02489 c 0.16401,-0.19762 0.52154,-1.23942 0.79449,-2.31511 0.45492,-1.79284 0.51535,-3.76354 0.72506,-23.65163 0.30308,-28.74 0.31385,-26.9875 -0.16544,-26.9875 -0.50864,0 -0.55978,0.47794 -1.56271,14.60476 -1.66664,23.47521 -2.07719,34.13178 -1.39438,36.19524 0.8782,2.65403 1.02476,2.85096 1.60298,2.15424 z M -168.37251,175.6224 c 0.29403,-0.69122 0.65805,-1.91162 0.80891,-2.71198 0.16262,-0.86257 0.36156,-10.18299 0.48853,-22.88646 0.29046,-29.06292 0.31149,-26.8705 -0.26101,-27.22247 -0.84392,-0.51885 -1.1293,0.36443 -1.4609,4.52165 -1.68656,21.14571 -2.81667,42.22477 -2.41858,45.11241 0.59187,4.29331 1.79753,5.64478 2.84305,3.18685 z m -425.20955,-9.34011 c 0.31768,-0.64741 0.70158,-1.95098 0.85309,-2.89687 0.16074,-1.00346 0.38088,-11.69347 0.52851,-25.66458 0.2232,-21.12328 0.2064,-23.99157 -0.14256,-24.34167 -0.35151,-0.35266 -0.45262,-0.32729 -0.90767,0.22775 -0.28166,0.34354 -0.5121,0.89742 -0.5121,1.23084 0,0.33343 -0.23477,3.62421 -0.52172,7.31288 -1.14707,14.74554 -2.09364,30.88804 -2.17746,37.13374 -0.0548,4.08633 0.29867,6.2257 1.28154,7.75549 0.52932,0.82386 0.91113,0.64291 1.59837,-0.75758 z M 259.96542,43.595316 c 1.17541,-2.777384 1.16226,-2.516772 1.42552,-28.212616 0.18741,-18.290744 0.17489,-24.6672579 -0.049,-24.9369794 -0.44815,-0.5399886 -1.00878,-0.4389252 -1.29212,0.2329286 -0.48149,1.1416797 -2.36702,28.5988678 -3.04792,44.3838538 -0.17195,3.986671 0.11337,6.370908 1.02301,8.547921 0.55944,1.338963 1.37009,1.332653 1.94048,-0.01511 z M -553.44422,14.748359 c 1.23192,-2.382266 1.23852,-2.506861 1.5044,-28.369189 0.13839,-13.460677 0.1945,-24.622786 0.12471,-24.804687 -0.14788,-0.385403 -1.09977,-0.445355 -1.3235,-0.08336 -0.28235,0.456848 -1.55869,17.481401 -2.55023,34.016169 -0.1658,2.7648958 -0.31706,7.5869271 -0.33614,10.715625 -0.0301,4.937654 0.0311,5.880629 0.46335,7.14375 0.79361,2.318874 1.42105,2.728301 2.11741,1.381689 z m 390.25371,-2.109293 c 1.10511,-2.153828 1.18787,-3.7816633 1.34308,-26.416484 0.0819,-11.946073 0.21534,-22.602167 0.29654,-23.680209 0.1492,-1.981358 -0.1234,-3.015848 -0.65471,-2.48453 -0.52104,0.521049 -2.53965,29.119468 -3.09044,43.783827 -0.17621,4.6910572 0.0154,6.67933 0.83476,8.665104 0.43368,1.050925 0.78087,1.08707 1.27077,0.132292 z M 26.965518,-16.200517 c 0.776314,-2.025971 0.957792,-7.235802 1.133713,-32.54375 0.113824,-16.376878 0.07803,-19.38073 -0.230823,-19.38073 -0.488076,0 -0.562292,0.553697 -1.170305,8.73125 -1.275635,17.157436 -1.847056,26.778091 -2.035069,34.263542 -0.138007,5.49375 -0.09842,6.581902 0.293502,8.069792 0.752819,2.857947 1.174248,3.038326 2.008982,0.859896 z M 182.12005,-65.297794 c 0.22069,-0.336809 0.64016,-1.546479 0.93216,-2.688156 0.48688,-1.903767 0.53191,-2.954742 0.54334,-12.682932 0.007,-5.833935 0.11454,-16.669467 0.23932,-24.078958 0.12478,-7.40949 0.16949,-13.6213 0.0994,-13.80402 -0.0701,-0.18272 -0.29343,-0.3959 -0.49626,-0.47373 -0.81118,-0.31128 -1.09135,0.56283 -1.40276,4.37655 -1.23341,15.104894 -2.4174,34.886335 -2.47579,41.364668 -0.0384,4.26629 0.0177,4.946431 0.53941,6.527808 0.7112,2.155894 1.29048,2.573991 2.0212,1.45877 z"
         id="path838"
         inkscape:connector-curvature="0" />
      <path
         style="fill:#5e5858;stroke-width:0.26458335"
         d="m -639.53571,490.79798 c 0,-111.75513 0.006,-113.11538 0.51177,-112.84479 0.82312,0.44053 2.18469,0.35084 18.36723,-1.20967 8.4615,-0.81598 16.45611,-1.48273 17.76579,-1.48167 2.87102,0.003 4.23901,0.29837 7.55475,1.6352 1.39095,0.56081 3.22882,1.14901 4.08416,1.30712 1.05669,0.19535 10.54631,0.2875 29.60641,0.2875 h 28.05124 l 7.42048,1.48 c 6.20475,1.23751 7.74558,1.4605 9.40484,1.36102 1.49773,-0.0898 4.09317,-0.74475 10.58334,-2.67076 l 8.59896,-2.55177 18.65312,-2.23809 c 10.25922,-1.23092 19.90329,-2.30952 21.43125,-2.39686 1.52797,-0.0874 12.03208,-0.50599 23.34245,-0.93033 15.6477,-0.58703 20.7716,-0.86013 21.43125,-1.14226 2.43717,-1.04235 3.54611,-3.98833 2.36981,-6.29557 -1.19199,-2.33802 -4.82766,-5.7322 -7.98517,-7.45477 -4.45572,-2.43078 -6.01727,-2.70428 -18.38854,-3.22061 -9.69377,-0.40455 -11.46125,-0.53465 -11.17352,-0.82238 0.0736,-0.0736 3.5103,-0.78087 7.63723,-1.57178 4.98577,-0.95555 7.72571,-1.59957 8.16573,-1.91942 0.36422,-0.26475 0.93531,-1.01016 1.26909,-1.65648 1.04211,-2.01795 0.45794,-3.56275 -2.19575,-5.80652 -3.39929,-2.87422 -7.80376,-4.49675 -12.20667,-4.49675 h -2.46612 l -0.60041,-1.25482 c -1.00447,-2.09928 -4.6126,-4.38261 -8.29043,-5.24647 -3.42756,-0.80508 -5.29209,-0.53594 -26.57353,3.8359 -10.69578,2.19723 -26.3525,5.29852 -34.79271,6.89174 -22.13515,4.17837 -20.86765,4.05357 -24.13792,2.37683 -4.93289,-2.52918 -9.3875,-6.62774 -14.29017,-13.14792 -4.66814,-6.20826 -5.25605,-7.60571 -5.03118,-11.95893 0.15818,-3.0622 0.39473,-3.68501 3.3926,-8.93238 4.77835,-8.36388 7.14964,-16.59716 7.2253,-25.08684 0.0329,-3.6876 0.0284,-3.71666 -0.83926,-5.48161 -1.11056,-2.25901 -2.89323,-4.04061 -5.08007,-5.07699 -1.54636,-0.73284 -1.97503,-0.81539 -4.2341,-0.81539 -2.2508,0 -2.63799,0.0739 -3.70416,0.70697 -2.22065,1.31858 -3.52444,3.02038 -7.16102,9.3472 -7.61471,13.24784 -14.3913,23.59882 -18.04404,27.56156 -0.60229,0.65342 -3.06543,2.5413 -5.47365,4.19532 -8.14926,5.59705 -13.69788,10.58383 -18.60096,16.71754 -1.31327,1.64287 -2.46048,2.98852 -2.54936,2.99034 -0.0889,0.003 -4.2363,0.46789 -9.21648,1.03569 -9.84757,1.12276 -10.76425,1.34974 -12.85147,3.18235 l -0.98011,0.86056 V 74.512828 -189.83333 h 223.70522 c 123.03787,0 223.70435,0.0893 223.70332,0.19844 0,0.10914 -0.17515,2.52015 -0.3869,5.35781 -0.98131,13.15231 -1.72781,26.82144 -1.72667,31.61771 0,3.67364 0.38753,5.9811 1.24145,7.40833 0.51046,0.85321 1.18769,0.19273 1.92048,-1.873 l 0.64958,-1.83116 0.18042,-16.0073 c 0.0992,-8.80401 0.19386,-18.00159 0.21031,-20.43906 l 0.0299,-4.43177 h 304.40315 304.40314 v 396.875 396.875 h -529.1667 -529.1667 z m 311.80365,105.36256 c 0.22069,-0.33681 0.6255,-1.49767 0.89961,-2.57969 0.4578,-1.80723 0.51689,-3.7434 0.7262,-23.79543 0.30363,-29.092 0.3229,-26.7394 -0.22164,-27.08402 -1.01714,-0.64378 -1.09046,-0.17542 -2.04444,13.0611 -1.10934,15.39272 -1.8611,28.93066 -1.86372,33.56391 -0.003,3.06406 0.4627,5.6842 1.21449,6.8512 0.48625,0.75483 0.78634,0.75086 1.2895,-0.0169 z m -187.79465,-48.61615 c 1.02052,-2.57197 1.1337,-4.36568 1.16762,-18.5048 0.018,-7.49433 0.11277,-18.03136 0.21064,-23.41563 0.14129,-7.77301 0.1076,-9.91047 -0.16352,-10.3764 -0.36403,-0.62558 -0.98743,-0.57401 -1.2473,0.10319 -0.45554,1.1871 -2.51595,31.84982 -2.94824,43.8753 -0.13992,3.89217 -0.0937,5.09079 0.25309,6.55891 0.87468,3.70332 1.73597,4.25887 2.72771,1.75943 z m 285.14103,-52.84621 c 1.17469,-2.27166 1.19906,-2.73963 1.4778,-28.38305 0.22789,-20.96436 0.21246,-24.49451 -0.10845,-24.81543 -0.6091,-0.60909 -1.15909,-0.16388 -1.32416,1.07188 -0.35981,2.69373 -1.76186,22.92999 -2.39787,34.60967 -0.56663,10.40548 -0.53279,13.79112 0.16034,16.04558 0.30673,0.99759 0.6114,1.9031 0.67707,2.01224 0.27855,0.46288 1.15863,0.14872 1.51527,-0.54089 z M 324.579,488.87589 c 1.19145,-2.33542 1.34853,-4.30078 1.37258,-17.17358 0.0124,-6.66371 0.11113,-17.3546 0.21932,-23.75751 0.10927,-6.46833 0.0951,-11.84744 -0.032,-12.10469 -0.32356,-0.65527 -1.23131,-0.57693 -1.53244,0.13229 -0.5674,1.33644 -2.85564,36.13531 -2.97939,45.3099 -0.0503,3.73059 0.022,4.76874 0.4245,6.08541 0.81727,2.67401 1.67232,3.18426 2.5274,1.50818 z M -53.958014,450.78907 c 0.768614,-0.88676 1.301882,-3.13045 1.525005,-6.41615 0.123508,-1.81901 0.265086,-13.24901 0.31459,-25.4 l 0.09004,-22.09271 -0.552318,-0.0789 c -0.303768,-0.0434 -0.686382,0.0827 -0.850265,0.28008 -0.569225,0.68588 -2.711159,30.97893 -3.109992,43.98426 -0.146209,4.76694 -0.110173,5.48354 0.363352,7.22664 0.474319,1.74604 1.14509,2.95982 1.635681,2.95982 0.100409,0 0.363167,-0.20836 0.583909,-0.46302 z M -587.40964,433.92188 c 0.56729,-1.81888 0.58142,-2.25933 0.78773,-24.5618 0.11555,-12.49035 0.12513,-23.02738 0.0213,-23.41563 -0.29811,-1.11471 -0.99494,-1.04222 -1.32501,0.13785 -0.32123,1.14843 -0.82995,7.1809 -1.59112,18.8677 -1.33895,20.55776 -1.48986,26.71448 -0.7166,29.23646 0.2677,0.87313 0.67691,1.80007 0.90935,2.05986 0.40567,0.45342 0.44094,0.45342 0.87966,0 0.25137,-0.25979 0.71698,-1.3058 1.03469,-2.32444 z M 64.256001,283.70726 c 1.219941,-2.00605 1.282012,-3.14682 1.56591,-28.77556 0.28239,-25.49506 0.293846,-25.16222 -0.850291,-24.72317 -0.541735,0.20789 -0.605579,0.61513 -1.096645,6.99564 -1.350487,17.54735 -2.257505,33.16293 -2.274571,39.16058 -0.01191,4.16843 0.311389,6.16852 1.229043,7.60452 0.514324,0.80484 0.810869,0.75039 1.426554,-0.26201 z M -370.98361,265.45101 c 1.21087,-1.99112 1.2749,-3.17569 1.54734,-28.61747 0.14163,-13.22795 0.19941,-24.20226 0.12837,-24.38736 -0.20153,-0.5252 -0.93943,-0.69792 -1.3268,-0.31057 -0.76528,0.76528 -3.55585,43.69972 -3.17704,48.88106 0.13904,1.90206 0.76263,4.2626 1.31053,4.96094 0.43709,0.5571 0.97126,0.37176 1.5176,-0.5266 z m 584.04877,-77.15809 c 1.14417,-2.21257 1.18671,-3.03876 1.46474,-28.44501 0.14629,-13.36902 0.20124,-24.41207 0.1221,-24.5401 -0.18772,-0.30372 -1.09783,-0.30067 -1.28632,0.004 -0.33684,0.54505 -2.17914,26.95364 -2.8167,40.37643 -0.31986,6.73438 -0.22768,9.25369 0.41529,11.34827 0.66426,2.16394 1.40303,2.60567 2.10089,1.25611 z M -168.37251,175.6224 c 0.29403,-0.69122 0.65805,-1.91162 0.80891,-2.71198 0.16262,-0.86257 0.36156,-10.18299 0.48853,-22.88646 0.29046,-29.06292 0.31149,-26.8705 -0.26101,-27.22247 -0.84392,-0.51885 -1.1293,0.36443 -1.4609,4.52165 -1.68656,21.14571 -2.81667,42.22477 -2.41858,45.11241 0.59187,4.29331 1.79753,5.64478 2.84305,3.18685 z m -425.20955,-9.34011 c 0.31768,-0.64741 0.70158,-1.95098 0.85309,-2.89687 0.16074,-1.00346 0.38088,-11.69347 0.52851,-25.66458 0.2232,-21.12328 0.2064,-23.99157 -0.14256,-24.34167 -0.35151,-0.35266 -0.45262,-0.32729 -0.90767,0.22775 -0.28166,0.34354 -0.5121,0.89742 -0.5121,1.23084 0,0.33343 -0.23477,3.62421 -0.52172,7.31288 -1.14707,14.74554 -2.09364,30.88804 -2.17746,37.13374 -0.0548,4.08633 0.29867,6.2257 1.28154,7.75549 0.52932,0.82386 0.91113,0.64291 1.59837,-0.75758 z M 259.96542,43.595316 c 1.17541,-2.777384 1.16226,-2.516772 1.42552,-28.212616 0.18741,-18.290744 0.17489,-24.6672579 -0.049,-24.9369794 -0.44815,-0.5399886 -1.00878,-0.4389252 -1.29212,0.2329286 -0.48149,1.1416797 -2.36702,28.5988678 -3.04792,44.3838538 -0.17195,3.986671 0.11337,6.370908 1.02301,8.547921 0.55944,1.338963 1.37009,1.332653 1.94048,-0.01511 z M -553.44422,14.748359 c 1.23192,-2.382266 1.23852,-2.506861 1.5044,-28.369189 0.13839,-13.460677 0.1945,-24.622786 0.12471,-24.804687 -0.14788,-0.385403 -1.09977,-0.445355 -1.3235,-0.08336 -0.28235,0.456848 -1.55869,17.481401 -2.55023,34.016169 -0.1658,2.7648958 -0.31706,7.5869271 -0.33614,10.715625 -0.0301,4.937654 0.0311,5.880629 0.46335,7.14375 0.79361,2.318874 1.42105,2.728301 2.11741,1.381689 z m 390.48768,-1.942497 c 1.17705,-2.36936 1.21706,-3.1418558 1.47056,-28.411067 0.13287,-13.242396 0.18626,-24.225911 0.11866,-24.407812 -0.14973,-0.402929 -1.02716,-0.437865 -1.26661,-0.05043 -0.51798,0.838094 -3.02411,39.41244402 -3.03046,46.645049 -0.003,3.905097 0.96766,7.54825 1.93254,7.250105 0.17264,-0.05334 0.52152,-0.514972 0.77531,-1.025848 z M 26.788803,-15.009892 c 0.209232,-0.327422 0.585232,-1.250157 0.835554,-2.050521 0.409072,-1.307907 0.478843,-3.945348 0.689266,-26.055431 0.128746,-13.530125 0.175948,-24.751766 0.104881,-24.93698 -0.222171,-0.578953 -1.181709,-0.392035 -1.327309,0.258557 -0.193754,0.865671 -1.36279,16.649784 -1.984137,26.789062 -0.760016,12.402362 -1.053809,20.666742 -0.794782,22.357292 0.564489,3.684077 1.535536,5.110554 2.476527,3.638021 z M 182.12005,-65.297794 c 0.22069,-0.336809 0.64016,-1.546479 0.93216,-2.688156 0.48688,-1.903767 0.53191,-2.954742 0.54334,-12.682932 0.007,-5.833935 0.11454,-16.669467 0.23932,-24.078958 0.12478,-7.40949 0.16949,-13.6213 0.0994,-13.80402 -0.0701,-0.18272 -0.29343,-0.3959 -0.49626,-0.47373 -0.81118,-0.31128 -1.09135,0.56283 -1.40276,4.37655 -1.23341,15.104894 -2.4174,34.886335 -2.47579,41.364668 -0.0384,4.26629 0.0177,4.946431 0.53941,6.527808 0.7112,2.155894 1.29048,2.573991 2.0212,1.45877 z"
         id="path836"
         inkscape:connector-curvature="0" />
      <path
         style="fill:#b12b21;stroke-width:0.26458335"
         d="M -639.53571,490.8196 V 377.72253 l 0.75002,0.43045 c 0.70641,0.40542 1.78891,0.33268 18.61803,-1.25116 l 17.86801,-1.68164 2.29113,0.45019 c 1.26012,0.24757 3.46218,0.92228 4.89346,1.49936 1.43128,0.57706 3.4224,1.16774 4.4247,1.31263 1.11596,0.16131 12.58618,0.26545 29.59069,0.26865 l 27.76833,0.005 6.7598,1.37207 c 9.80982,1.99115 9.52179,2.00861 20.25355,-1.22713 l 8.46666,-2.55278 18.38855,-2.2097 c 10.1137,-1.21534 19.16245,-2.2805 20.10833,-2.36701 0.94589,-0.0865 11.54245,-0.51801 23.54792,-0.95885 17.47812,-0.64178 22.04976,-0.88265 22.94028,-1.20873 2.0447,-0.74869 3.52544,-3.23466 3.1114,-5.22367 -0.66579,-3.19833 -6.282,-8.30442 -11.23501,-10.21453 -3.07092,-1.18424 -5.80414,-1.54564 -14.02292,-1.85404 -9.46975,-0.35536 -11.95211,-0.54038 -11.24479,-0.83814 0.29104,-0.12253 3.37113,-0.75846 6.84465,-1.41322 3.66856,-0.69149 6.66225,-1.39295 7.14285,-1.67362 0.45505,-0.26578 1.1062,-0.8935 1.44699,-1.39497 0.51184,-0.75313 0.60164,-1.16906 0.51623,-2.39098 -0.11696,-1.67326 -0.48569,-2.2569 -2.52628,-3.99871 -3.44292,-2.93883 -7.16618,-4.39261 -11.95316,-4.66717 l -3.02662,-0.17362 -0.21677,-0.83939 c -0.50709,-1.96357 -5.20858,-4.78612 -9.24679,-5.5513 -1.41204,-0.26754 -2.87914,-0.36568 -4.06235,-0.2717 -1.01865,0.0809 -10.90084,1.99115 -21.96042,4.245 -11.05959,2.25386 -23.02537,4.65005 -26.59063,5.32487 -24.5275,4.64244 -25.99499,4.89765 -28.12881,4.89191 -2.51053,-0.007 -3.36632,-0.32406 -6.46835,-2.39863 -4.77335,-3.19228 -7.58257,-6.01078 -12.29361,-12.33414 -3.01233,-4.04328 -4.0556,-6.0911 -4.42053,-8.67703 -0.4821,-3.4162 0.18406,-5.94945 2.68347,-10.20472 4.9919,-8.49876 7.14126,-15.15255 7.89028,-24.42599 0.31209,-3.86392 0.1034,-5.48798 -0.99551,-7.74742 -2.33439,-4.79957 -8.65058,-7.22302 -13.00582,-4.99017 -2.1797,1.11749 -3.49157,2.81747 -7.45862,9.66517 -6.60211,11.39624 -11.07474,18.43847 -15.20765,23.94479 -2.79817,3.72804 -3.3826,4.26758 -8.31985,7.68078 -2.25558,1.55932 -5.11308,3.62117 -6.35,4.58189 -3.20509,2.48939 -9.33049,8.56197 -12.04975,11.94581 -2.43223,3.02665 -2.40132,3.00635 -5.01588,3.29285 -16.54548,1.81297 -17.62279,2.02771 -19.47725,3.88217 l -1.02796,1.02791 V 74.48542 -189.83333 h 223.70522 c 123.03787,0 223.70435,0.0893 223.70332,0.19844 0,0.10914 -0.17515,2.52015 -0.3869,5.35781 -0.98131,13.15231 -1.72781,26.82144 -1.72667,31.61771 0,3.67364 0.38753,5.9811 1.24145,7.40833 0.51046,0.85321 1.18769,0.19273 1.92048,-1.873 l 0.64958,-1.83116 0.18042,-16.0073 c 0.0992,-8.80401 0.19386,-18.00159 0.21031,-20.43906 l 0.0299,-4.43177 h 304.40315 304.40314 v 396.875 396.875 h -529.1667 -529.1667 z m 311.80365,105.34094 c 0.22069,-0.33681 0.6255,-1.49767 0.89961,-2.57969 0.4578,-1.80723 0.51689,-3.7434 0.7262,-23.79543 0.30363,-29.092 0.3229,-26.7394 -0.22164,-27.08402 -1.01714,-0.64378 -1.09046,-0.17542 -2.04444,13.0611 -1.10934,15.39272 -1.8611,28.93066 -1.86372,33.56391 -0.003,3.06406 0.4627,5.6842 1.21449,6.8512 0.48625,0.75483 0.78634,0.75086 1.2895,-0.0169 z m -187.94036,-47.67622 c 1.33429,-2.2846 1.33374,-2.27473 1.58988,-28.55997 0.13181,-13.52635 0.18032,-24.74799 0.1078,-24.93698 -0.19637,-0.51173 -1.41389,-0.41624 -1.70837,0.13398 -0.59906,1.11938 -2.93661,36.22667 -3.0247,45.42761 -0.0386,4.03085 0.0301,4.98607 0.4474,6.21771 0.94678,2.79466 1.67623,3.2788 2.58799,1.71765 z m 652.45802,0.20058 c 0.32909,-0.41966 0.31975,-0.429 -0.0999,-0.0999 -0.44071,0.34565 -0.58089,0.56293 -0.36311,0.56293 0.0549,0 0.26329,-0.20836 0.46302,-0.46302 z m -1.52995,-0.47443 c -0.0862,-0.22455 -0.21342,-0.35155 -0.28279,-0.2822 -0.0693,0.0694 -0.0476,0.2531 0.0483,0.40831 0.26088,0.42211 0.41339,0.34012 0.23448,-0.12611 z m -0.96891,-3.08091 c -0.0845,-0.21106 -0.14716,-0.14838 -0.15986,0.15986 -0.0114,0.2789 0.0511,0.43519 0.13899,0.34727 0.0879,-0.0879 0.0973,-0.31613 0.0209,-0.50713 z m 3.97473,-2.66237 c -0.0631,-0.32742 -0.11464,-0.0595 -0.11464,0.59531 0,0.65485 0.0516,0.92274 0.11464,0.59532 0.0631,-0.32743 0.0631,-0.86321 0,-1.19063 z m -4.23053,-0.92604 c -0.0606,-0.40018 -0.11022,-0.0728 -0.11022,0.7276 0,0.80037 0.0496,1.12779 0.11022,0.72761 0.0606,-0.40018 0.0606,-1.05503 0,-1.45521 z m 0.26681,-7.00672 c -0.0589,-0.47554 -0.10827,-0.15026 -0.10975,0.72287 -0.003,0.87312 0.0467,1.26222 0.10705,0.86463 0.0604,-0.39757 0.0616,-1.11194 0.003,-1.5875 z m 0.2627,-4.89591 c -0.0608,-0.40216 -0.11221,-0.13591 -0.11419,0.59169 -0.003,0.72761 0.0478,1.05667 0.11057,0.73123 0.0628,-0.32541 0.0644,-0.92072 0.004,-1.32292 z m 0.26186,-4.89532 c -0.0633,-0.32914 -0.11747,-0.12215 -0.12041,0.45993 -0.003,0.58208 0.0488,0.85135 0.11507,0.59841 0.0662,-0.25297 0.0686,-0.72922 0.005,-1.05834 z m 3.71467,-11.66058 c -0.0452,-1.91945 -0.082,-0.27522 -0.0818,3.65384 1.6e-4,3.92906 0.0371,5.49953 0.0821,3.48991 0.045,-2.00962 0.0449,-5.2243 0,-7.14375 z m -3.45051,7.42415 c -0.0631,-0.32742 -0.11464,-0.0595 -0.11464,0.59532 0,0.65484 0.0516,0.92273 0.11464,0.59531 0.0631,-0.32742 0.0631,-0.8632 0,-1.19063 z m 0.26459,-4.23333 c -0.063,-0.32742 -0.11465,-0.0595 -0.11465,0.59531 0,0.65485 0.0516,0.92274 0.11465,0.59532 0.0631,-0.32743 0.0631,-0.86321 0,-1.19063 z m 0.265,-3.70107 c -0.0633,-0.32914 -0.11747,-0.12216 -0.12041,0.45992 -0.003,0.58209 0.0488,0.85135 0.11507,0.59841 0.0662,-0.25296 0.0686,-0.72921 0.005,-1.05833 z m 0.26459,-3.70417 c -0.0633,-0.32914 -0.11748,-0.12215 -0.12042,0.45993 -0.003,0.58208 0.0488,0.85135 0.11507,0.59841 0.0662,-0.25297 0.0686,-0.72922 0.005,-1.05834 z m 0.25982,-3.83955 c -0.0666,-0.25466 -0.121,-0.0463 -0.121,0.46302 0,0.50932 0.0544,0.71768 0.121,0.46302 0.0666,-0.25466 0.0666,-0.67138 0,-0.92604 z m 0.26556,-3.16997 c -0.0671,-0.25742 -0.12639,-0.11086 -0.13179,0.3257 -0.005,0.43656 0.0495,0.6472 0.12197,0.46805 0.0725,-0.17913 0.0769,-0.53631 0.01,-0.79375 z m 2.39435,-5.02111 c -0.051,-0.98832 -0.0932,-0.24913 -0.0937,1.64264 0,1.89177 0.0413,2.70039 0.0928,1.79695 0.0515,-0.90345 0.0519,-2.45126 0,-3.43959 z m -2.12977,1.84611 c -0.0671,-0.25742 -0.12639,-0.11086 -0.13179,0.3257 -0.005,0.43656 0.0495,0.6472 0.12198,0.46805 0.0725,-0.17913 0.0769,-0.53631 0.01,-0.79375 z m 0.25646,-3.04774 c -0.0734,-0.1819 -0.13345,-0.0331 -0.13345,0.33073 0,0.3638 0.0601,0.51263 0.13345,0.33073 0.0734,-0.1819 0.0734,-0.47956 0,-0.66146 z m -367.15234,-0.79118 c 1.22553,-2.01523 1.28646,-3.13278 1.56776,-28.74479 0.17698,-16.11458 0.17733,-24.34301 0,-24.67239 -0.31673,-0.59185 -1.11421,-0.64511 -1.56297,-0.10438 -0.75525,0.91003 -3.41836,42.40694 -3.10777,48.42563 0.12621,2.44549 0.68077,4.80809 1.31977,5.62253 0.46146,0.58817 1.24505,0.35663 1.78218,-0.5266 z m 554.83129,-5.82084 c 1.21832,-2.00342 1.28108,-3.15319 1.57033,-28.776 0.27297,-24.18186 0.27265,-24.20988 -0.26459,-24.65914 -0.591,-0.49419 -1.17843,-0.3959 -1.42163,0.23786 -0.52477,1.36753 -3.05866,40.18918 -3.05324,46.77857 0.003,2.46875 0.49281,5.14424 1.19153,6.49542 0.53837,1.04108 1.31617,1.01092 1.9776,-0.0767 z M -53.453612,450.0553 c 1.166071,-2.63607 1.282461,-4.10824 1.307015,-16.5303 0.0127,-6.47567 0.119353,-17.1913 0.236802,-23.8125 0.179731,-10.13216 0.154861,-12.13281 -0.157057,-12.63385 -0.42537,-0.68331 -0.94779,-0.76351 -1.402715,-0.21535 -0.380127,0.45805 -0.580681,2.49238 -1.449282,14.70129 -1.034547,14.5415 -1.478782,22.34753 -1.648751,28.97187 -0.133826,5.21676 -0.09205,6.3309 0.292815,7.80521 0.837803,3.20961 1.879547,3.84238 2.821173,1.71363 z M -587.40964,433.92188 c 0.56729,-1.81888 0.58142,-2.25933 0.78773,-24.5618 0.11555,-12.49035 0.12513,-23.02738 0.0213,-23.41563 -0.29811,-1.11471 -0.99494,-1.04222 -1.32501,0.13785 -0.32123,1.14843 -0.82995,7.1809 -1.59112,18.8677 -1.33895,20.55776 -1.48986,26.71448 -0.7166,29.23646 0.2677,0.87313 0.67691,1.80007 0.90935,2.05986 0.40567,0.45342 0.44094,0.45342 0.87966,0 0.25137,-0.25979 0.71698,-1.3058 1.03469,-2.32444 z M 64.207344,284.16948 c 0.28538,-0.36282 0.758666,-1.58321 1.051692,-2.71197 0.504614,-1.94366 0.547027,-3.34069 0.801132,-26.39396 0.256382,-23.25934 0.247201,-24.36345 -0.206507,-24.83126 -0.735753,-0.75858 -1.527625,-0.19537 -1.712278,1.21788 -0.377719,2.89113 -1.756621,22.67826 -2.401464,34.46129 -0.544089,9.94146 -0.519377,13.848 0.101732,16.08789 0.457095,1.64843 1.142762,2.82982 1.642402,2.82982 0.112395,0 0.437885,-0.29686 0.723291,-0.65969 z M -370.70979,265.42304 c 1.2107,-2.73703 1.25187,-3.45736 1.42369,-24.91158 0.0897,-11.2051 0.238,-22.0523 0.32949,-24.10492 0.15991,-3.58846 0.14425,-3.75404 -0.40725,-4.30553 -0.44341,-0.44342 -0.68516,-0.51382 -1.06553,-0.31025 -0.27059,0.1448 -0.56398,0.45095 -0.65198,0.68032 -0.37431,0.97539 -2.2827,28.64141 -2.82853,41.00496 -0.30033,6.80257 -0.22963,8.45982 0.46101,10.80956 0.75472,2.56765 1.89669,3.04186 2.7391,1.13744 z m 737.6829,-51.17147 c 0.32909,-0.41966 0.31975,-0.429 -0.0999,-0.0999 -0.44072,0.34565 -0.5809,0.56293 -0.36312,0.56293 0.0549,0 0.26329,-0.20836 0.46302,-0.46302 z m -2.49885,-3.29076 c -0.0845,-0.21106 -0.14716,-0.14838 -0.15986,0.15986 -0.0114,0.2789 0.0511,0.43519 0.13898,0.34727 0.0879,-0.0879 0.0973,-0.31613 0.0209,-0.50713 z m -0.24996,-4.77017 c -0.0536,-0.76886 -0.0981,-0.2073 -0.0987,1.24791 0,1.4552 0.0432,2.08428 0.0975,1.39792 0.0543,-0.68633 0.0549,-1.87695 0,-2.64583 z m 4.23442,-1.71765 c -0.051,-0.98833 -0.0932,-0.24913 -0.0937,1.64264 0,1.89177 0.0413,2.70039 0.0928,1.79694 0.0515,-0.90344 0.0519,-2.45126 0,-3.43958 z m -3.97346,-5.43023 c -0.0589,-0.47554 -0.10826,-0.15026 -0.10975,0.72287 -0.003,0.87312 0.0467,1.26222 0.10705,0.86463 0.0604,-0.39756 0.0616,-1.11194 0.003,-1.5875 z m 0.25956,-4.76724 c -0.0631,-0.32742 -0.11464,-0.0595 -0.11464,0.59532 0,0.65484 0.0516,0.92273 0.11464,0.59531 0.0631,-0.32742 0.0631,-0.8632 0,-1.19063 z m 0.26458,-4.7625 c -0.0631,-0.32742 -0.11464,-0.0595 -0.11464,0.59532 0,0.65484 0.0516,0.92273 0.11464,0.59531 0.0631,-0.32742 0.0631,-0.8632 0,-1.19063 z m -151.94424,-1.2201 c 1.14417,-2.21257 1.18671,-3.03876 1.46474,-28.44501 0.14629,-13.36902 0.20124,-24.41207 0.1221,-24.5401 -0.18772,-0.30372 -1.09783,-0.30067 -1.28632,0.004 -0.33684,0.54505 -2.17914,26.95364 -2.8167,40.37643 -0.31986,6.73438 -0.22768,9.25369 0.41529,11.34827 0.66426,2.16394 1.40303,2.60567 2.10089,1.25611 z m 152.20883,-3.01323 c -0.0631,-0.32742 -0.11465,-0.0595 -0.11465,0.59531 0,0.65485 0.0516,0.92274 0.11465,0.59532 0.0631,-0.32743 0.0631,-0.86321 0,-1.19063 z m 0.265,-3.96565 c -0.0633,-0.32915 -0.11747,-0.12216 -0.12041,0.45992 -0.003,0.58209 0.0488,0.85135 0.11507,0.59841 0.0662,-0.25297 0.0686,-0.72922 0.005,-1.05833 z m 3.18522,-7.14685 c -0.0472,-1.49159 -0.0858,-0.2712 -0.0858,2.71198 0,2.98318 0.0386,4.20357 0.0858,2.71198 0.0471,-1.49159 0.0471,-3.93237 0,-5.42396 z m -2.9254,3.30729 c -0.0665,-0.25466 -0.12099,-0.0463 -0.12099,0.46302 0,0.50933 0.0545,0.71769 0.12099,0.46302 0.0666,-0.25466 0.0666,-0.67138 0,-0.92604 z m -533.98005,-1.71979 c 0.34727,-0.76398 0.75126,-2.16297 0.89776,-3.10885 0.15153,-0.97827 0.33081,-10.78926 0.41582,-22.75417 0.0822,-11.56891 0.2228,-22.29035 0.3125,-23.82546 0.1411,-2.41502 0.10242,-2.85171 -0.287,-3.24115 -0.61253,-0.61251 -1.12241,-0.56515 -1.56326,0.14526 -0.65434,1.05441 -3.02668,35.87689 -3.12285,45.83906 -0.0295,3.06028 0.0663,4.33213 0.41868,5.55625 0.92373,3.20889 1.89227,3.66834 2.92835,1.38906 z m 534.24464,-1.98437 c -0.0666,-0.25467 -0.121,-0.0463 -0.121,0.46302 0,0.50932 0.0544,0.71768 0.121,0.46302 0.0666,-0.25466 0.0666,-0.67138 0,-0.92604 z m 0.26934,-3.56878 c -0.0633,-0.32915 -0.11747,-0.12216 -0.12041,0.45992 -0.003,0.58209 0.0488,0.85135 0.11507,0.59841 0.0662,-0.25297 0.0686,-0.72922 0.005,-1.05833 z m -960.04818,-3.12865 c 0.26204,-0.35462 0.70014,-1.53773 0.97357,-2.62914 0.45587,-1.81962 0.51119,-3.63191 0.66624,-21.82812 0.093,-10.91406 0.24449,-21.82125 0.33663,-24.23819 0.1626,-4.26508 0.15068,-4.41129 -0.40502,-4.967 -0.78282,-0.78282 -1.51867,-0.37467 -1.72619,0.95748 -0.31814,2.04232 -1.74784,22.31879 -2.40218,34.06854 -0.59403,10.66692 -0.56628,14.66977 0.11687,16.85523 0.56066,1.79364 1.16048,2.69372 1.67974,2.52063 0.15615,-0.052 0.49831,-0.38478 0.76034,-0.73943 z m 960.308,-0.44632 c -0.0665,-0.25467 -0.12099,-0.0463 -0.12099,0.46302 0,0.50932 0.0545,0.71768 0.12099,0.46302 0.0666,-0.25466 0.0666,-0.67138 0,-0.92604 z m 2.39295,-4.62323 c -0.0559,-0.6223 -0.10242,-0.17896 -0.10337,0.9852 0,1.16417 0.0448,1.67334 0.10162,1.13147 0.0569,-0.54184 0.0576,-1.49434 0.003,-2.11667 z m -2.12738,1.71784 c -0.0671,-0.25742 -0.1264,-0.11086 -0.13179,0.3257 -0.005,0.43656 0.0495,0.6472 0.12197,0.46805 0.0725,-0.17913 0.0769,-0.53631 0.01,-0.79375 z M -336.40704,57.237894 c -0.0845,-0.211066 -0.14716,-0.148373 -0.15986,0.159853 -0.0114,0.278913 0.0511,0.435184 0.13899,0.347266 0.0879,-0.08792 0.0973,-0.316124 0.0209,-0.507119 z m -3.96613,-0.67296 c -0.0671,-0.257431 -0.12639,-0.110868 -0.13179,0.325694 -0.005,0.436563 0.0495,0.647187 0.12198,0.468056 0.0725,-0.179131 0.0769,-0.536318 0.01,-0.79375 z m 4.24807,-14.407888 c -0.0435,-2.51955 -0.0792,-0.532876 -0.0793,4.414832 -1.1e-4,4.947709 0.0355,7.009159 0.0791,4.581001 0.0436,-2.428158 0.0437,-6.476283 1.8e-4,-8.995833 z m -4.23833,8.852503 c -0.0573,-0.548947 -0.10509,-0.16465 -0.10628,0.853996 0,1.018646 0.0457,1.467787 0.10414,0.998088 0.0584,-0.469697 0.0594,-1.303134 0.003,-1.852084 z m 0.26135,-6.087678 c -0.0608,-0.402183 -0.11221,-0.13593 -0.11419,0.591674 -0.003,0.727604 0.0478,1.056664 0.11057,0.731242 0.0628,-0.325421 0.0644,-0.920734 0.004,-1.322916 z m 599.99485,-0.665097 c 0.21254,-0.327422 0.62198,-1.449731 0.90987,-2.494023 0.48136,-1.746128 0.53594,-3.053776 0.67924,-16.271875 0.0857,-7.90524 0.22429,-18.9688498 0.30792,-24.5857979 0.13801,-9.2666211 0.11163,-10.2530989 -0.28474,-10.6494792 -0.52758,-0.5275709 -0.68797,-0.5385649 -1.30241,-0.089273 -0.58846,0.4302919 -0.67231,1.2126595 -1.72072,16.0565941 -1.42714,20.206205 -1.95665,31.582341 -1.57914,33.926441 0.27752,1.723208 0.93956,3.860901 1.354,4.371997 0.41942,0.517244 1.21161,0.389122 1.63598,-0.264584 z m -599.73026,-4.361987 c -0.0608,-0.402182 -0.11221,-0.135929 -0.1142,0.591675 -0.003,0.727604 0.0478,1.056663 0.11057,0.731242 0.0628,-0.325422 0.0644,-0.920734 0.004,-1.322917 z m 0.26143,-4.369263 c -0.0631,-0.327422 -0.11464,-0.05953 -0.11464,0.595313 0,0.654843 0.0516,0.922734 0.11464,0.595312 0.0631,-0.327422 0.0631,-0.863203 0,-1.190625 z m 0.26501,-3.965665 c -0.0633,-0.329118 -0.11748,-0.122147 -0.12041,0.459936 -0.003,0.582083 0.0488,0.851363 0.11506,0.598398 0.0662,-0.252966 0.0686,-0.729216 0.005,-1.058334 z m 0.26416,-4.236418 c -0.063,-0.327422 -0.11465,-0.05953 -0.11465,0.595312 0,0.654844 0.0516,0.922735 0.11465,0.595313 0.0631,-0.327422 0.0631,-0.863203 0,-1.190625 z m 0.26501,-3.701082 c -0.0633,-0.329118 -0.11748,-0.122147 -0.12042,0.459936 -0.003,0.582083 0.0489,0.851363 0.11507,0.598398 0.0662,-0.252966 0.0686,-0.729216 0.005,-1.058334 z m 2.91991,-6.630659 c -0.0489,-1.193403 -0.0887,-0.145759 -0.0884,2.328095 0,2.473854 0.0403,3.450273 0.0889,2.169821 0.0486,-1.280453 0.0484,-3.304516 0,-4.497916 z m -2.65533,2.926493 c -0.0633,-0.329118 -0.11748,-0.122148 -0.12041,0.459935 -0.003,0.582084 0.0488,0.851363 0.11506,0.598398 0.0662,-0.252966 0.0686,-0.729216 0.005,-1.058333 z m 0.25982,-3.57496 c -0.0665,-0.254662 -0.12099,-0.0463 -0.12099,0.46302 0,0.509323 0.0544,0.717683 0.12099,0.463021 0.0666,-0.254661 0.0666,-0.67138 0,-0.926041 z m -215.18564,-1.190625 c 0.20889,-0.327422 0.63512,-1.42875 0.94718,-2.447396 0.55413,-1.808816 0.57322,-2.423573 0.81725,-26.31507 0.13743,-13.454642 0.18217,-24.676282 0.0994,-24.936979 -0.1763,-0.555479 -1.23717,-0.63754 -1.65973,-0.128381 -0.32954,0.397063 -0.83558,6.061522 -1.75325,19.625294 -1.00649,14.8765684 -1.2642,19.96775237 -1.29937,25.669719 -0.028,4.5417 0.0378,5.497907 0.46438,6.746875 0.79765,2.335443 1.6339,2.961881 2.38411,1.785938 z m 215.45022,-2.248959 c -0.0665,-0.254661 -0.12099,-0.0463 -0.12099,0.463021 0,0.509323 0.0545,0.717682 0.12099,0.463021 0.0666,-0.254662 0.0666,-0.67138 0,-0.926042 z m 175.03636,-0.09779 c 1.17705,-2.36936 1.21706,-3.1418558 1.47056,-28.411067 0.13287,-13.242396 0.18626,-24.225911 0.11866,-24.407812 -0.14973,-0.402929 -1.02716,-0.437865 -1.26661,-0.05043 -0.51798,0.838094 -3.02411,39.41244402 -3.03046,46.645049 -0.003,3.905097 0.96766,7.54825 1.93254,7.250105 0.17264,-0.05334 0.52152,-0.514972 0.77531,-1.025848 z M -337.72831,9.7286492 c -0.0666,-0.2546615 -0.121,-0.046302 -0.121,0.4630208 0,0.509323 0.0544,0.717682 0.121,0.463021 0.0666,-0.254662 0.0666,-0.6713804 0,-0.9260418 z m 0.6201,-2.0505209 c 0.35904,-0.4894818 0.35343,-0.5019331 -0.0749,-0.1660419 -0.25466,0.1997207 -0.46302,0.4874551 -0.46302,0.6394106 0,0.1519555 0.0337,0.2266739 0.0749,0.1660419 0.0412,-0.060635 0.24953,-0.3483689 0.46302,-0.6394106 z m 1.18189,-0.1322916 c -0.0899,-0.1455209 -0.30533,-0.2627604 -0.47863,-0.2605326 -0.18933,0.00238 -0.15671,0.1064234 0.0818,0.2605326 0.50829,0.3284881 0.59989,0.3284881 0.39687,0 z M 26.788803,-15.009892 c 0.209232,-0.327422 0.585232,-1.250157 0.835554,-2.050521 0.409072,-1.307907 0.478843,-3.945348 0.689266,-26.055431 0.128746,-13.530125 0.175948,-24.751766 0.104881,-24.93698 -0.222171,-0.578953 -1.181709,-0.392035 -1.327309,0.258557 -0.193754,0.865671 -1.36279,16.649784 -1.984137,26.789062 -0.760016,12.402362 -1.053809,20.666742 -0.794782,22.357292 0.564489,3.684077 1.535536,5.110554 2.476527,3.638021 z M 182.10767,-64.927661 c 0.25228,-0.278754 0.70747,-1.26102 1.01158,-2.182812 0.53009,-1.60686 0.56068,-2.407087 0.74115,-19.403065 0.10351,-9.749896 0.2322,-20.981222 0.28594,-24.958492 0.0925,-6.8441 0.071,-7.25097 -0.40161,-7.59652 -0.70303,-0.51406 -1.42841,-0.0575 -1.59952,1.00666 -0.6909,4.29737 -2.78619,37.748992 -2.83781,45.306685 -0.0251,3.667831 0.0476,4.470741 0.54382,6.010569 0.49353,1.531368 1.02693,2.284412 1.64034,2.31576 0.0866,0.0044 0.36383,-0.220027 0.61611,-0.498785 z m -679.1168,-64.101109 c -0.0845,-0.21107 -0.14715,-0.14838 -0.15985,0.15985 -0.0115,0.27891 0.051,0.43518 0.13897,0.34727 0.0879,-0.0879 0.0973,-0.31613 0.0209,-0.50712 z m -3.96613,-0.67296 c -0.0671,-0.25743 -0.12639,-0.11087 -0.13178,0.32569 -0.005,0.43656 0.0495,0.64719 0.12197,0.46806 0.0725,-0.17913 0.0769,-0.53632 0.01,-0.79375 z m 4.24806,-14.40789 c -0.0435,-2.51955 -0.0792,-0.53288 -0.0793,4.41483 -10e-5,4.94771 0.0355,7.00916 0.0791,4.581 0.0436,-2.42816 0.0437,-6.47628 1.7e-4,-8.99583 z m -4.23833,8.8525 c -0.0573,-0.54894 -0.10509,-0.16465 -0.10627,0.854 -10e-4,1.01864 0.0457,1.46778 0.10414,0.99809 0.0585,-0.4697 0.0594,-1.30314 0.002,-1.85209 z m 0.26136,-6.08768 c -0.0608,-0.40218 -0.1122,-0.13593 -0.11419,0.59168 -0.002,0.7276 0.0478,1.05666 0.11057,0.73124 0.0628,-0.32542 0.0644,-0.92073 0.004,-1.32292 z m 0.26458,-5.02708 c -0.0608,-0.40218 -0.1122,-0.13593 -0.11419,0.59168 -0.002,0.7276 0.0478,1.05666 0.11058,0.73124 0.0628,-0.32542 0.0644,-0.92074 0.004,-1.32292 z m 0.26145,-4.36926 c -0.0631,-0.32742 -0.11467,-0.0595 -0.11467,0.59531 0,0.65484 0.0516,0.92273 0.11467,0.59531 0.0631,-0.32742 0.0631,-0.8632 0,-1.19062 z m 0.26498,-3.96567 c -0.0633,-0.32912 -0.11747,-0.12214 -0.1204,0.45994 -0.003,0.58208 0.0488,0.85136 0.11507,0.5984 0.0662,-0.25297 0.0686,-0.72922 0.005,-1.05834 z m 0.26418,-4.23642 c -0.0631,-0.32742 -0.11466,-0.0595 -0.11466,0.59532 0,0.65484 0.0516,0.92273 0.11466,0.59531 0.0631,-0.32742 0.0631,-0.8632 0,-1.19063 z m 0.26499,-3.70108 c -0.0633,-0.32912 -0.11747,-0.12214 -0.12041,0.45994 -0.003,0.58208 0.0488,0.85136 0.11507,0.5984 0.0662,-0.25297 0.0686,-0.72922 0.005,-1.05834 z m 2.91992,-6.63066 c -0.0489,-1.1934 -0.0887,-0.14576 -0.0884,2.3281 2.7e-4,2.47385 0.0403,3.45027 0.0889,2.16982 0.0486,-1.28045 0.0484,-3.30452 -5.3e-4,-4.49792 z m -2.65534,2.9265 c -0.0633,-0.32912 -0.11746,-0.12215 -0.1204,0.45993 -0.003,0.58209 0.0488,0.85136 0.11507,0.5984 0.0662,-0.25297 0.0686,-0.72922 0.005,-1.05833 z m 0.25984,-3.57496 c -0.0666,-0.25467 -0.121,-0.0463 -0.121,0.46302 0,0.50932 0.0544,0.71768 0.121,0.46302 0.0666,-0.25466 0.0666,-0.67138 0,-0.92604 z m 0.26459,-3.43959 c -0.0666,-0.25466 -0.121,-0.0463 -0.121,0.46302 0,0.50933 0.0544,0.71769 0.121,0.46302 0.0666,-0.25466 0.0666,-0.67138 0,-0.92604 z m 0.26458,-3.175 c -0.0666,-0.25466 -0.121,-0.0463 -0.121,0.46302 0,0.50933 0.0544,0.71769 0.121,0.46302 0.0666,-0.25466 0.0666,-0.67138 0,-0.92604 z m 0.62009,-2.05052 c 0.35904,-0.48948 0.35343,-0.50193 -0.0749,-0.16604 -0.25466,0.19972 -0.46302,0.48745 -0.46302,0.63941 0,0.15196 0.0337,0.22667 0.0749,0.16604 0.0412,-0.0606 0.24953,-0.34837 0.46302,-0.63941 z m 1.1819,-0.13229 c -0.0899,-0.14552 -0.30532,-0.26276 -0.47864,-0.26053 -0.18933,0.002 -0.1567,0.10642 0.0818,0.26053 0.50829,0.32849 0.59989,0.32849 0.39687,0 z"
         id="path834"
         inkscape:connector-curvature="0" />
      <path
         style="fill:#334c5e;stroke-width:0.26458335"
         d="M -639.53571,490.8196 V 377.72253 l 0.75002,0.43045 c 0.70641,0.40542 1.78891,0.33268 18.61803,-1.25116 l 17.86801,-1.68164 2.29113,0.45019 c 1.26012,0.24757 3.46218,0.92228 4.89346,1.49936 1.43128,0.57706 3.4224,1.16774 4.4247,1.31263 1.11596,0.16131 12.58618,0.26545 29.59069,0.26865 l 27.76833,0.005 6.7598,1.37207 c 9.80982,1.99115 9.52179,2.00861 20.25355,-1.22713 l 8.46666,-2.55278 18.38855,-2.2097 c 10.1137,-1.21534 19.16245,-2.2805 20.10833,-2.36701 0.94589,-0.0865 11.54245,-0.51801 23.54792,-0.95885 17.47812,-0.64178 22.04976,-0.88265 22.94028,-1.20873 2.0447,-0.74869 3.52544,-3.23466 3.1114,-5.22367 -0.66579,-3.19833 -6.282,-8.30442 -11.23501,-10.21453 -3.07092,-1.18424 -5.80414,-1.54564 -14.02292,-1.85404 -9.46975,-0.35536 -11.95211,-0.54038 -11.24479,-0.83814 0.29104,-0.12253 3.37113,-0.75846 6.84465,-1.41322 3.66856,-0.69149 6.66225,-1.39295 7.14285,-1.67362 0.45505,-0.26578 1.1062,-0.8935 1.44699,-1.39497 0.51184,-0.75313 0.60164,-1.16906 0.51623,-2.39098 -0.11696,-1.67326 -0.48569,-2.2569 -2.52628,-3.99871 -3.44292,-2.93883 -7.16618,-4.39261 -11.95316,-4.66717 l -3.02662,-0.17362 -0.21677,-0.83939 c -0.50709,-1.96357 -5.20858,-4.78612 -9.24679,-5.5513 -1.41204,-0.26754 -2.87914,-0.36568 -4.06235,-0.2717 -1.01865,0.0809 -10.90084,1.99115 -21.96042,4.245 -11.05959,2.25386 -23.02537,4.65005 -26.59063,5.32487 -24.5275,4.64244 -25.99499,4.89765 -28.12881,4.89191 -2.51053,-0.007 -3.36632,-0.32406 -6.46835,-2.39863 -4.77335,-3.19228 -7.58257,-6.01078 -12.29361,-12.33414 -3.01233,-4.04328 -4.0556,-6.0911 -4.42053,-8.67703 -0.4821,-3.4162 0.18406,-5.94945 2.68347,-10.20472 4.9919,-8.49876 7.14126,-15.15255 7.89028,-24.42599 0.31209,-3.86392 0.1034,-5.48798 -0.99551,-7.74742 -2.33439,-4.79957 -8.65058,-7.22302 -13.00582,-4.99017 -2.1797,1.11749 -3.49157,2.81747 -7.45862,9.66517 -6.60211,11.39624 -11.07474,18.43847 -15.20765,23.94479 -2.79817,3.72804 -3.3826,4.26758 -8.31985,7.68078 -2.25558,1.55932 -5.11308,3.62117 -6.35,4.58189 -3.20509,2.48939 -9.33049,8.56197 -12.04975,11.94581 -2.43223,3.02665 -2.40132,3.00635 -5.01588,3.29285 -16.54548,1.81297 -17.62279,2.02771 -19.47725,3.88217 l -1.02796,1.02791 V 74.48542 -189.83333 h 223.70522 c 123.03787,0 223.70435,0.0893 223.70332,0.19844 0,0.10914 -0.17515,2.52015 -0.3869,5.35781 -0.98131,13.15231 -1.72781,26.82144 -1.72667,31.61771 0,3.67364 0.38753,5.9811 1.24145,7.40833 0.51046,0.85321 1.18769,0.19273 1.92048,-1.873 l 0.64958,-1.83116 0.18042,-16.0073 c 0.0992,-8.80401 0.19386,-18.00159 0.21031,-20.43906 l 0.0299,-4.43177 h 304.40315 304.40314 v 396.875 396.875 h -529.1667 -529.1667 z m 311.80365,105.34094 c 0.22069,-0.33681 0.6255,-1.49767 0.89961,-2.57969 0.4578,-1.80723 0.51689,-3.7434 0.7262,-23.79543 0.30363,-29.092 0.3229,-26.7394 -0.22164,-27.08402 -1.01714,-0.64378 -1.09046,-0.17542 -2.04444,13.0611 -1.10934,15.39272 -1.8611,28.93066 -1.86372,33.56391 -0.003,3.06406 0.4627,5.6842 1.21449,6.8512 0.48625,0.75483 0.78634,0.75086 1.2895,-0.0169 z m -187.94036,-47.67622 c 1.33429,-2.2846 1.33374,-2.27473 1.58988,-28.55997 0.13181,-13.52635 0.18032,-24.74799 0.1078,-24.93698 -0.19637,-0.51173 -1.41389,-0.41624 -1.70837,0.13398 -0.59906,1.11938 -2.93661,36.22667 -3.0247,45.42761 -0.0386,4.03085 0.0301,4.98607 0.4474,6.21771 0.94678,2.79466 1.67623,3.2788 2.58799,1.71765 z m 652.55208,0.0461 c 0.22251,-0.33962 0.63159,-1.56001 0.90903,-2.71198 0.46604,-1.93511 0.5244,-3.93669 0.76681,-26.30387 0.17934,-16.54712 0.1764,-24.31405 -0.009,-24.54011 -0.43286,-0.52697 -1.25494,-0.38378 -1.51913,0.26459 -0.1334,0.32742 -0.42738,2.97656 -0.65323,5.88698 -1.70712,21.99669 -2.68269,40.67291 -2.26774,43.41285 0.60679,4.00648 1.71691,5.60414 2.77355,3.99154 z m -367.10493,-53.68568 c 1.22553,-2.01523 1.28646,-3.13278 1.56776,-28.74479 0.17698,-16.11458 0.17733,-24.34301 0,-24.67239 -0.31673,-0.59185 -1.11421,-0.64511 -1.56297,-0.10438 -0.75525,0.91003 -3.41836,42.40694 -3.10777,48.42563 0.12621,2.44549 0.68077,4.80809 1.31977,5.62253 0.46146,0.58817 1.24505,0.35663 1.78218,-0.5266 z m 554.83129,-5.82084 c 1.21832,-2.00342 1.28108,-3.15319 1.57033,-28.776 0.27297,-24.18186 0.27265,-24.20988 -0.26459,-24.65914 -0.591,-0.49419 -1.17843,-0.3959 -1.42163,0.23786 -0.52477,1.36753 -3.05866,40.18918 -3.05324,46.77857 0.003,2.46875 0.49281,5.14424 1.19153,6.49542 0.53837,1.04108 1.31617,1.01092 1.9776,-0.0767 z M -53.453612,450.0553 c 1.166071,-2.63607 1.282461,-4.10824 1.307015,-16.5303 0.0127,-6.47567 0.119353,-17.1913 0.236802,-23.8125 0.179731,-10.13216 0.154861,-12.13281 -0.157057,-12.63385 -0.42537,-0.68331 -0.94779,-0.76351 -1.402715,-0.21535 -0.380127,0.45805 -0.580681,2.49238 -1.449282,14.70129 -1.034547,14.5415 -1.478782,22.34753 -1.648751,28.97187 -0.133826,5.21676 -0.09205,6.3309 0.292815,7.80521 0.837803,3.20961 1.879547,3.84238 2.821173,1.71363 z M -587.40964,433.92188 c 0.56729,-1.81888 0.58142,-2.25933 0.78773,-24.5618 0.11555,-12.49035 0.12513,-23.02738 0.0213,-23.41563 -0.29811,-1.11471 -0.99494,-1.04222 -1.32501,0.13785 -0.32123,1.14843 -0.82995,7.1809 -1.59112,18.8677 -1.33895,20.55776 -1.48986,26.71448 -0.7166,29.23646 0.2677,0.87313 0.67691,1.80007 0.90935,2.05986 0.40567,0.45342 0.44094,0.45342 0.87966,0 0.25137,-0.25979 0.71698,-1.3058 1.03469,-2.32444 z M 64.207344,284.16948 c 0.28538,-0.36282 0.758666,-1.58321 1.051692,-2.71197 0.504614,-1.94366 0.547027,-3.34069 0.801132,-26.39396 0.256382,-23.25934 0.247201,-24.36345 -0.206507,-24.83126 -0.735753,-0.75858 -1.527625,-0.19537 -1.712278,1.21788 -0.377719,2.89113 -1.756621,22.67826 -2.401464,34.46129 -0.544089,9.94146 -0.519377,13.848 0.101732,16.08789 0.457095,1.64843 1.142762,2.82982 1.642402,2.82982 0.112395,0 0.437885,-0.29686 0.723291,-0.65969 z M -370.70979,265.42304 c 1.2107,-2.73703 1.25187,-3.45736 1.42369,-24.91158 0.0897,-11.2051 0.238,-22.0523 0.32949,-24.10492 0.15991,-3.58846 0.14425,-3.75404 -0.40725,-4.30553 -0.44341,-0.44342 -0.68516,-0.51382 -1.06553,-0.31025 -0.27059,0.1448 -0.56398,0.45095 -0.65198,0.68032 -0.37431,0.97539 -2.2827,28.64141 -2.82853,41.00496 -0.30033,6.80257 -0.22963,8.45982 0.46101,10.80956 0.75472,2.56765 1.89669,3.04186 2.7391,1.13744 z M 367.2777,213.61979 c 1.0962,-2.24192 1.23915,-4.05743 1.25738,-15.97083 0.01,-6.25739 0.11838,-17.03255 0.24178,-23.94479 0.13782,-7.71962 0.12927,-12.74633 -0.0222,-13.03073 -0.13557,-0.25466 -0.47625,-0.46302 -0.75705,-0.46302 -0.2808,0 -0.62132,0.20836 -0.75668,0.46302 -0.62302,1.17197 -2.92224,35.5001 -3.02591,45.1776 -0.0543,5.06564 0.12869,6.35979 1.18994,8.41659 0.39738,0.77012 1.33853,0.44455 1.87267,-0.64784 z M 213.06516,188.29292 c 1.14417,-2.21257 1.18671,-3.03876 1.46474,-28.44501 0.14629,-13.36902 0.20124,-24.41207 0.1221,-24.5401 -0.18772,-0.30372 -1.09783,-0.30067 -1.28632,0.004 -0.33684,0.54505 -2.17914,26.95364 -2.8167,40.37643 -0.31986,6.73438 -0.22768,9.25369 0.41529,11.34827 0.66426,2.16394 1.40303,2.60567 2.10089,1.25611 z m -381.2464,-12.53823 c 0.34727,-0.76398 0.75126,-2.16297 0.89776,-3.10885 0.15153,-0.97827 0.33081,-10.78926 0.41582,-22.75417 0.0822,-11.56891 0.2228,-22.29035 0.3125,-23.82546 0.1411,-2.41502 0.10242,-2.85171 -0.287,-3.24115 -0.61253,-0.61251 -1.12241,-0.56515 -1.56326,0.14526 -0.65434,1.05441 -3.02668,35.87689 -3.12285,45.83906 -0.0295,3.06028 0.0663,4.33213 0.41868,5.55625 0.92373,3.20889 1.89227,3.66834 2.92835,1.38906 z m -425.5342,-8.6818 c 0.26204,-0.35462 0.70014,-1.53773 0.97357,-2.62914 0.45587,-1.81962 0.51119,-3.63191 0.66624,-21.82812 0.093,-10.91406 0.24449,-21.82125 0.33663,-24.23819 0.1626,-4.26508 0.15068,-4.41129 -0.40502,-4.967 -0.78282,-0.78282 -1.51867,-0.37467 -1.72619,0.95748 -0.31814,2.04232 -1.74784,22.31879 -2.40218,34.06854 -0.59403,10.66692 -0.56628,14.66977 0.11687,16.85523 0.56066,1.79364 1.16048,2.69372 1.67974,2.52063 0.15615,-0.052 0.49831,-0.38478 0.76034,-0.73943 z M -337.17589,60.129792 c 0.33189,-0.837832 0.7094,-2.445176 0.83889,-3.571875 0.12948,-1.126696 0.27487,-12.645101 0.32305,-25.596455 l 0.0876,-23.547917 -0.55231,-0.078915 c -0.30377,-0.043402 -0.69707,0.095507 -0.874,0.3086841 -0.74417,0.8966835 -3.46657,43.2028819 -3.12648,48.5858559 0.13441,2.12753 0.72996,4.480229 1.32599,5.23829 0.58846,0.748405 1.35678,0.228605 1.97723,-1.337668 z M 259.89277,44.256774 c 0.21254,-0.327422 0.62198,-1.449731 0.90987,-2.494023 0.48136,-1.746128 0.53594,-3.053776 0.67924,-16.271875 0.0857,-7.90524 0.22429,-18.9688498 0.30792,-24.5857979 0.13801,-9.2666211 0.11163,-10.2530989 -0.28474,-10.6494792 -0.52758,-0.5275709 -0.68797,-0.5385649 -1.30241,-0.089273 -0.58846,0.4302919 -0.67231,1.2126595 -1.72072,16.0565941 -1.42714,20.206205 -1.95665,31.582341 -1.57914,33.926441 0.27752,1.723208 0.93956,3.860901 1.354,4.371997 0.41942,0.517244 1.21161,0.389122 1.63598,-0.264584 z M -553.44312,15.152608 c 0.20889,-0.327422 0.63512,-1.42875 0.94718,-2.447396 0.55413,-1.808816 0.57322,-2.423573 0.81725,-26.31507 0.13743,-13.454642 0.18217,-24.676282 0.0994,-24.936979 -0.1763,-0.555479 -1.23717,-0.63754 -1.65973,-0.128381 -0.32954,0.397063 -0.83558,6.061522 -1.75325,19.625294 -1.00649,14.8765684 -1.2642,19.96775237 -1.29937,25.669719 -0.028,4.5417 0.0378,5.497907 0.46438,6.746875 0.79765,2.335443 1.6339,2.961881 2.38411,1.785938 z m 390.48658,-2.346746 c 1.17705,-2.36936 1.21706,-3.1418558 1.47056,-28.411067 0.13287,-13.242396 0.18626,-24.225911 0.11866,-24.407812 -0.14973,-0.402929 -1.02716,-0.437865 -1.26661,-0.05043 -0.51798,0.838094 -3.02411,39.41244402 -3.03046,46.645049 -0.003,3.905097 0.96766,7.54825 1.93254,7.250105 0.17264,-0.05334 0.52152,-0.514972 0.77531,-1.025848 z M 26.788803,-15.009892 c 0.209232,-0.327422 0.585232,-1.250157 0.835554,-2.050521 0.409072,-1.307907 0.478843,-3.945348 0.689266,-26.055431 0.128746,-13.530125 0.175948,-24.751766 0.104881,-24.93698 -0.222171,-0.578953 -1.181709,-0.392035 -1.327309,0.258557 -0.193754,0.865671 -1.36279,16.649784 -1.984137,26.789062 -0.760016,12.402362 -1.053809,20.666742 -0.794782,22.357292 0.564489,3.684077 1.535536,5.110554 2.476527,3.638021 z M 182.10767,-64.927661 c 0.25228,-0.278754 0.70747,-1.26102 1.01158,-2.182812 0.53009,-1.60686 0.56068,-2.407087 0.74115,-19.403065 0.10351,-9.749896 0.2322,-20.981222 0.28594,-24.958492 0.0925,-6.8441 0.071,-7.25097 -0.40161,-7.59652 -0.70303,-0.51406 -1.42841,-0.0575 -1.59952,1.00666 -0.6909,4.29737 -2.78619,37.748992 -2.83781,45.306685 -0.0251,3.667831 0.0476,4.470741 0.54382,6.010569 0.49353,1.531368 1.02693,2.284412 1.64034,2.31576 0.0866,0.0044 0.36383,-0.220027 0.61611,-0.498785 z m -679.88565,-61.209209 c 0.3319,-0.83784 0.7094,-2.44518 0.83889,-3.57188 0.12949,-1.1267 0.27487,-12.6451 0.32306,-25.59645 l 0.0876,-23.54792 -0.55232,-0.0789 c -0.30377,-0.0434 -0.69707,0.0955 -0.874,0.30869 -0.74418,0.89668 -3.46657,43.20288 -3.12648,48.58585 0.13441,2.12753 0.72997,4.48023 1.326,5.23829 0.58844,0.74841 1.35677,0.22861 1.97723,-1.33766 z"
         id="path832"
         inkscape:connector-curvature="0" />
      <path
         style="fill:#071d2a;stroke-width:0.26458335"
         d="m -639.53571,490.93959 c 0,-62.1374 0.0952,-112.97709 0.21167,-112.97709 0.11641,0 0.35348,0.14182 0.52681,0.31515 0.46174,0.46175 1.35434,0.40166 18.44381,-1.24159 20.26837,-1.94889 19.71395,-1.96643 26.72292,0.845 l 1.85208,0.7429 29.63334,0.13981 29.63334,0.13978 6.74687,1.40573 c 9.12595,1.9014 8.70035,1.93087 19.71146,-1.36485 l 8.46667,-2.53416 19.05,-2.28528 19.05,-2.28529 16.80104,-0.63886 c 30.76456,-1.16983 29.20858,-1.08336 30.3955,-1.68889 1.56136,-0.79655 2.48056,-2.14376 2.6214,-3.84201 0.17582,-2.12024 -0.28034,-3.07901 -2.66216,-5.59523 -2.51815,-2.66025 -4.66672,-4.25865 -7.45803,-5.54831 -3.47997,-1.60787 -5.38049,-1.95186 -12.31337,-2.2288 -11.69253,-0.46709 -14.08412,-0.60584 -13.72292,-0.79623 0.1988,-0.10481 3.09989,-0.69739 6.44687,-1.31689 3.89797,-0.72149 6.46297,-1.32897 7.13576,-1.69002 1.88849,-1.01346 2.71665,-3.31542 1.89782,-5.27513 -0.59934,-1.43444 -3.71266,-4.049 -6.37768,-5.35597 -3.05235,-1.49693 -4.91863,-1.97839 -8.21215,-2.11854 l -2.64583,-0.11258 -0.44169,-1.03521 c -0.77506,-1.81647 -4.61858,-4.26193 -8.16179,-5.19298 -3.23548,-0.85018 -5.57247,-0.64992 -14.94444,1.28056 -23.57213,4.85547 -32.00758,6.53992 -46.69896,9.32511 -18.32656,3.47435 -20.29901,3.77163 -22.06831,3.3261 -2.51319,-0.63283 -7.20124,-3.89104 -10.88686,-7.56645 -2.68795,-2.68049 -8.26291,-9.97749 -9.25049,-12.10783 -0.91865,-1.98168 -1.27396,-3.99884 -1.10769,-6.28862 0.18629,-2.56537 0.60612,-3.6848 2.83411,-7.55671 2.33388,-4.05598 3.94246,-7.47197 5.11524,-10.86273 1.87364,-5.41714 2.9971,-12.30829 2.7725,-17.00605 -0.14334,-2.99804 -1.10683,-5.11307 -3.25451,-7.14427 -2.1186,-2.00367 -3.9246,-2.75508 -6.94939,-2.89137 -2.23358,-0.10065 -2.57147,-0.0491 -3.88344,0.59282 -2.00514,0.98103 -3.95116,3.19813 -5.95324,6.78252 -5.30976,9.50629 -12.955,21.70025 -16.82846,26.841 -2.81371,3.73427 -3.7287,4.59219 -8.06238,7.55933 -1.96453,1.34506 -4.20055,2.90957 -4.96894,3.47665 -4.5001,3.32121 -10.42876,9.0742 -14.18912,13.76871 -1.13651,1.41882 -2.23765,2.57968 -2.447,2.57968 -1.08545,0 -17.04486,1.91789 -17.94866,2.15694 -1.53742,0.40664 -3.05827,1.24174 -3.89748,2.14013 l -0.73422,0.78598 V 74.381111 -189.83333 h 223.56632 223.56631 l -0.12282,0.7276 c -0.27011,1.60031 -1.56072,21.9746 -1.99773,31.53695 -0.31409,6.87276 -0.23318,8.40889 0.58171,11.0472 0.51424,1.66497 1.14117,2.33765 1.90534,2.04441 0.47784,-0.18337 1.33475,-2.15671 1.71477,-3.94887 0.32321,-1.52439 0.57002,-13.79459 0.60536,-30.09635 l 0.0245,-11.31094 H 114.5529 418.79769 v 396.875 396.875 h -529.1667 -529.1667 z m 312.10924,105.42296 c 0.24323,-0.37121 0.67302,-1.47254 0.95512,-2.44739 0.48199,-1.66577 0.52776,-3.23766 0.7602,-26.11412 0.13605,-13.38791 0.18627,-24.59643 0.1116,-24.90779 -0.27273,-1.13742 -1.85002,-0.95634 -2.1169,0.24305 -0.2875,1.29193 -1.6659,20.51142 -2.39538,33.39922 -0.60632,10.712 -0.62958,15.76512 -0.0814,17.67118 0.79761,2.77334 1.83335,3.58039 2.76675,2.15585 z m -187.89146,-48.31633 c 0.34815,-0.75144 0.75805,-2.15043 0.91088,-3.10885 0.29103,-1.82507 0.89315,-49.24775 0.63387,-49.92344 -0.22262,-0.58015 -1.38736,-0.76914 -1.85542,-0.30109 -0.51007,0.51006 -1.18022,8.15165 -2.32587,26.52154 -1.15585,18.53335 -1.22015,22.948 -0.37437,25.70287 0.66034,2.15085 0.88794,2.47525 1.73667,2.47525 0.51408,0 0.76675,-0.27093 1.27424,-1.36628 z m 652.19759,0.48422 c 0.22251,-0.33962 0.63159,-1.56001 0.90903,-2.71198 0.46604,-1.93511 0.5244,-3.93669 0.76681,-26.30387 0.17934,-16.54712 0.1764,-24.31405 -0.009,-24.54011 -0.43286,-0.52697 -1.25494,-0.38378 -1.51913,0.26459 -0.1334,0.32742 -0.42738,2.97656 -0.65323,5.88698 -1.70712,21.99669 -2.68269,40.67291 -2.26774,43.41285 0.60679,4.00648 1.71691,5.60414 2.77355,3.99154 z m -366.90361,-53.90058 c 1.26209,-2.54132 1.37504,-3.96568 1.40447,-17.71319 0.0151,-7.05776 0.11554,-17.77339 0.22322,-23.8125 0.10769,-6.03911 0.10036,-11.2481 -0.0164,-11.57552 -0.15698,-0.44066 -0.42148,-0.59531 -1.01806,-0.59531 -0.58412,0 -0.87593,0.16385 -1.06014,0.59531 -0.44381,1.03952 -2.31216,27.7055 -2.91787,41.64526 -0.29785,6.85448 -0.19609,8.4864 0.68492,10.98343 0.79007,2.23928 1.73982,2.40549 2.69978,0.47252 z m 555.08923,-6.11084 c 0.32536,-0.82198 0.71041,-2.31026 0.85569,-3.30729 0.34782,-2.38728 0.81156,-49.02184 0.49358,-49.63621 -0.32684,-0.63148 -1.70908,-0.61407 -2.05153,0.0259 -0.44127,0.8245 -2.18366,24.86684 -2.95587,40.78616 -0.32514,6.70324 -0.23249,9.10309 0.43926,11.37708 0.53084,1.797 1.06276,2.43123 1.95205,2.32762 0.54895,-0.0639 0.78591,-0.35819 1.26682,-1.57318 z M -53.623078,450.92136 c 0.230822,-0.32742 0.674423,-1.36922 0.985758,-2.31511 0.54946,-1.66928 0.571659,-2.28309 0.755677,-20.90208 0.104272,-10.55026 0.230346,-21.78341 0.280167,-24.96256 0.08543,-5.451 0.06167,-5.80144 -0.417169,-6.15157 -0.679185,-0.49665 -1.030816,-0.46802 -1.57009,0.12788 -0.350705,0.3875 -0.534432,1.49725 -0.821426,4.96093 -1.095825,13.22602 -2.195459,30.91212 -2.42525,39.00639 -0.161581,5.69113 -0.141764,6.06139 0.424921,7.9375 0.860663,2.84929 1.833562,3.65162 2.787412,2.29862 z M -588.09446,436.45775 c 0.25227,-0.27874 0.70856,-1.261 1.01398,-2.18281 0.5401,-1.63007 0.56193,-2.34273 0.79702,-26.01764 0.1738,-17.50193 0.1605,-24.55127 -0.0474,-25.08761 -0.21712,-0.56028 -0.43715,-0.72493 -0.88396,-0.66146 -0.49696,0.0706 -0.64793,0.34581 -0.91714,1.67198 -0.81179,3.99913 -2.98504,36.60511 -2.98504,44.78568 0,5.72556 1.42482,9.25727 3.0225,7.49186 z M 64.381096,284.23386 c 0.230823,-0.32742 0.672412,-1.36922 0.981313,-2.31511 0.54864,-1.68007 0.567135,-2.29327 0.8001,-26.54644 0.181928,-18.938 0.164677,-24.9156 -0.07265,-25.20156 -0.444183,-0.53522 -1.503389,-0.4632 -1.817423,0.12354 -0.725673,1.35596 -3.484325,45.26724 -3.08528,49.11092 0.439234,4.23095 1.976702,6.55529 3.193944,4.82865 z M -370.9195,266.01198 c 0.28437,-0.38127 0.75218,-1.51236 1.0396,-2.51354 0.49464,-1.72318 0.53591,-3.13852 0.77356,-26.52475 0.1878,-18.48239 0.17476,-24.7963 -0.0518,-25.06927 -0.16653,-0.20066 -0.59195,-0.36483 -0.94535,-0.36483 -1.24357,0 -1.3044,0.44418 -2.60959,19.05 -0.76909,10.96343 -1.44555,23.95979 -1.44555,27.77199 0,6.51914 1.47841,10.01098 3.23911,7.6504 z m 738.1972,-52.39219 c 1.0962,-2.24192 1.23915,-4.05743 1.25738,-15.97083 0.01,-6.25739 0.11838,-17.03255 0.24178,-23.94479 0.13782,-7.71962 0.12927,-12.74633 -0.0222,-13.03073 -0.13557,-0.25466 -0.47625,-0.46302 -0.75705,-0.46302 -0.2808,0 -0.62132,0.20836 -0.75668,0.46302 -0.62302,1.17197 -2.92224,35.5001 -3.02591,45.1776 -0.0543,5.06564 0.12869,6.35979 1.18994,8.41659 0.39738,0.77012 1.33853,0.44455 1.87267,-0.64784 z M 213.07694,188.98386 c 0.23082,-0.32742 0.67447,-1.36922 0.98586,-2.31511 0.54917,-1.66809 0.5719,-2.28859 0.75618,-20.6375 0.10449,-10.40474 0.22641,-21.55669 0.27091,-24.78209 0.0848,-6.14529 -0.005,-6.70332 -1.07971,-6.70332 -1.18266,0 -1.25056,0.50297 -2.4995,18.52083 -1.61067,23.23679 -1.82589,31.06875 -0.93315,33.95914 0.77628,2.5133 1.63417,3.18537 2.49941,1.95805 z M -168.6409,176.87068 c 1.6659,-1.9453 1.83354,-4.64045 2.01914,-32.46033 l 0.14335,-21.48859 -0.56121,-0.39309 c -0.6223,-0.43587 -1.36067,-0.20298 -1.63663,0.51621 -0.5625,1.46584 -3.0761,39.78267 -3.0761,46.89139 0,3.63468 1.15433,7.47207 2.24766,7.47207 0.22186,0 0.61056,-0.24194 0.86379,-0.53766 z m -424.9968,-9.58266 c 0.23083,-0.32742 0.67123,-1.36921 0.97867,-2.3151 0.54526,-1.67756 0.56476,-2.33021 0.7942,-26.57292 0.20395,-21.54894 0.18433,-24.90402 -0.14752,-25.23586 -0.48557,-0.48559 -1.66417,-0.22193 -1.85103,0.41408 -0.47658,1.62205 -2.33465,28.56637 -2.85004,41.32913 -0.29787,7.37605 -0.29175,7.60391 0.26272,9.77818 0.78473,3.07726 1.80975,4.02558 2.813,2.60249 z M -337.17589,60.129792 c 0.33189,-0.837832 0.7094,-2.445176 0.83889,-3.571875 0.12948,-1.126696 0.27487,-12.645101 0.32305,-25.596455 l 0.0876,-23.547917 -0.55231,-0.078915 c -0.30377,-0.043402 -0.69707,0.095507 -0.874,0.3086841 -0.74417,0.8966835 -3.46657,43.2028819 -3.12648,48.5858559 0.13441,2.12753 0.72996,4.480229 1.32599,5.23829 0.58846,0.748405 1.35678,0.228605 1.97723,-1.337668 z M 259.90748,44.331649 c 0.25905,-0.286243 0.71146,-1.328039 1.00536,-2.315105 0.50752,-1.704493 0.54457,-2.824948 0.73713,-22.299874 0.1115,-11.2778646 0.26522,-22.3648482 0.34158,-24.6377407 0.11424,-3.3993217 0.0688,-4.2325661 -0.25604,-4.6963542 -0.48202,-0.6881841 -1.57628,-0.7374781 -1.92455,-0.086699 -0.54126,1.0113354 -2.383,26.5882419 -2.98588,41.4659979 -0.28638,7.067055 -0.27424,7.826769 0.15208,9.525 0.65763,2.619639 1.15335,3.565213 1.86905,3.565213 0.32464,0 0.80224,-0.234199 1.06127,-0.520438 z M -553.14127,14.93875 c 0.23014,-0.445042 0.64992,-1.714243 0.93283,-2.820448 0.46554,-1.820214 0.51576,-3.0063516 0.52866,-12.48614225 0.008,-5.76117505 0.11561,-16.60658375 0.23948,-24.10090675 0.19496,-11.7954 0.17303,-13.7082 -0.16327,-14.237565 -0.4984,-0.784526 -1.43378,-0.675963 -1.8494,0.214649 -0.60768,1.302184 -2.96362,36.4161834 -3.07109,45.7729163 -0.0484,4.2094657 0.2987,6.3354557 1.28495,7.8713547 0.56827,0.884965 1.58311,0.781507 2.09784,-0.213858 z m 390.42397,-1.705636 c 1.31455,-2.257804 1.31794,-2.319351 1.58305,-28.702725 0.23405,-23.291179 0.22188,-24.75474 -0.20825,-25.069271 -0.60733,-0.444074 -0.79579,-0.423101 -1.37152,0.152643 -0.54266,0.542663 -0.47482,-0.0848 -1.49238,13.800826 -1.44579,19.7287961 -2.11209,33.6932293 -1.72366,36.1247422 0.28914,1.8099538 0.89747,3.7133398 1.368,4.2802858 0.47001,0.566344 1.33334,0.291868 1.84476,-0.586501 z M 26.637699,-14.115069 c 0.192193,-0.121854 0.659633,-1.042765 1.038781,-2.046467 l 0.689372,-1.824919 0.193331,-14.684375 c 0.106336,-8.076406 0.259979,-19.353054 0.341445,-25.059219 0.130095,-9.114766 0.09866,-10.424266 -0.258842,-10.781771 -0.951574,-0.951587 -1.826128,-0.202332 -2.057374,1.762643 -0.787956,6.695374 -2.585456,36.243078 -2.636467,43.338764 -0.03553,4.943157 0.02408,5.879221 0.456115,7.14375 0.720751,2.110295 1.347153,2.713685 2.233639,2.151594 z M 182.61752,-65.555392 c 1.2554,-2.569811 1.24426,-2.359004 1.50604,-28.475012 0.18116,-18.074486 0.16867,-24.810026 -0.0465,-25.069266 -0.43921,-0.52922 -1.4931,-0.43034 -1.81451,0.17023 -0.64281,1.20111 -3.17731,38.629469 -3.17151,46.835693 0.003,2.834122 0.4617,5.480934 1.19986,6.908401 0.59851,1.157369 1.66314,0.988036 2.32661,-0.370046 z m -680.3955,-60.581478 c 0.3319,-0.83784 0.7094,-2.44518 0.83889,-3.57188 0.12949,-1.1267 0.27487,-12.6451 0.32306,-25.59645 l 0.0876,-23.54792 -0.55232,-0.0789 c -0.30377,-0.0434 -0.69707,0.0955 -0.874,0.30869 -0.74418,0.89668 -3.46657,43.20288 -3.12648,48.58585 0.13441,2.12753 0.72997,4.48023 1.326,5.23829 0.58844,0.74841 1.35677,0.22861 1.97723,-1.33766 z"
         id="path830"
         inkscape:connector-curvature="0" />
      <path
         style="fill:#08131b;stroke-width:0.26458335"
         d="m -519.94404,388.36126 c -0.3638,-0.0619 -3.39989,-0.66683 -6.74687,-1.34434 l -6.08542,-1.23183 -26.36081,-0.0833 -26.36082,-0.0833 -0.16366,-0.81833 c -0.09,-0.45008 -0.16367,-1.1368 -0.16367,-1.52609 0,-0.85767 -0.43755,-1.34276 -1.21115,-1.34276 -0.78929,0 -1.16876,0.53623 -1.54011,2.17633 l -0.31598,1.39555 -1.38246,-0.0582 c -0.83066,-0.0349 -2.96873,-0.59481 -5.35663,-1.40271 -5.92704,-2.00531 -4.91383,-2.00525 -25.78013,0 -4.36563,0.41936 -9.4513,0.90559 -11.3015,1.08056 -3.65313,0.34544 -5.78077,0.25492 -6.41681,-0.27295 -0.3245,-0.27022 -0.40565,-0.99274 -0.40565,-3.61246 0,-2.97027 0.21299,-3.95131 0.62485,-2.87803 0.23159,0.60351 1.2621,0.5403 19.43117,-1.1919 19.1645,-1.8271 18.75783,-1.82933 23.73252,0.1297 1.60073,0.63037 3.6169,1.27606 4.48037,1.43489 1.07074,0.19696 10.48954,0.28877 29.6212,0.28877 h 28.05124 l 7.42048,1.4815 c 9.71567,1.93977 9.04006,1.98451 20.10748,-1.3313 l 8.45368,-2.53272 18.79841,-2.26312 c 20.63036,-2.48367 17.85741,-2.28504 47.79379,-3.42347 10.665,-0.40558 17.70159,-0.77795 18.25625,-0.9661 0.49639,-0.16838 1.22465,-0.53041 1.61836,-0.80449 l 0.71583,-0.49832 0.40865,0.79024 c 0.50682,0.98009 0.52953,3.19685 0.0444,4.33075 -0.47105,1.10093 -1.61837,2.16731 -2.9142,2.70859 -1.12591,0.47035 -1.91752,0.512 -27.41318,1.44275 -17.47474,0.63796 -17.84522,0.66101 -25.79687,1.60578 -33.53859,3.98492 -30.82287,3.56473 -39.29063,6.07923 -4.00182,1.18835 -8.04995,2.32619 -8.99584,2.52857 -1.63635,0.35007 -4.12341,0.43624 -5.55625,0.19253 z m 79.56247,-36.60063 c -2.15247,-0.10462 -3.96275,-0.23939 -4.02285,-0.29948 -0.0601,-0.0601 2.35586,-0.56475 5.36879,-1.12146 3.01293,-0.55669 5.95431,-1.17555 6.53639,-1.3752 0.58208,-0.19968 1.19424,-0.36476 1.36034,-0.36687 0.37065,-0.005 1.1532,1.88147 1.1532,2.7796 v 0.65612 l -3.24114,-0.0412 c -1.78263,-0.0228 -5.00226,-0.12684 -7.15473,-0.23148 z m -120.31092,-31.08042 c -0.40471,-1.03468 -0.2031,-4.93445 0.33201,-6.42218 0.22365,-0.62179 1.24994,-2.59357 2.28065,-4.38173 3.73681,-6.48291 5.77292,-11.68625 7.20249,-18.40622 l 0.76547,-3.5982 -0.1293,3.43958 c -0.3131,8.32887 -2.66704,16.20187 -7.28257,24.35733 -1.20022,2.12077 -2.33434,4.29451 -2.52025,4.83055 l -0.33803,0.97462 z"
         id="path828"
         inkscape:connector-curvature="0" />
    </g>
  </g>
</svg>
