<?xml version="1.0" encoding="UTF-8" standalone="no"?>
<!-- Created with Inkscape (http://www.inkscape.org/) -->

<svg
   xmlns:dc="http://purl.org/dc/elements/1.1/"
   xmlns:cc="http://creativecommons.org/ns#"
   xmlns:rdf="http://www.w3.org/1999/02/22-rdf-syntax-ns#"
   xmlns:svg="http://www.w3.org/2000/svg"
   xmlns="http://www.w3.org/2000/svg"
   xmlns:sodipodi="http://sodipodi.sourceforge.net/DTD/sodipodi-0.dtd"
   xmlns:inkscape="http://www.inkscape.org/namespaces/inkscape"
   width="412.75049mm"
   height="328.08334mm"
   viewBox="0 0 412.75049 328.08334"
   version="1.1"
   id="svg931"
   inkscape:version="0.92.3 (2405546, 2018-03-11)"
   sodipodi:docname="rain03.svg">
  <defs
     id="defs925" />
  <sodipodi:namedview
     id="base"
     pagecolor="#ffffff"
     bordercolor="#666666"
     borderopacity="1.0"
     inkscape:pageopacity="0.0"
     inkscape:pageshadow="2"
     inkscape:zoom="5.6"
     inkscape:cx="58.556485"
     inkscape:cy="1199.3339"
     inkscape:document-units="mm"
     inkscape:current-layer="layer1"
     showgrid="false"
     fit-margin-top="0"
     fit-margin-left="0"
     fit-margin-right="0"
     fit-margin-bottom="0"
     inkscape:window-width="1920"
     inkscape:window-height="986"
     inkscape:window-x="-11"
     inkscape:window-y="-11"
     inkscape:window-maximized="1" />
  <metadata
     id="metadata928">
    <rdf:RDF>
      <cc:Work
         rdf:about="">
        <dc:format>image/svg+xml</dc:format>
        <dc:type
           rdf:resource="http://purl.org/dc/dcmitype/StillImage" />
        <dc:title />
      </cc:Work>
    </rdf:RDF>
  </metadata>
  <g
     inkscape:label="Layer 1"
     inkscape:groupmode="layer"
     id="layer1"
     transform="translate(136.82762,15.964284)">
    <g
       id="g2343"
       transform="matrix(1.0077958,0,0,1.0032588,0.67065403,-0.32737351)">
      <path
         style="fill:#fed7c1;stroke-width:0.10605381"
         d="M -136.41357,148.50537 V -15.528428 H 69.28934 274.99225 V 148.50537 312.53917 H 69.28934 -136.41357 Z"
         id="path2371"
         inkscape:connector-curvature="0" />
      <path
         style="fill:#fdceb4;stroke-width:0.10605381"
         d="M -136.41357,148.50537 V -15.528428 H 69.28934 274.99225 V 148.50537 312.53917 H 69.28934 -136.41357 Z m 31.54299,34.11208 c 0.36107,-0.14505 0.82485,-0.60462 1.02832,-1.01897 0.21337,-0.43455 0.46757,-2.32344 0.38436,-2.85621 -0.0376,-0.24058 -0.16076,-0.64757 -0.27377,-0.90442 -0.52137,-1.185 -2.15815,-1.99764 -3.04331,-1.51096 -0.93849,0.51601 -2.84713,3.56687 -2.64967,4.23538 0.0241,0.0816 0.0708,0.27994 0.10382,0.4407 0.0773,0.37659 0.51377,0.9264 0.90719,1.14271 0.39831,0.219 2.03363,0.56699 2.72025,0.57886 0.2933,0.005 0.66356,-0.0431 0.82281,-0.10709 z"
         id="path2369"
         inkscape:connector-curvature="0" />
      <path
         style="fill:#f0da65;stroke-width:0.10605381"
         d="m -136.41357,265.76014 v -46.77901 l 0.74567,0.0342 c 0.65709,0.0302 7.86469,-0.67866 11.54508,-1.1354 0.73539,-0.0913 1.75362,-0.1437 2.26273,-0.11651 0.93533,0.0499 1.07808,0.0936 3.3941,1.03766 l 0.71996,0.29346 11.41651,0.0547 11.416512,0.0547 2.725564,0.58397 c 3.600554,0.77144 3.338986,0.79067 7.611007,-0.5594 l 3.342673,-1.05636 7.31411,-0.93331 c 7.657598,-0.97714 7.573835,-0.97009 14.95323,-1.26044 9.756043,-0.38385 10.370181,-0.41864 10.746647,-0.60858 0.652672,-0.3293 0.98365,-1.09618 0.835493,-1.93587 -0.08383,-0.47512 -0.991876,-1.64704 -1.88963,-2.43875 -0.86597,-0.76369 -2.277154,-1.50358 -3.417103,-1.79161 -0.868559,-0.21946 -1.525951,-0.26469 -7.854073,-0.54036 -1.5628,-0.0681 -2.062224,-0.12459 -2.129885,-0.24099 -0.04861,-0.0836 -0.05509,-0.18746 -0.0144,-0.23073 0.04069,-0.0433 1.528927,-0.37346 3.307181,-0.73377 2.226515,-0.45112 3.314961,-0.71852 3.495815,-0.85881 0.40332,-0.31289 0.65703,-0.94142 0.575059,-1.42464 -0.10477,-0.61761 -1.184578,-1.65452 -2.364222,-2.2703 -1.189184,-0.62077 -2.006194,-0.83412 -3.29901,-0.8615 -1.072629,-0.0227 -1.283123,-0.078 -1.283123,-0.3368 0,-0.37142 -0.284862,-0.73146 -1.023698,-1.29389 -1.065995,-0.81147 -1.826031,-1.08215 -3.193212,-1.13722 -1.025561,-0.0413 -1.287097,0.001 -5.193998,0.84436 -2.262732,0.48831 -4.43804,0.97923 -4.834018,1.09093 -0.850854,0.23999 -7.390482,1.64915 -10.902255,2.34921 -1.357639,0.27065 -3.694938,0.74323 -5.193998,1.05018 -2.974038,0.60899 -4.619068,0.77752 -5.305106,0.5435 -0.981991,-0.33498 -3.03944,-1.90364 -4.32924,-3.30076 -0.92808,-1.00529 -3.10203,-4.00617 -3.49045,-4.81812 -0.71603,-1.49684 -0.73904,-3.3617 -0.0604,-4.89609 0.11957,-0.27033 0.56141,-1.12203 0.98185,-1.89264 1.7291,-3.16913 2.65142,-6.62326 2.67745,-10.0271 0.0121,-1.57969 0.0108,-1.58915 -0.32213,-2.30988 -0.39617,-0.85773 -1.04031,-1.52886 -1.85903,-1.93693 -0.50366,-0.25104 -0.71768,-0.29094 -1.56079,-0.29094 -0.7636,0 -1.05508,0.0452 -1.33406,0.20667 -0.66479,0.38487 -1.36949,1.31398 -2.26029,2.98007 -3.11639,5.82868 -6.15149,10.77179 -7.57991,12.34501 -0.27466,0.3025 -1.23072,1.0816 -2.12459,1.73133 -0.89386,0.64972 -2.09723,1.57918 -2.67414,2.06544 -1.35907,1.14554 -3.41083,3.33149 -4.49075,4.78445 -0.46939,0.63153 -0.95152,1.20438 -1.07139,1.273 -0.2064,0.11815 -2.51865,0.41481 -5.45852,0.70034 -1.57624,0.15309 -2.12639,0.30963 -2.79744,0.796 -0.27426,0.19879 -0.55652,0.39807 -0.62723,0.44284 -0.10281,0.0651 -0.12856,-21.80961 -0.12856,-109.226235 V -15.528428 H 69.28934 274.99225 V 148.50537 312.53917 H 69.28934 -136.41357 Z"
         id="path2367"
         inkscape:connector-curvature="0" />
      <path
         style="fill:#dab199;stroke-width:0.10605381"
         d="m -136.41357,265.76014 v -46.77901 l 0.74567,0.0342 c 0.65709,0.0302 7.86469,-0.67866 11.54508,-1.1354 0.73539,-0.0913 1.75362,-0.1437 2.26273,-0.11651 0.93533,0.0499 1.07808,0.0936 3.3941,1.03766 l 0.71996,0.29346 11.41651,0.0547 11.416512,0.0547 2.725564,0.58397 c 3.600554,0.77144 3.338986,0.79067 7.611007,-0.5594 l 3.342673,-1.05636 7.31411,-0.93331 c 7.657598,-0.97714 7.573835,-0.97009 14.95323,-1.26044 9.756043,-0.38385 10.370181,-0.41864 10.746647,-0.60858 0.652672,-0.3293 0.98365,-1.09618 0.835493,-1.93587 -0.08383,-0.47512 -0.991876,-1.64704 -1.88963,-2.43875 -0.86597,-0.76369 -2.277154,-1.50358 -3.417103,-1.79161 -0.868559,-0.21946 -1.525951,-0.26469 -7.854073,-0.54036 -1.5628,-0.0681 -2.062224,-0.12459 -2.129885,-0.24099 -0.04861,-0.0836 -0.05509,-0.18746 -0.0144,-0.23073 0.04069,-0.0433 1.528927,-0.37346 3.307181,-0.73377 2.226515,-0.45112 3.314961,-0.71852 3.495815,-0.85881 0.40332,-0.31289 0.65703,-0.94142 0.575059,-1.42464 -0.10477,-0.61761 -1.184578,-1.65452 -2.364222,-2.2703 -1.189184,-0.62077 -2.006194,-0.83412 -3.29901,-0.8615 -1.072629,-0.0227 -1.283123,-0.078 -1.283123,-0.3368 0,-0.37142 -0.284862,-0.73146 -1.023698,-1.29389 -1.065995,-0.81147 -1.826031,-1.08215 -3.193212,-1.13722 -1.025561,-0.0413 -1.287097,0.001 -5.193998,0.84436 -2.262732,0.48831 -4.43804,0.97923 -4.834018,1.09093 -0.850854,0.23999 -7.390482,1.64915 -10.902255,2.34921 -1.357639,0.27065 -3.694938,0.74323 -5.193998,1.05018 -2.974038,0.60899 -4.619068,0.77752 -5.305106,0.5435 -0.981991,-0.33498 -3.03944,-1.90364 -4.32924,-3.30076 -0.92808,-1.00529 -3.10203,-4.00617 -3.49045,-4.81812 -0.71603,-1.49684 -0.73904,-3.3617 -0.0604,-4.89609 0.11957,-0.27033 0.56141,-1.12203 0.98185,-1.89264 1.7291,-3.16913 2.65142,-6.62326 2.67745,-10.0271 0.0121,-1.57969 0.0108,-1.58915 -0.32213,-2.30988 -0.39617,-0.85773 -1.04031,-1.52886 -1.85903,-1.93693 -0.50366,-0.25104 -0.71768,-0.29094 -1.56079,-0.29094 -0.7636,0 -1.05508,0.0452 -1.33406,0.20667 -0.66479,0.38487 -1.36949,1.31398 -2.26029,2.98007 -3.11639,5.82868 -6.15149,10.77179 -7.57991,12.34501 -0.27466,0.3025 -1.23072,1.0816 -2.12459,1.73133 -0.89386,0.64972 -2.09723,1.57918 -2.67414,2.06544 -1.35907,1.14554 -3.41083,3.33149 -4.49075,4.78445 -0.46939,0.63153 -0.95152,1.20438 -1.07139,1.273 -0.2064,0.11815 -2.51865,0.41481 -5.45852,0.70034 -1.57624,0.15309 -2.12639,0.30963 -2.79744,0.796 -0.27426,0.19879 -0.55652,0.39807 -0.62723,0.44284 -0.10281,0.0651 -0.12856,-21.80961 -0.12856,-109.226235 V -15.528428 H 69.28934 274.99225 V 148.50537 312.53917 H 69.28934 -136.41357 Z m 351.59559,22.50636 c 0.41013,-0.84326 0.44498,-1.45826 0.50833,-8.97151 0.0337,-3.99969 0.0901,-8.5138 0.12526,-10.03135 0.0583,-2.51712 0.0488,-2.76534 -0.10822,-2.82943 -0.0947,-0.0386 -0.20122,-0.0393 -0.23676,-0.002 -0.0774,0.0823 -0.2502,2.17244 -0.5345,6.465 -0.6557,9.9009 -0.77408,13.62945 -0.46699,14.70837 0.30657,1.07709 0.44698,1.20717 0.71288,0.66046 z M 21.147783,60.629359 21.40088,59.872442 21.47392,51.616074 c 0.04016,-4.541002 0.09858,-9.117956 0.129829,-10.171009 0.05673,-1.912052 0.01199,-2.271751 -0.26835,-2.157372 -0.168532,0.06876 -0.166043,0.04389 -0.538941,5.384284 -0.372395,5.333099 -0.671281,10.999199 -0.697992,13.232059 -0.01976,1.652318 0.0069,2.073768 0.166167,2.624541 0.340202,1.176626 0.516685,1.196765 0.883155,0.100782 z"
         id="path2365"
         inkscape:connector-curvature="0" />
      <path
         style="fill:#e07d86;stroke-width:0.10605381"
         d="m -136.41357,265.78085 v -46.75832 l 0.33427,0.0846 c 0.18384,0.0465 0.5194,0.0739 0.74567,0.0609 0.61368,-0.0354 8.9304,-0.87999 9.82231,-0.99751 1.94392,-0.25616 3.31376,-0.35646 3.92223,-0.28717 0.61866,0.0704 1.38011,0.32119 3.1231,1.02844 l 0.71996,0.29214 11.41651,0.0547 11.416512,0.0547 2.725564,0.58397 c 3.605324,0.77245 3.343424,0.79162 7.611007,-0.55687 l 3.342673,-1.05623 7.337635,-0.93714 c 8.069921,-1.03066 6.814403,-0.93612 18.856003,-1.4199 5.191574,-0.20856 6.609248,-0.29642 6.839622,-0.42381 0.953746,-0.52748 1.250471,-1.74563 0.65832,-2.70263 -0.9874,-1.59576 -2.771254,-2.96429 -4.68747,-3.5961 -0.853925,-0.28156 -2.18227,-0.39807 -6.816407,-0.59791 -1.825702,-0.0787 -3.349189,-0.17476 -3.385528,-0.2134 -0.03634,-0.0386 -0.03607,-0.10215 6.17e-4,-0.14113 0.03667,-0.039 1.477559,-0.35661 3.201977,-0.70582 1.870815,-0.37885 3.242832,-0.70984 3.401919,-0.82066 0.316059,-0.22019 0.666169,-0.90371 0.666169,-1.30057 0,-1.0759 -2.029781,-2.73832 -4.011207,-3.28525 -0.370836,-0.10236 -1.147112,-0.19562 -1.743265,-0.20945 -1.148668,-0.0266 -1.109017,-0.006 -1.343813,-0.68187 -0.155095,-0.44612 -1.419658,-1.39283 -2.358469,-1.76565 -0.528625,-0.20994 -0.929388,-0.27763 -1.856906,-0.31366 -1.159665,-0.045 -1.267256,-0.0275 -5.502553,0.89429 -2.375869,0.51713 -4.484225,0.98704 -4.685236,1.04424 -0.20101,0.0572 -1.598962,0.37408 -3.106559,0.70417 -2.610461,0.57156 -3.918436,0.84097 -12.264239,2.52607 -3.754147,0.758 -5.062976,0.92138 -5.762548,0.71931 -0.929381,-0.26843 -2.912138,-1.74896 -4.270868,-3.18905 -0.97771,-1.03625 -3.3047,-4.2627 -3.62562,-5.02702 -0.52644,-1.25379 -0.62819,-2.65342 -0.27942,-3.84384 0.11199,-0.38225 0.59783,-1.43146 1.07966,-2.33159 1.95133,-3.64537 2.85087,-6.91701 2.87249,-10.44723 0.01,-1.55519 0.004,-1.59932 -0.30774,-2.29647 -0.38497,-0.86196 -1.07166,-1.60637 -1.86817,-2.02518 -0.47454,-0.24952 -0.76897,-0.32046 -1.49036,-0.35913 -0.81302,-0.0436 -0.95182,-0.0207 -1.45118,0.23907 -0.83827,0.43606 -1.45654,1.22619 -2.53434,3.2388 -3.10942,5.8063 -6.28837,10.95067 -7.57916,12.26504 -0.21602,0.21995 -1.11014,0.92724 -1.98695,1.57172 -0.87681,0.64449 -1.98761,1.49681 -2.46844,1.89406 -1.26879,1.04821 -3.57474,3.48175 -4.7018,4.96193 -0.7952,1.04435 -1.03625,1.29261 -1.29989,1.33879 -0.32966,0.0577 -3.13203,0.37736 -5.36339,0.6117 -1.63688,0.17191 -2.02517,0.31591 -3.11126,1.15383 l -0.23143,0.17854 V 93.731421 -15.528428 H 69.28934 274.99225 V 148.50537 312.53917 H 69.28934 -136.41357 Z m 351.59559,22.48565 c 0.41013,-0.84326 0.44498,-1.45826 0.50833,-8.97151 0.0337,-3.99969 0.0901,-8.5138 0.12526,-10.03135 0.0583,-2.51712 0.0488,-2.76534 -0.10822,-2.82943 -0.0947,-0.0386 -0.20122,-0.0393 -0.23676,-0.002 -0.0774,0.0823 -0.2502,2.17244 -0.5345,6.465 -0.6557,9.9009 -0.77408,13.62945 -0.46699,14.70837 0.30657,1.07709 0.44698,1.20717 0.71288,0.66046 z m -55.82382,-110.56311 0.22915,-0.60146 -0.0229,-7.42709 c -0.0179,-5.80734 -0.0508,-7.43698 -0.15086,-7.47243 -0.0704,-0.0249 -0.1687,0.0694 -0.21852,0.20961 -0.17985,0.50618 -0.92325,10.90288 -0.95655,13.37764 -0.0171,1.2742 0.006,1.48174 0.21971,2.00128 0.32171,0.78072 0.5787,0.75572 0.89999,-0.0875 z M 21.147783,60.629359 21.40088,59.872442 21.47392,51.616074 c 0.04016,-4.541002 0.09858,-9.117956 0.129829,-10.171009 0.05673,-1.912052 0.01199,-2.271751 -0.26835,-2.157372 -0.168532,0.06876 -0.166043,0.04389 -0.538941,5.384284 -0.372395,5.333099 -0.671281,10.999199 -0.697992,13.232059 -0.01976,1.652318 0.0069,2.073768 0.166167,2.624541 0.340202,1.176626 0.516685,1.196765 0.883155,0.100782 z"
         id="path2363"
         inkscape:connector-curvature="0" />
      <path
         style="fill:#da906d;stroke-width:0.10605381"
         d="m -136.41357,265.78085 v -46.75832 l 0.33427,0.0846 c 0.18384,0.0465 0.5194,0.0739 0.74567,0.0609 0.61368,-0.0354 8.9304,-0.87999 9.82231,-0.99751 1.94392,-0.25616 3.31376,-0.35646 3.92223,-0.28717 0.61866,0.0704 1.38011,0.32119 3.1231,1.02844 l 0.71996,0.29214 11.41651,0.0547 11.416512,0.0547 2.725564,0.58397 c 3.605324,0.77245 3.343424,0.79162 7.611007,-0.55687 l 3.342673,-1.05623 7.337635,-0.93714 c 8.069921,-1.03066 6.814403,-0.93612 18.856003,-1.4199 5.191574,-0.20856 6.609248,-0.29642 6.839622,-0.42381 0.953746,-0.52748 1.250471,-1.74563 0.65832,-2.70263 -0.9874,-1.59576 -2.771254,-2.96429 -4.68747,-3.5961 -0.853925,-0.28156 -2.18227,-0.39807 -6.816407,-0.59791 -1.825702,-0.0787 -3.349189,-0.17476 -3.385528,-0.2134 -0.03634,-0.0386 -0.03607,-0.10215 6.17e-4,-0.14113 0.03667,-0.039 1.477559,-0.35661 3.201977,-0.70582 1.870815,-0.37885 3.242832,-0.70984 3.401919,-0.82066 0.316059,-0.22019 0.666169,-0.90371 0.666169,-1.30057 0,-1.0759 -2.029781,-2.73832 -4.011207,-3.28525 -0.370836,-0.10236 -1.147112,-0.19562 -1.743265,-0.20945 -1.148668,-0.0266 -1.109017,-0.006 -1.343813,-0.68187 -0.155095,-0.44612 -1.419658,-1.39283 -2.358469,-1.76565 -0.528625,-0.20994 -0.929388,-0.27763 -1.856906,-0.31366 -1.159665,-0.045 -1.267256,-0.0275 -5.502553,0.89429 -2.375869,0.51713 -4.484225,0.98704 -4.685236,1.04424 -0.20101,0.0572 -1.598962,0.37408 -3.106559,0.70417 -2.610461,0.57156 -3.918436,0.84097 -12.264239,2.52607 -3.754147,0.758 -5.062976,0.92138 -5.762548,0.71931 -0.929381,-0.26843 -2.912138,-1.74896 -4.270868,-3.18905 -0.97771,-1.03625 -3.3047,-4.2627 -3.62562,-5.02702 -0.52644,-1.25379 -0.62819,-2.65342 -0.27942,-3.84384 0.11199,-0.38225 0.59783,-1.43146 1.07966,-2.33159 1.95133,-3.64537 2.85087,-6.91701 2.87249,-10.44723 0.01,-1.55519 0.004,-1.59932 -0.30774,-2.29647 -0.38497,-0.86196 -1.07166,-1.60637 -1.86817,-2.02518 -0.47454,-0.24952 -0.76897,-0.32046 -1.49036,-0.35913 -0.81302,-0.0436 -0.95182,-0.0207 -1.45118,0.23907 -0.83827,0.43606 -1.45654,1.22619 -2.53434,3.2388 -3.10942,5.8063 -6.28837,10.95067 -7.57916,12.26504 -0.21602,0.21995 -1.11014,0.92724 -1.98695,1.57172 -0.87681,0.64449 -1.98761,1.49681 -2.46844,1.89406 -1.26879,1.04821 -3.57474,3.48175 -4.7018,4.96193 -0.7952,1.04435 -1.03625,1.29261 -1.29989,1.33879 -0.32966,0.0577 -3.13203,0.37736 -5.36339,0.6117 -1.63688,0.17191 -2.02517,0.31591 -3.11126,1.15383 l -0.23143,0.17854 V 93.731421 -15.528428 H 69.28934 274.99225 V 148.50537 312.53917 H 69.28934 -136.41357 Z m 351.59559,22.48565 c 0.41013,-0.84326 0.44498,-1.45826 0.50833,-8.97151 0.0337,-3.99969 0.0901,-8.5138 0.12526,-10.03135 0.0583,-2.51712 0.0488,-2.76534 -0.10822,-2.82943 -0.0947,-0.0386 -0.20122,-0.0393 -0.23676,-0.002 -0.0774,0.0823 -0.2502,2.17244 -0.5345,6.465 -0.6557,9.9009 -0.77408,13.62945 -0.46699,14.70837 0.30657,1.07709 0.44698,1.20717 0.71288,0.66046 z M 185.0407,243.0052 c 0.40182,-0.82618 0.47049,-1.80997 0.47974,-6.87383 0.005,-2.69405 0.0428,-7.08814 0.0841,-9.76462 0.0413,-2.67649 0.0555,-4.92785 0.0315,-5.00303 -0.0725,-0.22675 -0.32298,-0.15368 -0.37491,0.10935 -0.172,0.87117 -0.90933,12.63871 -1.07759,17.19796 -0.0864,2.34024 -0.0446,3.14804 0.20556,3.97341 0.26028,0.85881 0.37775,0.92384 0.65161,0.36076 z m -25.6825,-65.30181 0.22915,-0.60146 -0.0229,-7.42709 c -0.0179,-5.80734 -0.0508,-7.43698 -0.15086,-7.47243 -0.0704,-0.0249 -0.1687,0.0694 -0.21852,0.20961 -0.17985,0.50618 -0.92325,10.90288 -0.95655,13.37764 -0.0171,1.2742 0.006,1.48174 0.21971,2.00128 0.32171,0.78072 0.5787,0.75572 0.89999,-0.0875 z m -51.58917,-38.57528 c 0.21902,-0.71153 0.22995,-0.95712 0.30273,-6.80741 0.0415,-3.33808 0.1014,-7.95379 0.13303,-10.25712 0.0504,-3.66636 0.0382,-4.19574 -0.0973,-4.25104 -0.0852,-0.0348 -0.18107,-0.0353 -0.2131,-0.001 -0.12142,0.1291 -0.71124,8.67554 -1.02016,14.78184 -0.252,4.98138 -0.1039,7.27312 0.47003,7.27312 0.15292,0 0.24895,-0.16684 0.4248,-0.73815 z m -209.23145,-11.21282 c 0.0603,-0.0773 0.20051,-0.50788 0.31151,-0.95686 0.18934,-0.76593 0.2082,-1.43414 0.30548,-10.82239 0.0875,-8.44453 0.0816,-10.03035 -0.0376,-10.1617 -0.28246,-0.31125 -0.28368,-0.30108 -0.71293,5.95149 -0.65487,9.53893 -0.8062,14.07319 -0.50576,15.15328 0.26846,0.96511 0.40213,1.13996 0.63925,0.83618 z m 80.187053,-5.19733 c 0.295286,-0.91596 0.350888,-2.55571 0.409822,-12.08518 0.0551,-8.90872 0.04888,-9.38352 -0.122465,-9.34851 -0.221296,0.0452 -0.234677,0.16459 -0.586367,5.22845 -0.331356,4.77109 -0.529808,8.24129 -0.681998,11.92532 -0.116283,2.81485 -0.113332,2.93128 0.09666,3.8142 0.330133,1.38805 0.549731,1.50369 0.884348,0.46572 z M 190.12146,68.753766 c 0.0603,-0.07729 0.20051,-0.507883 0.3115,-0.956864 0.18935,-0.765926 0.20821,-1.434132 0.30549,-10.82239 0.0875,-8.444528 0.0816,-10.03035 -0.0376,-10.161696 -0.28247,-0.311256 -0.28368,-0.301077 -0.71293,5.951495 -0.65488,9.538928 -0.80621,14.073178 -0.50576,15.153278 0.26846,0.965113 0.40213,1.139959 0.63925,0.836177 z M 21.147783,60.629359 21.40088,59.872442 21.47392,51.616074 c 0.04016,-4.541002 0.09858,-9.117956 0.129829,-10.171009 0.05673,-1.912052 0.01199,-2.271751 -0.26835,-2.157372 -0.168532,0.06876 -0.166043,0.04389 -0.538941,5.384284 -0.372395,5.333099 -0.671281,10.999199 -0.697992,13.232059 -0.01976,1.652318 0.0069,2.073768 0.166167,2.624541 0.340202,1.176626 0.516685,1.196765 0.883155,0.100782 z"
         id="path2361"
         inkscape:connector-curvature="0" />
      <path
         style="fill:#6687a3;stroke-width:0.10605381"
         d="m -136.41357,265.78954 c 0,-28.92332 0.0367,-46.74963 0.0962,-46.74963 0.0529,0 0.21159,0.0467 0.35269,0.1037 0.18075,0.0731 2.15005,-0.0905 6.66633,-0.55366 7.43761,-0.76277 7.93316,-0.77394 9.39248,-0.21194 0.50911,0.19607 1.18022,0.46211 1.49134,0.59121 0.56335,0.23375 0.613,0.23496 12.03362,0.29238 l 11.467942,0.0577 2.622712,0.57068 c 3.6755,0.79975 3.37905,0.81973 7.662434,-0.5164 l 3.496949,-1.09081 7.372413,-0.9361 7.372413,-0.9361 8.36386,-0.32703 c 4.600122,-0.17986 8.651491,-0.35475 9.00304,-0.38862 1.530562,-0.14749 2.263917,-1.59307 1.477258,-2.91194 -0.740615,-1.2417 -2.343918,-2.61268 -3.804078,-3.25288 -1.331184,-0.58364 -1.930876,-0.66417 -6.520542,-0.87552 -2.364905,-0.1089 -4.328082,-0.22804 -4.362617,-0.26476 -0.03453,-0.0367 -0.0327,-0.0988 0.0041,-0.13786 0.03678,-0.0391 1.425852,-0.34834 3.086829,-0.68718 1.820192,-0.37134 3.127839,-0.69125 3.29151,-0.80528 0.613095,-0.42712 0.839607,-1.28481 0.525297,-1.98906 -0.237171,-0.53141 -1.468629,-1.57539 -2.44122,-2.06956 -1.019413,-0.51796 -1.896154,-0.73943 -3.106509,-0.78468 -0.565683,-0.0212 -1.058076,-0.04 -1.094207,-0.0418 -0.03613,-0.002 -0.09561,-0.17291 -0.132183,-0.38018 -0.127657,-0.7235 -1.628593,-1.78974 -3.093371,-2.19747 -1.294052,-0.36022 -2.045873,-0.2701 -7.302454,0.8753 -9.798612,2.13508 -11.4362,2.48165 -17.381896,3.67872 -7.243314,1.4583 -7.608955,1.4939 -8.690948,0.84594 -2.079452,-1.24529 -3.699162,-2.83094 -5.523992,-5.40784 -1.34232,-1.89555 -1.69552,-2.53637 -1.93359,-3.50819 -0.36609,-1.49442 -0.12069,-2.76291 0.89845,-4.64414 2.20108,-4.06293 3.09063,-7.18937 3.10643,-10.91794 0.007,-1.64878 -8.2e-4,-1.7123 -0.28544,-2.32899 -0.3758,-0.81421 -1.13196,-1.61507 -1.88809,-1.99969 -0.84389,-0.42927 -2.12956,-0.50164 -2.87275,-0.16172 -0.83045,0.37985 -1.53534,1.25438 -2.56164,3.17813 -3.16127,5.92567 -6.5375,11.37072 -7.77215,12.53459 -0.13539,0.12763 -1.06229,0.83083 -2.05978,1.56267 -2.9766,2.18388 -5.09579,4.21687 -6.88386,6.60384 -0.45955,0.61348 -0.91221,1.17402 -1.0059,1.24568 -0.0937,0.0717 -1.67457,0.30721 -3.51304,0.52343 -1.83847,0.21623 -3.58267,0.46561 -3.876,0.55419 -0.29333,0.0886 -0.73302,0.3227 -0.97709,0.52026 -0.24407,0.19757 -0.50162,0.39686 -0.57233,0.44288 -0.10281,0.0669 -0.12856,-21.79521 -0.12856,-109.169303 V -15.528428 H 69.28934 274.99225 V 148.50537 312.53917 H 69.28934 -136.41357 Z m 351.69341,22.35036 c 0.43822,-1.16448 0.46657,-1.58057 0.47593,-6.98586 0.005,-2.85692 0.0452,-7.28584 0.0895,-9.84203 0.0486,-2.80767 0.0429,-4.726 -0.0144,-4.84559 -0.0522,-0.10889 -0.17223,-0.18214 -0.26672,-0.1628 -0.21987,0.045 -0.25689,0.33837 -0.5286,4.18822 -0.64199,9.09658 -0.92573,15.44603 -0.73849,16.52637 0.27017,1.55902 0.65355,1.99659 0.9828,1.12169 z M -60.326852,272.7063 c 0.05757,-0.0752 0.205018,-0.48117 0.327654,-0.90219 0.217909,-0.7481 0.225067,-0.9766 0.315148,-10.06074 0.0507,-5.11238 0.09405,-9.70123 0.09634,-10.19743 0.0033,-0.71468 -0.02663,-0.90219 -0.144035,-0.90219 -0.08151,0 -0.176773,0.0491 -0.211686,0.1092 -0.195125,0.33569 -1.181039,16.39571 -1.181547,19.24679 -2.06e-4,1.0377 0.07245,1.50297 0.371297,2.37849 0.166352,0.48736 0.253532,0.55436 0.426824,0.32807 z M 185.0407,243.0052 c 0.40182,-0.82618 0.47049,-1.80997 0.47974,-6.87383 0.005,-2.69405 0.0428,-7.08814 0.0841,-9.76462 0.0413,-2.67649 0.0555,-4.92785 0.0315,-5.00303 -0.0725,-0.22675 -0.32298,-0.15368 -0.37491,0.10935 -0.172,0.87117 -0.90933,12.63871 -1.07759,17.19796 -0.0864,2.34024 -0.0446,3.14804 0.20556,3.97341 0.26028,0.85881 0.37775,0.92384 0.65161,0.36076 z m 38.10608,-48.25066 0.24878,-0.70245 0.0765,-7.60023 c 0.0421,-4.18013 0.098,-8.78128 0.12435,-10.22478 0.0263,-1.44349 0.0265,-2.68605 0,-2.76123 -0.0785,-0.22634 -0.33162,-0.15391 -0.38212,0.10935 -0.0259,0.13533 -0.0734,0.61513 -0.10549,1.06622 -0.65248,9.17995 -0.97313,14.85176 -0.99845,17.66098 -0.0115,1.27226 0.0255,1.78756 0.16453,2.29647 0.31719,1.1606 0.50378,1.19394 0.87149,0.15567 z m -63.78858,-17.05115 0.22915,-0.60146 -0.0229,-7.42709 c -0.0179,-5.80734 -0.0508,-7.43698 -0.15086,-7.47243 -0.0704,-0.0249 -0.1687,0.0694 -0.21852,0.20961 -0.17985,0.50618 -0.92325,10.90288 -0.95655,13.37764 -0.0171,1.2742 0.006,1.48174 0.21971,2.00128 0.32171,0.78072 0.5787,0.75572 0.89999,-0.0875 z m -51.58917,-38.57528 c 0.21902,-0.71153 0.22995,-0.95712 0.30273,-6.80741 0.0415,-3.33808 0.1014,-7.95379 0.13303,-10.25712 0.0504,-3.66636 0.0382,-4.19574 -0.0973,-4.25104 -0.0852,-0.0348 -0.18107,-0.0353 -0.2131,-0.001 -0.12142,0.1291 -0.71124,8.67554 -1.02016,14.78184 -0.252,4.98138 -0.1039,7.27312 0.47003,7.27312 0.15292,0 0.24895,-0.16684 0.4248,-0.73815 z m -209.23145,-11.21282 c 0.0603,-0.0773 0.20051,-0.50788 0.31151,-0.95686 0.18934,-0.76593 0.2082,-1.43414 0.30548,-10.82239 0.0875,-8.44453 0.0816,-10.03035 -0.0376,-10.1617 -0.28246,-0.31125 -0.28368,-0.30108 -0.71293,5.95149 -0.65487,9.53893 -0.8062,14.07319 -0.50576,15.15328 0.26846,0.96511 0.40213,1.13996 0.63925,0.83618 z m 80.187053,-5.19733 c 0.295286,-0.91596 0.350888,-2.55571 0.409822,-12.08518 0.0551,-8.90872 0.04888,-9.38352 -0.122465,-9.34851 -0.221296,0.0452 -0.234677,0.16459 -0.586367,5.22845 -0.331356,4.77109 -0.529808,8.24129 -0.681998,11.92532 -0.116283,2.81485 -0.113332,2.93128 0.09666,3.8142 0.330133,1.38805 0.549731,1.50369 0.884348,0.46572 z M 190.12146,68.753766 c 0.0603,-0.07729 0.20051,-0.507883 0.3115,-0.956864 0.18935,-0.765926 0.20821,-1.434132 0.30549,-10.82239 0.0875,-8.444528 0.0816,-10.03035 -0.0376,-10.161696 -0.28247,-0.311256 -0.28368,-0.301077 -0.71293,5.951495 -0.65488,9.538928 -0.80621,14.073178 -0.50576,15.153278 0.26846,0.965113 0.40213,1.139959 0.63925,0.836177 z M 21.094249,60.983698 c 0.371736,-1.090273 0.382659,-1.325569 0.47288,-10.187793 0.12626,-12.402056 0.130703,-11.532193 -0.0592,-11.609675 -0.39566,-0.161428 -0.392327,-0.185815 -0.808958,5.933359 -0.654464,9.612303 -0.810079,14.277479 -0.512437,15.361801 0.320187,1.166421 0.623959,1.334522 0.907716,0.502308 z m 78.733632,-37.261731 0.248789,-0.702452 0.0765,-7.600233 c 0.0421,-4.180128 0.098,-8.7812758 0.12435,-10.2247733 0.0263,-1.4434974 0.0265,-2.6860534 0,-2.7612356 -0.0785,-0.2263349 -0.331628,-0.1539074 -0.382128,0.1093559 -0.02595,0.1353279 -0.07343,0.6151267 -0.105485,1.0662197 -0.652479,9.1799403 -0.973129,14.8517573 -0.998451,17.6609723 -0.01147,1.272267 0.02545,1.787566 0.164532,2.296473 0.317183,1.160602 0.503776,1.193931 0.871491,0.155673 z"
         id="path2359"
         inkscape:connector-curvature="0" />
      <path
         style="fill:#9e6966;stroke-width:0.10605381"
         d="m -136.41357,265.78954 c 0,-28.92332 0.0367,-46.74963 0.0962,-46.74963 0.0529,0 0.21159,0.0467 0.35269,0.1037 0.18075,0.0731 2.15005,-0.0905 6.66633,-0.55366 7.43761,-0.76277 7.93316,-0.77394 9.39248,-0.21194 0.50911,0.19607 1.18022,0.46211 1.49134,0.59121 0.56335,0.23375 0.613,0.23496 12.03362,0.29238 l 11.467942,0.0577 2.622712,0.57068 c 3.6755,0.79975 3.37905,0.81973 7.662434,-0.5164 l 3.496949,-1.09081 7.372413,-0.9361 7.372413,-0.9361 8.36386,-0.32703 c 4.600122,-0.17986 8.651491,-0.35475 9.00304,-0.38862 1.530562,-0.14749 2.263917,-1.59307 1.477258,-2.91194 -0.740615,-1.2417 -2.343918,-2.61268 -3.804078,-3.25288 -1.331184,-0.58364 -1.930876,-0.66417 -6.520542,-0.87552 -2.364905,-0.1089 -4.328082,-0.22804 -4.362617,-0.26476 -0.03453,-0.0367 -0.0327,-0.0988 0.0041,-0.13786 0.03678,-0.0391 1.425852,-0.34834 3.086829,-0.68718 1.820192,-0.37134 3.127839,-0.69125 3.29151,-0.80528 0.613095,-0.42712 0.839607,-1.28481 0.525297,-1.98906 -0.237171,-0.53141 -1.468629,-1.57539 -2.44122,-2.06956 -1.019413,-0.51796 -1.896154,-0.73943 -3.106509,-0.78468 -0.565683,-0.0212 -1.058076,-0.04 -1.094207,-0.0418 -0.03613,-0.002 -0.09561,-0.17291 -0.132183,-0.38018 -0.127657,-0.7235 -1.628593,-1.78974 -3.093371,-2.19747 -1.294052,-0.36022 -2.045873,-0.2701 -7.302454,0.8753 -9.798612,2.13508 -11.4362,2.48165 -17.381896,3.67872 -7.243314,1.4583 -7.608955,1.4939 -8.690948,0.84594 -2.079452,-1.24529 -3.699162,-2.83094 -5.523992,-5.40784 -1.34232,-1.89555 -1.69552,-2.53637 -1.93359,-3.50819 -0.36609,-1.49442 -0.12069,-2.76291 0.89845,-4.64414 2.20108,-4.06293 3.09063,-7.18937 3.10643,-10.91794 0.007,-1.64878 -8.2e-4,-1.7123 -0.28544,-2.32899 -0.3758,-0.81421 -1.13196,-1.61507 -1.88809,-1.99969 -0.84389,-0.42927 -2.12956,-0.50164 -2.87275,-0.16172 -0.83045,0.37985 -1.53534,1.25438 -2.56164,3.17813 -3.16127,5.92567 -6.5375,11.37072 -7.77215,12.53459 -0.13539,0.12763 -1.06229,0.83083 -2.05978,1.56267 -2.9766,2.18388 -5.09579,4.21687 -6.88386,6.60384 -0.45955,0.61348 -0.91221,1.17402 -1.0059,1.24568 -0.0937,0.0717 -1.67457,0.30721 -3.51304,0.52343 -1.83847,0.21623 -3.58267,0.46561 -3.876,0.55419 -0.29333,0.0886 -0.73302,0.3227 -0.97709,0.52026 -0.24407,0.19757 -0.50162,0.39686 -0.57233,0.44288 -0.10281,0.0669 -0.12856,-21.79521 -0.12856,-109.169303 V -15.528428 H 69.28934 274.99225 V 148.50537 312.53917 H 69.28934 -136.41357 Z m 351.69341,22.35036 c 0.43822,-1.16448 0.46657,-1.58057 0.47593,-6.98586 0.005,-2.85692 0.0452,-7.28584 0.0895,-9.84203 0.0486,-2.80767 0.0429,-4.726 -0.0144,-4.84559 -0.0522,-0.10889 -0.17223,-0.18214 -0.26672,-0.1628 -0.21987,0.045 -0.25689,0.33837 -0.5286,4.18822 -0.64199,9.09658 -0.92573,15.44603 -0.73849,16.52637 0.27017,1.55902 0.65355,1.99659 0.9828,1.12169 z M 50.832091,275.45811 c 0.403599,-0.82985 0.454357,-1.60133 0.463377,-7.04403 0.0047,-2.887 0.04521,-7.31591 0.08985,-9.84203 0.04463,-2.52612 0.05895,-4.65654 0.03183,-4.73427 -0.101206,-0.29005 -0.282996,-0.0416 -0.350003,0.47844 -0.118794,0.92194 -0.609375,8.20606 -0.853719,12.67623 -0.337363,6.17194 -0.322707,7.34399 0.10566,8.44774 0.17243,0.44427 0.303411,0.44884 0.513002,0.0179 z M -60.326852,272.7063 c 0.05757,-0.0752 0.205018,-0.48117 0.327654,-0.90219 0.217909,-0.7481 0.225067,-0.9766 0.315148,-10.06074 0.0507,-5.11238 0.09405,-9.70123 0.09634,-10.19743 0.0033,-0.71468 -0.02663,-0.90219 -0.144035,-0.90219 -0.08151,0 -0.176773,0.0491 -0.211686,0.1092 -0.195125,0.33569 -1.181039,16.39571 -1.181547,19.24679 -2.06e-4,1.0377 0.07245,1.50297 0.371297,2.37849 0.166352,0.48736 0.253532,0.55436 0.426824,0.32807 z m 185.060422,-9.13122 c 0.31007,-0.85598 0.3738,-2.76778 0.43926,-13.17738 0.044,-6.99371 0.03,-8.28371 -0.0897,-8.28371 -0.18355,0 -0.22293,0.27531 -0.40665,2.84326 -0.50807,7.10162 -0.87586,13.86951 -0.87586,16.1171 0,1.32321 0.0395,1.77066 0.21005,2.37959 0.12852,0.4588 0.2654,0.74994 0.3526,0.74994 0.0785,0 0.2448,-0.2823 0.37031,-0.6288 z M 185.0407,243.0052 c 0.40182,-0.82618 0.47049,-1.80997 0.47974,-6.87383 0.005,-2.69405 0.0428,-7.08814 0.0841,-9.76462 0.0413,-2.67649 0.0555,-4.92785 0.0315,-5.00303 -0.0725,-0.22675 -0.32298,-0.15368 -0.37491,0.10935 -0.172,0.87117 -0.90933,12.63871 -1.07759,17.19796 -0.0864,2.34024 -0.0446,3.14804 0.20556,3.97341 0.26028,0.85881 0.37775,0.92384 0.65161,0.36076 z M 10.172977,217.74136 c 0.102368,-0.31491 0.228145,-0.92663 0.279489,-1.35937 0.05135,-0.43273 0.120984,-5.12959 0.15474,-10.43745 0.05292,-8.32091 0.04114,-9.65065 -0.08553,-9.65065 -0.175907,0 -0.211031,0.26628 -0.41838,3.17132 -0.4502524,6.30848 -0.7543019,11.65335 -0.8398229,14.76304 -0.055519,2.01895 -0.039814,2.45122 0.1111207,3.0594 0.3193641,1.28691 0.4950652,1.38676 0.7983842,0.45371 z m 212.973803,-22.98682 0.24878,-0.70245 0.0765,-7.60023 c 0.0421,-4.18013 0.098,-8.78128 0.12435,-10.22478 0.0263,-1.44349 0.0265,-2.68605 0,-2.76123 -0.0785,-0.22634 -0.33162,-0.15391 -0.38212,0.10935 -0.0259,0.13533 -0.0734,0.61513 -0.10549,1.06622 -0.65248,9.17995 -0.97313,14.85176 -0.99845,17.66098 -0.0115,1.27226 0.0255,1.78756 0.16453,2.29647 0.31719,1.1606 0.50378,1.19394 0.87149,0.15567 z m -63.76514,-16.88408 0.2627,-0.54374 0.0284,-7.50547 c 0.0251,-6.62028 0.01,-7.52181 -0.12856,-7.644 -0.22409,-0.19773 -0.43487,0.0193 -0.50828,0.52334 -0.22081,1.51605 -0.88251,11.50456 -0.8816,13.30778 0.001,1.16616 0.0291,1.37707 0.25547,1.89419 0.33238,0.75915 0.59374,0.75051 0.97184,-0.0321 z M 51.743674,142.72902 c 0.418194,-0.85982 0.456598,-1.68436 0.51978,-11.15783 0.03343,-5.01339 0.08511,-9.39309 0.114844,-9.73267 0.05623,-0.64226 -0.06677,-1.03614 -0.259546,-0.83117 -0.193617,0.20586 -0.874731,10.13651 -1.152255,16.80007 -0.130775,3.13974 -0.08508,3.95458 0.272824,4.86531 0.175187,0.4458 0.307721,0.46059 0.504353,0.0563 z m 56.025356,-3.60091 c 0.21902,-0.71153 0.22995,-0.95712 0.30273,-6.80741 0.0415,-3.33808 0.1014,-7.95379 0.13303,-10.25712 0.0504,-3.66636 0.0382,-4.19574 -0.0973,-4.25104 -0.0852,-0.0348 -0.18107,-0.0353 -0.2131,-0.001 -0.12142,0.1291 -0.71124,8.67554 -1.02016,14.78184 -0.252,4.98138 -0.1039,7.27312 0.47003,7.27312 0.15292,0 0.24895,-0.16684 0.4248,-0.73815 z m -209.23145,-11.21282 c 0.0603,-0.0773 0.20051,-0.50788 0.31151,-0.95686 0.18934,-0.76593 0.2082,-1.43414 0.30548,-10.82239 0.0875,-8.44453 0.0816,-10.03035 -0.0376,-10.1617 -0.28246,-0.31125 -0.28368,-0.30108 -0.71293,5.95149 -0.65487,9.53893 -0.8062,14.07319 -0.50576,15.15328 0.26846,0.96511 0.40213,1.13996 0.63925,0.83618 z m 326.62773,-0.19696 c 0.4036,-0.82985 0.45435,-1.60133 0.46337,-7.04403 0.005,-2.88699 0.0452,-7.3159 0.0898,-9.84202 0.0446,-2.52612 0.059,-4.65654 0.0318,-4.73427 -0.10121,-0.29006 -0.283,-0.0416 -0.35001,0.47843 -0.11879,0.92195 -0.60937,8.20607 -0.85371,12.67624 -0.33737,6.17193 -0.32271,7.34399 0.10565,8.44774 0.17244,0.44427 0.30342,0.44884 0.51301,0.0179 z m -246.440677,-5.00037 c 0.295286,-0.91596 0.350888,-2.55571 0.409822,-12.08518 0.0551,-8.90872 0.04888,-9.38352 -0.122465,-9.34851 -0.221296,0.0452 -0.234677,0.16459 -0.586367,5.22845 -0.331356,4.77109 -0.529808,8.24129 -0.681998,11.92532 -0.116283,2.81485 -0.113332,2.93128 0.09666,3.8142 0.330133,1.38805 0.549731,1.50369 0.884348,0.46572 z M 190.12146,68.753766 c 0.0603,-0.07729 0.20051,-0.507883 0.3115,-0.956864 0.18935,-0.765926 0.20821,-1.434132 0.30549,-10.82239 0.0875,-8.444528 0.0816,-10.03035 -0.0376,-10.161696 -0.28247,-0.311256 -0.28368,-0.301077 -0.71293,5.951495 -0.65488,9.538928 -0.80621,14.073178 -0.50576,15.153278 0.26846,0.965113 0.40213,1.139959 0.63925,0.836177 z M 21.094249,60.983698 c 0.371736,-1.090273 0.382659,-1.325569 0.47288,-10.187793 0.12626,-12.402056 0.130703,-11.532193 -0.0592,-11.609675 -0.39566,-0.161428 -0.392327,-0.185815 -0.808958,5.933359 -0.654464,9.612303 -0.810079,14.277479 -0.512437,15.361801 0.320187,1.166421 0.623959,1.334522 0.907716,0.502308 z m 78.733632,-37.261731 0.248789,-0.702452 0.0765,-7.600233 c 0.0421,-4.180128 0.098,-8.7812758 0.12435,-10.2247733 0.0263,-1.4434974 0.0265,-2.6860534 0,-2.7612356 -0.0785,-0.2263349 -0.331628,-0.1539074 -0.382128,0.1093559 -0.02595,0.1353279 -0.07343,0.6151267 -0.105485,1.0662197 -0.652479,9.1799403 -0.973129,14.8517573 -0.998451,17.6609723 -0.01147,1.272267 0.02545,1.787566 0.164532,2.296473 0.317183,1.160602 0.503776,1.193931 0.871491,0.155673 z"
         id="path2357"
         inkscape:connector-curvature="0" />
      <path
         style="fill:#54748d;stroke-width:0.10605381"
         d="m -136.41357,265.78569 c 0,-46.18991 0.002,-46.75212 0.19894,-46.64028 0.32134,0.18286 0.87416,0.14412 7.14757,-0.50084 3.28501,-0.33772 6.3893,-0.6133 6.89842,-0.61239 1.11673,0.002 1.64872,0.12458 2.93675,0.67672 0.54071,0.23179 1.25514,0.4749 1.58764,0.54025 0.41076,0.0807 4.09966,0.11882 11.50889,0.11882 h 10.904359 l 2.884561,0.61171 c 2.411973,0.51148 3.010938,0.60364 3.655945,0.56252 0.582212,-0.0371 1.591138,-0.30781 4.114058,-1.10386 l 3.342673,-1.05468 7.251027,-0.92503 c 3.988065,-0.50876 7.737001,-0.95456 8.330968,-0.99065 0.593967,-0.0361 4.677225,-0.20914 9.073907,-0.38452 6.082727,-0.24263 8.07454,-0.35551 8.330968,-0.47211 0.949068,-0.43159 1.378468,-1.64845 0.919471,-2.60569 -0.471675,-0.98367 -1.848451,-2.34821 -3.107371,-3.07975 -1.723779,-1.00166 -2.336093,-1.11557 -7.143136,-1.32889 -3.768256,-0.1672 -4.455329,-0.22097 -4.343478,-0.3399 0.02859,-0.0304 1.364557,-0.32274 2.968817,-0.64964 1.938118,-0.39494 3.003214,-0.66112 3.174263,-0.79332 0.141586,-0.10942 0.363585,-0.41751 0.493334,-0.68464 0.406288,-0.8365 0.164102,-1.5206 -0.853015,-2.40953 -1.369555,-1.19693 -3.043062,-1.84896 -4.745636,-1.84896 h -0.958653 l -0.233399,-0.51863 c -0.384376,-0.85412 -1.789083,-1.80911 -3.170106,-2.1552 -1.39993,-0.35084 -1.710031,-0.30376 -10.341229,1.5699 -4.406774,0.95662 -10.604173,2.25873 -13.771997,2.89359 -8.371907,1.67778 -7.90997,1.63048 -9.177427,0.93953 -1.923624,-1.04865 -3.648764,-2.73871 -5.573044,-5.4597 -1.76284,-2.49271 -2.03844,-3.20919 -1.93628,-5.03375 0.0637,-1.13776 0.1863,-1.47049 1.31734,-3.57542 1.85749,-3.45691 2.77928,-6.85983 2.80869,-10.36873 0.0128,-1.52414 0.011,-1.53615 -0.32624,-2.26563 -0.43171,-0.93368 -1.12469,-1.67004 -1.97478,-2.09838 -0.60112,-0.3029 -0.76775,-0.33702 -1.64592,-0.33702 -0.87495,0 -1.02547,0.0306 -1.43992,0.2922 -0.86323,0.54499 -1.37005,1.24836 -2.7837,3.86333 -2.96007,5.47551 -5.59433,9.75371 -7.01426,11.39156 -0.23413,0.27007 -1.19162,1.05036 -2.12777,1.73398 -3.16786,2.31334 -5.32477,4.37445 -7.23075,6.90959 -0.5105,0.67902 -0.95646,1.23519 -0.99101,1.23595 -0.0346,10e-4 -1.64678,0.19338 -3.58272,0.42806 -3.82805,0.46405 -4.18439,0.55787 -4.99575,1.31531 l -0.381,0.35568 V 93.729411 -15.528428 H 69.28934 274.99225 V 148.50537 312.53917 H 69.28934 -136.41357 Z m 351.72,22.50382 c 0.45692,-1.14793 0.45181,-1.04022 0.55414,-11.66066 0.0729,-7.55981 0.068,-10.1953 -0.019,-10.30679 -0.1742,-0.22319 -0.39214,-0.18141 -0.50228,0.0963 -0.18717,0.47187 -0.92013,11.82029 -1.18482,18.34444 -0.0668,1.64774 0.0441,2.63318 0.39768,3.53297 0.21747,0.55341 0.53259,0.55081 0.75432,-0.006 z M 50.832091,275.45811 c 0.403599,-0.82985 0.454357,-1.60133 0.463377,-7.04403 0.0047,-2.887 0.04521,-7.31591 0.08985,-9.84203 0.04463,-2.52612 0.05895,-4.65654 0.03183,-4.73427 -0.101206,-0.29005 -0.282996,-0.0416 -0.350003,0.47844 -0.118794,0.92194 -0.609375,8.20606 -0.853719,12.67623 -0.337363,6.17194 -0.322707,7.34399 0.10566,8.44774 0.17243,0.44427 0.303411,0.44884 0.513002,0.0179 z m -111.160172,-2.59665 c 0.07133,-0.0481 0.228277,-0.37956 0.348773,-0.73648 0.314013,-0.93012 0.366852,-2.5774 0.410124,-12.78575 0.03582,-8.45089 0.03062,-8.74811 -0.153838,-8.78607 -0.105003,-0.0216 -0.23233,0.005 -0.282949,0.0586 -0.262604,0.27921 -1.296898,17.46387 -1.193233,19.82542 0.04694,1.06941 0.25318,2.02846 0.511475,2.37849 0.116854,0.15836 0.180829,0.16651 0.359648,0.0458 z m 185.061651,-9.28638 c 0.31007,-0.85598 0.3738,-2.76778 0.43926,-13.17738 0.044,-6.99371 0.03,-8.28371 -0.0897,-8.28371 -0.18355,0 -0.22293,0.27531 -0.40665,2.84326 -0.50807,7.10162 -0.87586,13.86951 -0.87586,16.1171 0,1.32321 0.0395,1.77066 0.21005,2.37959 0.12852,0.4588 0.2654,0.74994 0.3526,0.74994 0.0785,0 0.2448,-0.2823 0.37031,-0.6288 z m 60.31204,-20.29256 c 0.0858,-0.13921 0.24257,-0.61901 0.34841,-1.06622 0.1767,-0.74662 0.19787,-1.51516 0.25903,-9.39755 0.0366,-4.72144 0.0957,-9.226 0.13134,-10.01012 0.0565,-1.24524 0.043,-1.44882 -0.10706,-1.60836 -0.21005,-0.22334 -0.45939,-0.13989 -0.52442,0.17551 -0.10022,0.4861 -0.57918,7.5061 -0.874,12.80991 -0.2919,5.25146 -0.3103,7.471 -0.0689,8.31105 0.1808,0.6292 0.41548,1.03888 0.59508,1.03888 0.0465,0 0.15473,-0.11389 0.24052,-0.2531 z M 10.172977,217.74136 c 0.102368,-0.31491 0.228145,-0.92663 0.279489,-1.35937 0.05135,-0.43273 0.120984,-5.12959 0.15474,-10.43745 0.05292,-8.32091 0.04114,-9.65065 -0.08553,-9.65065 -0.175907,0 -0.211031,0.26628 -0.41838,3.17132 -0.4502524,6.30848 -0.7543019,11.65335 -0.8398229,14.76304 -0.055519,2.01895 -0.039814,2.45122 0.1111207,3.0594 0.3193641,1.28691 0.4950652,1.38676 0.7983842,0.45371 z M 223.13189,195.11831 c 0.1143,-0.28569 0.2558,-0.7901 0.31446,-1.1209 0.0634,-0.35726 0.14008,-4.21992 0.18899,-9.51396 0.11158,-12.07789 0.1208,-11.05193 -0.10056,-11.19668 -0.33484,-0.21899 -0.4418,0.14991 -0.57412,1.98026 -0.48564,6.71723 -0.79163,11.84743 -0.92185,15.45537 -0.10275,2.8466 -0.0158,3.83996 0.4135,4.72398 0.17483,0.36001 0.45923,0.2227 0.67958,-0.32807 z m -63.75025,-17.24785 0.2627,-0.54374 0.0284,-7.50547 c 0.0251,-6.62028 0.01,-7.52181 -0.12856,-7.644 -0.22409,-0.19773 -0.43487,0.0193 -0.50828,0.52334 -0.22081,1.51605 -0.88251,11.50456 -0.8816,13.30778 0.001,1.16616 0.0291,1.37707 0.25547,1.89419 0.33238,0.75915 0.59374,0.75051 0.97184,-0.0321 z M 51.743674,142.72902 c 0.418194,-0.85982 0.456598,-1.68436 0.51978,-11.15783 0.03343,-5.01339 0.08511,-9.39309 0.114844,-9.73267 0.05623,-0.64226 -0.06677,-1.03614 -0.259546,-0.83117 -0.193617,0.20586 -0.874731,10.13651 -1.152255,16.80007 -0.130775,3.13974 -0.08508,3.95458 0.272824,4.86531 0.175187,0.4458 0.307721,0.46059 0.504353,0.0563 z m 55.909256,-2.9984 c 0.47468,-0.82992 0.49868,-1.29899 0.60825,-11.89351 0.0922,-8.91706 0.0864,-10.02392 -0.0533,-10.17009 -0.1396,-0.14605 -0.17863,-0.13572 -0.35587,0.0941 -0.10948,0.14199 -0.19907,0.4044 -0.19907,0.58312 0,0.17873 -0.0922,1.56346 -0.20495,3.07719 -0.36417,4.89036 -0.72375,11.32193 -0.78973,14.12524 -0.0564,2.39823 -0.0425,2.81446 0.11324,3.39003 0.1911,0.70609 0.4132,1.14824 0.57678,1.14824 0.0561,0 0.19318,-0.15945 0.30466,-0.35435 z m -208.99416,-11.81043 c 0.47397,-0.82868 0.49812,-1.30114 0.60796,-11.89351 0.0925,-8.917 0.0867,-10.02392 -0.053,-10.1701 -0.13955,-0.14599 -0.17642,-0.1386 -0.33534,0.0672 -0.19785,0.25621 -0.2401,0.7193 -0.68236,7.47836 -0.58644,8.96273 -0.69611,12.71741 -0.40269,13.78633 0.17919,0.65279 0.40291,1.08607 0.56079,1.08607 0.0561,0 0.1932,-0.15946 0.30467,-0.35435 z m 326.50654,-0.20186 c 0.4036,-0.82985 0.45435,-1.60133 0.46337,-7.04403 0.005,-2.88699 0.0452,-7.3159 0.0898,-9.84202 0.0446,-2.52612 0.059,-4.65654 0.0318,-4.73427 -0.10121,-0.29006 -0.283,-0.0416 -0.35001,0.47843 -0.11879,0.92195 -0.60937,8.20607 -0.85371,12.67624 -0.33737,6.17193 -0.32271,7.34399 0.10565,8.44774 0.17244,0.44427 0.30342,0.44884 0.51301,0.0179 z m -246.414224,-4.81518 c 0.1255,-0.33628 0.272906,-0.95074 0.327572,-1.36546 0.07171,-0.54402 0.272752,-17.29395 0.239222,-19.9313 -0.0017,-0.14228 -0.07066,-0.33034 -0.153012,-0.41789 -0.239562,-0.25471 -0.449101,0.0674 -0.524357,0.80617 -0.24382,2.39344 -0.924635,13.70038 -1.049023,17.42204 -0.05547,1.65964 -0.03802,2.15647 0.09711,2.76557 0.340294,1.53386 0.674479,1.76058 1.062486,0.72087 z M 190.24265,68.758665 c 0.47397,-0.828673 0.49812,-1.30114 0.60796,-11.893509 0.0925,-8.917002 0.0867,-10.023916 -0.053,-10.170096 -0.13955,-0.145995 -0.17643,-0.138605 -0.33535,0.0672 -0.19785,0.256212 -0.2401,0.719303 -0.68235,7.478357 -0.58645,8.962733 -0.69612,12.717415 -0.4027,13.78633 0.17919,0.652787 0.40292,1.086068 0.5608,1.086068 0.0561,0 0.19319,-0.159457 0.30467,-0.354348 z M 21.052008,61.21311 c 0.470699,-0.822953 0.495589,-1.312548 0.601495,-11.827981 0.05506,-5.467295 0.07752,-10.003124 0.0499,-10.079624 -0.07834,-0.217076 -0.365184,-0.288466 -0.515769,-0.128362 -0.297488,0.316301 -1.382262,18.061685 -1.23501,20.203198 0.05405,0.786145 0.296459,1.761789 0.509444,2.050422 0.169911,0.230263 0.377558,0.153653 0.589936,-0.217653 z m 78.76099,-37.127375 c 0.114299,-0.285693 0.255802,-0.790096 0.314462,-1.120898 0.0633,-0.357267 0.14008,-4.219918 0.18899,-9.51396 0.11158,-12.077891 0.12079,-11.0519285 -0.10056,-11.1966862 -0.334845,-0.2189807 -0.4418,0.1499204 -0.574129,1.980262 -0.485634,6.7172212 -0.791627,11.8474272 -0.921847,15.4553682 -0.102749,2.846599 -0.01579,3.839957 0.413504,4.723981 0.174826,0.360006 0.459231,0.222708 0.67958,-0.328067 z"
         id="path2355"
         inkscape:connector-curvature="0" />
      <path
         style="fill:#605656;stroke-width:0.10605381"
         d="m -136.41357,265.78569 c 0,-46.18991 0.002,-46.75212 0.19894,-46.64028 0.32134,0.18286 0.87416,0.14412 7.14757,-0.50084 3.28501,-0.33772 6.3893,-0.6133 6.89842,-0.61239 1.11673,0.002 1.64872,0.12458 2.93675,0.67672 0.54071,0.23179 1.25514,0.4749 1.58764,0.54025 0.41076,0.0807 4.09966,0.11882 11.50889,0.11882 h 10.904359 l 2.884561,0.61171 c 2.411973,0.51148 3.010938,0.60364 3.655945,0.56252 0.582212,-0.0371 1.591138,-0.30781 4.114058,-1.10386 l 3.342673,-1.05468 7.251027,-0.92503 c 3.988065,-0.50876 7.737001,-0.95456 8.330968,-0.99065 0.593967,-0.0361 4.677225,-0.20914 9.073907,-0.38452 6.082727,-0.24263 8.07454,-0.35551 8.330968,-0.47211 0.949068,-0.43159 1.378468,-1.64845 0.919471,-2.60569 -0.471675,-0.98367 -1.848451,-2.34821 -3.107371,-3.07975 -1.723779,-1.00166 -2.336093,-1.11557 -7.143136,-1.32889 -3.768256,-0.1672 -4.455329,-0.22097 -4.343478,-0.3399 0.02859,-0.0304 1.364557,-0.32274 2.968817,-0.64964 1.938118,-0.39494 3.003214,-0.66112 3.174263,-0.79332 0.141586,-0.10942 0.363585,-0.41751 0.493334,-0.68464 0.406288,-0.8365 0.164102,-1.5206 -0.853015,-2.40953 -1.369555,-1.19693 -3.043062,-1.84896 -4.745636,-1.84896 h -0.958653 l -0.233399,-0.51863 c -0.384376,-0.85412 -1.789083,-1.80911 -3.170106,-2.1552 -1.39993,-0.35084 -1.710031,-0.30376 -10.341229,1.5699 -4.406774,0.95662 -10.604173,2.25873 -13.771997,2.89359 -8.371907,1.67778 -7.90997,1.63048 -9.177427,0.93953 -1.923624,-1.04865 -3.648764,-2.73871 -5.573044,-5.4597 -1.76284,-2.49271 -2.03844,-3.20919 -1.93628,-5.03375 0.0637,-1.13776 0.1863,-1.47049 1.31734,-3.57542 1.85749,-3.45691 2.77928,-6.85983 2.80869,-10.36873 0.0128,-1.52414 0.011,-1.53615 -0.32624,-2.26563 -0.43171,-0.93368 -1.12469,-1.67004 -1.97478,-2.09838 -0.60112,-0.3029 -0.76775,-0.33702 -1.64592,-0.33702 -0.87495,0 -1.02547,0.0306 -1.43992,0.2922 -0.86323,0.54499 -1.37005,1.24836 -2.7837,3.86333 -2.96007,5.47551 -5.59433,9.75371 -7.01426,11.39156 -0.23413,0.27007 -1.19162,1.05036 -2.12777,1.73398 -3.16786,2.31334 -5.32477,4.37445 -7.23075,6.90959 -0.5105,0.67902 -0.95646,1.23519 -0.99101,1.23595 -0.0346,10e-4 -1.64678,0.19338 -3.58272,0.42806 -3.82805,0.46405 -4.18439,0.55787 -4.99575,1.31531 l -0.381,0.35568 V 93.729411 -15.528428 H 69.28934 274.99225 V 148.50537 312.53917 H 69.28934 -136.41357 Z m 351.72,22.50382 c 0.45692,-1.14793 0.45181,-1.04022 0.55414,-11.66066 0.0729,-7.55981 0.068,-10.1953 -0.019,-10.30679 -0.1742,-0.22319 -0.39214,-0.18141 -0.50228,0.0963 -0.18717,0.47187 -0.92013,11.82029 -1.18482,18.34444 -0.0668,1.64774 0.0441,2.63318 0.39768,3.53297 0.21747,0.55341 0.53259,0.55081 0.75432,-0.006 z M 50.904025,275.56381 c 0.457556,-0.97929 0.473107,-1.29857 0.571649,-11.74268 0.05165,-5.47326 0.07241,-10.01289 0.04613,-10.08808 -0.0582,-0.16653 -0.39929,-0.18097 -0.492371,-0.0208 -0.201352,0.3464 -1.175561,16.2897 -1.17803,19.27904 -0.0013,1.61402 0.376159,3.11979 0.751238,2.99655 0.06711,-0.022 0.20273,-0.21283 0.301385,-0.42399 z m -111.232106,-2.70235 c 0.07133,-0.0481 0.228277,-0.37956 0.348773,-0.73648 0.314013,-0.93012 0.366852,-2.5774 0.410124,-12.78575 0.03582,-8.45089 0.03062,-8.74811 -0.153838,-8.78607 -0.105003,-0.0216 -0.23233,0.005 -0.282949,0.0586 -0.262604,0.27921 -1.296898,17.46387 -1.193233,19.82542 0.04694,1.06941 0.25318,2.02846 0.511475,2.37849 0.116854,0.15836 0.180829,0.16651 0.359648,0.0458 z m 184.991791,-8.79428 c 0.0813,-0.13532 0.2275,-0.5167 0.3248,-0.8475 0.15902,-0.54058 0.18615,-1.63067 0.26794,-10.76906 0.05,-5.59219 0.0684,-10.23024 0.0408,-10.30679 -0.0864,-0.2393 -0.45936,-0.16204 -0.51596,0.10686 -0.0753,0.35779 -0.52976,6.88158 -0.77129,11.07228 -0.29545,5.12607 -0.40965,8.54184 -0.30896,9.24057 0.21943,1.52268 0.59691,2.11226 0.9627,1.50364 z m 60.3819,-20.78466 c 0.0858,-0.13921 0.24257,-0.61901 0.34841,-1.06622 0.1767,-0.74662 0.19787,-1.51516 0.25903,-9.39755 0.0366,-4.72144 0.0957,-9.226 0.13134,-10.01012 0.0565,-1.24524 0.043,-1.44882 -0.10706,-1.60836 -0.21005,-0.22334 -0.45939,-0.13989 -0.52442,0.17551 -0.10022,0.4861 -0.57918,7.5061 -0.874,12.80991 -0.2919,5.25146 -0.3103,7.471 -0.0689,8.31105 0.1808,0.6292 0.41548,1.03888 0.59508,1.03888 0.0465,0 0.15473,-0.11389 0.24052,-0.2531 z M 10.178428,218.04063 c 0.425312,-0.92483 0.481551,-1.67952 0.491908,-6.60096 0.0055,-2.58626 0.04533,-7.01518 0.08863,-9.84202 0.07249,-4.7321 0.04723,-5.52588 -0.175711,-5.5208 -0.362264,0.008 -0.376694,0.1122 -0.7357688,5.30208 -0.7064763,10.21088 -0.8720672,14.88913 -0.5673286,16.02813 0.3190349,1.19246 0.5623301,1.36406 0.8982734,0.63357 z M 223.13189,195.11831 c 0.1143,-0.28569 0.2558,-0.7901 0.31446,-1.1209 0.0634,-0.35726 0.14008,-4.21992 0.18899,-9.51396 0.11158,-12.07789 0.1208,-11.05193 -0.10056,-11.19668 -0.33484,-0.21899 -0.4418,0.14991 -0.57412,1.98026 -0.48564,6.71723 -0.79163,11.84743 -0.92185,15.45537 -0.10275,2.8466 -0.0158,3.83996 0.4135,4.72398 0.17483,0.36001 0.45923,0.2227 0.67958,-0.32807 z m -63.97178,-16.78924 c 0.55258,-0.6254 0.55286,-0.62954 0.56258,-8.61555 0.005,-4.06363 -0.025,-7.44683 -0.0665,-7.51822 -0.12575,-0.21633 -0.47268,-0.14626 -0.57556,0.11625 -0.15223,0.3884 -0.71005,7.58828 -0.93469,12.06427 -0.10754,2.14284 -0.1026,2.48134 0.044,3.01739 0.15652,0.57246 0.50418,1.18503 0.67256,1.18503 0.0426,0 0.17652,-0.11213 0.29761,-0.24917 z M 51.750123,143.00319 c 0.08579,-0.13921 0.243151,-0.61901 0.349705,-1.06622 0.177964,-0.74696 0.20093,-1.5472 0.282296,-9.83498 0.118032,-12.02411 0.12552,-11.05175 -0.08616,-11.19419 -0.395391,-0.26608 -0.423892,-0.0725 -0.794733,5.39833 -0.431235,6.36202 -0.723467,11.95743 -0.724485,13.87242 -0.001,1.26641 0.179866,2.34935 0.472108,2.83169 0.189021,0.31198 0.305675,0.31034 0.501268,-0.007 z m 55.902807,-3.27257 c 0.47468,-0.82992 0.49868,-1.29899 0.60825,-11.89351 0.0922,-8.91706 0.0864,-10.02392 -0.0533,-10.17009 -0.1396,-0.14605 -0.17863,-0.13572 -0.35587,0.0941 -0.10948,0.14199 -0.19907,0.4044 -0.19907,0.58312 0,0.17873 -0.0922,1.56346 -0.20495,3.07719 -0.36417,4.89036 -0.72375,11.32193 -0.78973,14.12524 -0.0564,2.39823 -0.0425,2.81446 0.11324,3.39003 0.1911,0.70609 0.4132,1.14824 0.57678,1.14824 0.0561,0 0.19318,-0.15945 0.30466,-0.35435 z m -208.99416,-11.81043 c 0.47397,-0.82868 0.49812,-1.30114 0.60796,-11.89351 0.0925,-8.917 0.0867,-10.02392 -0.053,-10.1701 -0.13955,-0.14599 -0.17642,-0.1386 -0.33534,0.0672 -0.19785,0.25621 -0.2401,0.7193 -0.68236,7.47836 -0.58644,8.96273 -0.69611,12.71741 -0.40269,13.78633 0.17919,0.65279 0.40291,1.08607 0.56079,1.08607 0.0561,0 0.1932,-0.15946 0.30467,-0.35435 z m 326.57847,-0.0962 c 0.45756,-0.97929 0.47311,-1.29856 0.57165,-11.74267 0.0516,-5.47326 0.0724,-10.0129 0.0461,-10.08808 -0.0582,-0.16654 -0.39929,-0.18097 -0.49237,-0.0208 -0.20135,0.34639 -1.17556,16.28969 -1.17803,19.27903 -10e-4,1.61403 0.37616,3.11979 0.75124,2.99656 0.0671,-0.0221 0.20273,-0.21284 0.30138,-0.424 z m -246.486154,-4.92088 c 0.1255,-0.33628 0.272906,-0.95074 0.327572,-1.36546 0.07171,-0.54402 0.272752,-17.29395 0.239222,-19.9313 -0.0017,-0.14228 -0.07066,-0.33034 -0.153012,-0.41789 -0.239562,-0.25471 -0.449101,0.0674 -0.524357,0.80617 -0.24382,2.39344 -0.924635,13.70038 -1.049023,17.42204 -0.05547,1.65964 -0.03802,2.15647 0.09711,2.76557 0.340294,1.53386 0.674479,1.76058 1.062486,0.72087 z M 190.24265,68.758665 c 0.47397,-0.828673 0.49812,-1.30114 0.60796,-11.893509 0.0925,-8.917002 0.0867,-10.023916 -0.053,-10.170096 -0.13955,-0.145995 -0.17643,-0.138605 -0.33535,0.0672 -0.19785,0.256212 -0.2401,0.719303 -0.68235,7.478357 -0.58645,8.962733 -0.69612,12.717415 -0.4027,13.78633 0.17919,0.652787 0.40292,1.086068 0.5608,1.086068 0.0561,0 0.19319,-0.159457 0.30467,-0.354348 z M 21.052008,61.21311 c 0.470699,-0.822953 0.495589,-1.312548 0.601495,-11.827981 0.05506,-5.467295 0.07752,-10.003124 0.0499,-10.079624 -0.07834,-0.217076 -0.365184,-0.288466 -0.515769,-0.128362 -0.297488,0.316301 -1.382262,18.061685 -1.23501,20.203198 0.05405,0.786145 0.296459,1.761789 0.509444,2.050422 0.169911,0.230263 0.377558,0.153653 0.589936,-0.217653 z m 78.76099,-37.127375 c 0.114299,-0.285693 0.255802,-0.790096 0.314462,-1.120898 0.0633,-0.357267 0.14008,-4.219918 0.18899,-9.51396 0.11158,-12.077891 0.12079,-11.0519285 -0.10056,-11.1966862 -0.334845,-0.2189807 -0.4418,0.1499204 -0.574129,1.980262 -0.485634,6.7172212 -0.791627,11.8474272 -0.921847,15.4553682 -0.102749,2.846599 -0.01579,3.839957 0.413504,4.723981 0.174826,0.360006 0.459231,0.222708 0.67958,-0.328067 z"
         id="path2353"
         inkscape:connector-curvature="0" />
      <path
         style="fill:#b12a21;stroke-width:0.10605381"
         d="m -136.41357,265.79462 v -46.74454 l 0.29612,0.1807 c 0.28003,0.17088 0.58038,0.15233 5.52826,-0.34138 2.87768,-0.28714 5.94794,-0.59835 6.82279,-0.69159 1.78164,-0.18987 2.70482,-0.11569 3.77568,0.30341 0.32949,0.12894 0.99247,0.38902 1.4733,0.57793 l 0.87424,0.3435 11.51936,0.0571 11.519366,0.0571 2.314158,0.5316 c 3.511705,0.80668 3.520485,0.80608 7.662434,-0.52528 l 3.291246,-1.05792 7.199602,-0.92745 c 7.976303,-1.02751 7.671828,-1.00384 18.256133,-1.41893 3.874929,-0.15198 7.20142,-0.30619 7.392201,-0.3427 0.796345,-0.15241 1.566644,-1.39821 1.397797,-2.26063 -0.258811,-1.32191 -2.442002,-3.43233 -4.367385,-4.2218 -1.184003,-0.48548 -2.262085,-0.63988 -5.348276,-0.766 -3.732406,-0.15252 -4.735459,-0.22999 -4.474038,-0.34555 0.113136,-0.05 1.307875,-0.31125 2.654974,-0.58054 1.452484,-0.29035 2.582502,-0.57234 2.77664,-0.6929 0.180053,-0.1118 0.435759,-0.37286 0.568236,-0.58012 0.198967,-0.31128 0.233876,-0.48319 0.200673,-0.98823 -0.04547,-0.69158 -0.188803,-0.9328 -0.98204,-1.65271 -1.338368,-1.21466 -2.785711,-1.81553 -4.64655,-1.92901 l -1.17654,-0.0718 -0.08427,-0.34693 c -0.197119,-0.81157 -2.024731,-1.97817 -3.594501,-2.29443 -0.549344,-0.11067 -1.118841,-0.15112 -1.57916,-0.11216 -0.395978,0.0335 -4.144914,0.80291 -8.330968,1.70977 -11.210641,2.42866 -19.943479,4.17656 -21.195305,4.2423 -1.208153,0.0634 -1.479394,-0.0302 -2.792604,-0.96397 -1.859083,-1.32196 -2.949953,-2.48538 -4.782203,-5.10024 -1.17325,-1.67437 -1.57647,-2.51733 -1.71962,-3.59492 -0.18441,-1.38826 0.0667,-2.41452 1.01347,-4.14206 1.99717,-3.64412 2.80198,-6.28795 3.09933,-10.18136 0.12033,-1.57557 0.0378,-2.25206 -0.38823,-3.18345 -0.90744,-1.98372 -3.36273,-2.98537 -5.05575,-2.0625 -0.84731,0.46187 -1.35728,1.16449 -2.89938,3.99474 -2.56644,4.71022 -4.30509,7.62087 -5.91167,9.89671 -1.08774,1.54085 -1.31492,1.76384 -3.23418,3.17457 -0.87681,0.64449 -1.9876,1.49668 -2.46843,1.89376 -1.24592,1.02889 -3.62704,3.53877 -4.6841,4.93736 -0.94578,1.25136 -0.93523,1.244 -1.94982,1.35972 -3.9785,0.4538 -6.12704,0.76534 -6.61382,0.95897 -0.31463,0.12517 -0.73225,0.40727 -0.95757,0.64684 l -0.3996,0.42487 V 93.718083 -15.528428 H 69.28934 274.99225 V 148.50537 312.53917 H 69.28934 -136.41357 Z m 118.999133,29.97181 c 0,-0.0227 -0.081,-0.10882 -0.17999,-0.19137 -0.163132,-0.13602 -0.166763,-0.13216 -0.03884,0.0413 0.134365,0.18216 0.218826,0.24009 0.218826,0.15008 z m -0.54685,-1.40084 c -0.03283,-0.0872 -0.05721,-0.0613 -0.06214,0.0661 -0.0044,0.11527 0.01985,0.17987 0.05403,0.14353 0.03418,-0.0363 0.03783,-0.13066 0.0081,-0.20961 z m 1.43992,-0.43742 c -0.03283,-0.0872 -0.05721,-0.0613 -0.06214,0.0661 -0.0044,0.11528 0.01985,0.17987 0.05403,0.14353 0.03418,-0.0363 0.03783,-0.13066 0.0081,-0.2096 z m -1.541754,-0.27815 c -0.02608,-0.10639 -0.04913,-0.0458 -0.05123,0.13462 -0.0021,0.18044 0.01924,0.2675 0.04742,0.19345 0.02818,-0.074 0.02989,-0.22166 0.0038,-0.32807 z m 1.651342,-6.45407 c -0.01671,-1.12773 -0.03039,-0.20504 -0.03039,2.05042 0,2.25547 0.01368,3.17816 0.03039,2.05042 0.01672,-1.12773 0.01672,-2.97311 0,-4.10084 z m -1.64731,4.10084 c -0.02165,-0.25561 -0.03937,-0.0465 -0.03937,0.46477 0,0.51124 0.01772,0.72038 0.03937,0.46476 0.02165,-0.25562 0.02165,-0.67391 0,-0.92953 z m 0.101946,-2.51518 c -0.02281,-0.19547 -0.04148,-0.0355 -0.04148,0.35541 0,0.39094 0.01867,0.55088 0.04148,0.3554 0.02281,-0.19547 0.02281,-0.51534 0,-0.71081 z M 215.27861,288.5629 c 0.0829,-0.13533 0.24518,-0.61513 0.36072,-1.06622 0.20054,-0.78299 0.21469,-1.27735 0.31219,-10.90583 0.0562,-5.54711 0.0765,-10.15676 0.0451,-10.24365 -0.16164,-0.44787 -0.72388,-0.24508 -0.80731,0.29118 -0.2403,1.54479 -1.06809,15.49784 -1.10445,18.6165 -0.0254,2.17655 0.30103,3.55407 0.84213,3.55407 0.11052,0 0.26875,-0.11072 0.35161,-0.24605 z m -233.132767,-1.74774 c -0.02288,-0.19654 -0.04209,-0.0621 -0.04266,0.29877 -0.001,0.36088 0.01815,0.5217 0.04161,0.35737 0.02347,-0.16432 0.02394,-0.45958 0.001,-0.65614 z m 0.102121,-1.80483 c -0.02365,-0.16622 -0.04362,-0.0562 -0.04439,0.24455 -0.001,0.30073 0.01858,0.43674 0.04298,0.30223 0.02442,-0.1345 0.02504,-0.38055 0.0014,-0.54678 z m 0.101627,-1.80587 c -0.02451,-0.13533 -0.04456,-0.0246 -0.04456,0.24605 0,0.27066 0.02006,0.38138 0.04456,0.24605 0.02452,-0.13533 0.02452,-0.35677 0,-0.4921 z m 0.102852,-1.64034 c -0.02451,-0.13533 -0.04457,-0.0246 -0.04457,0.24605 0,0.27066 0.02006,0.38138 0.04457,0.24605 0.02452,-0.13532 0.02452,-0.35677 0,-0.4921 z m 0.104075,-1.58416 c -0.02365,-0.16622 -0.04362,-0.0562 -0.04439,0.24455 -0.001,0.30073 0.01858,0.43674 0.04298,0.30223 0.02442,-0.1345 0.02504,-0.38055 0.0014,-0.54678 z m 1.134277,-2.79007 c -0.01834,-0.6165 -0.03333,-0.11209 -0.03333,1.1209 0,1.23298 0.01499,1.73739 0.03333,1.12089 0.01833,-0.61649 0.01833,-1.6253 0,-2.24179 z m -1.032649,1.31227 c -0.02451,-0.13533 -0.04457,-0.0246 -0.04457,0.24605 0,0.27065 0.02006,0.38138 0.04457,0.24605 0.02452,-0.13533 0.02452,-0.35677 0,-0.4921 z m 0.103016,-1.42035 c -0.0246,-0.13604 -0.04567,-0.0505 -0.04681,0.19009 -0.0011,0.24059 0.01899,0.35188 0.04473,0.24734 0.02574,-0.10456 0.02668,-0.3014 0.0021,-0.43743 z m 0.102851,-1.42162 c -0.0246,-0.13604 -0.04567,-0.0505 -0.04681,0.19009 -0.0011,0.24058 0.01899,0.35187 0.04473,0.24733 0.02574,-0.10456 0.02668,-0.3014 0.0021,-0.43742 z m 68.040012,-0.0964 c 0.457556,-0.97929 0.473107,-1.29857 0.571649,-11.74268 0.05165,-5.47326 0.07241,-10.01289 0.04613,-10.08808 -0.0582,-0.16653 -0.39929,-0.18097 -0.492371,-0.0208 -0.201352,0.3464 -1.175561,16.2897 -1.17803,19.27904 -0.0013,1.61402 0.376159,3.11979 0.751238,2.99655 0.06711,-0.022 0.20273,-0.21283 0.301385,-0.42399 z m -67.93716,-1.21589 c -0.0246,-0.13604 -0.04567,-0.0505 -0.04681,0.19009 -0.0011,0.24058 0.01899,0.35187 0.04473,0.24733 0.02574,-0.10456 0.02668,-0.3014 0.0021,-0.43742 z m 0.438054,-0.95815 c 0.105608,0 0.215546,0.0504 0.244303,0.11209 0.02876,0.0617 0.04035,0.0494 0.02575,-0.0273 -0.06019,-0.31644 -0.683242,-0.15516 -0.67488,0.17469 0.0017,0.0678 0.05031,0.0372 0.107963,-0.0681 0.05766,-0.10525 0.191242,-0.19137 0.29686,-0.19137 z m -43.466653,-0.79699 c 0.48399,-1.05339 0.481312,-1.00048 0.587821,-11.6149 0.05552,-5.53341 0.07583,-10.17146 0.04513,-10.30679 -0.06389,-0.28162 -0.466558,-0.34139 -0.656932,-0.0975 -0.122456,0.15688 -0.380003,3.27347 -0.724231,8.76394 -0.354522,5.65466 -0.443784,7.58594 -0.457415,9.89671 -0.01139,1.93151 0.01352,2.32505 0.179981,2.84325 0.344956,1.07388 0.689466,1.24695 1.025644,0.51528 z m 184.725444,-8.5256 c 0.0813,-0.13532 0.2275,-0.5167 0.3248,-0.8475 0.15902,-0.54058 0.18615,-1.63067 0.26794,-10.76906 0.05,-5.59219 0.0684,-10.23024 0.0408,-10.30679 -0.0864,-0.2393 -0.45936,-0.16204 -0.51596,0.10686 -0.0753,0.35779 -0.52976,6.88158 -0.77129,11.07228 -0.29545,5.12607 -0.40965,8.54184 -0.30896,9.24057 0.21943,1.52268 0.59691,2.11226 0.9627,1.50364 z m 60.37708,-20.63169 c 0.0981,-0.1152 0.2749,-0.52119 0.39296,-0.90218 0.20691,-0.66772 0.21744,-0.99057 0.29197,-8.94907 0.0425,-4.54101 0.0997,-9.15933 0.12707,-10.26295 0.0464,-1.87374 0.0366,-2.02051 -0.14815,-2.21696 -0.26646,-0.28331 -0.57694,-0.10653 -0.64996,0.37008 -0.25895,1.69007 -1.0753,15.46345 -1.10017,18.56182 -0.0136,1.69413 0.0103,1.99802 0.20821,2.64828 0.19266,0.63299 0.40029,0.94419 0.63857,0.95714 0.0337,0.002 0.14144,-0.0909 0.2395,-0.20616 z M 10.178428,218.04063 c 0.425312,-0.92483 0.481551,-1.67952 0.491908,-6.60096 0.0055,-2.58626 0.04533,-7.01518 0.08863,-9.84202 0.07249,-4.7321 0.04723,-5.52588 -0.175711,-5.5208 -0.362264,0.008 -0.376694,0.1122 -0.7357688,5.30208 -0.7064763,10.21088 -0.8720672,14.88913 -0.5673286,16.02813 0.3190349,1.19246 0.5623301,1.36406 0.8982734,0.63357 z M 223.16068,195.29809 c 0.44415,-0.92569 0.50466,-1.64688 0.51277,-6.11234 0.004,-2.31561 0.0458,-6.79373 0.0925,-9.95138 0.0512,-3.46169 0.0474,-5.81716 -0.009,-5.93256 -0.13173,-0.26722 -0.46573,-0.23866 -0.63963,0.0547 -0.14517,0.24488 -0.47096,4.36682 -0.83624,10.58018 -0.43514,7.40174 -0.4812,9.68901 -0.21472,10.6622 0.34376,1.25541 0.71435,1.49211 1.09479,0.69922 z m -63.72204,-17.43067 0.30855,-0.65613 0.0294,-7.32685 c 0.0162,-4.02976 0.005,-7.43214 -0.0248,-7.56083 -0.0916,-0.39482 -0.58215,-0.4493 -0.71563,-0.0795 -0.18152,0.50296 -0.98519,11.78036 -0.98576,13.83251 0,0.66831 0.0575,1.22647 0.15791,1.52919 0.39833,1.20042 0.75332,1.2759 1.2303,0.26159 z M 51.750123,143.00319 c 0.08579,-0.13921 0.243151,-0.61901 0.349705,-1.06622 0.177964,-0.74696 0.20093,-1.5472 0.282296,-9.83498 0.118032,-12.02411 0.12552,-11.05175 -0.08616,-11.19419 -0.395391,-0.26608 -0.423892,-0.0725 -0.794733,5.39833 -0.431235,6.36202 -0.723467,11.95743 -0.724485,13.87242 -0.001,1.26641 0.179866,2.34935 0.472108,2.83169 0.189021,0.31198 0.305675,0.31034 0.501268,-0.007 z m 55.825197,-3.00024 c 0.24102,-0.28832 0.44341,-0.87622 0.57413,-1.66767 0.0767,-0.4645 0.15099,-4.14024 0.21437,-10.60752 0.0928,-9.47168 0.089,-9.9054 -0.0887,-10.09906 -0.28667,-0.31236 -0.59422,-0.0811 -0.66936,0.50336 -0.26318,2.04738 -1.08271,16.2116 -1.08365,18.72927 -0.001,1.53138 0.21238,2.69981 0.56823,3.11789 0.22456,0.26384 0.28195,0.26663 0.485,0.0237 z m -208.93546,-11.89171 c 0.11094,-0.14996 0.29496,-0.65437 0.40894,-1.1209 0.19631,-0.80356 0.21271,-1.37823 0.31132,-10.90898 0.0941,-9.08957 0.0885,-10.07921 -0.0574,-10.25211 -0.19288,-0.22851 -0.24147,-0.2338 -0.47575,-0.0516 -0.20544,0.15971 -0.24986,0.57234 -0.57367,5.32807 -0.4561,6.69864 -0.72429,11.83564 -0.7252,13.89055 -7.2e-4,1.58781 0.20714,2.74849 0.5681,3.17257 0.23669,0.27807 0.30039,0.27132 0.5437,-0.0575 z m 326.59738,-0.28721 c 0.45756,-0.97929 0.47311,-1.29856 0.57165,-11.74267 0.0516,-5.47326 0.0724,-10.0129 0.0461,-10.08808 -0.0582,-0.16654 -0.39929,-0.18097 -0.49237,-0.0208 -0.20135,0.34639 -1.17556,16.28969 -1.17803,19.27903 -10e-4,1.61403 0.37616,3.11979 0.75124,2.99656 0.0671,-0.0221 0.20273,-0.21284 0.30138,-0.424 z m -246.545149,-4.52607 c 0.521405,-0.94923 0.520521,-0.93227 0.618713,-11.80515 0.0505,-5.59113 0.0689,-10.22918 0.04089,-10.30679 -0.07672,-0.21255 -0.54969,-0.17032 -0.665316,0.0594 -0.108271,0.2151 -0.395936,3.85173 -0.723734,9.14943 -0.513527,8.29921 -0.582572,11.21447 -0.288571,12.1845 0.345622,1.14037 0.663197,1.36455 1.018014,0.71861 z M 190.22374,68.949714 c 0.11093,-0.149961 0.29495,-0.654365 0.40893,-1.120898 0.19632,-0.803559 0.21272,-1.378223 0.31133,-10.908982 0.094,-9.089574 0.0885,-10.079214 -0.0574,-10.252113 -0.19288,-0.228514 -0.24148,-0.233791 -0.47576,-0.05165 -0.20543,0.15972 -0.24985,0.572348 -0.57366,5.328073 -0.45611,6.698648 -0.72429,11.83564 -0.7252,13.890561 -10e-4,1.587799 0.20714,2.748477 0.5681,3.172562 0.23669,0.27807 0.30038,0.271327 0.5437,-0.05755 z M 21.158449,61.201551 c 0.470977,-1.132051 0.487145,-1.431147 0.553711,-10.241612 0.03476,-4.601148 0.09214,-9.0846 0.127505,-9.963227 0.06193,-1.538558 0.05608,-1.606237 -0.15833,-1.834216 -0.174817,-0.185871 -0.264812,-0.212713 -0.419017,-0.124969 -0.108004,0.06146 -0.221387,0.197916 -0.251965,0.303235 -0.184238,0.63471 -0.987384,13.435064 -1.144151,18.235207 -0.05805,1.777385 -0.04352,2.052515 0.149773,2.835128 0.336478,1.362431 0.777546,1.667601 1.142474,0.790454 z M -59.686385,40.748555 c 0,-0.02271 -0.081,-0.108826 -0.17999,-0.191373 -0.163128,-0.136024 -0.166766,-0.132156 -0.03883,0.04129 0.134362,0.182159 0.218822,0.240088 0.218822,0.150084 z m -0.546849,-1.400842 c -0.03283,-0.08724 -0.0572,-0.06132 -0.06214,0.06607 -0.0045,0.115279 0.01984,0.179868 0.05402,0.14353 0.03418,-0.03634 0.03783,-0.130658 0.0081,-0.209599 z m 1.43992,-0.437424 c -0.03283,-0.08724 -0.0572,-0.06132 -0.06214,0.06607 -0.0045,0.115278 0.01984,0.179867 0.05402,0.143529 0.03418,-0.03634 0.03783,-0.130658 0.0081,-0.209599 z m -1.541756,-0.278143 c -0.02608,-0.1064 -0.04913,-0.04582 -0.05122,0.134614 -0.0021,0.180437 0.01924,0.267491 0.04741,0.193454 0.02817,-0.07404 0.02989,-0.221668 0.0038,-0.328068 z m 1.651345,-6.454077 c -0.01672,-1.127733 -0.03039,-0.205042 -0.03039,2.050422 0,2.255465 0.01368,3.178155 0.03039,2.050423 0.01672,-1.127733 0.01672,-2.973113 0,-4.100845 z m -1.647311,4.100845 c -0.02165,-0.25562 -0.03937,-0.04648 -0.03937,0.464762 0,0.511239 0.01772,0.720382 0.03937,0.464763 0.02165,-0.25562 0.02165,-0.673906 0,-0.929525 z m 0.101945,-2.515185 c -0.02282,-0.195474 -0.04148,-0.03554 -0.04148,0.355406 0,0.390948 0.01867,0.550881 0.04148,0.355407 0.02281,-0.195474 0.02281,-0.515339 0,-0.710813 z m 0.102989,-1.966447 c -0.02289,-0.196551 -0.04209,-0.0621 -0.04267,0.29877 -6.17e-4,0.360874 0.01815,0.521689 0.04162,0.357365 0.02347,-0.164324 0.02394,-0.459584 0.001,-0.656135 z m 0.102116,-1.804827 c -0.02364,-0.166227 -0.04362,-0.05618 -0.04439,0.244547 -8.23e-4,0.300729 0.01857,0.436734 0.04298,0.302232 0.02441,-0.134501 0.02504,-0.380551 0.0014,-0.546779 z m 0.101632,-1.805875 c -0.02451,-0.135328 -0.04457,-0.0246 -0.04457,0.24605 0,0.270656 0.02006,0.381379 0.04457,0.246051 0.02452,-0.135328 0.02452,-0.356773 0,-0.492101 z m 0.102852,-1.640338 c -0.02452,-0.135328 -0.04457,-0.02461 -0.04457,0.24605 0,0.270656 0.02006,0.381379 0.04457,0.246051 0.02452,-0.135328 0.02452,-0.356773 0,-0.492101 z m 0.10407,-1.584157 c -0.02364,-0.166227 -0.04362,-0.05618 -0.04439,0.244547 -8.23e-4,0.300729 0.01857,0.436734 0.04298,0.302233 0.02441,-0.134502 0.02505,-0.380552 0.0014,-0.54678 z m 1.134277,-2.790078 c -0.01833,-0.616494 -0.03333,-0.11209 -0.03333,1.120898 0,1.232987 0.015,1.737391 0.03333,1.120897 0.01833,-0.616493 0.01833,-1.625301 0,-2.241795 z m 158.422941,2.093507 c 0.444154,-0.925681 0.504664,-1.646871 0.512764,-6.112335 0.004,-2.315611 0.0458,-6.793733 0.0925,-9.9513839 0.0512,-3.4616928 0.0474,-5.8171657 -0.009,-5.9325558 -0.13173,-0.2672187 -0.465727,-0.2386681 -0.639628,0.054678 -0.145165,0.2448795 -0.470957,4.3668237 -0.836234,10.5801797 -0.435144,7.401737 -0.481201,9.689009 -0.214723,10.662197 0.34376,1.25541 0.714355,1.492102 1.094792,0.69922 z M -59.613799,23.484277 c -0.02452,-0.135327 -0.04457,-0.0246 -0.04457,0.246051 0,0.270656 0.02006,0.381379 0.04457,0.246051 0.02452,-0.135328 0.02452,-0.356774 0,-0.492102 z m 0.103009,-1.420351 c -0.0246,-0.136029 -0.04566,-0.05048 -0.04681,0.190098 -0.0011,0.240583 0.01899,0.35188 0.04473,0.247326 0.02574,-0.104554 0.02668,-0.301395 0.0021,-0.437424 z m 0.102851,-1.421626 c -0.0246,-0.136029 -0.04566,-0.05048 -0.04681,0.190098 -0.0011,0.240583 0.01899,0.35188 0.04473,0.247325 0.02574,-0.104554 0.02668,-0.301394 0.0021,-0.437423 z m 0.102852,-1.31227 c -0.0246,-0.136029 -0.04566,-0.05049 -0.04681,0.190097 -0.0011,0.240583 0.01899,0.35188 0.04473,0.247326 0.02574,-0.104554 0.02668,-0.301395 0.0021,-0.437423 z m 0.438054,-0.958139 c 0.105611,0 0.215548,0.05044 0.244304,0.112089 0.02875,0.06165 0.04035,0.04935 0.02576,-0.02734 -0.06019,-0.31644 -0.683249,-0.155166 -0.674882,0.17469 0.0017,0.06782 0.0503,0.03719 0.107962,-0.06807 0.05766,-0.105255 0.191244,-0.191372 0.296856,-0.191372 z"
         id="path2351"
         inkscape:connector-curvature="0" />
      <path
         style="fill:#334d5f;stroke-width:0.10605381"
         d="m -136.41357,265.79462 v -46.74454 l 0.29612,0.1807 c 0.28003,0.17088 0.58038,0.15233 5.52826,-0.34138 2.87768,-0.28714 5.94794,-0.59835 6.82279,-0.69159 1.78164,-0.18987 2.70482,-0.11569 3.77568,0.30341 0.32949,0.12894 0.99247,0.38902 1.4733,0.57793 l 0.87424,0.3435 11.51936,0.0571 11.519366,0.0571 2.314158,0.5316 c 3.511705,0.80668 3.520485,0.80608 7.662434,-0.52528 l 3.291246,-1.05792 7.199602,-0.92745 c 7.976303,-1.02751 7.671828,-1.00384 18.256133,-1.41893 3.874929,-0.15198 7.20142,-0.30619 7.392201,-0.3427 0.796345,-0.15241 1.566644,-1.39821 1.397797,-2.26063 -0.258811,-1.32191 -2.442002,-3.43233 -4.367385,-4.2218 -1.184003,-0.48548 -2.262085,-0.63988 -5.348276,-0.766 -3.732406,-0.15252 -4.735459,-0.22999 -4.474038,-0.34555 0.113136,-0.05 1.307875,-0.31125 2.654974,-0.58054 1.452484,-0.29035 2.582502,-0.57234 2.77664,-0.6929 0.180053,-0.1118 0.435759,-0.37286 0.568236,-0.58012 0.198967,-0.31128 0.233876,-0.48319 0.200673,-0.98823 -0.04547,-0.69158 -0.188803,-0.9328 -0.98204,-1.65271 -1.338368,-1.21466 -2.785711,-1.81553 -4.64655,-1.92901 l -1.17654,-0.0718 -0.08427,-0.34693 c -0.197119,-0.81157 -2.024731,-1.97817 -3.594501,-2.29443 -0.549344,-0.11067 -1.118841,-0.15112 -1.57916,-0.11216 -0.395978,0.0335 -4.144914,0.80291 -8.330968,1.70977 -11.210641,2.42866 -19.943479,4.17656 -21.195305,4.2423 -1.208153,0.0634 -1.479394,-0.0302 -2.792604,-0.96397 -1.859083,-1.32196 -2.949953,-2.48538 -4.782203,-5.10024 -1.17325,-1.67437 -1.57647,-2.51733 -1.71962,-3.59492 -0.18441,-1.38826 0.0667,-2.41452 1.01347,-4.14206 1.99717,-3.64412 2.80198,-6.28795 3.09933,-10.18136 0.12033,-1.57557 0.0378,-2.25206 -0.38823,-3.18345 -0.90744,-1.98372 -3.36273,-2.98537 -5.05575,-2.0625 -0.84731,0.46187 -1.35728,1.16449 -2.89938,3.99474 -2.56644,4.71022 -4.30509,7.62087 -5.91167,9.89671 -1.08774,1.54085 -1.31492,1.76384 -3.23418,3.17457 -0.87681,0.64449 -1.9876,1.49668 -2.46843,1.89376 -1.24592,1.02889 -3.62704,3.53877 -4.6841,4.93736 -0.94578,1.25136 -0.93523,1.244 -1.94982,1.35972 -3.9785,0.4538 -6.12704,0.76534 -6.61382,0.95897 -0.31463,0.12517 -0.73225,0.40727 -0.95757,0.64684 l -0.3996,0.42487 V 93.718083 -15.528428 H 69.28934 274.99225 V 148.50537 312.53917 H 69.28934 -136.41357 Z m 119.589439,29.33924 c 0.126878,-0.34054 0.272752,-0.95567 0.324167,-1.36695 0.05142,-0.41126 0.109681,-5.17667 0.12948,-10.58979 l 0.03599,-9.84203 -0.214703,-0.0326 c -0.118083,-0.0179 -0.269779,0.0379 -0.337095,0.12419 -0.24564,0.3147 -1.248103,15.91619 -1.248103,19.42454 0,1.08097 0.256358,2.46208 0.519596,2.79934 0.256933,0.32916 0.545884,0.14033 0.79067,-0.51668 z M 215.27861,288.5629 c 0.0829,-0.13533 0.24518,-0.61513 0.36072,-1.06622 0.20054,-0.78299 0.21469,-1.27735 0.31219,-10.90583 0.0562,-5.54711 0.0765,-10.15676 0.0451,-10.24365 -0.16164,-0.44787 -0.72388,-0.24508 -0.80731,0.29118 -0.2403,1.54479 -1.06809,15.49784 -1.10445,18.6165 -0.0254,2.17655 0.30103,3.55407 0.84213,3.55407 0.11052,0 0.26875,-0.11072 0.35161,-0.24605 z M 50.904025,275.56381 c 0.457556,-0.97929 0.473107,-1.29857 0.571649,-11.74268 0.05165,-5.47326 0.07241,-10.01289 0.04613,-10.08808 -0.0582,-0.16653 -0.39929,-0.18097 -0.492371,-0.0208 -0.201352,0.3464 -1.175561,16.2897 -1.17803,19.27904 -0.0013,1.61402 0.376159,3.11979 0.751238,2.99655 0.06711,-0.022 0.20273,-0.21283 0.301385,-0.42399 z m -110.965759,-2.97103 c 0.48399,-1.05339 0.481312,-1.00048 0.587821,-11.6149 0.05552,-5.53341 0.07583,-10.17146 0.04513,-10.30679 -0.06389,-0.28162 -0.466558,-0.34139 -0.656932,-0.0975 -0.122456,0.15688 -0.380003,3.27347 -0.724231,8.76394 -0.354522,5.65466 -0.443784,7.58594 -0.457415,9.89671 -0.01139,1.93151 0.01352,2.32505 0.179981,2.84325 0.344956,1.07388 0.689466,1.24695 1.025644,0.51528 z m 184.725444,-8.5256 c 0.0813,-0.13532 0.2275,-0.5167 0.3248,-0.8475 0.15902,-0.54058 0.18615,-1.63067 0.26794,-10.76906 0.05,-5.59219 0.0684,-10.23024 0.0408,-10.30679 -0.0864,-0.2393 -0.45936,-0.16204 -0.51596,0.10686 -0.0753,0.35779 -0.52976,6.88158 -0.77129,11.07228 -0.29545,5.12607 -0.40965,8.54184 -0.30896,9.24057 0.21943,1.52268 0.59691,2.11226 0.9627,1.50364 z m 60.37708,-20.63169 c 0.0981,-0.1152 0.2749,-0.52119 0.39296,-0.90218 0.20691,-0.66772 0.21744,-0.99057 0.29197,-8.94907 0.0425,-4.54101 0.0997,-9.15933 0.12707,-10.26295 0.0464,-1.87374 0.0366,-2.02051 -0.14815,-2.21696 -0.26646,-0.28331 -0.57694,-0.10653 -0.64996,0.37008 -0.25895,1.69007 -1.0753,15.46345 -1.10017,18.56182 -0.0136,1.69413 0.0103,1.99802 0.20821,2.64828 0.19266,0.63299 0.40029,0.94419 0.63857,0.95714 0.0337,0.002 0.14144,-0.0909 0.2395,-0.20616 z M 10.178428,218.04063 c 0.425312,-0.92483 0.481551,-1.67952 0.491908,-6.60096 0.0055,-2.58626 0.04533,-7.01518 0.08863,-9.84202 0.07249,-4.7321 0.04723,-5.52588 -0.175711,-5.5208 -0.362264,0.008 -0.376694,0.1122 -0.7357688,5.30208 -0.7064763,10.21088 -0.8720672,14.88913 -0.5673286,16.02813 0.3190349,1.19246 0.5623301,1.36406 0.8982734,0.63357 z M 223.16068,195.29809 c 0.44415,-0.92569 0.50466,-1.64688 0.51277,-6.11234 0.004,-2.31561 0.0458,-6.79373 0.0925,-9.95138 0.0512,-3.46169 0.0474,-5.81716 -0.009,-5.93256 -0.13173,-0.26722 -0.46573,-0.23866 -0.63963,0.0547 -0.14517,0.24488 -0.47096,4.36682 -0.83624,10.58018 -0.43514,7.40174 -0.4812,9.68901 -0.21472,10.6622 0.34376,1.25541 0.71435,1.49211 1.09479,0.69922 z m -63.72204,-17.43067 0.30855,-0.65613 0.0294,-7.32685 c 0.0162,-4.02976 0.005,-7.43214 -0.0248,-7.56083 -0.0916,-0.39482 -0.58215,-0.4493 -0.71563,-0.0795 -0.18152,0.50296 -0.98519,11.78036 -0.98576,13.83251 0,0.66831 0.0575,1.22647 0.15791,1.52919 0.39833,1.20042 0.75332,1.2759 1.2303,0.26159 z M 51.750123,143.00319 c 0.08579,-0.13921 0.243151,-0.61901 0.349705,-1.06622 0.177964,-0.74696 0.20093,-1.5472 0.282296,-9.83498 0.118032,-12.02411 0.12552,-11.05175 -0.08616,-11.19419 -0.395391,-0.26608 -0.423892,-0.0725 -0.794733,5.39833 -0.431235,6.36202 -0.723467,11.95743 -0.724485,13.87242 -0.001,1.26641 0.179866,2.34935 0.472108,2.83169 0.189021,0.31198 0.305675,0.31034 0.501268,-0.007 z m 55.825197,-3.00024 c 0.24102,-0.28832 0.44341,-0.87622 0.57413,-1.66767 0.0767,-0.4645 0.15099,-4.14024 0.21437,-10.60752 0.0928,-9.47168 0.089,-9.9054 -0.0887,-10.09906 -0.28667,-0.31236 -0.59422,-0.0811 -0.66936,0.50336 -0.26318,2.04738 -1.08271,16.2116 -1.08365,18.72927 -0.001,1.53138 0.21238,2.69981 0.56823,3.11789 0.22456,0.26384 0.28195,0.26663 0.485,0.0237 z m -208.93546,-11.89171 c 0.11094,-0.14996 0.29496,-0.65437 0.40894,-1.1209 0.19631,-0.80356 0.21271,-1.37823 0.31132,-10.90898 0.0941,-9.08957 0.0885,-10.07921 -0.0574,-10.25211 -0.19288,-0.22851 -0.24147,-0.2338 -0.47575,-0.0516 -0.20544,0.15971 -0.24986,0.57234 -0.57367,5.32807 -0.4561,6.69864 -0.72429,11.83564 -0.7252,13.89055 -7.2e-4,1.58781 0.20714,2.74849 0.5681,3.17257 0.23669,0.27807 0.30039,0.27132 0.5437,-0.0575 z m 326.59738,-0.28721 c 0.45756,-0.97929 0.47311,-1.29856 0.57165,-11.74267 0.0516,-5.47326 0.0724,-10.0129 0.0461,-10.08808 -0.0582,-0.16654 -0.39929,-0.18097 -0.49237,-0.0208 -0.20135,0.34639 -1.17556,16.28969 -1.17803,19.27903 -10e-4,1.61403 0.37616,3.11979 0.75124,2.99656 0.0671,-0.0221 0.20273,-0.21284 0.30138,-0.424 z m -246.545149,-4.52607 c 0.521405,-0.94923 0.520521,-0.93227 0.618713,-11.80515 0.0505,-5.59113 0.0689,-10.22918 0.04089,-10.30679 -0.07672,-0.21255 -0.54969,-0.17032 -0.665316,0.0594 -0.108271,0.2151 -0.395936,3.85173 -0.723734,9.14943 -0.513527,8.29921 -0.582572,11.21447 -0.288571,12.1845 0.345622,1.14037 0.663197,1.36455 1.018014,0.71861 z M 190.22374,68.949714 c 0.11093,-0.149961 0.29495,-0.654365 0.40893,-1.120898 0.19632,-0.803559 0.21272,-1.378223 0.31133,-10.908982 0.094,-9.089574 0.0885,-10.079214 -0.0574,-10.252113 -0.19288,-0.228514 -0.24148,-0.233791 -0.47576,-0.05165 -0.20543,0.15972 -0.24985,0.572348 -0.57366,5.328073 -0.45611,6.698648 -0.72429,11.83564 -0.7252,13.890561 -10e-4,1.587799 0.20714,2.748477 0.5681,3.172562 0.23669,0.27807 0.30038,0.271327 0.5437,-0.05755 z M 21.158449,61.201551 c 0.470977,-1.132051 0.487145,-1.431147 0.553711,-10.241612 0.03476,-4.601148 0.09214,-9.0846 0.127505,-9.963227 0.06193,-1.538558 0.05608,-1.606237 -0.15833,-1.834216 -0.174817,-0.185871 -0.264812,-0.212713 -0.419017,-0.124969 -0.108004,0.06146 -0.221387,0.197916 -0.251965,0.303235 -0.184238,0.63471 -0.987384,13.435064 -1.144151,18.235207 -0.05805,1.777385 -0.04352,2.052515 0.149773,2.835128 0.336478,1.362431 0.777546,1.667601 1.142474,0.790454 z M -59.096082,40.115984 c 0.126878,-0.340551 0.272755,-0.955678 0.32417,-1.366949 0.05142,-0.411272 0.10968,-5.176679 0.129476,-10.589794 l 0.03599,-9.842028 -0.214704,-0.03262 c -0.118086,-0.01794 -0.269778,0.03794 -0.337092,0.124181 -0.245648,0.314706 -1.248105,15.916186 -1.248105,19.424547 0,1.080973 0.256354,2.462079 0.519598,2.799327 0.256931,0.329162 0.545886,0.140342 0.790665,-0.516667 z M 99.841786,24.265514 c 0.444154,-0.925681 0.504664,-1.646871 0.512764,-6.112335 0.004,-2.315611 0.0458,-6.793733 0.0925,-9.9513839 0.0512,-3.4616928 0.0474,-5.8171657 -0.009,-5.9325558 -0.13173,-0.2672187 -0.465727,-0.2386681 -0.639628,0.054678 -0.145165,0.2448795 -0.470957,4.3668237 -0.836234,10.5801797 -0.435144,7.401737 -0.481201,9.689009 -0.214723,10.662197 0.34376,1.25541 0.714355,1.492102 1.094792,0.69922 z"
         id="path2349"
         inkscape:connector-curvature="0" />
      <path
         style="fill:#071d2a;stroke-width:0.10605381"
         d="m -136.41357,265.84422 c 0,-25.68223 0.037,-46.69496 0.0823,-46.69496 0.0453,0 0.13649,0.0576 0.20275,0.12808 0.17603,0.18716 0.51976,0.16252 7.1717,-0.51412 7.88414,-0.80198 7.68982,-0.80853 10.388,0.35024 l 0.71996,0.30919 11.51936,0.0578 11.519364,0.0578 2.622712,0.58101 c 3.547529,0.78587 3.382085,0.79805 7.662433,-0.56412 l 3.291247,-1.0474 7.405304,-0.94454 7.405305,-0.94454 6.531068,-0.26405 c 11.959104,-0.4835 11.354246,-0.44776 11.815637,-0.69804 0.606949,-0.32922 0.96427,-0.88604 1.019016,-1.58795 0.06929,-0.88834 -0.107382,-1.27453 -1.080377,-2.36165 -1.000691,-1.11806 -2.009218,-1.88055 -3.162563,-2.39106 -1.198138,-0.53033 -1.940113,-0.658 -4.477655,-0.77051 -4.788715,-0.2123 -5.473312,-0.255 -5.335488,-0.33279 0.07782,-0.0439 1.18286,-0.28444 2.455647,-0.53451 2.529081,-0.49688 3.084651,-0.6999 3.39479,-1.24051 0.541846,-0.94451 0.375038,-1.65287 -0.619844,-2.63224 -1.308061,-1.28764 -3.006157,-2.01961 -4.883401,-2.10496 l -1.028514,-0.0468 -0.1717,-0.42786 c -0.268405,-0.66885 -1.752497,-1.72755 -2.913844,-2.07866 -0.805659,-0.24358 -1.897067,-0.33806 -2.629367,-0.22764 -0.39082,0.0589 -4.217144,0.86656 -8.502941,1.79473 -8.133763,1.7615 -18.704293,3.91759 -20.239942,4.12836 -1.123899,0.15426 -1.630841,0.0416 -2.605378,-0.57905 -1.934749,-1.23215 -3.427399,-2.74447 -5.192589,-5.26106 -1.68036,-2.39564 -2.00028,-3.22397 -1.89079,-4.89564 0.066,-1.00805 0.28709,-1.63977 1.08026,-3.0871 1.27095,-2.31913 1.97687,-4.09138 2.49459,-6.26283 0.38716,-1.62386 0.64629,-3.87709 0.59673,-5.18888 -0.0349,-0.92481 -0.0826,-1.15342 -0.36976,-1.77362 -0.40457,-0.87378 -1.23731,-1.74159 -2.05551,-2.1421 -0.46635,-0.22828 -0.79309,-0.29926 -1.54267,-0.33517 -0.86826,-0.0416 -0.99961,-0.0203 -1.50961,0.24502 -0.83154,0.43256 -1.52742,1.31206 -2.52018,3.18519 -2.97112,5.6058 -6.31623,11.02567 -7.63478,12.37011 -0.24561,0.25044 -1.07138,0.9102 -1.83506,1.46613 -0.76367,0.55593 -1.63288,1.20256 -1.93157,1.43694 -1.74932,1.37271 -4.05397,3.7505 -5.51574,5.6908 -0.44179,0.58642 -0.86984,1.06622 -0.95122,1.06622 -0.42195,0 -6.62584,0.79268 -6.97718,0.89149 -0.59764,0.16807 -1.18884,0.51323 -1.51507,0.88454 l -0.28541,0.32486 V 93.67497 -15.528428 H 69.28934 274.99225 V 148.50537 312.53917 H 69.28934 -136.41357 Z m 119.589439,29.28964 c 0.126878,-0.34054 0.272752,-0.95567 0.324167,-1.36695 0.05142,-0.41126 0.109681,-5.17667 0.12948,-10.58979 l 0.03599,-9.84203 -0.214703,-0.0326 c -0.118083,-0.0179 -0.269779,0.0379 -0.337095,0.12419 -0.24564,0.3147 -1.248103,15.91619 -1.248103,19.42454 0,1.08097 0.256358,2.46208 0.519596,2.79934 0.256933,0.32916 0.545884,0.14033 0.79067,-0.51668 z m 232.108041,-6.54001 c 0.1007,-0.11832 0.27656,-0.5489 0.39081,-0.95687 0.19729,-0.70449 0.21169,-1.16759 0.28654,-9.21684 0.0434,-4.66129 0.1031,-9.2437 0.13279,-10.18311 0.0444,-1.40498 0.0267,-1.74937 -0.0995,-1.94106 -0.18738,-0.28444 -0.61275,-0.30481 -0.74814,-0.0358 -0.2104,0.418 -0.92634,10.98928 -1.16069,17.13846 -0.11133,2.92091 -0.10661,3.23491 0.0591,3.93681 0.25564,1.08273 0.44834,1.47355 0.72656,1.47355 0.1262,0 0.31185,-0.0968 0.41255,-0.2151 z M 50.997024,275.7404 c 0.511161,-0.93346 0.512426,-0.95788 0.614804,-11.8637 0.09024,-9.61316 0.08541,-10.2321 -0.081,-10.36147 -0.235427,-0.18304 -0.308832,-0.17428 -0.532534,0.0636 -0.210948,0.22429 -0.184577,-0.0351 -0.580134,5.70406 -0.562021,8.15418 -0.821032,13.92587 -0.670036,14.93085 0.112396,0.74807 0.348872,1.53477 0.531783,1.7691 0.182706,0.23407 0.51831,0.12063 0.717112,-0.24241 z m -111.040289,-3.01314 c 0.08946,-0.18394 0.252643,-0.70852 0.362622,-1.16572 0.181753,-0.7556 0.200503,-1.24546 0.205917,-5.37941 0.0033,-2.50146 0.04493,-6.98402 0.09256,-9.96123 0.07477,-4.67331 0.06604,-5.44766 -0.06388,-5.66587 -0.193099,-0.32432 -0.556815,-0.2794 -0.718384,0.0887 -0.239163,0.54491 -1.148178,15.01009 -1.19231,18.97324 -0.01873,1.68239 0.119852,2.57256 0.497984,3.19866 0.220901,0.36577 0.615402,0.32301 0.815491,-0.0884 z m 184.648235,-8.29023 c 0.0747,-0.0504 0.25715,-0.43099 0.40542,-0.84584 0.3114,-0.87124 0.27536,0.23064 0.43015,-13.1482 0.0524,-4.53113 0.0716,-8.30421 0.0426,-8.38461 -0.12136,-0.33626 -0.67973,-0.3138 -0.80619,0.0324 -0.14386,0.39385 -0.83749,10.86949 -1.09129,16.48123 -0.13339,2.94936 -0.0903,4.23028 0.16902,5.03037 0.26571,0.81966 0.51279,1.06216 0.85034,0.83461 z m 60.53515,-21.0381 c 0.0812,-0.13533 0.24812,-0.59053 0.37093,-1.01155 0.21933,-0.75187 0.22496,-0.94711 0.31613,-10.98091 0.0677,-7.44644 0.0619,-10.25502 -0.0212,-10.36147 -0.16655,-0.21339 -0.57957,-0.17835 -0.69919,0.0593 -0.1916,0.38063 -0.70242,7.52218 -1.08696,15.19633 -0.23844,4.7584 -0.18316,6.00464 0.31149,7.02168 0.19449,0.39988 0.59221,0.43755 0.80879,0.0766 z M 10.006841,218.62815 c 0.182963,-0.12871 0.422679,-0.69535 0.59117,-1.39746 0.124471,-0.51868 0.168131,-1.72015 0.214414,-5.90037 0.03197,-2.887 0.08487,-7.45363 0.11757,-10.14808 0.04536,-3.73816 0.03009,-4.9366 -0.06444,-5.05771 -0.171072,-0.21917 -0.585368,-0.19914 -0.702701,0.034 -0.1810292,0.35964 -0.8855617,10.82834 -1.1498385,17.08555 -0.1205316,2.85367 -0.089872,3.47655 0.224319,4.5581 0.2184257,0.75192 0.4782799,1.03085 0.7695035,0.826 z M 223.0021,195.67546 c 0.19487,-0.20718 0.30968,-0.49988 0.52954,-1.34998 0.13022,-0.50351 0.1709,-2.25762 0.24987,-10.77155 l 0.0943,-10.1701 -0.21564,-0.18979 c -0.24453,-0.21521 -0.5542,-0.11175 -0.64955,0.21701 -0.18435,0.63562 -0.88814,11.4419 -1.10563,16.9762 -0.1111,2.82713 -0.10634,3.19469 0.051,3.93929 0.18836,0.89114 0.49205,1.52992 0.72737,1.52992 0.0816,0 0.22505,-0.0814 0.31867,-0.181 z m -63.78903,-17.18323 c 0.0915,-0.10746 0.27219,-0.43962 0.40163,-0.73816 l 0.23535,-0.54278 0.0291,-7.45993 c 0.0288,-7.37529 0.0267,-7.46246 -0.17999,-7.68225 -0.25785,-0.27416 -0.36255,-0.27788 -0.60373,-0.0214 -0.14346,0.15253 -0.21737,0.50129 -0.30707,1.44897 -0.32743,3.45937 -0.83991,11.19138 -0.84065,12.68326 -0.001,1.72431 0.6905,2.98771 1.26536,2.31233 z M 51.868916,143.08668 c 0.09455,-0.15343 0.261654,-0.60862 0.371345,-1.01154 0.187478,-0.68864 0.205178,-1.33605 0.295163,-10.79332 0.05265,-5.5334 0.07215,-10.16604 0.04332,-10.29473 -0.10532,-0.47016 -0.718818,-0.39524 -0.822554,0.10046 -0.111759,0.53397 -0.647584,8.47765 -0.931156,13.80435 -0.235694,4.42742 -0.244735,6.51594 -0.03164,7.30374 0.310056,1.14625 0.712679,1.47982 1.075518,0.89104 z m 55.832644,-3.1384 c 0.0897,-0.13533 0.26217,-0.56592 0.3832,-0.95687 0.23205,-0.74951 0.23931,-1.10703 0.38857,-19.12531 0.0145,-1.74996 -0.009,-2.14894 -0.13558,-2.28332 -0.19256,-0.20474 -0.64919,-0.10009 -0.7266,0.16651 -0.1488,0.51257 -0.85671,11.41704 -1.09857,16.92256 -0.12071,2.74733 -0.0899,3.5813 0.16545,4.47699 0.29139,1.02217 0.67644,1.32291 1.02353,0.79944 z m -208.92469,-11.94766 c 0.51972,-0.94909 0.519,-0.93531 0.62024,-11.84684 0.0721,-7.76983 0.0659,-10.2439 -0.0259,-10.36146 -0.16875,-0.21619 -0.58317,-0.19263 -0.70016,0.0398 -0.28524,0.56668 -1.35706,18.56211 -1.20642,20.2553 0.0714,0.80297 0.29557,1.66522 0.53302,2.05052 0.21183,0.34374 0.54822,0.28446 0.77918,-0.13732 z m 326.55337,0 c 0.51116,-0.93346 0.51243,-0.95788 0.6148,-11.8637 0.0902,-9.61316 0.0854,-10.2321 -0.081,-10.36147 -0.23543,-0.18304 -0.30883,-0.17428 -0.53253,0.0636 -0.21095,0.22429 -0.18458,-0.035 -0.58014,5.70407 -0.56202,8.15417 -0.82103,13.92587 -0.67003,14.93085 0.11239,0.74807 0.34887,1.53476 0.53178,1.76909 0.1827,0.23408 0.51831,0.12063 0.71711,-0.24241 z m -246.500349,-4.88373 c 0.135332,-0.31058 0.294382,-0.8888 0.353439,-1.28493 0.111841,-0.75014 0.345673,-20.36078 0.246072,-20.63674 -0.08452,-0.2342 -0.538942,-0.31455 -0.715743,-0.12656 -0.179713,0.19107 -0.238431,0.79213 -0.595994,6.10019 -0.413473,6.13801 -0.569324,9.04081 -0.640353,11.92657 -0.06348,2.57968 -0.05694,2.71821 0.165468,3.49939 0.271044,0.95203 0.356812,1.08678 0.691768,1.08678 0.199841,0 0.298064,-0.11198 0.495343,-0.5647 z M 190.36075,68.8391 c 0.51971,-0.949088 0.51899,-0.935312 0.62023,-11.846839 0.0721,-7.76983 0.0659,-10.243901 -0.0259,-10.361468 -0.16874,-0.216188 -0.58316,-0.192626 -0.70016,0.03981 -0.28524,0.566675 -1.35705,18.562106 -1.20641,20.255293 0.0714,0.802967 0.29557,1.665211 0.53301,2.050521 0.21184,0.34374 0.54822,0.284459 0.77919,-0.137316 z M 21.076929,61.44497 c 0.110544,-0.157588 0.292396,-0.625084 0.404123,-1.038881 0.192281,-0.712213 0.208326,-1.297191 0.300707,-10.963031 0.073,-7.639023 0.06793,-10.248651 -0.02013,-10.361468 -0.06473,-0.08294 -0.230109,-0.150796 -0.367488,-0.150796 -0.483412,0 -0.507058,0.18359 -1.014424,7.873622 -0.298969,4.531331 -0.561929,9.902908 -0.561929,11.478541 0,2.694452 0.574703,4.137679 1.259139,3.162013 z M -59.096082,40.115984 c 0.126878,-0.340551 0.272755,-0.955678 0.32417,-1.366949 0.05142,-0.411272 0.10968,-5.176679 0.129476,-10.589794 l 0.03599,-9.842028 -0.214704,-0.03262 c -0.118086,-0.01794 -0.269778,0.03794 -0.337092,0.124181 -0.245648,0.314706 -1.248105,15.916186 -1.248105,19.424547 0,1.080973 0.256354,2.462079 0.519598,2.799327 0.256931,0.329162 0.545886,0.140342 0.790665,-0.516667 z M 99.68321,24.642883 c 0.194862,-0.207181 0.309675,-0.499881 0.52953,-1.349978 0.13022,-0.503513 0.17091,-2.25762 0.24988,-10.771553 l 0.0943,-10.1700958 -0.21563,-0.189786 c -0.24453,-0.2152124 -0.554209,-0.1117541 -0.649553,0.217009 -0.184351,0.6356201 -0.888143,11.4418948 -1.105632,16.9761928 -0.1111,2.827136 -0.106338,3.194687 0.05103,3.939291 0.188351,0.891147 0.492041,1.529924 0.727365,1.529924 0.08164,0 0.225049,-0.08145 0.318675,-0.181004 z"
         id="path2347"
         inkscape:connector-curvature="0" />
      <path
         style="fill:#08131b;stroke-width:0.10605381"
         d="m -89.924712,223.44721 c -0.141421,-0.0256 -1.321642,-0.27526 -2.622712,-0.55486 l -2.365584,-0.50835 -11.416512,-0.059 -11.41651,-0.0591 -1.57279,-0.57976 c -2.32622,-0.8575 -1.9025,-0.85646 -10.04943,-0.0244 -1.69704,0.17333 -3.674,0.3743 -4.39322,0.44661 -1.42009,0.14278 -2.24716,0.10537 -2.49441,-0.11281 -0.12614,-0.1113 -0.15769,-0.40993 -0.15769,-1.49269 0,-1.22766 0.0828,-1.63314 0.2429,-1.18953 0.09,0.24944 0.49061,0.22331 7.55347,-0.49263 7.44982,-0.75517 7.29173,-0.75609 9.22555,0.0536 0.62225,0.26054 1.40599,0.52741 1.74165,0.59305 0.41623,0.0814 4.0776,0.11936 11.51464,0.11936 h 10.904359 l 2.884561,0.61232 c 3.776772,0.80173 3.514141,0.82023 7.81638,-0.55024 l 3.286198,-1.04681 7.307502,-0.93538 c 8.019637,-1.02653 6.941711,-0.94444 18.578876,-1.41496 4.145802,-0.16764 6.881136,-0.32154 7.09675,-0.39931 0.192963,-0.0696 0.47606,-0.21922 0.629105,-0.3325 l 0.278264,-0.20596 0.158854,0.32661 c 0.197016,0.40509 0.205843,1.3213 0.01724,1.78996 -0.183112,0.45503 -0.629108,0.89577 -1.132836,1.1195 -0.437678,0.1944 -0.745397,0.21161 -10.656322,0.5963 -6.792954,0.26368 -6.936971,0.27321 -10.028017,0.66369 -13.037452,1.64702 -11.981769,1.47336 -15.273441,2.51263 -1.555629,0.49116 -3.129256,0.96145 -3.49695,1.04509 -0.636101,0.14469 -1.602893,0.18031 -2.15988,0.0796 z m 30.928307,-15.12754 c -0.83673,-0.0432 -1.54044,-0.0989 -1.5638,-0.12378 -0.02336,-0.0248 0.915793,-0.23342 2.087009,-0.46351 1.171216,-0.23009 2.314616,-0.48587 2.54089,-0.56839 0.226273,-0.0825 0.464234,-0.15076 0.528802,-0.15163 0.144085,-0.002 0.448286,0.77764 0.448286,1.14885 v 0.27118 l -1.25993,-0.017 c -0.692962,-0.009 -1.944527,-0.0524 -2.781257,-0.0957 z m -46.768445,-12.84595 c -0.15733,-0.42765 -0.079,-2.03948 0.12906,-2.65438 0.0869,-0.25699 0.48589,-1.07196 0.88655,-1.81103 1.45261,-2.67947 2.24411,-4.83008 2.79983,-7.60754 l 0.29756,-1.48718 -0.0503,1.42163 c -0.12171,3.44243 -1.03675,6.69645 -2.83095,10.06721 -0.46656,0.87654 -0.90743,1.77498 -0.97969,1.99653 l -0.1314,0.40282 z"
         id="path2345"
         inkscape:connector-curvature="0" />
    </g>
  </g>
</svg>
