<?xml version="1.0" encoding="utf-8"?>
<!-- Generator: Adobe Illustrator 16.0.0, SVG Export Plug-In . SVG Version: 6.00 Build 0)  -->
<!DOCTYPE svg PUBLIC "-//W3C//DTD SVG 1.0//EN" "http://www.w3.org/TR/2001/REC-SVG-20010904/DTD/svg10.dtd">
<svg version="1.0" id="Layer_1" xmlns="http://www.w3.org/2000/svg" xmlns:xlink="http://www.w3.org/1999/xlink" x="0px" y="0px"
	 width="386.833px" height="90.19px" viewBox="0 0 386.833 90.19" enable-background="new 0 0 386.833 90.19" xml:space="preserve">
<g>
	<g>
		<path fill="#C4C8C8" d="M345.839,90.19H40.994C18.354,90.19,0,71.836,0,49.197v-0.001C0,26.556,18.354,8.203,40.994,8.203h304.846
			c22.64,0,40.993,18.354,40.993,40.993v0.001C386.833,71.836,368.479,90.19,345.839,90.19z"/>
		<path fill="#F6F5F5" d="M345.839,81.988H40.994C18.354,81.988,0,63.634,0,40.994l0,0C0,18.354,18.354,0,40.994,0h304.846
			c22.64,0,40.993,18.354,40.993,40.994l0,0C386.833,63.634,368.479,81.988,345.839,81.988z"/>
		<path fill="#EEEDEC" d="M345.839,85.339H40.994C18.354,85.339,0,66.986,0,44.346l0,0C0,21.706,18.354,3.352,40.994,3.352h304.846
			c22.64,0,40.993,18.354,40.993,40.994l0,0C386.833,66.986,368.479,85.339,345.839,85.339z"/>
		<g>
			<g>
				<path fill="#C4C8C8" d="M101.719,29.775c1.98-0.405,4.815-0.63,7.515-0.63c4.185,0,6.885,0.765,8.774,2.475
					c1.53,1.35,2.385,3.42,2.385,5.76c0,4.005-2.52,6.66-5.715,7.74v0.135c2.34,0.811,3.735,2.97,4.455,6.119
					c0.99,4.23,1.71,7.155,2.34,8.325h-4.05c-0.495-0.854-1.17-3.465-2.025-7.245c-0.9-4.185-2.52-5.76-6.075-5.895h-3.69v13.14
					h-3.915V29.775z M105.634,43.589h4.005c4.185,0,6.84-2.295,6.84-5.76c0-3.915-2.835-5.625-6.975-5.67
					c-1.89,0-3.24,0.18-3.87,0.36V43.589z"/>
				<path fill="#C4C8C8" d="M141.633,45.479h-11.79v10.936h13.14v3.284h-17.054V29.37h16.379v3.285h-12.465v9.584h11.79V45.479z"/>
				<path fill="#C4C8C8" d="M151.983,29.37v30.329h-3.915V29.37H151.983z"/>
				<path fill="#C4C8C8" d="M158.823,59.699V29.37h4.275l9.719,15.344c2.25,3.555,4.005,6.749,5.445,9.854l0.09-0.045
					c-0.359-4.05-0.449-7.74-0.449-12.465V29.37h3.689v30.329h-3.96l-9.629-15.39c-2.115-3.375-4.14-6.84-5.67-10.125l-0.135,0.045
					c0.225,3.825,0.315,7.47,0.315,12.509v12.96H158.823z"/>
				<path fill="#C4C8C8" d="M192.348,29.37v30.329h-3.915V29.37H192.348z"/>
				<path fill="#C4C8C8" d="M220.382,58.709c-1.44,0.719-4.32,1.439-8.01,1.439c-8.55,0-14.984-5.4-14.984-15.345
					c0-9.495,6.435-15.929,15.839-15.929c3.78,0,6.165,0.81,7.2,1.35l-0.945,3.195c-1.484-0.72-3.6-1.26-6.119-1.26
					c-7.11,0-11.835,4.545-11.835,12.51c0,7.425,4.274,12.194,11.654,12.194c2.385,0,4.815-0.495,6.39-1.26L220.382,58.709z"/>
				<path fill="#C4C8C8" d="M229.203,29.37v30.329h-3.915V29.37H229.203z"/>
				<path fill="#C4C8C8" d="M240.947,50.159l-3.149,9.54h-4.05l10.305-30.329h4.725l10.35,30.329h-4.185l-3.24-9.54H240.947z
					 M250.892,47.099l-2.97-8.729c-0.676-1.98-1.125-3.779-1.575-5.535h-0.09c-0.45,1.8-0.945,3.644-1.53,5.49l-2.97,8.774H250.892z
					"/>
				<path fill="#C4C8C8" d="M263.583,29.775c1.979-0.405,4.814-0.63,7.515-0.63c4.185,0,6.885,0.765,8.774,2.475
					c1.53,1.35,2.385,3.42,2.385,5.76c0,4.005-2.52,6.66-5.715,7.74v0.135c2.34,0.811,3.735,2.97,4.455,6.119
					c0.99,4.23,1.71,7.155,2.34,8.325h-4.05c-0.495-0.854-1.17-3.465-2.024-7.245c-0.9-4.185-2.521-5.76-6.075-5.895h-3.689v13.14
					h-3.915V29.775z M267.498,43.589h4.005c4.185,0,6.84-2.295,6.84-5.76c0-3.915-2.835-5.625-6.976-5.67
					c-1.89,0-3.239,0.18-3.869,0.36V43.589z"/>
			</g>
		</g>
	</g>
</g>
</svg>
