<?xml version="1.0" encoding="utf-8"?>
<!-- Generator: Adobe Illustrator 16.0.0, SVG Export Plug-In . SVG Version: 6.00 Build 0)  -->
<!DOCTYPE svg PUBLIC "-//W3C//DTD SVG 1.1//EN" "http://www.w3.org/Graphics/SVG/1.1/DTD/svg11.dtd">
<svg version="1.1" xmlns="http://www.w3.org/2000/svg" xmlns:xlink="http://www.w3.org/1999/xlink" x="0px" y="0px"
	 width="112.434px" height="386.424px" viewBox="0 0 112.434 386.424" enable-background="new 0 0 112.434 386.424"
	 xml:space="preserve">
<g id="left_x5F_leg">
	<g>
		<g>
			<path fill-rule="evenodd" clip-rule="evenodd" d="M21.345,204.013c11.438,0,22.876,0,34.314,0
				c0.003,2.261-0.087,4.515-0.313,6.768c-0.292,2.896-1.104,5.658-2.05,8.39c-1.74,5.02-2.89,10.139-2.895,15.49
				c-0.004,4.537-0.231,9.063-0.704,13.585c-0.218,2.084-0.373,4.188-0.555,6.283c-0.073,0.829-0.161,1.661-0.271,2.485
				c-0.25,1.876-0.41,3.759-0.802,5.622c-0.515,2.451-0.934,4.92-1.734,7.301c-0.925,2.749-2.104,5.403-3.048,8.147
				c-0.949,2.759-1.035,5.488-0.107,8.255c0.168,0.502,0.412,0.978,0.509,1.507c0.32,1.754,0.688,3.499,0.972,5.258
				c0.383,2.366,0.454,4.758,0.491,7.151c0.061,4.013-0.12,8.009-0.675,11.987c-0.215,1.545-0.598,3.045-0.967,4.556
				c-0.396,1.618-0.668,3.265-0.795,4.938c-0.12,1.585-0.377,3.159-0.39,4.755c-0.051,6.55-0.167,13.101,0.239,19.645
				c0.079,1.268,0.294,2.511,0.896,3.675c0.59,1.142,1.134,2.301,1.571,3.526c0.807,2.262,0.548,4.441-0.15,6.629
				c-0.256,0.802-0.411,1.611-0.511,2.441c-0.296,2.45,0.343,4.837,0.551,7.246c0.177,2.046,0.315,4.081,0.342,6.132
				c0.029,2.217-0.278,4.379-0.889,6.504c-0.252,0.878-0.822,1.654-1.63,1.849c-1.205,0.289-2.501,0.29-3.612-0.51
				c-0.27-0.193-0.541-0.328-0.887-0.326c-3.149,0.017-6.302,0.165-9.429-0.415c-1.323-0.245-2.667-0.371-3.87-1.051
				c-0.312-0.177-0.593-0.38-0.61-0.762c-0.036-0.796-0.091-1.596,0.049-2.388c0.41-2.323,1.142-4.558,1.916-6.778
				c0.611-1.755,1.134-3.546,1.846-5.258c0.84-2.021,1.25-4.092,1.177-6.267c-0.053-1.558,0.509-2.941,1.235-4.265
				c0.257-0.468,0.438-0.918,0.404-1.45c-0.179-2.818-0.339-5.634-0.721-8.441c-0.381-2.799-0.743-5.601-1.212-8.385
				c-0.555-3.288-1.163-6.567-1.969-9.809c-0.644-2.586-1.476-5.096-2.575-7.522c-0.916-2.021-1.808-4.069-2.347-6.22
				c-0.779-3.113-1.319-6.277-1.32-9.506c-0.001-4.958,0.003-9.917-0.005-14.875c-0.001-0.644-0.127-1.29-0.085-1.928
				c0.107-1.608,0.275-3.212,0.421-4.816c0.395-4.349,1.142-8.646,1.882-12.944c0.396-2.297,0.894-4.587,0.87-6.934
				c-0.032-3.226,0.021-6.448-0.199-9.675c-0.205-2.986-0.292-5.982-0.471-8.973c-0.162-2.705-0.292-5.413-0.451-8.119
				c-0.166-2.819-0.299-5.641-0.459-8.461c-0.168-2.971-0.238-5.947-0.468-8.916c-0.134-1.739-0.07-3.484-0.198-5.23
				c-0.225-3.084-0.309-6.182-0.267-9.278C21.389,204.428,21.359,204.22,21.345,204.013z"/>
			<path fill-rule="evenodd" clip-rule="evenodd" fill="none" d="M21.345,204.013c0.015,0.207,0.044,0.415,0.042,0.623
				c-0.042,3.097,0.042,6.194,0.267,9.278c0.127,1.746,0.063,3.491,0.198,5.23c0.229,2.969,0.3,5.945,0.468,8.916
				c0.16,2.82,0.293,5.642,0.459,8.461c0.159,2.706,0.289,5.414,0.451,8.119c0.179,2.99,0.267,5.986,0.471,8.973
				c0.221,3.227,0.167,6.449,0.199,9.675c0.024,2.347-0.474,4.637-0.87,6.934c-0.74,4.299-1.487,8.596-1.882,12.944
				c-0.146,1.604-0.314,3.208-0.421,4.816c-0.042,0.638,0.084,1.284,0.085,1.928c0.008,4.958,0.003,9.917,0.005,14.875
				c0.001,3.229,0.541,6.393,1.32,9.506c0.539,2.15,1.431,4.198,2.347,6.22c1.1,2.427,1.932,4.937,2.575,7.522
				c0.806,3.241,1.415,6.521,1.969,9.809c0.469,2.784,0.832,5.586,1.212,8.385c0.381,2.808,0.542,5.623,0.721,8.441
				c0.034,0.532-0.147,0.982-0.404,1.45c-0.727,1.323-1.288,2.707-1.235,4.265c0.073,2.175-0.337,4.245-1.177,6.267
				c-0.712,1.712-1.235,3.503-1.846,5.258c-0.774,2.221-1.506,4.455-1.916,6.778c-0.14,0.792-0.085,1.592-0.049,2.388
				c0.018,0.382,0.298,0.585,0.61,0.762c1.203,0.68,2.547,0.806,3.87,1.051c3.126,0.58,6.279,0.432,9.429,0.415
				c0.346-0.002,0.618,0.133,0.887,0.326c1.111,0.8,2.407,0.799,3.612,0.51c0.808-0.194,1.377-0.971,1.63-1.849
				c0.611-2.125,0.918-4.287,0.889-6.504c-0.027-2.051-0.165-4.086-0.342-6.132c-0.208-2.409-0.847-4.796-0.551-7.246
				c0.101-0.83,0.255-1.64,0.511-2.441c0.698-2.188,0.957-4.367,0.15-6.629c-0.437-1.226-0.981-2.385-1.571-3.526
				c-0.602-1.164-0.817-2.407-0.896-3.675c-0.406-6.544-0.29-13.095-0.239-19.645c0.013-1.596,0.27-3.17,0.39-4.755
				c0.127-1.673,0.399-3.319,0.795-4.938c0.37-1.511,0.752-3.011,0.967-4.556c0.555-3.979,0.736-7.975,0.675-11.987
				c-0.037-2.394-0.108-4.785-0.491-7.151c-0.285-1.759-0.652-3.504-0.972-5.258c-0.097-0.529-0.34-1.005-0.509-1.507
				c-0.928-2.767-0.842-5.496,0.107-8.255c0.945-2.744,2.124-5.398,3.048-8.147c0.801-2.381,1.219-4.85,1.734-7.301
				c0.392-1.863,0.553-3.746,0.802-5.622c0.11-0.824,0.198-1.656,0.271-2.485c0.183-2.095,0.337-4.199,0.555-6.283
				c0.473-4.522,0.7-9.048,0.704-13.585c0.005-5.352,1.155-10.471,2.895-15.49c0.947-2.731,1.758-5.493,2.05-8.39
				c0.227-2.253,0.317-4.507,0.313-6.768c0.584-0.129,0.7,0.099,0.7,0.684C56.342,265.098,56.342,325.5,56.354,385.9
				c0,0.428-0.096,0.524-0.523,0.524c-12.141-0.014-24.282-0.014-36.423,0c-0.39,0-0.467-0.077-0.466-0.467
				c0.011-60.496,0.011-120.992,0-181.488c0-0.391,0.073-0.493,0.467-0.468C20.051,204.043,20.699,204.013,21.345,204.013z"/>
		</g>
	</g>
</g>
<g id="right_x5F_leg">
	<g>
		<g>
			<path fill-rule="evenodd" clip-rule="evenodd" d="M57.247,203.748c11.438,0,22.876,0,34.313,0
				c0.033,3.42-0.051,6.838-0.185,10.254c-0.121,3.093-0.273,6.184-0.423,9.275c-0.116,2.427-0.242,4.854-0.373,7.28
				c-0.135,2.483-0.284,4.966-0.421,7.449c-0.129,2.332-0.251,4.663-0.374,6.995c-0.144,2.692-0.295,5.384-0.424,8.076
				c-0.102,2.124-0.146,4.251-0.268,6.374c-0.147,2.588-0.083,5.159,0.327,7.724c0.627,3.917,1.371,7.813,1.913,11.745
				c0.783,5.691,1.111,11.411,1.201,17.146c0.051,3.267-0.079,6.53-0.308,9.791c-0.326,4.662-1.241,9.176-3.21,13.442
				c-1.573,3.41-2.771,6.943-3.544,10.624c-1.596,7.589-2.745,15.241-3.385,22.971c-0.105,1.28-0.053,2.505,0.677,3.666
				c0.686,1.091,0.949,2.331,0.936,3.646c-0.023,2.164,0.375,4.249,1.173,6.283c1.15,2.934,2.203,5.908,3.058,8.945
				c0.446,1.59,0.897,3.18,0.875,4.858c-0.01,0.686-0.291,1.155-0.896,1.458c-0.547,0.274-1.121,0.474-1.717,0.6
				c-3.667,0.772-7.381,0.884-11.109,0.737c-0.456-0.018-0.847-0.011-1.197,0.346c-0.34,0.348-0.807,0.534-1.279,0.579
				c-2.729,0.26-3.52,0.101-4.297-2.625c-0.381-1.338-0.477-2.721-0.568-4.106c-0.199-3.006,0.021-5.992,0.339-8.977
				c0.144-1.356,0.369-2.706,0.486-4.065c0.171-1.987-0.361-3.874-0.921-5.756c-0.292-0.98-0.53-1.974-0.373-3.023
				c0.301-2.022,1.075-3.873,2.024-5.655c0.592-1.112,0.908-2.275,0.981-3.529c0.224-3.811,0.367-7.623,0.424-11.438
				c0.052-3.438-0.047-6.872-0.287-10.304c-0.166-2.368-0.36-4.734-0.907-7.046c-1.234-5.22-1.701-10.518-1.727-15.865
				c-0.011-2.317,0.118-4.628,0.322-6.937c0.265-2.976,0.733-5.905,1.686-8.751c0.465-1.393,0.648-2.836,0.538-4.32
				c-0.145-1.961-0.764-3.787-1.471-5.593c-1.03-2.634-2.172-5.228-2.909-7.966c-1.08-4.006-1.588-8.109-2.069-12.219
				c-0.516-4.411-0.85-8.837-1.094-13.269c-0.164-2.975-0.279-5.955-0.26-8.938c0.012-1.861-0.212-3.71-0.514-5.548
				c-0.541-3.29-1.521-6.464-2.62-9.6c-1.229-3.505-1.866-7.104-2.021-10.811C57.316,206.365,57.364,205.053,57.247,203.748z"/>
			<path fill-rule="evenodd" clip-rule="evenodd" fill="none" d="M57.247,203.748c0.117,1.306,0.069,2.617,0.124,3.926
				c0.154,3.707,0.791,7.306,2.021,10.811c1.1,3.136,2.079,6.31,2.62,9.6c0.302,1.838,0.525,3.687,0.514,5.548
				c-0.02,2.983,0.096,5.964,0.26,8.938c0.244,4.432,0.578,8.857,1.094,13.269c0.481,4.109,0.989,8.213,2.069,12.219
				c0.737,2.738,1.879,5.332,2.909,7.966c0.707,1.806,1.326,3.632,1.471,5.593c0.11,1.484-0.073,2.928-0.538,4.32
				c-0.952,2.846-1.421,5.775-1.686,8.751c-0.204,2.309-0.333,4.619-0.322,6.937c0.025,5.348,0.492,10.646,1.727,15.865
				c0.547,2.312,0.741,4.678,0.907,7.046c0.24,3.432,0.339,6.866,0.287,10.304c-0.057,3.815-0.2,7.628-0.424,11.438
				c-0.073,1.254-0.39,2.417-0.981,3.529c-0.949,1.782-1.724,3.633-2.024,5.655c-0.157,1.05,0.081,2.043,0.373,3.023
				c0.56,1.882,1.092,3.769,0.921,5.756c-0.117,1.359-0.343,2.709-0.486,4.065c-0.317,2.984-0.538,5.971-0.339,8.977
				c0.092,1.386,0.188,2.769,0.568,4.106c0.777,2.726,1.568,2.885,4.297,2.625c0.473-0.045,0.939-0.231,1.279-0.579
				c0.351-0.356,0.741-0.363,1.197-0.346c3.729,0.146,7.442,0.035,11.109-0.737c0.596-0.126,1.17-0.325,1.717-0.6
				c0.605-0.303,0.887-0.772,0.896-1.458c0.022-1.679-0.429-3.269-0.875-4.858c-0.854-3.037-1.907-6.012-3.058-8.945
				c-0.798-2.034-1.196-4.119-1.173-6.283c0.014-1.315-0.25-2.556-0.936-3.646c-0.729-1.161-0.782-2.386-0.677-3.666
				c0.64-7.729,1.789-15.382,3.385-22.971c0.773-3.681,1.971-7.214,3.544-10.624c1.969-4.267,2.884-8.78,3.21-13.442
				c0.229-3.261,0.358-6.524,0.308-9.791c-0.09-5.735-0.418-11.455-1.201-17.146c-0.542-3.932-1.286-7.828-1.913-11.745
				c-0.41-2.564-0.475-5.136-0.327-7.724c0.121-2.123,0.166-4.25,0.268-6.374c0.129-2.692,0.28-5.384,0.424-8.076
				c0.123-2.332,0.245-4.663,0.374-6.995c0.137-2.483,0.286-4.966,0.421-7.449c0.131-2.426,0.257-4.854,0.373-7.28
				c0.149-3.092,0.302-6.183,0.423-9.275c0.134-3.416,0.218-6.834,0.185-10.254c0.932,0,1.862,0.011,2.793-0.008
				c0.246-0.005,0.336,0.047,0.287,0.293c-0.014,0.073-0.002,0.151-0.002,0.228c0,60.458-0.001,120.916,0.011,181.374
				c0,0.428-0.096,0.524-0.523,0.524c-12.598-0.014-25.194-0.014-37.792,0c-0.39,0-0.467-0.077-0.466-0.467
				c0.011-60.496,0.011-120.992,0-181.488c0-0.391,0.073-0.518,0.468-0.464C56.634,203.78,56.942,203.748,57.247,203.748z"/>
		</g>
	</g>
</g>
<g id="head">
	<g>
		<g>
			<path fill-rule="evenodd" clip-rule="evenodd" d="M69.351,60.192c-8.701,0-17.404,0-26.105,0c0.331-0.41,0.479-0.903,0.602-1.4
				c0.358-1.443,0.422-2.92,0.51-4.398c0.153-2.548-0.016-5.084-0.176-7.623c-0.013-0.201-0.093-0.361-0.242-0.497
				c-1.175-1.064-1.863-2.426-2.391-3.889c-0.589-1.634-0.859-3.34-1.14-5.042c-0.059-0.353-0.111-0.516-0.529-0.34
				c-0.494,0.208-1.101-0.078-1.403-0.585c-0.215-0.362-0.344-0.761-0.439-1.168c-0.624-2.676-0.815-5.395-0.791-8.134
				c0.011-1.165,0.251-1.445,1.41-1.531c0.396-0.029,0.512-0.15,0.456-0.564c-0.27-1.992-0.508-3.989-0.496-6.004
				c0.008-1.271-0.022-2.541,0.099-3.812c0.189-1.974,0.507-3.912,1.255-5.758c1.344-3.315,3.917-5.343,7.116-6.661
				c3.778-1.557,7.726-1.993,11.777-1.618c2.61,0.242,5.13,0.842,7.506,1.961c2.976,1.402,5.282,3.472,6.478,6.628
				c0.707,1.866,1.018,3.814,1.17,5.787c0.24,3.098,0.029,6.183-0.408,9.252c-0.069,0.486,0.011,0.733,0.573,0.78
				c0.85,0.071,1.114,0.371,1.221,1.213c0.048,0.376,0.097,0.758,0.08,1.134c-0.094,2.047-0.186,4.096-0.553,6.119
				c-0.143,0.786-0.287,1.573-0.659,2.291c-0.3,0.578-0.957,0.934-1.454,0.703c-0.505-0.235-0.554,0.035-0.586,0.392
				c-0.089,1.005-0.267,1.996-0.504,2.974c-0.52,2.142-1.216,4.202-2.876,5.78c-0.329,0.313-0.37,0.73-0.398,1.154
				c-0.156,2.351-0.182,4.707-0.11,7.06C68.402,56.368,68.513,58.348,69.351,60.192z"/>
			<path fill-rule="evenodd" clip-rule="evenodd" fill="none" d="M69.351,60.192c-0.838-1.844-0.948-3.824-1.009-5.795
				c-0.071-2.353-0.046-4.708,0.11-7.06c0.028-0.424,0.069-0.842,0.398-1.154c1.66-1.578,2.356-3.638,2.876-5.78
				c0.237-0.978,0.415-1.969,0.504-2.974c0.032-0.357,0.081-0.627,0.586-0.392c0.497,0.231,1.154-0.125,1.454-0.703
				c0.372-0.718,0.517-1.505,0.659-2.291c0.367-2.023,0.459-4.072,0.553-6.119c0.017-0.376-0.032-0.758-0.08-1.134
				c-0.106-0.842-0.371-1.142-1.221-1.213c-0.563-0.047-0.643-0.294-0.573-0.78c0.438-3.07,0.648-6.154,0.408-9.252
				c-0.152-1.973-0.463-3.92-1.17-5.787c-1.195-3.156-3.502-5.226-6.478-6.628c-2.376-1.119-4.896-1.72-7.506-1.961
				c-4.052-0.375-7.999,0.061-11.777,1.618c-3.199,1.318-5.771,3.346-7.116,6.661c-0.748,1.846-1.066,3.784-1.255,5.758
				c-0.122,1.271-0.091,2.541-0.099,3.812c-0.012,2.015,0.226,4.012,0.496,6.004c0.056,0.414-0.061,0.535-0.456,0.564
				c-1.159,0.085-1.399,0.366-1.41,1.531c-0.025,2.74,0.167,5.458,0.791,8.134c0.095,0.408,0.224,0.807,0.439,1.168
				c0.302,0.507,0.909,0.793,1.403,0.585c0.417-0.176,0.47-0.013,0.529,0.34c0.281,1.702,0.551,3.408,1.14,5.042
				c0.528,1.463,1.216,2.825,2.391,3.889c0.149,0.135,0.229,0.296,0.242,0.497c0.161,2.539,0.329,5.074,0.176,7.623
				c-0.088,1.478-0.152,2.955-0.51,4.398c-0.123,0.497-0.271,0.99-0.602,1.4c-2.204,0-4.407-0.012-6.61,0.012
				c-0.386,0.004-0.47-0.07-0.469-0.465c0.013-15.063,0.011-30.125,0.011-45.187c0-4.673,0.006-9.345-0.01-14.018
				c-0.001-0.373,0.105-0.429,0.445-0.428c13.467,0.009,26.934,0.009,40.399,0c0.341,0,0.444,0.057,0.444,0.428
				c-0.012,19.754-0.011,39.508,0,59.261c0,0.347-0.079,0.408-0.411,0.405C74.479,60.185,71.915,60.192,69.351,60.192z"/>
		</g>
	</g>
</g>
<g id="body">
	<g>
		<g>
			<path fill-rule="evenodd" clip-rule="evenodd" d="M43.098,59.599c8.778,0,17.556,0,26.333,0c0.516,0.745,1.281,1.181,2.039,1.612
				c2.717,1.546,5.627,2.662,8.55,3.738c1.951,0.718,3.867,1.589,6.041,1.452c0.672-0.042,0.765,0.16,0.765,0.9
				c0.001,10.335,0.042,20.671-0.021,31.005c-0.023,3.843,0.276,7.689-0.231,11.534c-0.36,2.729-0.068,5.502-0.255,8.252
				c-0.181,2.68-0.425,5.358-1.314,7.9c-1.063,3.041-1.66,6.136-1.817,9.354c-0.143,2.916,0.04,5.809,0.318,8.697
				c0.34,3.519,1.042,6.979,1.766,10.44c1.588,7.607,2.597,15.313,3.656,23.006c0.567,4.119,1.072,8.246,1.56,12.375
				c0.324,2.752,0.588,5.511,0.84,8.271c0.183,2.003,0.302,4.011,0.45,6.017c-23.637,0-47.272,0-70.908,0
				c0.136-2.252,0.263-4.505,0.495-6.75c0.245-2.376,0.456-4.755,0.726-7.127c0.302-2.655,0.644-5.306,0.986-7.957
				c0.383-2.97,0.765-5.94,1.186-8.905c0.458-3.228,0.941-6.452,1.447-9.672c0.498-3.165,0.962-6.338,1.689-9.46
				c0.953-4.09,1.614-8.224,1.926-12.408c0.192-2.574,0.223-5.156,0.039-7.739c-0.169-2.378-0.532-4.71-1.351-6.957
				c-0.619-1.7-1.026-3.45-1.304-5.237c-0.333-2.143-0.428-4.302-0.513-6.462c-0.096-2.461,0.072-4.936-0.378-7.378
				c0-13.546,0-27.092,0-40.638c0-1.01,0.07-1.072,1.112-1.094c0.776-0.016,1.559,0.022,2.313-0.234
				c2.571-0.874,5.123-1.799,7.622-2.863c1.851-0.789,3.705-1.583,5.36-2.751C42.568,60.275,42.991,60.079,43.098,59.599z"/>
			<path fill-rule="evenodd" clip-rule="evenodd" fill="none" d="M43.098,59.599c-0.107,0.48-0.53,0.677-0.875,0.919
				c-1.655,1.168-3.509,1.962-5.36,2.751c-2.499,1.064-5.05,1.99-7.622,2.863c-0.754,0.256-1.537,0.218-2.313,0.234
				c-1.042,0.022-1.112,0.083-1.112,1.094c0,13.546,0,27.092,0,40.638c0.45,2.443,0.282,4.917,0.378,7.378
				c0.085,2.16,0.18,4.319,0.513,6.462c0.277,1.788,0.685,3.537,1.304,5.237c0.818,2.247,1.181,4.579,1.351,6.957
				c0.184,2.583,0.154,5.165-0.039,7.739c-0.313,4.184-0.974,8.318-1.926,12.408c-0.728,3.122-1.191,6.295-1.689,9.46
				c-0.506,3.221-0.99,6.445-1.447,9.672c-0.421,2.965-0.803,5.935-1.186,8.905c-0.342,2.65-0.684,5.301-0.986,7.957
				c-0.27,2.373-0.481,4.751-0.726,7.127c-0.231,2.245-0.358,4.498-0.495,6.75c-0.57,0-1.141-0.012-1.71,0.007
				c-0.199,0.006-0.267-0.036-0.231-0.235c0.017-0.092,0.002-0.189,0.002-0.284c0-47.842,0.001-95.684-0.01-143.526
				c0-0.427,0.096-0.525,0.523-0.524C27.328,59.603,35.213,59.599,43.098,59.599z"/>
			<path fill-rule="evenodd" clip-rule="evenodd" fill="none" d="M91.776,204.151c-0.148-2.006-0.268-4.014-0.45-6.017
				c-0.252-2.76-0.516-5.519-0.84-8.271c-0.487-4.129-0.992-8.256-1.56-12.375c-1.06-7.694-2.068-15.399-3.656-23.006
				c-0.724-3.461-1.426-6.922-1.766-10.44c-0.278-2.888-0.461-5.781-0.318-8.697c0.157-3.218,0.754-6.313,1.817-9.354
				c0.89-2.542,1.134-5.22,1.314-7.9c0.187-2.75-0.105-5.522,0.255-8.252c0.508-3.845,0.208-7.691,0.231-11.534
				c0.063-10.334,0.022-20.67,0.021-31.005c0-0.74-0.093-0.942-0.765-0.9c-2.174,0.137-4.09-0.734-6.041-1.452
				c-2.923-1.076-5.833-2.191-8.55-3.738c-0.758-0.431-1.523-0.867-2.039-1.612c7.901,0,15.803,0.003,23.704-0.009
				c0.373-0.001,0.476,0.051,0.476,0.457c-0.012,47.883-0.012,95.767,0,143.649c0,0.392-0.075,0.503-0.469,0.466
				C92.69,204.118,92.232,204.151,91.776,204.151z"/>
		</g>
	</g>
</g>
<g id="right_x5F_arm">
	<g>
		<g>
			<path fill-rule="evenodd" clip-rule="evenodd" d="M85.975,109.64c0-14.288,0-28.576,0-42.864c0.183,0.049,0.363,0.122,0.55,0.143
				c1.378,0.159,2.729,0.453,4.065,0.82c6.435,1.77,11.139,5.516,13.669,11.828c1.644,4.1,2.209,8.384,2.45,12.743
				c0.101,1.818,0.206,3.635,0.431,5.445c0.185,1.488,0.796,2.849,1.157,4.281c0.801,3.17,0.907,6.426,1.01,9.665
				c0.122,3.833,0.066,7.672-0.101,11.506c-0.064,1.478-0.226,2.951-0.31,4.428c-0.075,1.33-0.386,2.634-0.45,3.958
				c-0.184,3.793,0.262,7.505,1.604,11.084c0.085,0.228,0.146,0.473,0.174,0.715c0.336,2.845,0.055,5.691-0.027,8.535
				c-0.08,2.749-0.265,5.495-0.403,8.242c-0.083,1.63-0.157,3.26-0.254,4.889c-0.136,2.272-0.299,4.543-0.43,6.815
				c-0.133,2.292-0.205,4.588-0.366,6.877c-0.254,3.597-0.366,7.201-0.54,10.802c-0.167,3.45,0.415,6.851,0.723,10.27
				c0.188,2.097,0.448,4.188,0.63,6.286c0.209,2.399,0.371,4.804,0.545,7.207c0.064,0.893,0.127,1.806-0.25,2.64
				c-1.251,2.771-2.517,5.536-4.153,8.108c-1.114,1.751-2.216,3.572-4.012,4.676c-1.637,1.005-3.374,1.87-5.146,2.641
				c-0.173,0.075-0.36,0.125-0.547,0.155c-0.204,0.034-0.417,0.057-0.621,0.039c-0.732-0.064-1.146-0.657-0.949-1.365
				c0.081-0.29,0.199-0.573,0.33-0.846c0.145-0.298,0.097-0.435-0.249-0.514c-1.13-0.26-1.231-0.546-0.567-1.487
				c0.044-0.062,0.094-0.12,0.14-0.181c1.021-1.353,2.229-2.538,3.364-3.788c0.114-0.126,0.302-0.219,0.295-0.489
				c-0.795,0.24-1.562,0.376-2.343,0.228c-0.785-0.15-0.938-0.58-0.434-1.19c0.157-0.189,0.328-0.372,0.518-0.527
				c0.775-0.64,1.56-1.271,2.344-1.899c1.509-1.21,3.128-2.304,4.335-3.844c1.186-1.511,1.553-3.192,0.797-5.018
				c-0.389-0.937-0.556-0.977-1.443-0.542c-0.205,0.101-0.403,0.217-0.615,0.299c-0.497,0.193-0.773,0.543-0.942,1.055
				c-0.369,1.118-0.749,2.234-1.243,3.306c-0.39,0.844-0.736,1.715-1.346,2.437c-0.494,0.586-1.066,0.763-1.723,0.531
				c-0.615-0.217-0.778-0.758-0.829-1.317c-0.132-1.462,0-2.917,0.16-4.371c0.129-1.176,0.427-2.331,0.065-3.545
				c-0.429-1.437-0.578-2.934-0.628-4.438c-0.052-1.581,0.223-3.059,1.175-4.366c0.479-0.66,0.938-1.337,1.396-2.012
				c0.719-1.056,1.059-2.236,0.972-3.5c-0.081-1.173-0.328-2.328-0.595-3.473c-1.324-5.668-2.649-11.337-3.988-17.002
				c-1.003-4.239-1.734-8.515-1.632-12.889c0.069-2.94,0.173-5.882,0.349-8.818c0.194-3.26,0.384-6.518,0.317-9.785
				c-0.018-0.916-0.179-1.8-0.515-2.664c-1.487-3.826-2.241-7.829-2.786-11.877c-0.303-2.24-0.254-4.504-0.444-6.753
				c-0.24-2.841-0.677-5.646-1.426-8.396C86.954,111.519,86.718,110.463,85.975,109.64z"/>
			<path fill-rule="evenodd" clip-rule="evenodd" fill="none" d="M85.975,109.64c0.743,0.823,0.979,1.879,1.257,2.895
				c0.749,2.75,1.186,5.554,1.426,8.396c0.19,2.249,0.142,4.513,0.444,6.753c0.545,4.049,1.299,8.051,2.786,11.877
				c0.336,0.864,0.497,1.749,0.515,2.664c0.066,3.267-0.123,6.525-0.317,9.785c-0.176,2.936-0.279,5.877-0.349,8.818
				c-0.103,4.374,0.629,8.649,1.632,12.889c1.339,5.665,2.664,11.333,3.988,17.002c0.267,1.145,0.514,2.3,0.595,3.473
				c0.087,1.264-0.253,2.444-0.972,3.5c-0.459,0.675-0.917,1.352-1.396,2.012c-0.952,1.308-1.227,2.785-1.175,4.366
				c0.05,1.504,0.199,3.001,0.628,4.438c0.361,1.214,0.063,2.369-0.065,3.545c-0.16,1.454-0.292,2.909-0.16,4.371
				c0.051,0.56,0.214,1.101,0.829,1.317c0.656,0.231,1.229,0.055,1.723-0.531c0.609-0.722,0.956-1.593,1.346-2.437
				c0.494-1.071,0.874-2.188,1.243-3.306c0.169-0.512,0.445-0.861,0.942-1.055c0.212-0.082,0.41-0.198,0.615-0.299
				c0.888-0.435,1.055-0.395,1.443,0.542c0.756,1.825,0.389,3.507-0.797,5.018c-1.207,1.54-2.826,2.634-4.335,3.844
				c-0.784,0.629-1.568,1.26-2.344,1.899c-0.189,0.155-0.36,0.338-0.518,0.527c-0.504,0.61-0.352,1.04,0.434,1.19
				c0.781,0.148,1.548,0.013,2.343-0.228c0.007,0.271-0.181,0.363-0.295,0.489c-1.136,1.25-2.344,2.436-3.364,3.788
				c-0.046,0.061-0.096,0.119-0.14,0.181c-0.664,0.941-0.563,1.228,0.567,1.487c0.346,0.079,0.394,0.216,0.249,0.514
				c-0.131,0.272-0.249,0.556-0.33,0.846c-0.197,0.708,0.217,1.301,0.949,1.365c0.204,0.018,0.417-0.005,0.621-0.039
				c0.187-0.03,0.374-0.08,0.547-0.155c1.771-0.771,3.509-1.636,5.146-2.641c1.796-1.104,2.897-2.925,4.012-4.676
				c1.637-2.572,2.902-5.338,4.153-8.108c0.377-0.834,0.314-1.747,0.25-2.64c-0.174-2.403-0.336-4.808-0.545-7.207
				c-0.182-2.099-0.441-4.189-0.63-6.286c-0.308-3.419-0.89-6.82-0.723-10.27c0.174-3.601,0.286-7.205,0.54-10.802
				c0.161-2.29,0.233-4.585,0.366-6.877c0.131-2.272,0.294-4.543,0.43-6.815c0.097-1.629,0.171-3.259,0.254-4.889
				c0.139-2.747,0.323-5.493,0.403-8.242c0.082-2.844,0.363-5.69,0.027-8.535c-0.028-0.242-0.089-0.487-0.174-0.715
				c-1.342-3.579-1.787-7.291-1.604-11.084c0.064-1.324,0.375-2.629,0.45-3.958c0.084-1.477,0.245-2.95,0.31-4.428
				c0.167-3.833,0.223-7.673,0.101-11.506c-0.103-3.239-0.209-6.495-1.01-9.665c-0.361-1.432-0.973-2.793-1.157-4.281
				c-0.225-1.81-0.33-3.627-0.431-5.445c-0.241-4.359-0.807-8.643-2.45-12.743c-2.53-6.312-7.234-10.059-13.669-11.828
				c-1.336-0.368-2.688-0.662-4.065-0.82c-0.187-0.021-0.367-0.094-0.55-0.143c0-0.342-0.134-0.817,0.037-0.988
				c0.171-0.171,0.646-0.038,0.988-0.038c8.302,0,16.604,0.003,24.905-0.01c0.416-0.001,0.528,0.08,0.528,0.519
				c-0.012,57.314-0.012,114.628-0.001,171.942c0,0.401-0.07,0.501-0.491,0.5c-8.473-0.017-16.945-0.017-25.418,0
				c-0.446,0.001-0.563-0.067-0.563-0.546C85.976,195.317,85.975,152.479,85.975,109.64z"/>
		</g>
	</g>
</g>
<g id="left_x5F_arm">
	<g>
		<g>
			<path fill-rule="evenodd" clip-rule="evenodd" d="M26.562,66.914c0,14.174,0,28.348,0,42.522
				c-0.892-0.113-1.026-0.048-1.451,0.733c-0.309,0.57-0.535,1.174-0.724,1.794c-1.087,3.583-1.614,7.266-1.803,10.989
				c-0.105,2.068-0.181,4.133-0.48,6.183c-0.502,3.445-1.162,6.861-2.41,10.122c-0.528,1.379-0.762,2.774-0.776,4.226
				c-0.03,3.059,0.246,6.106,0.36,9.16c0.063,1.687,0.173,3.373,0.242,5.06c0.131,3.189,0.226,6.385-0.223,9.554
				c-0.595,4.198-1.646,8.306-2.613,12.428c-1.037,4.419-2.189,8.81-3.063,13.267c-0.411,2.098-0.125,3.994,1.236,5.692
				c0.391,0.487,0.718,1.026,1.067,1.547c0.742,1.109,1.048,2.333,1.048,3.666c0.001,1.838-0.299,3.629-0.726,5.405
				c-0.094,0.392-0.146,0.772-0.093,1.18c0.162,1.242,0.319,2.485,0.432,3.732c0.085,0.944,0.128,1.897-0.087,2.836
				c-0.182,0.79-0.567,1.051-1.379,1.049c-0.621-0.001-0.977-0.363-1.277-0.82c-0.99-1.505-1.658-3.168-2.164-4.877
				c-0.318-1.075-0.901-1.718-1.945-2.067c-0.84-0.281-0.932-0.29-1.285,0.519c-0.796,1.822-0.356,3.967,1.111,5.535
				c1.581,1.689,3.48,2.994,5.273,4.429c0.563,0.451,1.142,0.889,1.604,1.449c0.433,0.524,0.298,0.962-0.354,1.157
				c-0.327,0.098-0.664,0.114-1.013,0.092c-0.437-0.028-0.856-0.238-1.321-0.164c0.061,0.269,0.254,0.379,0.387,0.534
				c1.147,1.34,2.458,2.542,3.446,4.019c0.435,0.65,0.273,1.108-0.5,1.215c-0.661,0.091-0.605,0.3-0.351,0.775
				c0.274,0.511,0.426,1.094,0.008,1.608c-0.427,0.526-1.01,0.432-1.579,0.278c-0.985-0.267-1.85-0.783-2.706-1.316
				c-0.371-0.23-0.734-0.464-1.165-0.584c-0.802-0.224-1.487-0.668-2.108-1.21c-0.936-0.815-1.738-1.751-2.456-2.761
				c-2.171-3.052-3.738-6.428-5.261-9.826c-0.091-0.203-0.146-0.438-0.154-0.66c-0.075-2.185,0.093-4.36,0.292-6.534
				c0.164-1.793,0.324-3.586,0.498-5.378c0.165-1.697,0.36-3.392,0.515-5.089c0.174-1.925,0.484-3.838,0.513-5.774
				c0.051-3.496-0.132-6.982-0.327-10.471c-0.152-2.727-0.286-5.455-0.463-8.18c-0.211-3.236-0.391-6.474-0.573-9.712
				c-0.161-2.841-0.34-5.682-0.449-8.524c-0.121-3.149-0.287-6.296-0.266-9.45c0.01-1.565,0.104-3.075,0.678-4.574
				c0.707-1.847,0.949-3.824,1.149-5.787c0.178-1.739,0.199-3.481-0.08-5.221c-0.162-1.009-0.273-2.029-0.348-3.049
				c-0.115-1.589-0.19-3.181-0.263-4.772c-0.118-2.561-0.233-5.125-0.175-7.687c0.068-3.053,0.076-6.112,0.432-9.152
				c0.189-1.621,0.345-3.258,0.948-4.785c0.708-1.794,0.949-3.668,1.09-5.559c0.188-2.533,0.266-5.073,0.568-7.599
				c0.367-3.071,1.084-6.043,2.337-8.878c1.27-2.873,2.989-5.409,5.491-7.366c2.354-1.842,5.022-3.035,7.877-3.854
				C22.656,67.441,24.614,67.206,26.562,66.914z"/>
			<path fill-rule="evenodd" clip-rule="evenodd" fill="none" d="M26.562,66.914c-1.948,0.292-3.906,0.527-5.809,1.073
				c-2.855,0.819-5.523,2.012-7.877,3.854c-2.501,1.957-4.221,4.493-5.491,7.366c-1.253,2.835-1.97,5.808-2.337,8.878
				c-0.302,2.526-0.379,5.066-0.568,7.599c-0.141,1.891-0.382,3.765-1.09,5.559c-0.603,1.527-0.758,3.165-0.948,4.785
				c-0.356,3.041-0.364,6.099-0.432,9.152c-0.058,2.562,0.057,5.126,0.175,7.687c0.073,1.591,0.148,3.183,0.263,4.772
				c0.074,1.02,0.186,2.04,0.348,3.049c0.279,1.74,0.258,3.482,0.08,5.221c-0.201,1.963-0.443,3.94-1.149,5.787
				c-0.573,1.5-0.667,3.009-0.678,4.574c-0.021,3.154,0.145,6.301,0.266,9.45c0.109,2.843,0.289,5.683,0.449,8.524
				c0.183,3.238,0.362,6.476,0.573,9.712c0.178,2.726,0.312,5.453,0.463,8.18c0.194,3.488,0.377,6.975,0.327,10.471
				c-0.028,1.937-0.338,3.85-0.513,5.774c-0.154,1.697-0.35,3.392-0.515,5.089c-0.174,1.792-0.334,3.585-0.498,5.378
				c-0.199,2.174-0.367,4.35-0.292,6.534c0.008,0.223,0.063,0.457,0.154,0.66c1.523,3.398,3.09,6.774,5.261,9.826
				c0.718,1.01,1.521,1.945,2.456,2.761c0.621,0.542,1.306,0.986,2.108,1.21c0.431,0.12,0.794,0.354,1.165,0.584
				c0.856,0.533,1.721,1.05,2.706,1.316c0.568,0.153,1.152,0.248,1.579-0.278c0.418-0.515,0.266-1.098-0.008-1.608
				c-0.254-0.476-0.31-0.685,0.351-0.775c0.774-0.106,0.936-0.564,0.5-1.215c-0.987-1.477-2.298-2.679-3.446-4.019
				c-0.133-0.155-0.326-0.266-0.387-0.534c0.464-0.074,0.884,0.136,1.321,0.164c0.349,0.022,0.686,0.006,1.013-0.092
				c0.652-0.195,0.787-0.633,0.354-1.157c-0.462-0.561-1.041-0.998-1.604-1.449c-1.793-1.435-3.693-2.739-5.273-4.429
				c-1.467-1.568-1.908-3.713-1.111-5.535c0.354-0.809,0.445-0.8,1.285-0.519c1.043,0.35,1.627,0.992,1.945,2.067
				c0.506,1.709,1.174,3.372,2.164,4.877c0.3,0.457,0.657,0.819,1.277,0.82c0.813,0.002,1.198-0.259,1.379-1.049
				c0.216-0.938,0.173-1.892,0.087-2.836c-0.113-1.247-0.27-2.49-0.432-3.732c-0.053-0.407-0.001-0.788,0.093-1.18
				c0.427-1.776,0.727-3.567,0.726-5.405c0-1.333-0.306-2.557-1.048-3.666c-0.349-0.521-0.676-1.06-1.067-1.547
				c-1.361-1.698-1.647-3.595-1.236-5.692c0.874-4.458,2.027-8.848,3.063-13.267c0.967-4.123,2.019-8.23,2.613-12.428
				c0.449-3.169,0.354-6.365,0.223-9.554c-0.069-1.688-0.179-3.373-0.242-5.06c-0.114-3.054-0.39-6.101-0.36-9.16
				c0.014-1.451,0.248-2.846,0.776-4.226c1.249-3.261,1.908-6.676,2.41-10.122c0.299-2.05,0.375-4.115,0.48-6.183
				c0.189-3.724,0.716-7.406,1.803-10.989c0.188-0.62,0.415-1.224,0.724-1.794c0.424-0.782,0.559-0.847,1.451-0.733
				c0,41.281-0.001,82.561,0.014,123.841c0,0.479-0.118,0.546-0.563,0.546c-8.473-0.017-16.945-0.017-25.418,0
				c-0.421,0.001-0.491-0.1-0.491-0.5c0.01-55.604,0.011-111.208-0.001-166.812c0-0.439,0.113-0.519,0.529-0.519
				c8.416,0.013,16.832,0.018,25.247-0.007c0.585-0.001,0.811,0.117,0.686,0.701C26.549,66.759,26.562,66.838,26.562,66.914z"/>
		</g>
	</g>
</g>
</svg>
